<?xml version="1.0" standalone="no"?>
<!DOCTYPE svg PUBLIC "-//W3C//DTD SVG 1.1//EN" "http://www.w3.org/Graphics/SVG/1.1/DTD/svg11.dtd" >
<svg xmlns="http://www.w3.org/2000/svg" xmlns:xlink="http://www.w3.org/1999/xlink" version="1.1">
<metadata></metadata>
<defs>
<font id="horizonregular" horiz-adv-x="1100" >
<font-face units-per-em="2048" ascent="1638" descent="-410" />
<missing-glyph horiz-adv-x="800" />
<glyph unicode="&#xd;" horiz-adv-x="120" />
<glyph unicode=" "  horiz-adv-x="800" />
<glyph unicode="&#x09;" horiz-adv-x="800" />
<glyph unicode="&#xa0;" horiz-adv-x="800" />
<glyph unicode="!" horiz-adv-x="500" d="M0 0v350h350v-350h-350zM0 500v900h350v-900h-350z" />
<glyph unicode="&#x22;" horiz-adv-x="900" d="M0 850v550h350l-99 -550h-251zM400 850v550h350l-99 -550h-251z" />
<glyph unicode="#" horiz-adv-x="1200" d="M0 300v350h100v150h-100v350h100v200h350v-200h150v200h350v-200h101v-350h-101v-150h101v-350h-101v-200h-350v200h-150v-200h-350v200h-100zM450 650h150v150h-150v-150z" />
<glyph unicode="$" d="M0 0v350h497q21 0 35.5 14.5t14.5 35.5q0 20 -13 34l-369 285q-115 116 -115 281q0 166 117 283q60 60 133 89v128h350v-100h300v-350h-500q-21 0 -35.5 -14.5t-14.5 -35.5q0 -20 13 -34l369 -285q115 -116 115 -281q0 -166 -117 -283q-59 -59 -130 -88v-129h-350v100 h-300z" />
<glyph unicode="%" horiz-adv-x="1450" d="M0 950q0 186 132 318t318 132q128 0 230 -62l20 62h350l-150 -468q-1 -17 -3 -34q156 -15 271 -130q132 -132 132 -318t-132 -318t-318 -132q-128 0 -230 62l-20 -62h-350l150 468q1 17 3 34q-156 15 -271 130q-132 132 -132 318zM350 950q0 -41 29.5 -70.5t70.5 -29.5 t70.5 29.5t29.5 70.5t-29.5 70.5t-70.5 29.5t-70.5 -29.5t-29.5 -70.5zM750 450q0 -41 29.5 -70.5t70.5 -29.5t70.5 29.5t29.5 70.5t-29.5 70.5t-70.5 29.5t-70.5 -29.5t-29.5 -70.5z" />
<glyph unicode="&#x26;" d="M-1 450h1q0 186 117 318q30 34 64 60q-25 68 -25 147q0 176 124.5 300.5t300.5 124.5h169v-350h-169q-31 0 -53 -22t-22 -53t94 -125l300 -300h-450q-41 0 -70.5 -29.5t-29.5 -70.5h-1q0 -41 29.5 -70.5t70.5 -29.5h500v-350h-550q-166 0 -283 132t-117 318z" />
<glyph unicode="'" horiz-adv-x="500" d="M0 850v550h350l-99 -550h-251z" />
<glyph unicode="(" horiz-adv-x="850" d="M0 500v350q0 290 205 495t495 205v-350q-145 0 -247.5 -102.5t-102.5 -246.5v-351q0 -145 102.5 -247.5t247.5 -102.5v-350q-290 0 -495 205t-205 495z" />
<glyph unicode=")" horiz-adv-x="850" d="M0 150q145 0 247.5 102.5t102.5 247.5v351q0 144 -102.5 246.5t-247.5 102.5v350q290 0 495 -205t205 -495v-350q0 -290 -205 -495t-495 -205v350z" />
<glyph unicode="*" d="M-7 1023l108 332l226 -102l-27 247h350l-27 -246l226 101l108 -332l-243 -50l167 -184l-283 -206l-123 216l-123 -216l-283 206l167 183z" />
<glyph unicode="+" d="M0 550v350h301v301h350v-301h300v-350h-300v-300h-350v300h-301z" />
<glyph unicode="," horiz-adv-x="500" d="M0 -200v550h350l-99 -550h-251z" />
<glyph unicode="-" d="M0 550v350h951v-350h-951z" />
<glyph unicode="." horiz-adv-x="500" d="M0 0v350h350v-350h-350z" />
<glyph unicode="/" horiz-adv-x="950" d="M0 0l450 1400h350l-450 -1400h-350z" />
<glyph unicode="0" horiz-adv-x="1250" d="M0 700q0 290 161 495t389 205t389 -205t161 -495t-161 -495t-389 -205t-389 205t-161 495zM350 700q0 -145 58.5 -247.5t141.5 -102.5t141.5 102.5t58.5 247.5t-58.5 247.5t-141.5 102.5t-141.5 -102.5t-58.5 -247.5z" />
<glyph unicode="1" horiz-adv-x="700" d="M0 1050l200 350h350v-1400h-350v1050h-200z" />
<glyph unicode="2" d="M0 0v350h950v-350h-950zM0 500q24 123 108 218q117 132 283 132h109q41 0 70.5 29.5t29.5 70.5t-29.5 70.5t-70.5 29.5h-500v350h550q166 0 283 -132t117 -318t-117 -318t-283 -132h-550z" />
<glyph unicode="3" horiz-adv-x="1076" d="M0 0v350h500q41 0 70.5 29.5t29.5 70.5t-29.5 70.5t-70.5 29.5h-450l250 350h250q166 0 283 -132t117 -318t-117 -318t-283 -132h-550zM0 1050v350h950l-250 -350h-700z" />
<glyph unicode="4" d="M0 500l550 900h400l-336 -550h336v-350h-950zM500 0v350h350v-350h-350z" />
<glyph unicode="5" d="M-1 550l1 350h550q166 0 283 -132t117 -318t-117 -318t-283 -132h-550v350h500q41 0 70.5 29.5t29.5 70.5t-29.5 70.5t-70.5 29.5h-501zM0 1050v350h950v-350h-950z" />
<glyph unicode="6" horiz-adv-x="1150" d="M0 500q0 125 102 303l348 597h350l-400 -700q-50 -75 -50 -200q0 -62 44 -106t106 -44t106 44t44 106q0 125 -50 200l-57 100h357q100 -176 100 -300q0 -207 -146.5 -353.5t-353.5 -146.5t-353.5 146.5t-146.5 353.5z" />
<glyph unicode="7" d="M0 0l386 900h350l-386 -900h-350zM0 1050v350h950l-150 -350h-800z" />
<glyph unicode="8" horiz-adv-x="1150" d="M0 500q0 87 74 200q-74 113 -74 200q0 207 146.5 353.5t353.5 146.5t353.5 -146.5t146.5 -353.5q0 -87 -75 -200q75 -113 75 -200q0 -207 -146.5 -353.5t-353.5 -146.5t-353.5 146.5t-146.5 353.5zM350 500q0 -62 44 -106t106 -44t106 44t44 106q0 55 -10 100 q-15 50 -65 75v50q50 25 65 75q10 45 10 100q0 62 -44 106t-106 44t-106 -44t-44 -106q0 -55 10 -100q15 -50 65 -75v-50q-50 -25 -65 -75q-10 -45 -10 -100z" />
<glyph unicode="9" horiz-adv-x="1150" d="M0 900q0 207 146.5 353.5t353.5 146.5t353.5 -146.5t146.5 -353.5q0 -125 -102 -303l-348 -597h-350l400 700q50 75 50 200q0 62 -44 106t-106 44t-106 -44t-44 -106q0 -125 50 -200l57 -100h-357q-100 176 -100 300z" />
<glyph unicode=":" horiz-adv-x="500" d="M0 0v350h350v-350h-350zM0 500v350h350v-350h-350z" />
<glyph unicode=";" horiz-adv-x="500" d="M0 -200v550h350l-99 -550h-251zM0 500v350h350v-350h-350z" />
<glyph unicode="&#x3c;" horiz-adv-x="1000" d="M0 675v100l450 475h400l-475 -525l475 -525h-400z" />
<glyph unicode="=" d="M0 300v350h951v-350h-951zM0 800v350h951v-350h-951z" />
<glyph unicode="&#x3e;" horiz-adv-x="1000" d="M0 200l475 525l-475 525h400l450 -475v-100l-450 -475h-400z" />
<glyph unicode="?" d="M0 1050v350h547q166 0 283 -117t117 -283q0 -135 -175 -291q-121 -75 -221 -209h-352q57 130 221 290l164 176q13 14 13 34q0 21 -14.5 35.5t-35.5 14.5h-547zM200 0v350h350v-350h-350z" />
<glyph unicode="@" horiz-adv-x="1200" d="M0 0v950q0 186 132 318t318 132h100q207 0 353.5 -146.5t146.5 -353.5v-800h-350v3q-24 -3 -50 -3q-166 0 -283 117q-9 9 -17 18v-235h-350zM350 765q8 9 17 18q117 117 283 117q26 0 50 -3v5q-1 61 -44 104q-44 44 -106 44h-100q-41 0 -70.5 -29.5t-29.5 -70.5v-185z M600 500q0 -21 14.5 -35.5t35.5 -14.5t35.5 14.5t14.5 35.5t-14.5 35.5t-35.5 14.5t-35.5 -14.5t-14.5 -35.5z" />
<glyph unicode="A" horiz-adv-x="1400" d="M0 0l239 900h368l-126 -550h282l-263 1050h350l400 -1400h-1250z" />
<glyph unicode="B" d="M-1 550l1 350h525q31 0 53 22t22 53t-22 53t-53 22h-525v350h575q155 0 265 -124.5t110 -300.5q0 -147 -77 -259q77 -115 77 -266q0 -186 -117 -318t-283 -132h-550v350h500q41 0 70.5 29.5t29.5 70.5t-29.5 70.5t-70.5 29.5h-501z" />
<glyph unicode="C" d="M0 700q0 290 205 495t495 205h250v-350h-250q-145 0 -247.5 -102.5t-102.5 -247.5t102.5 -247.5t247.5 -102.5h250v-350h-250q-290 0 -495 205t-205 495z" />
<glyph unicode="D" horiz-adv-x="1200" d="M0 0v900h350v-550q145 0 247.5 102.5t102.5 247.5t-102.5 247.5t-247.5 102.5h-350v350h350q290 0 495 -205t205 -495t-205 -495t-495 -205h-350z" />
<glyph unicode="E" d="M0 0v900h951v-350h-601v-200h601v-350h-951zM0 1050v350h951v-350h-951z" />
<glyph unicode="F" d="M0 0v900h951v-350h-601v-550h-350zM0 1050v350h951v-350h-951z" />
<glyph unicode="G" horiz-adv-x="1200" d="M0 700q0 290 205 495t495 205h350v-350h-350q-145 0 -247.5 -102.5t-102.5 -247.5t102.5 -247.5t247.5 -102.5q101 0 182 50h168v-308q-156 -92 -350 -92q-290 0 -495 205t-205 495zM650 550v350h400v-350h-400z" />
<glyph unicode="H" d="M0 0v1400h350v-500l601 1v-351h-601v-550h-350z" />
<glyph unicode="I" horiz-adv-x="500" d="M0 0v1400h350v-1400h-350z" />
<glyph unicode="J" horiz-adv-x="800" d="M0 0v350h200q41 0 70.5 29.5t29.5 70.5v950h350v-950q0 -186 -132 -318t-318 -132v1z" />
<glyph unicode="K" d="M0 575v250l600 575h400l-650 -700l650 -700h-400z" />
<glyph unicode="L" d="M0 0v1400h350v-1050h601v-350h-951z" />
<glyph unicode="M" horiz-adv-x="1600" d="M0 0v1400l1000 -1v1q186 0 318 -132t132 -318v-950h-350v950q0 41 -29.5 70.5t-70.5 29.5h-650v-1050h-350zM550 0v900h350v-900h-350z" />
<glyph unicode="N" horiz-adv-x="1150" d="M0 0v1400l550 -1v1q186 0 318 -132t132 -318v-950h-350v950q0 41 -29.5 70.5t-70.5 29.5h-200v-1050h-350z" />
<glyph unicode="O" horiz-adv-x="1550" d="M0 700q0 290 205 495t495 205t495 -205t205 -495t-205 -495t-495 -205t-495 205t-205 495zM350 700q0 -145 102.5 -247.5t247.5 -102.5t247.5 102.5t102.5 247.5t-102.5 247.5t-247.5 102.5t-247.5 -102.5t-102.5 -247.5z" />
<glyph unicode="P" d="M-1 850h501q41 0 70.5 29.5t29.5 70.5t-29.5 70.5t-70.5 29.5h-500v350h550q166 0 283 -132t117 -318t-117 -318t-283 -132h-200v-500h-350z" />
<glyph unicode="Q" horiz-adv-x="1550" d="M0 700q0 290 205 495t495 205t495 -205t205 -495q0 -227 -125 -402l-249 273q24 59 24 129q0 145 -102.5 247.5t-247.5 102.5t-247.5 -102.5t-102.5 -247.5t102.5 -247.5t247.5 -102.5q16 0 31 1l-181 199h400l500 -550h-400l-56 62q-134 -62 -294 -62q-290 0 -495 205 t-205 495z" />
<glyph unicode="R" d="M-1 850h501q41 0 70.5 29.5t29.5 70.5t-29.5 70.5t-70.5 29.5h-500v350h550q166 0 283 -132t117 -318q0 -156 -83 -274q84 -119 84 -276l-1 -400h-350v400q0 41 -29.5 70.5t-70.5 29.5h-500z" />
<glyph unicode="S" d="M0 0v350h547q21 0 35.5 14.5t14.5 35.5q0 20 -13 34l-184 176q-350 320 -350 690v100h350v-100q0 -210 190 -390l242 -229q115 -116 115 -281q0 -166 -117 -283t-283 -117h-547z" />
<glyph unicode="T" horiz-adv-x="1150" d="M0 450v450h350v-450q0 -41 29.5 -70.5t70.5 -29.5h550v-350l-550 1v-1q-186 0 -318 132t-132 318zM0 1050v350h1000v-350h-1000z" />
<glyph unicode="U" horiz-adv-x="1150" d="M0 450v950h350v-950q0 -41 29.5 -70.5t70.5 -29.5h200v1050h350v-1400l-550 1v-1q-186 0 -318 132t-132 318z" />
<glyph unicode="V" horiz-adv-x="1400" d="M0 1400h350l275 -856l275 856h350l-450 -1400h-350z" />
<glyph unicode="W" horiz-adv-x="1700" d="M0 1400h350l400 -1000l-200 -400zM600 1000l200 400l200 -500l200 500h350l-550 -1400z" />
<glyph unicode="X" horiz-adv-x="1200" d="M0 0v350q145 0 247.5 102.5t102.5 247.5t-102.5 247.5t-247.5 102.5v350q290 0 495 -205q16 -16 30 -32q14 16 30 32q205 205 495 205v-350q-145 0 -247.5 -102.5t-102.5 -247.5t102.5 -247.5t247.5 -102.5v-350q-290 0 -495 205q-16 16 -30 32q-14 -16 -30 -32 q-205 -205 -495 -205z" />
<glyph unicode="Y" horiz-adv-x="1150" d="M0 1000v400h350v-400q0 -62 44 -106t106 -44t106 44t44 106v400h350v-400q0 -207 -146.5 -353.5t-353.5 -146.5t-353.5 146.5t-146.5 353.5zM150 0v350h700v-350h-700z" />
<glyph unicode="Z" d="M0 0l386 900h350l-236 -550h450v-350h-950zM0 1050v350h950l-150 -350h-800z" />
<glyph unicode="[" horiz-adv-x="850" d="M0 -200v1750h700v-350h-350v-1050h350v-350h-700z" />
<glyph unicode="\" horiz-adv-x="950" d="M0 1400h350l450 -1400h-350z" />
<glyph unicode="]" horiz-adv-x="850" d="M0 150h350v1050h-350v350h700v-1750h-700v350z" />
<glyph unicode="^" horiz-adv-x="900" d="M0 1550v350l350 150h50l350 -150v-350l-350 150h-50z" />
<glyph unicode="_" d="M0 -150h951v-350h-951v350z" />
<glyph unicode="`" horiz-adv-x="600" d="M0 1900h350l100 -350h-250z" />
<glyph unicode="a" horiz-adv-x="1400" d="M0 0l239 900h368l-126 -550h282l-263 1050h350l400 -1400h-1250z" />
<glyph unicode="b" d="M-1 550l1 350h525q31 0 53 22t22 53t-22 53t-53 22h-525v350h575q155 0 265 -124.5t110 -300.5q0 -147 -77 -259q77 -115 77 -266q0 -186 -117 -318t-283 -132h-550v350h500q41 0 70.5 29.5t29.5 70.5t-29.5 70.5t-70.5 29.5h-501z" />
<glyph unicode="c" d="M0 700q0 290 205 495t495 205h250v-350h-250q-145 0 -247.5 -102.5t-102.5 -247.5t102.5 -247.5t247.5 -102.5h250v-350h-250q-290 0 -495 205t-205 495z" />
<glyph unicode="d" horiz-adv-x="1200" d="M0 0v900h350v-550q145 0 247.5 102.5t102.5 247.5t-102.5 247.5t-247.5 102.5h-350v350h350q290 0 495 -205t205 -495t-205 -495t-495 -205h-350z" />
<glyph unicode="e" d="M0 0v900h951v-350h-601v-200h601v-350h-951zM0 1050v350h951v-350h-951z" />
<glyph unicode="f" d="M0 0v900h951v-350h-601v-550h-350zM0 1050v350h951v-350h-951z" />
<glyph unicode="g" horiz-adv-x="1200" d="M0 700q0 290 205 495t495 205h350v-350h-350q-145 0 -247.5 -102.5t-102.5 -247.5t102.5 -247.5t247.5 -102.5q101 0 182 50h168v-308q-156 -92 -350 -92q-290 0 -495 205t-205 495zM650 550v350h400v-350h-400z" />
<glyph unicode="h" d="M0 0v1400h350v-500l601 1v-351h-601v-550h-350z" />
<glyph unicode="i" horiz-adv-x="500" d="M0 0v1400h350v-1400h-350z" />
<glyph unicode="j" horiz-adv-x="800" d="M0 0v350h200q41 0 70.5 29.5t29.5 70.5v950h350v-950q0 -186 -132 -318t-318 -132v1z" />
<glyph unicode="k" d="M0 575v250l600 575h400l-650 -700l650 -700h-400z" />
<glyph unicode="l" d="M0 0v1400h350v-1050h601v-350h-951z" />
<glyph unicode="m" horiz-adv-x="1600" d="M0 0v1400l1000 -1v1q186 0 318 -132t132 -318v-950h-350v950q0 41 -29.5 70.5t-70.5 29.5h-650v-1050h-350zM550 0v900h350v-900h-350z" />
<glyph unicode="n" horiz-adv-x="1150" d="M0 0v1400l550 -1v1q186 0 318 -132t132 -318v-950h-350v950q0 41 -29.5 70.5t-70.5 29.5h-200v-1050h-350z" />
<glyph unicode="o" horiz-adv-x="1550" d="M0 700q0 290 205 495t495 205t495 -205t205 -495t-205 -495t-495 -205t-495 205t-205 495zM350 700q0 -145 102.5 -247.5t247.5 -102.5t247.5 102.5t102.5 247.5t-102.5 247.5t-247.5 102.5t-247.5 -102.5t-102.5 -247.5z" />
<glyph unicode="p" d="M-1 850h501q41 0 70.5 29.5t29.5 70.5t-29.5 70.5t-70.5 29.5h-500v350h550q166 0 283 -132t117 -318t-117 -318t-283 -132h-200v-500h-350z" />
<glyph unicode="q" horiz-adv-x="1550" d="M0 700q0 290 205 495t495 205t495 -205t205 -495q0 -227 -125 -402l-249 273q24 59 24 129q0 145 -102.5 247.5t-247.5 102.5t-247.5 -102.5t-102.5 -247.5t102.5 -247.5t247.5 -102.5q16 0 31 1l-181 199h400l500 -550h-400l-56 62q-134 -62 -294 -62q-290 0 -495 205 t-205 495z" />
<glyph unicode="r" d="M-1 850h501q41 0 70.5 29.5t29.5 70.5t-29.5 70.5t-70.5 29.5h-500v350h550q166 0 283 -132t117 -318q0 -156 -83 -274q84 -119 84 -276l-1 -400h-350v400q0 41 -29.5 70.5t-70.5 29.5h-500z" />
<glyph unicode="s" d="M0 0v350h547q21 0 35.5 14.5t14.5 35.5q0 20 -13 34l-184 176q-350 320 -350 690v100h350v-100q0 -210 190 -390l242 -229q115 -116 115 -281q0 -166 -117 -283t-283 -117h-547z" />
<glyph unicode="t" horiz-adv-x="1150" d="M0 450v450h350v-450q0 -41 29.5 -70.5t70.5 -29.5h550v-350l-550 1v-1q-186 0 -318 132t-132 318zM0 1050v350h1000v-350h-1000z" />
<glyph unicode="u" horiz-adv-x="1150" d="M0 450v950h350v-950q0 -41 29.5 -70.5t70.5 -29.5h200v1050h350v-1400l-550 1v-1q-186 0 -318 132t-132 318z" />
<glyph unicode="v" horiz-adv-x="1400" d="M0 1400h350l275 -856l275 856h350l-450 -1400h-350z" />
<glyph unicode="w" horiz-adv-x="1700" d="M0 1400h350l400 -1000l-200 -400zM600 1000l200 400l200 -500l200 500h350l-550 -1400z" />
<glyph unicode="x" horiz-adv-x="1200" d="M0 0v350q145 0 247.5 102.5t102.5 247.5t-102.5 247.5t-247.5 102.5v350q290 0 495 -205q16 -16 30 -32q14 16 30 32q205 205 495 205v-350q-145 0 -247.5 -102.5t-102.5 -247.5t102.5 -247.5t247.5 -102.5v-350q-290 0 -495 205q-16 16 -30 32q-14 -16 -30 -32 q-205 -205 -495 -205z" />
<glyph unicode="y" horiz-adv-x="1150" d="M0 1000v400h350v-400q0 -62 44 -106t106 -44t106 44t44 106v400h350v-400q0 -207 -146.5 -353.5t-353.5 -146.5t-353.5 146.5t-146.5 353.5zM150 0v350h700v-350h-700z" />
<glyph unicode="z" d="M0 0l386 900h350l-236 -550h450v-350h-950zM0 1050v350h950l-150 -350h-800z" />
<glyph unicode="{" horiz-adv-x="850" d="M0 500v350h50q41 0 70.5 29.5t29.5 70.5v150q0 186 132 318t318 132h100v-350h-100q-41 0 -70.5 -29.5t-29.5 -70.5v-150q0 -157 -94 -275q94 -118 94 -275v-150q0 -41 29.5 -70.5t70.5 -29.5h100v-350h-100q-186 0 -318 132t-132 318v150q0 41 -29.5 70.5t-70.5 29.5 h-50z" />
<glyph unicode="|" horiz-adv-x="500" d="M0 -200v1750h350v-1750h-350z" />
<glyph unicode="}" horiz-adv-x="850" d="M0 150h100q41 0 70.5 29.5t29.5 70.5v150q0 157 94 275q-94 118 -94 275v150q0 41 -29.5 70.5t-70.5 29.5h-100v350h100q186 0 318 -132t132 -318v-150q0 -41 29.5 -70.5t70.5 -29.5h50v-350h-50q-41 0 -70.5 -29.5t-29.5 -70.5v-150q0 -186 -132 -318t-318 -132h-100 v350z" />
<glyph unicode="~" horiz-adv-x="900" d="M0 1550v350q100 100 200 100t175 -25t175 -25t200 100v-350q-100 -100 -200 -100t-175 25t-175 25t-200 -100z" />
<glyph unicode="&#xa1;" horiz-adv-x="500" d="M0 0v900h350v-900h-350zM0 1050v350h350v-350h-350z" />
<glyph unicode="&#xa2;" horiz-adv-x="1000" d="M0 700q0 249 176 425q79 79 174 123v152h350v-100h150v-350h-250q-104 0 -177 -73t-73 -177t73 -177t177 -73h250v-350h-150v-100h-350v152q-95 44 -174 124q-176 175 -176 424z" />
<glyph unicode="&#xa3;" horiz-adv-x="1150" d="M0 0v350h1000v-350h-1000zM0 500v350h150v100q0 186 132 318t318 132v-1l400 1v-350h-400q-41 0 -70.5 -29.5t-29.5 -70.5v-100h350v-350h-850z" />
<glyph unicode="&#xa4;" d="M0 150l142 272q-117 128 -117 303t117 303l-142 272h350l67 -128q28 3 58 3t58 -3l67 128h350l-142 -272q117 -128 117 -303t-117 -303l142 -272h-350l-67 128q-28 -3 -58 -3t-58 3l-67 -128h-350zM375 725q0 -41 29.5 -70.5t70.5 -29.5t70.5 29.5t29.5 70.5t-29.5 70.5 t-70.5 29.5t-70.5 -29.5t-29.5 -70.5z" />
<glyph unicode="&#xa5;" horiz-adv-x="1150" d="M0 1150v250h350v-250q0 -62 44 -106t106 -44t106 44t44 106v250h350v-250q0 -207 -146.5 -353.5t-353.5 -146.5t-353.5 146.5t-146.5 353.5zM150 150v350h700v-350h-175v-150h-350v150h-175z" />
<glyph unicode="&#xa6;" horiz-adv-x="500" d="M0 -200v800h350v-800h-350zM0 750v800h350v-800h-350z" />
<glyph unicode="&#xa7;" d="M0 -100v350h475q-186 0 -318 132t-132 318q0 127 62 229q-37 78 -37 171q0 166 117 283t283 117h500v-350h-475q186 0 318 -132t132 -318q0 -129 -63 -232q35 -76 35 -168q0 -166 -117 -283t-283 -117h-497zM375 700q0 -41 29.5 -70.5t70.5 -29.5t70.5 29.5t29.5 70.5 t-29.5 70.5t-70.5 29.5t-70.5 -29.5t-29.5 -70.5z" />
<glyph unicode="&#xa8;" horiz-adv-x="1000" d="M0 1550v350h350v-350h-350zM500 1550v350h350v-350h-350z" />
<glyph unicode="&#xa9;" horiz-adv-x="1000" d="M0 1050q0 207 124.5 353.5t300.5 146.5t300.5 -146.5t124.5 -353.5t-124.5 -353.5t-300.5 -146.5t-300.5 146.5t-124.5 353.5zM50 1050q0 -186 110 -318t265 -132t265 132t110 318t-110 318t-265 132t-265 -132t-110 -318zM125 1050q0 145 102.5 247.5t247.5 102.5h125 v-175h-125q-72 0 -123.5 -51t-51.5 -124q0 -72 51.5 -123.5t123.5 -51.5h125v-175h-125q-145 0 -247.5 102.5t-102.5 247.5z" />
<glyph unicode="&#xaa;" horiz-adv-x="1700" d="M0 200v1100q0 200 200 200h1100q200 0 200 -200v-1100q0 -200 -200 -200h-1100q-200 0 -200 200zM25 200q1 -175 175 -175h1101q174 0 174 176v1099q0 175 -175 175h-1100q-174 0 -175 -175v-1100z" />
<glyph unicode="&#xab;" horiz-adv-x="1550" d="M0 675v100l450 475h400l-475 -525l475 -525h-400zM550 675v100l450 475h400l-475 -525l475 -525h-400z" />
<glyph unicode="&#xac;" horiz-adv-x="1700" d="M0 200v1100q0 200 200 200h1100q200 0 200 -200v-1100q0 -200 -200 -200h-1100q-200 0 -200 200zM25 200q1 -175 175 -175h1101q174 0 174 176v1099q0 175 -175 175h-1100q-174 0 -175 -175v-1100z" />
<glyph unicode="&#xad;" d="M0 550v350h951v-350h-951z" />
<glyph unicode="&#xae;" horiz-adv-x="975" d="M0 1050q0 207 124.5 353.5t300.5 146.5t300.5 -146.5t124.5 -353.5t-124.5 -353.5t-300.5 -146.5t-300.5 146.5t-124.5 353.5zM50 1050q0 -186 110 -318t265 -132q135 0 236 100h-162v200q0 21 -14.5 35.5t-35.5 14.5h-250v175h250q21 0 35.5 15t14.5 35q0 21 -14.5 35.5 t-35.5 14.5h-250v175h275q83 0 141.5 -66t58.5 -159q0 -78 -41 -137q42 -59 42 -138l-1 -186l16 18q110 132 110 318t-110 318t-265 132t-265 -132t-110 -318z" />
<glyph unicode="&#xaf;" horiz-adv-x="1700" d="M0 200v1100q0 200 200 200h1100q200 0 200 -200v-1100q0 -200 -200 -200h-1100q-200 0 -200 200zM25 200q1 -175 175 -175h1101q174 0 174 176v1099q0 175 -175 175h-1100q-174 0 -175 -175v-1100z" />
<glyph unicode="&#xb0;" horiz-adv-x="550" d="M0 1800q0 104 58.5 177t141.5 73t141.5 -73t58.5 -177t-58.5 -177t-141.5 -73t-141.5 73t-58.5 177z" />
<glyph unicode="&#xb1;" horiz-adv-x="1700" d="M0 200v1100q0 200 200 200h1100q200 0 200 -200v-1100q0 -200 -200 -200h-1100q-200 0 -200 200zM25 200q1 -175 175 -175h1101q174 0 174 176v1099q0 175 -175 175h-1100q-174 0 -175 -175v-1100z" />
<glyph unicode="&#xb2;" horiz-adv-x="1700" d="M0 200v1100q0 200 200 200h1100q200 0 200 -200v-1100q0 -200 -200 -200h-1100q-200 0 -200 200zM25 200q1 -175 175 -175h1101q174 0 174 176v1099q0 175 -175 175h-1100q-174 0 -175 -175v-1100z" />
<glyph unicode="&#xb3;" horiz-adv-x="1700" d="M0 200v1100q0 200 200 200h1100q200 0 200 -200v-1100q0 -200 -200 -200h-1100q-200 0 -200 200zM25 200q1 -175 175 -175h1101q174 0 174 176v1099q0 175 -175 175h-1100q-174 0 -175 -175v-1100z" />
<glyph unicode="&#xb4;" horiz-adv-x="600" d="M0 1550l100 350h350l-200 -350h-250z" />
<glyph unicode="&#xb5;" horiz-adv-x="1150" d="M0 -200v1600h350v-1050h200q41 0 70.5 29.5t29.5 70.5v950h350v-950q0 -186 -132 -318t-318 -132v1h-201l1 -1v-200h-350z" />
<glyph unicode="&#xb6;" horiz-adv-x="678" d="M56 1086q0 157 64.5 253t171.5 96h265v-70h-76v-1365h-49v1365h-100v-1365h-50v738q-104 8 -165 102.5t-61 245.5z" />
<glyph unicode="&#xb7;" horiz-adv-x="500" d="M0 500v350h350v-350h-350z" />
<glyph unicode="&#xb8;" horiz-adv-x="800" d="M0 -150h200q41 0 70.5 29.5t29.5 70.5v400h350v-400q0 -186 -132 -318t-318 -132v1l-200 -1v350z" />
<glyph unicode="&#xb9;" horiz-adv-x="1700" d="M0 200v1100q0 200 200 200h1100q200 0 200 -200v-1100q0 -200 -200 -200h-1100q-200 0 -200 200zM25 200q1 -175 175 -175h1101q174 0 174 176v1099q0 175 -175 175h-1100q-174 0 -175 -175v-1100z" />
<glyph unicode="&#xba;" horiz-adv-x="1700" d="M0 200v1100q0 200 200 200h1100q200 0 200 -200v-1100q0 -200 -200 -200h-1100q-200 0 -200 200zM25 200q1 -175 175 -175h1101q174 0 174 176v1099q0 175 -175 175h-1100q-174 0 -175 -175v-1100z" />
<glyph unicode="&#xbb;" horiz-adv-x="1550" d="M0 200l475 525l-475 525h400l450 -475v-100l-450 -475h-400zM550 200l475 525l-475 525h400l450 -475v-100l-450 -475h-400z" />
<glyph unicode="&#xbc;" horiz-adv-x="1700" d="M0 200v1100q0 200 200 200h1100q200 0 200 -200v-1100q0 -200 -200 -200h-1100q-200 0 -200 200zM25 200q1 -175 175 -175h1101q174 0 174 176v1099q0 175 -175 175h-1100q-174 0 -175 -175v-1100z" />
<glyph unicode="&#xbd;" horiz-adv-x="1700" d="M0 200v1100q0 200 200 200h1100q200 0 200 -200v-1100q0 -200 -200 -200h-1100q-200 0 -200 200zM25 200q1 -175 175 -175h1101q174 0 174 176v1099q0 175 -175 175h-1100q-174 0 -175 -175v-1100z" />
<glyph unicode="&#xbe;" horiz-adv-x="1700" d="M0 200v1100q0 200 200 200h1100q200 0 200 -200v-1100q0 -200 -200 -200h-1100q-200 0 -200 200zM25 200q1 -175 175 -175h1101q174 0 174 176v1099q0 175 -175 175h-1100q-174 0 -175 -175v-1100z" />
<glyph unicode="&#xbf;" d="M0 400q0 135 175 291q121 75 221 209h352q-57 -130 -221 -290l-164 -176q-13 -14 -13 -34q0 -21 14.5 -35.5t35.5 -14.5h547v-350h-547q-166 0 -283 117t-117 283zM397 1050v350h350v-350h-350z" />
<glyph unicode="&#xc0;" horiz-adv-x="1400" d="M0 0l239 900h368l-126 -550h282l-263 1050h350l400 -1400h-1250zM400 1900h350l100 -350h-250z" />
<glyph unicode="&#xc1;" horiz-adv-x="1400" d="M0 0l239 900h368l-126 -550h282l-263 1050h350l400 -1400h-1250zM400 1550l100 350h350l-200 -350h-250z" />
<glyph unicode="&#xc2;" horiz-adv-x="1400" d="M0 0l239 900h368l-126 -550h282l-263 1050h350l400 -1400h-1250zM250 1550v350l350 150h50l350 -150v-350l-350 150h-50z" />
<glyph unicode="&#xc3;" horiz-adv-x="1400" d="M0 0l239 900h368l-126 -550h282l-263 1050h350l400 -1400h-1250zM250 1550v350q100 100 200 100t175 -25t175 -25t200 100v-350q-100 -100 -200 -100t-175 25t-175 25t-200 -100z" />
<glyph unicode="&#xc4;" horiz-adv-x="1400" d="M0 0l239 900h368l-126 -550h282l-263 1050h350l400 -1400h-1250zM200 1550v350h350v-350h-350zM700 1550v350h350v-350h-350z" />
<glyph unicode="&#xc5;" horiz-adv-x="1400" d="M0 0l239 900h368l-126 -550h282l-263 1050h350l400 -1400h-1250zM425 1800q0 104 58.5 177t141.5 73t141.5 -73t58.5 -177t-58.5 -177t-141.5 -73t-141.5 73t-58.5 177z" />
<glyph unicode="&#xc6;" horiz-adv-x="1850" d="M0 0l239 900h368l-126 -550h269v52l-250 998h1201v-350h-751l43 -150h708v-350h-601v-25l50 -175h551v-350h-1701z" />
<glyph unicode="&#xc7;" d="M0 700q0 290 205 495t495 205h250v-350h-250q-145 0 -247.5 -102.5t-102.5 -247.5t102.5 -247.5t247.5 -102.5h250v-350h-150v-50q0 -186 -132 -318t-318 -132v1l-200 -1v350h200q41 0 70.5 29.5t29.5 70.5v94q-135 51 -245 161q-205 205 -205 495z" />
<glyph unicode="&#xc8;" d="M0 0v900h951v-350h-601v-200h601v-350h-951zM0 1050v350h951v-350h-951zM250 1900h350l100 -350h-250z" />
<glyph unicode="&#xc9;" d="M0 0v900h951v-350h-601v-200h601v-350h-951zM0 1050v350h951v-350h-951zM250 1550l100 350h350l-200 -350h-250z" />
<glyph unicode="&#xca;" d="M0 0v900h951v-350h-601v-200h601v-350h-951zM0 1050v350h951v-350h-951zM100 1550v350l350 150h50l350 -150v-350l-350 150h-50z" />
<glyph unicode="&#xcb;" d="M0 0v900h951v-350h-601v-200h601v-350h-951zM0 1050v350h951v-350h-951zM50 1550v350h350v-350h-350zM550 1550v350h350v-350h-350z" />
<glyph unicode="&#xcc;" horiz-adv-x="500" d="M-50 1900h350l100 -350h-250zM0 0v1400h350v-1400h-350z" />
<glyph unicode="&#xcd;" horiz-adv-x="500" d="M-50 1550l100 350h350l-200 -350h-250zM0 0v1400h350v-1400h-350z" />
<glyph unicode="&#xce;" horiz-adv-x="500" d="M-200 1550v350l350 150h50l350 -150v-350l-350 150h-50zM0 0v1400h350v-1400h-350z" />
<glyph unicode="&#xcf;" horiz-adv-x="500" d="M-250 1550v350h350v-350h-350zM0 0v1400h350v-1400h-350zM250 1550v350h350v-350h-350z" />
<glyph unicode="&#xd0;" horiz-adv-x="1200" d="M0 0v900h500v-350h-150v-200q145 0 247.5 102.5t102.5 247.5t-102.5 247.5t-247.5 102.5h-350v350h350q290 0 495 -205t205 -495t-205 -495t-495 -205h-350z" />
<glyph unicode="&#xd1;" horiz-adv-x="1150" d="M0 0v1400l550 -1v1q186 0 318 -132t132 -318v-950h-350v950q0 41 -29.5 70.5t-70.5 29.5h-200v-1050h-350zM125 1550v350q100 100 200 100t175 -25t175 -25t200 100v-350q-100 -100 -200 -100t-175 25t-175 25t-200 -100z" />
<glyph unicode="&#xd2;" horiz-adv-x="1550" d="M0 700q0 290 205 495t495 205t495 -205t205 -495t-205 -495t-495 -205t-495 205t-205 495zM350 700q0 -145 102.5 -247.5t247.5 -102.5t247.5 102.5t102.5 247.5t-102.5 247.5t-247.5 102.5t-247.5 -102.5t-102.5 -247.5zM475 1900h350l100 -350h-250z" />
<glyph unicode="&#xd3;" horiz-adv-x="1550" d="M0 700q0 290 205 495t495 205t495 -205t205 -495t-205 -495t-495 -205t-495 205t-205 495zM350 700q0 -145 102.5 -247.5t247.5 -102.5t247.5 102.5t102.5 247.5t-102.5 247.5t-247.5 102.5t-247.5 -102.5t-102.5 -247.5zM475 1550l100 350h350l-200 -350h-250z" />
<glyph unicode="&#xd4;" horiz-adv-x="1550" d="M0 700q0 290 205 495t495 205t495 -205t205 -495t-205 -495t-495 -205t-495 205t-205 495zM325 1550v350l350 150h50l350 -150v-350l-350 150h-50zM350 700q0 -145 102.5 -247.5t247.5 -102.5t247.5 102.5t102.5 247.5t-102.5 247.5t-247.5 102.5t-247.5 -102.5 t-102.5 -247.5z" />
<glyph unicode="&#xd5;" horiz-adv-x="1550" d="M0 700q0 290 205 495t495 205t495 -205t205 -495t-205 -495t-495 -205t-495 205t-205 495zM325 1550v350q100 100 200 100t175 -25t175 -25t200 100v-350q-100 -100 -200 -100t-175 25t-175 25t-200 -100zM350 700q0 -145 102.5 -247.5t247.5 -102.5t247.5 102.5 t102.5 247.5t-102.5 247.5t-247.5 102.5t-247.5 -102.5t-102.5 -247.5z" />
<glyph unicode="&#xd6;" horiz-adv-x="1550" d="M0 700q0 290 205 495t495 205t495 -205t205 -495t-205 -495t-495 -205t-495 205t-205 495zM275 1550v350h350v-350h-350zM350 700q0 -145 102.5 -247.5t247.5 -102.5t247.5 102.5t102.5 247.5t-102.5 247.5t-247.5 102.5t-247.5 -102.5t-102.5 -247.5zM775 1550v350h350 v-350h-350z" />
<glyph unicode="&#xd7;" d="M0 150l300 575l-300 575h350l125 -240l125 240h350l-300 -575l300 -575h-350l-125 240l-125 -240h-350z" />
<glyph unicode="&#xd8;" horiz-adv-x="1550" d="M0 0l172 240q-172 195 -172 460q0 290 205 495t495 205q143 0 265 -50l35 50h400l-172 -240q172 -195 172 -460q0 -290 -205 -495t-495 -205q-143 0 -265 50l-35 -50h-400zM350 700q0 -145 102.5 -247.5t247.5 -102.5t247.5 102.5t102.5 247.5t-102.5 247.5t-247.5 102.5 t-247.5 -102.5t-102.5 -247.5z" />
<glyph unicode="&#xd9;" horiz-adv-x="1150" d="M0 450v950h350v-950q0 -41 29.5 -70.5t70.5 -29.5h200v1050h350v-1400l-550 1v-1q-186 0 -318 132t-132 318zM275 1900h350l100 -350h-250z" />
<glyph unicode="&#xda;" horiz-adv-x="1150" d="M0 450v950h350v-950q0 -41 29.5 -70.5t70.5 -29.5h200v1050h350v-1400l-550 1v-1q-186 0 -318 132t-132 318zM275 1550l100 350h350l-200 -350h-250z" />
<glyph unicode="&#xdb;" horiz-adv-x="1150" d="M0 450v950h350v-950q0 -41 29.5 -70.5t70.5 -29.5h200v1050h350v-1400l-550 1v-1q-186 0 -318 132t-132 318zM125 1550v350l350 150h50l350 -150v-350l-350 150h-50z" />
<glyph unicode="&#xdc;" horiz-adv-x="1150" d="M0 450v950h350v-950q0 -41 29.5 -70.5t70.5 -29.5h200v1050h350v-1400l-550 1v-1q-186 0 -318 132t-132 318zM50 1550v350h350v-350h-350zM550 1550v350h350v-350h-350z" />
<glyph unicode="&#xdd;" horiz-adv-x="1150" d="M0 950v450h350v-450q0 -41 29.5 -70.5t70.5 -29.5h100q41 0 70.5 29.5t29.5 70.5v450h350v-450q0 -186 -132 -318t-318 -132h-100q-186 0 -318 132t-132 318zM150 0v350h700v-350h-700zM275 1550l100 350h350l-200 -350h-250z" />
<glyph unicode="&#xde;" d="M-1 600h501q41 0 70.5 29.5t29.5 70.5t-29.5 70.5t-70.5 29.5h-500v600h350v-250h200q166 0 283 -132t117 -318t-117 -318t-283 -132h-200v-250h-350z" />
<glyph unicode="&#xdf;" d="M0 0v975q0 176 110 300.5t265 124.5h200q155 0 265 -124.5t110 -300.5q0 -147 -77 -259q77 -115 77 -266q0 -186 -117 -318t-283 -132h-50v350q41 0 70.5 29.5t29.5 70.5t-29.5 70.5t-70.5 29.5v350h25q31 0 53 22t22 53t-22 53t-53 22h-100q-31 0 -53 -22t-22 -53v-975 h-350z" />
<glyph unicode="&#xe0;" horiz-adv-x="1400" d="M0 0l239 900h368l-126 -550h282l-263 1050h350l400 -1400h-1250zM400 1900h350l100 -350h-250z" />
<glyph unicode="&#xe1;" horiz-adv-x="1400" d="M0 0l239 900h368l-126 -550h282l-263 1050h350l400 -1400h-1250zM400 1550l100 350h350l-200 -350h-250z" />
<glyph unicode="&#xe2;" horiz-adv-x="1400" d="M0 0l239 900h368l-126 -550h282l-263 1050h350l400 -1400h-1250zM250 1550v350l350 150h50l350 -150v-350l-350 150h-50z" />
<glyph unicode="&#xe3;" horiz-adv-x="1400" d="M0 0l239 900h368l-126 -550h282l-263 1050h350l400 -1400h-1250zM250 1550v350q100 100 200 100t175 -25t175 -25t200 100v-350q-100 -100 -200 -100t-175 25t-175 25t-200 -100z" />
<glyph unicode="&#xe4;" horiz-adv-x="1400" d="M0 0l239 900h368l-126 -550h282l-263 1050h350l400 -1400h-1250zM200 1550v350h350v-350h-350zM700 1550v350h350v-350h-350z" />
<glyph unicode="&#xe5;" horiz-adv-x="1400" d="M0 0l239 900h368l-126 -550h282l-263 1050h350l400 -1400h-1250zM425 1800q0 104 58.5 177t141.5 73t141.5 -73t58.5 -177t-58.5 -177t-141.5 -73t-141.5 73t-58.5 177z" />
<glyph unicode="&#xe6;" horiz-adv-x="1850" d="M0 0l239 900h368l-126 -550h269v52l-250 998h1201v-350h-751l43 -150h708v-350h-601v-25l50 -175h551v-350h-1701z" />
<glyph unicode="&#xe7;" d="M0 700q0 290 205 495t495 205h250v-350h-250q-145 0 -247.5 -102.5t-102.5 -247.5t102.5 -247.5t247.5 -102.5h250v-350h-150v-50q0 -186 -132 -318t-318 -132v1l-200 -1v350h200q41 0 70.5 29.5t29.5 70.5v94q-135 51 -245 161q-205 205 -205 495z" />
<glyph unicode="&#xe8;" d="M0 0v900h951v-350h-601v-200h601v-350h-951zM0 1050v350h951v-350h-951zM250 1900h350l100 -350h-250z" />
<glyph unicode="&#xe9;" d="M0 0v900h951v-350h-601v-200h601v-350h-951zM0 1050v350h951v-350h-951zM250 1550l100 350h350l-200 -350h-250z" />
<glyph unicode="&#xea;" d="M0 0v900h951v-350h-601v-200h601v-350h-951zM0 1050v350h951v-350h-951zM100 1550v350l350 150h50l350 -150v-350l-350 150h-50z" />
<glyph unicode="&#xeb;" d="M0 0v900h951v-350h-601v-200h601v-350h-951zM0 1050v350h951v-350h-951zM50 1550v350h350v-350h-350zM550 1550v350h350v-350h-350z" />
<glyph unicode="&#xec;" horiz-adv-x="500" d="M-50 1900h350l100 -350h-250zM0 0v1400h350v-1400h-350z" />
<glyph unicode="&#xed;" horiz-adv-x="500" d="M-50 1550l100 350h350l-200 -350h-250zM0 0v1400h350v-1400h-350z" />
<glyph unicode="&#xee;" horiz-adv-x="500" d="M-200 1550v350l350 150h50l350 -150v-350l-350 150h-50zM0 0v1400h350v-1400h-350z" />
<glyph unicode="&#xef;" horiz-adv-x="500" d="M-250 1550v350h350v-350h-350zM0 0v1400h350v-1400h-350zM250 1550v350h350v-350h-350z" />
<glyph unicode="&#xf0;" horiz-adv-x="1200" d="M0 0v900h500v-350h-150v-200q145 0 247.5 102.5t102.5 247.5t-102.5 247.5t-247.5 102.5h-350v350h350q290 0 495 -205t205 -495t-205 -495t-495 -205h-350z" />
<glyph unicode="&#xf1;" horiz-adv-x="1150" d="M0 0v1400l550 -1v1q186 0 318 -132t132 -318v-950h-350v950q0 41 -29.5 70.5t-70.5 29.5h-200v-1050h-350zM125 1550v350q100 100 200 100t175 -25t175 -25t200 100v-350q-100 -100 -200 -100t-175 25t-175 25t-200 -100z" />
<glyph unicode="&#xf2;" horiz-adv-x="1550" d="M0 700q0 290 205 495t495 205t495 -205t205 -495t-205 -495t-495 -205t-495 205t-205 495zM350 700q0 -145 102.5 -247.5t247.5 -102.5t247.5 102.5t102.5 247.5t-102.5 247.5t-247.5 102.5t-247.5 -102.5t-102.5 -247.5zM475 1900h350l100 -350h-250z" />
<glyph unicode="&#xf3;" horiz-adv-x="1550" d="M0 700q0 290 205 495t495 205t495 -205t205 -495t-205 -495t-495 -205t-495 205t-205 495zM350 700q0 -145 102.5 -247.5t247.5 -102.5t247.5 102.5t102.5 247.5t-102.5 247.5t-247.5 102.5t-247.5 -102.5t-102.5 -247.5zM475 1550l100 350h350l-200 -350h-250z" />
<glyph unicode="&#xf4;" horiz-adv-x="1550" d="M0 700q0 290 205 495t495 205t495 -205t205 -495t-205 -495t-495 -205t-495 205t-205 495zM325 1550v350l350 150h50l350 -150v-350l-350 150h-50zM350 700q0 -145 102.5 -247.5t247.5 -102.5t247.5 102.5t102.5 247.5t-102.5 247.5t-247.5 102.5t-247.5 -102.5 t-102.5 -247.5z" />
<glyph unicode="&#xf5;" horiz-adv-x="1550" d="M0 700q0 290 205 495t495 205t495 -205t205 -495t-205 -495t-495 -205t-495 205t-205 495zM325 1550v350q100 100 200 100t175 -25t175 -25t200 100v-350q-100 -100 -200 -100t-175 25t-175 25t-200 -100zM350 700q0 -145 102.5 -247.5t247.5 -102.5t247.5 102.5 t102.5 247.5t-102.5 247.5t-247.5 102.5t-247.5 -102.5t-102.5 -247.5z" />
<glyph unicode="&#xf6;" horiz-adv-x="1550" d="M0 700q0 290 205 495t495 205t495 -205t205 -495t-205 -495t-495 -205t-495 205t-205 495zM275 1550v350h350v-350h-350zM350 700q0 -145 102.5 -247.5t247.5 -102.5t247.5 102.5t102.5 247.5t-102.5 247.5t-247.5 102.5t-247.5 -102.5t-102.5 -247.5zM775 1550v350h350 v-350h-350z" />
<glyph unicode="&#xf7;" d="M0 550v350h951v-350h-951zM300 50v350h350v-350h-350zM300 1050v350h350v-350h-350z" />
<glyph unicode="&#xf8;" horiz-adv-x="1550" d="M0 0l172 240q-172 195 -172 460q0 290 205 495t495 205q143 0 265 -50l35 50h400l-172 -240q172 -195 172 -460q0 -290 -205 -495t-495 -205q-143 0 -265 50l-35 -50h-400zM350 700q0 -145 102.5 -247.5t247.5 -102.5t247.5 102.5t102.5 247.5t-102.5 247.5t-247.5 102.5 t-247.5 -102.5t-102.5 -247.5z" />
<glyph unicode="&#xf9;" horiz-adv-x="1150" d="M0 450v950h350v-950q0 -41 29.5 -70.5t70.5 -29.5h200v1050h350v-1400l-550 1v-1q-186 0 -318 132t-132 318zM275 1900h350l100 -350h-250z" />
<glyph unicode="&#xfa;" horiz-adv-x="1150" d="M0 450v950h350v-950q0 -41 29.5 -70.5t70.5 -29.5h200v1050h350v-1400l-550 1v-1q-186 0 -318 132t-132 318zM275 1550l100 350h350l-200 -350h-250z" />
<glyph unicode="&#xfb;" horiz-adv-x="1150" d="M0 450v950h350v-950q0 -41 29.5 -70.5t70.5 -29.5h200v1050h350v-1400l-550 1v-1q-186 0 -318 132t-132 318zM125 1550v350l350 150h50l350 -150v-350l-350 150h-50z" />
<glyph unicode="&#xfc;" horiz-adv-x="1150" d="M0 450v950h350v-950q0 -41 29.5 -70.5t70.5 -29.5h200v1050h350v-1400l-550 1v-1q-186 0 -318 132t-132 318zM50 1550v350h350v-350h-350zM550 1550v350h350v-350h-350z" />
<glyph unicode="&#xfd;" horiz-adv-x="1150" d="M0 1000v400h350v-400q0 -62 44 -106t106 -44t106 44t44 106v400h350v-400q0 -207 -146.5 -353.5t-353.5 -146.5t-353.5 146.5t-146.5 353.5zM150 0v350h700v-350h-700zM275 1550l100 350h350l-200 -350h-250z" />
<glyph unicode="&#xfe;" d="M-1 600h501q41 0 70.5 29.5t29.5 70.5t-29.5 70.5t-70.5 29.5h-500v600h350v-250h200q166 0 283 -132t117 -318t-117 -318t-283 -132h-200v-250h-350z" />
<glyph unicode="&#xff;" horiz-adv-x="1150" d="M0 1000v400h350v-400q0 -62 44 -106t106 -44t106 44t44 106v400h350v-400q0 -207 -146.5 -353.5t-353.5 -146.5t-353.5 146.5t-146.5 353.5zM75 1550v350h350v-350h-350zM150 0v350h700v-350h-700zM575 1550v350h350v-350h-350z" />
<glyph unicode="&#x131;" horiz-adv-x="500" d="M0 0v1400h350v-1400h-350z" />
<glyph unicode="&#x152;" horiz-adv-x="2150" d="M0 700q0 290 205 495t495 205q194 0 350 -92v92h951v-350h-693q42 -71 65 -150h628v-350h-601v-200h601v-350h-951v92q-156 -92 -350 -92q-290 0 -495 205t-205 495zM350 700q0 -145 102.5 -247.5t247.5 -102.5t247.5 102.5t102.5 247.5t-102.5 247.5t-247.5 102.5 t-247.5 -102.5t-102.5 -247.5z" />
<glyph unicode="&#x153;" horiz-adv-x="2150" d="M0 700q0 290 205 495t495 205q194 0 350 -92v92h951v-350h-693q42 -71 65 -150h628v-350h-601v-200h601v-350h-951v92q-156 -92 -350 -92q-290 0 -495 205t-205 495zM350 700q0 -145 102.5 -247.5t247.5 -102.5t247.5 102.5t102.5 247.5t-102.5 247.5t-247.5 102.5 t-247.5 -102.5t-102.5 -247.5z" />
<glyph unicode="&#x2c6;" horiz-adv-x="900" d="M0 1550v350l350 150h50l350 -150v-350l-350 150h-50z" />
<glyph unicode="&#x2c7;" horiz-adv-x="900" d="M0 1700v350l350 -150h50l350 150v-350l-350 -150h-50z" />
<glyph unicode="&#x2c9;" horiz-adv-x="582" d="M152 1195v125h310v-125h-310z" />
<glyph unicode="&#x2d8;" horiz-adv-x="601" d="M131 1349h31q10 -73 45 -107t100 -34q66 0 100 33.5t44 107.5h31q-12 -133 -56.5 -201.5t-118.5 -68.5q-73 0 -118 69t-58 201z" />
<glyph unicode="&#x2d9;" horiz-adv-x="500" d="M0 1550v350h350v-350h-350z" />
<glyph unicode="&#x2da;" horiz-adv-x="550" d="M0 1800q0 104 58.5 177t141.5 73t141.5 -73t58.5 -177t-58.5 -177t-141.5 -73t-141.5 73t-58.5 177z" />
<glyph unicode="&#x2db;" horiz-adv-x="800" d="M0 -50v400h350v-400q0 -41 29.5 -70.5t70.5 -29.5h200v-350l-200 1v-1q-186 0 -318 132t-132 318z" />
<glyph unicode="&#x2dc;" horiz-adv-x="900" d="M0 1550v350q100 100 200 100t175 -25t175 -25t200 100v-350q-100 -100 -200 -100t-175 25t-175 25t-200 -100z" />
<glyph unicode="&#x2dd;" horiz-adv-x="603" d="M130 1079l87 273q14 44 27 63t28 19q17 0 29 -20t12 -47q0 -16 -6.5 -35t-18.5 -41l-123 -212h-35zM301 1079l87 273q14 44 27 63t28 19q17 0 29 -20t12 -47q0 -16 -6.5 -35t-18.5 -41l-123 -212h-35z" />
<glyph unicode="&#x2000;" horiz-adv-x="1025" />
<glyph unicode="&#x2001;" horiz-adv-x="2050" />
<glyph unicode="&#x2002;" horiz-adv-x="1025" />
<glyph unicode="&#x2003;" horiz-adv-x="2050" />
<glyph unicode="&#x2004;" horiz-adv-x="683" />
<glyph unicode="&#x2005;" horiz-adv-x="512" />
<glyph unicode="&#x2006;" horiz-adv-x="341" />
<glyph unicode="&#x2007;" horiz-adv-x="341" />
<glyph unicode="&#x2008;" horiz-adv-x="256" />
<glyph unicode="&#x2009;" horiz-adv-x="410" />
<glyph unicode="&#x200a;" horiz-adv-x="113" />
<glyph unicode="&#x2010;" d="M0 550v350h951v-350h-951z" />
<glyph unicode="&#x2011;" d="M0 550v350h951v-350h-951z" />
<glyph unicode="&#x2012;" d="M0 550v350h951v-350h-951z" />
<glyph unicode="&#x2013;" horiz-adv-x="1250" d="M0 550v350h1100v-350h-1100z" />
<glyph unicode="&#x2014;" horiz-adv-x="1400" d="M0 550v350h1250v-350h-1250z" />
<glyph unicode="&#x2018;" horiz-adv-x="500" d="M0 850l99 550h251v-550h-350z" />
<glyph unicode="&#x2019;" horiz-adv-x="500" d="M0 850v550h350l-99 -550h-251z" />
<glyph unicode="&#x201a;" horiz-adv-x="500" d="M0 -200v550h350l-99 -550h-251z" />
<glyph unicode="&#x201c;" horiz-adv-x="900" d="M0 850l99 550h251v-550h-350zM400 850l99 550h251v-550h-350z" />
<glyph unicode="&#x201d;" horiz-adv-x="900" d="M0 850v550h350l-99 -550h-251zM400 850v550h350l-99 -550h-251z" />
<glyph unicode="&#x201e;" horiz-adv-x="900" d="M0 -200v550h350l-99 -550h-251zM400 -200v550h350l-99 -550h-251z" />
<glyph unicode="&#x2020;" horiz-adv-x="687" d="M43 1001q0 57 16.5 94.5t42.5 37.5q19 0 82 -56q51 -46 108 -55q-5 97 -33 178q-34 101 -34 129q0 49 21.5 78.5t57.5 29.5q34 0 56.5 -27.5t22.5 -71.5q0 -32 -33 -137q-27 -85 -33 -179q58 8 107 54q60 57 77 57q29 0 47 -36t18 -96q0 -57 -16.5 -94.5t-43.5 -37.5 q-19 0 -81 55q-51 46 -108 57q5 -176 66 -277q-63 -460 -67 -974h-23q-3 514 -68 974q61 101 67 277q-58 -10 -107 -55q-61 -57 -78 -57q-29 0 -46.5 36t-17.5 96z" />
<glyph unicode="&#x2021;" horiz-adv-x="686" d="M42 166q0 60 17.5 96t47.5 36q17 0 77 -57q49 -45 107 -55q-5 226 -67 398q62 171 67 397q-58 -10 -107 -55q-60 -57 -77 -57q-30 0 -47.5 36t-17.5 96q0 57 16.5 94.5t42.5 37.5q20 0 83 -56q51 -46 107 -55q-5 97 -32 178q-35 101 -35 129q0 49 22 78.5t58 29.5 q34 0 56.5 -27.5t22.5 -71.5q0 -32 -33 -137q-28 -85 -33 -179q57 8 106 54q61 57 77 57q30 0 48 -36t18 -96q0 -57 -16.5 -94.5t-43.5 -37.5q-19 0 -82 55q-51 46 -107 57q5 -226 66 -397q-61 -172 -66 -398q56 11 107 57q63 55 82 55q27 0 43.5 -37.5t16.5 -94.5 q0 -60 -18 -96t-48 -36q-16 0 -77 57q-49 46 -106 54q5 -94 33 -179q33 -105 33 -137q0 -44 -22.5 -71.5t-56.5 -27.5q-36 0 -58 29.5t-22 78.5q0 28 35 129q27 81 32 178q-56 -9 -107 -55q-63 -56 -83 -56q-26 0 -42.5 37.5t-16.5 94.5z" />
<glyph unicode="&#x2022;" horiz-adv-x="850" d="M0 700q0 145 102.5 247.5t247.5 102.5t247.5 -102.5t102.5 -247.5t-102.5 -247.5t-247.5 -102.5t-247.5 102.5t-102.5 247.5z" />
<glyph unicode="&#x2026;" horiz-adv-x="1300" d="M0 0v350h350v-350h-350zM400 0v350h350v-350h-350zM800 0v350h350v-350h-350z" />
<glyph unicode="&#x202f;" horiz-adv-x="410" />
<glyph unicode="&#x2030;" horiz-adv-x="2000" d="M0 950q0 186 132 318t318 132q128 0 230 -62l20 62h350l-150 -468q-1 -17 -3 -34q128 -12 228 -92q118 94 275 94q186 0 318 -132t132 -318t-132 -318t-318 -132q-157 0 -275 94q-118 -94 -275 -94q-128 0 -230 62l-20 -62h-350l150 468q1 17 3 34q-156 15 -271 130 q-132 132 -132 318zM350 950q0 -41 29.5 -70.5t70.5 -29.5t70.5 29.5t29.5 70.5t-29.5 70.5t-70.5 29.5t-70.5 -29.5t-29.5 -70.5zM750 450q0 -41 29.5 -70.5t70.5 -29.5t70.5 29.5t29.5 70.5t-29.5 70.5t-70.5 29.5t-70.5 -29.5t-29.5 -70.5zM1300 450q0 -41 29.5 -70.5 t70.5 -29.5t70.5 29.5t29.5 70.5t-29.5 70.5t-70.5 29.5t-70.5 -29.5t-29.5 -70.5z" />
<glyph unicode="&#x2039;" horiz-adv-x="1000" d="M0 675v100l450 475h400l-475 -525l475 -525h-400z" />
<glyph unicode="&#x203a;" horiz-adv-x="1000" d="M0 200l475 525l-475 525h400l450 -475v-100l-450 -475h-400z" />
<glyph unicode="&#x2044;" horiz-adv-x="950" d="M0 0l450 1400h350l-450 -1400h-350z" />
<glyph unicode="&#x205f;" horiz-adv-x="512" />
<glyph unicode="&#x20a3;" d="M0 -200v1100h951v-350h-601v-200h200v-350h-200v-200h-350zM0 1050v350h951v-350h-951z" />
<glyph unicode="&#x20a4;" horiz-adv-x="1150" d="M0 0v350h1000v-350h-1000zM0 500v350h150v100q0 186 132 318t318 132v-1l400 1v-350h-400q-41 0 -70.5 -29.5t-29.5 -70.5v-100h350v-350h-850z" />
<glyph unicode="&#x20a7;" d="M-1 850h501q41 0 70.5 29.5t29.5 70.5t-29.5 70.5t-70.5 29.5h-500v350h550q166 0 283 -132t117 -318t-117 -318t-283 -132h-200v-150h200v-350h-200v-200h-350z" />
<glyph unicode="&#x20ac;" d="M0 550v350h127q48 165 178 295q205 205 495 205h150v-350h-150q-145 0 -247 -102q-23 -23 -41 -48h288v-350h-317q25 -53 70 -97q102 -103 247 -103h150v-350h-150q-290 0 -495 205q-150 150 -190 345h-115z" />
<glyph unicode="&#x2116;" horiz-adv-x="1425" d="M0 700v700h275q93 0 159 -66t66 -159v-475h-175v475q0 21 -14.5 35.5t-35.5 14.5h-100v-525h-175zM575 1050q0 145 102.5 247.5t247.5 102.5t247.5 -102.5t102.5 -247.5t-102.5 -247.5t-247.5 -102.5t-247.5 102.5t-102.5 247.5zM750 1050q0 -72 51.5 -123.5t123.5 -51.5 q73 0 124 51.5t51 123.5q0 73 -51 124t-124 51q-72 0 -123.5 -51t-51.5 -124z" />
<glyph unicode="&#x2122;" horiz-adv-x="1450" d="M0 925v225h175v-225q0 -20 15 -35t35 -15h275v-175l-275 1v-1q-93 0 -159 66t-66 159zM0 1225v175h500v-175h-500zM575 700v700h500q93 0 159 -66t66 -159v-475h-175v475q0 21 -14.5 35.5t-35.5 14.5h-325v-525h-175zM850 700v450h175v-450h-175z" />
<glyph unicode="&#x2202;" horiz-adv-x="1700" d="M0 200v1100q0 200 200 200h1100q200 0 200 -200v-1100q0 -200 -200 -200h-1100q-200 0 -200 200zM25 200q1 -175 175 -175h1101q174 0 174 176v1099q0 175 -175 175h-1100q-174 0 -175 -175v-1100z" />
<glyph unicode="&#x2206;" horiz-adv-x="1700" d="M0 200v1100q0 200 200 200h1100q200 0 200 -200v-1100q0 -200 -200 -200h-1100q-200 0 -200 200zM25 200q1 -175 175 -175h1101q174 0 174 176v1099q0 175 -175 175h-1100q-174 0 -175 -175v-1100z" />
<glyph unicode="&#x220f;" horiz-adv-x="1700" d="M0 200v1100q0 200 200 200h1100q200 0 200 -200v-1100q0 -200 -200 -200h-1100q-200 0 -200 200zM25 200q1 -175 175 -175h1101q174 0 174 176v1099q0 175 -175 175h-1100q-174 0 -175 -175v-1100z" />
<glyph unicode="&#x2211;" horiz-adv-x="1700" d="M0 200v1100q0 200 200 200h1100q200 0 200 -200v-1100q0 -200 -200 -200h-1100q-200 0 -200 200zM25 200q1 -175 175 -175h1101q174 0 174 176v1099q0 175 -175 175h-1100q-174 0 -175 -175v-1100z" />
<glyph unicode="&#x2212;" horiz-adv-x="1050" d="M0 500v250h930v-250h-930z" />
<glyph unicode="&#x221a;" horiz-adv-x="1700" d="M0 200v1100q0 200 200 200h1100q200 0 200 -200v-1100q0 -200 -200 -200h-1100q-200 0 -200 200zM25 200q1 -175 175 -175h1101q174 0 174 176v1099q0 175 -175 175h-1100q-174 0 -175 -175v-1100z" />
<glyph unicode="&#x221e;" horiz-adv-x="1700" d="M0 200v1100q0 200 200 200h1100q200 0 200 -200v-1100q0 -200 -200 -200h-1100q-200 0 -200 200zM25 200q1 -175 175 -175h1101q174 0 174 176v1099q0 175 -175 175h-1100q-174 0 -175 -175v-1100z" />
<glyph unicode="&#x222b;" horiz-adv-x="1700" d="M0 200v1100q0 200 200 200h1100q200 0 200 -200v-1100q0 -200 -200 -200h-1100q-200 0 -200 200zM25 200q1 -175 175 -175h1101q174 0 174 176v1099q0 175 -175 175h-1100q-174 0 -175 -175v-1100z" />
<glyph unicode="&#x2248;" horiz-adv-x="1700" d="M0 200v1100q0 200 200 200h1100q200 0 200 -200v-1100q0 -200 -200 -200h-1100q-200 0 -200 200zM25 200q1 -175 175 -175h1101q174 0 174 176v1099q0 175 -175 175h-1100q-174 0 -175 -175v-1100z" />
<glyph unicode="&#x2264;" horiz-adv-x="1700" d="M0 200v1100q0 200 200 200h1100q200 0 200 -200v-1100q0 -200 -200 -200h-1100q-200 0 -200 200zM25 200q1 -175 175 -175h1101q174 0 174 176v1099q0 175 -175 175h-1100q-174 0 -175 -175v-1100z" />
<glyph unicode="&#x2265;" horiz-adv-x="1700" d="M0 200v1100q0 200 200 200h1100q200 0 200 -200v-1100q0 -200 -200 -200h-1100q-200 0 -200 200zM25 200q1 -175 175 -175h1101q174 0 174 176v1099q0 175 -175 175h-1100q-174 0 -175 -175v-1100z" />
<glyph unicode="&#x25fc;" horiz-adv-x="1400" d="M0 0v1400h1400v-1400h-1400z" />
<glyph unicode="&#xf001;" horiz-adv-x="120" />
<glyph unicode="&#xf002;" horiz-adv-x="120" />
</font>
</defs>
</svg>
