<?xml version="1.0" standalone="no"?>
<!DOCTYPE svg PUBLIC "-//W3C//DTD SVG 1.1//EN" "http://www.w3.org/Graphics/SVG/1.1/DTD/svg11.dtd" >
<svg xmlns="http://www.w3.org/2000/svg" xmlns:xlink="http://www.w3.org/1999/xlink" version="1.1">
<metadata></metadata>
<defs>
<font id="aliens_and_cowsregular" horiz-adv-x="905" >
<font-face units-per-em="2048" ascent="1638" descent="-410" />
<missing-glyph horiz-adv-x="749" />
<glyph unicode="AND_" horiz-adv-x="2369" d="M306 -11v35q0 26 15 42t35 18l1658 136q9 1 16 -4t7 -14v-32q0 -27 -14.5 -43.5t-35.5 -18.5l-1660 -137q-8 -1 -14.5 5t-6.5 13zM306 1012v34q0 24 13.5 41.5t36.5 19.5l1658 136q8 1 15.5 -2.5t7.5 -14.5v-34q0 -27 -15.5 -43t-34.5 -19l-1660 -137q-5 -1 -13 3t-8 16z M313 205l98 677q0 6 4.5 12t15.5 7l110 8q8 1 13.5 -4.5t5.5 -10.5l97 -661q3 -25 -23 -27l-49 -4q-25 -2 -41 9t-18 35l-11 97l-61 -5l-10 -98q-2 -24 -17.5 -38.5t-39.5 -16.5l-49 -3q-15 -2 -21 5t-4 18zM460 430l51 3l-27 332zM973 255v672q0 11 5.5 15t14.5 5l55 5 q24 2 34.5 -7t20.5 -36l106 -324l-12 329q-1 26 16.5 40t40.5 16l55 3q22 3 21 -18v-671q0 -19 -21 -23l-55 -3q-23 -2 -35.5 9t-20.5 31l-103 327l8 -323q1 -25 -12.5 -42t-42.5 -19l-55 -5q-8 -1 -14 2t-6 17zM1669 311v673q0 6 3.5 13t15.5 8l152 12q32 3 64.5 -2.5 t59.5 -23t43.5 -49t16.5 -78.5v-376q0 -80 -49.5 -127.5t-138.5 -54.5l-148 -13q-11 -1 -15 4t-4 14zM1799 413l37 2q30 2 43.5 19t13.5 43v377q0 24 -11 39.5t-46 13.5l-37 -3v-491z" />
<glyph unicode="NO_" horiz-adv-x="1373" d="M256 22v1390q0 9 5 15.5t15 6.5h58q26 0 41.5 -14t17.5 -37q2 -16 9.5 -66.5t18.5 -121t24.5 -152.5t27 -161.5t26.5 -148t23 -112.5l-10 760q0 24 16.5 38.5t42.5 14.5h58q10 0 15 -6.5t5 -15.5v-1390q0 -9 -5 -15.5t-15 -6.5h-58q-27 0 -41 13t-17 34q0 12 -7.5 57.5 t-19.5 109.5t-26.5 140.5t-28.5 154t-27 148t-21 121.5l10 -718q1 -27 -14 -43.5t-45 -16.5h-58q-10 0 -15 6t-5 16zM725 336v34q0 26 14 41.5t37 15.5h310q9 0 15.5 -5t6.5 -14v-34q0 -27 -14.5 -42.5t-37.5 -15.5h-310q-9 0 -15 5t-6 15zM732 655v625q0 79 50 124.5 t140 45.5q43 0 78.5 -12t60 -34t38.5 -53.5t14 -70.5v-625q0 -79 -50 -124.5t-141 -45.5q-43 0 -78 12t-59.5 34t-38.5 53.5t-14 70.5zM865 655q0 -27 14 -43t43 -16t43.5 16.5t14.5 42.5v625q0 27 -14 43t-44 16q-29 0 -43 -16t-14 -43v-625z" />
<glyph unicode=" "  horiz-adv-x="749" />
<glyph unicode="&#x09;" horiz-adv-x="749" />
<glyph unicode="&#xa0;" horiz-adv-x="749" />
<glyph unicode="!" horiz-adv-x="633" d="M231 60q0 36 22.5 56t62.5 20q41 0 63.5 -20t22.5 -56t-22.5 -56t-63.5 -20q-40 0 -62.5 20.5t-22.5 55.5zM265 194v1220q0 9 5 15.5t16 6.5h57q27 0 43.5 -14.5t15.5 -38.5l-32 -1159q-1 -24 -17 -38t-43 -14h-24q-10 0 -15.5 6t-5.5 16z" />
<glyph unicode="&#x22;" horiz-adv-x="775" d="M256 1270v254q0 9 5 15t15 6h35q27 0 43.5 -14t16.5 -38v-193q0 -24 -16.5 -38t-43.5 -14h-35q-10 0 -15 6.5t-5 15.5zM419 1270v254q0 9 5 15t15 6h35q27 0 43.5 -14t16.5 -38v-193q0 -24 -16.5 -38t-43.5 -14h-35q-10 0 -15 6.5t-5 15.5z" />
<glyph unicode="#" horiz-adv-x="972" d="M205 541v34q0 10 6 15.5t15 5.5h66l15 223h-26q-24 0 -38.5 16.5t-14.5 43.5v34q0 10 6.5 15.5t15.5 5.5h64l31 443q2 25 18 41t38 16h57q10 0 16 -6.5t4 -15.5l-33 -478h95l30 443q2 25 18 41t39 16h56q10 0 16.5 -6.5t3.5 -15.5l-32 -478h77q9 0 15 -5t6 -16v-34 q0 -27 -14.5 -43.5t-37.5 -16.5h-53l-16 -223h76q9 0 15 -5t6 -16v-34q0 -27 -14 -43.5t-38 -16.5h-53l-29 -426q-2 -25 -17.5 -40.5t-38.5 -15.5h-56q-10 0 -16.5 6t-4.5 15l31 461h-94l-29 -426q-2 -25 -18 -40.5t-38 -15.5h-57q-10 0 -16 6t-4 15l31 461h-27 q-24 0 -38 16.5t-14 43.5zM423 596h94l15 223h-94z" />
<glyph unicode="$" d="M256 160v313q0 9 5 15.5t15 6.5h58q30 0 44.5 -17t14.5 -44v-274q0 -28 15 -45t45 -17q31 0 45 17t14 45q0 131 -19 229t-47.5 178.5t-61.5 153t-61.5 152t-47.5 176t-19 225.5q0 68 37.5 112t101.5 58v97q0 9 5.5 15.5t15.5 6.5h35q27 0 43 -14.5t16 -38.5v-66 q67 -14 103 -58.5t36 -111.5v-313q0 -9 -5 -15.5t-15 -6.5h-58q-30 0 -44.5 17t-14.5 43v275q0 28 -15 44.5t-44 16.5q-31 0 -45.5 -16.5t-14.5 -44.5q0 -93 11 -168t29.5 -138.5t41.5 -119.5t46.5 -112t46.5 -114.5t41.5 -127t29 -150.5t10.5 -184q0 -68 -37.5 -112 t-101.5 -58v-98q0 -9 -5 -15t-16 -6h-34q-27 0 -43.5 14.5t-16.5 37.5v67q-67 13 -103 57t-36 113z" />
<glyph unicode="%" horiz-adv-x="1508" d="M305 859v415q0 82 52 129t145 47q44 0 80 -12.5t62.5 -35.5t40 -55t13.5 -73v-415q0 -82 -51.5 -129t-144.5 -47q-45 0 -81 12.5t-62 35.5t-40 55t-14 73zM442 859q0 -28 14.5 -44.5t45.5 -16.5q30 0 44.5 16.5t14.5 44.5v415q0 28 -14.5 44.5t-44.5 16.5t-45 -16.5 t-15 -44.5v-415zM589 20l242 1357q3 25 18.5 41t38.5 16h55q10 0 16.5 -6.5t4.5 -15.5l-243 -1357q-3 -25 -18.5 -40.5t-37.5 -15.5h-56q-10 0 -16 6t-4 15zM857 177v415q0 82 52 129t145 47q44 0 80 -12.5t62.5 -35.5t40 -55t13.5 -73v-415q0 -82 -51.5 -129t-144.5 -47 q-45 0 -81 12.5t-62 35.5t-40 55t-14 73zM994 177q0 -28 14.5 -44.5t45.5 -16.5q30 0 44.5 17t14.5 44v415q0 28 -14.5 44.5t-44.5 16.5t-45 -16.5t-15 -44.5v-415z" />
<glyph unicode="'" horiz-adv-x="633" d="M256 1270v254q0 9 5 15t15 6h35q27 0 43.5 -14t16.5 -38v-193q0 -24 -16.5 -38t-43.5 -14h-35q-10 0 -15 6.5t-5 15.5z" />
<glyph unicode="(" horiz-adv-x="788" d="M253 685v64q0 84 1.5 175.5t10.5 180t28 168.5t53.5 140.5t86.5 96t129 35.5q9 0 15.5 -5t6.5 -15v-16q0 -26 -8.5 -36t-21.5 -15t-30 -11t-34 -23q-28 -28 -46 -79t-30 -118t-16.5 -147t-4.5 -165v-397q0 -85 4.5 -165t16.5 -147t30.5 -118t45.5 -79q16 -17 33.5 -22.5 t30.5 -11.5t21.5 -15.5t8.5 -35.5v-15q0 -10 -6.5 -15.5t-15.5 -5.5q-76 0 -128.5 36t-87 96.5t-53.5 140.5t-28 168.5t-10.5 180t-1.5 175.5z" />
<glyph unicode=")" horiz-adv-x="788" d="M205 -76q0 26 8 35.5t21.5 15.5t30 11.5t33.5 22.5q28 28 46 79t30 118t16.5 147t4.5 165v397q0 85 -4.5 165t-16.5 147t-30 118.5t-46 78.5q-17 16 -33.5 22.5t-30 11.5t-21.5 15.5t-8 35.5v16q0 10 6 15t15 5q76 0 129 -35.5t87 -96t53 -140.5t28 -168.5t11 -180 t2 -175.5v-64q0 -84 -2 -175.5t-11 -180t-28 -168.5t-53 -140.5t-87 -96.5t-129 -36q-9 0 -15 5.5t-6 15.5v15z" />
<glyph unicode="*" horiz-adv-x="848" d="M228 609v35q0 9 2.5 20t8 19.5t13.5 15t19 6.5q6 0 10 -2l76 -18l-69 84q0 1 -0.5 1.5t-0.5 1.5q-9 16 8 27l31 16q7 4 17.5 7.5t21 3.5t19.5 -4t15 -14l2 -4t1 -4l23 -77l37 103l2 3q5 8 12 9.5t16 -2.5l29 -19q7 -4 15.5 -11t13.5 -16.5t6.5 -19.5t-4.5 -20 q-2 -5 -5 -7l-57 -59l111 19h3q8 0 13.5 -5.5t5.5 -14.5v-35q0 -23 -11.5 -41.5t-31.5 -18.5q-6 0 -10 1l-78 18l70 -85l2 -3q9 -15 -9 -25l-30 -18q-19 -11 -41 -11t-32 18q-2 2 -5 9l-22 75l-38 -102q0 -1 -2 -3q-8 -15 -27 -5l-29 17q-20 10 -31 29.5t0 37.5q0 2 1.5 4 t3.5 4l55 58l-108 -18h-3q-18 0 -19 20z" />
<glyph unicode="+" horiz-adv-x="848" d="M228 609v35q0 27 14.5 43t38.5 16h87v118q0 9 5 15.5t15 6.5h35q27 0 43 -14.5t16 -37.5v-88h119q9 0 15.5 -5t6.5 -15v-35q0 -27 -14.5 -43t-38.5 -16h-88v-119q0 -9 -5 -15t-15 -6h-35q-27 0 -43 14t-16 38v88h-118q-9 0 -15.5 5t-6.5 15z" />
<glyph unicode="," horiz-adv-x="633" d="M231 60q0 36 22.5 56t62.5 20q41 0 63.5 -20t22.5 -56q0 -34 -6 -64t-16 -52t-23.5 -34.5t-27.5 -12.5q-5 0 -9.5 3t-4.5 11v73q-40 1 -62 21t-22 55z" />
<glyph unicode="-" horiz-adv-x="848" d="M228 609v35q0 27 14.5 43t38.5 16h320q9 0 15.5 -5t6.5 -15v-35q0 -27 -14.5 -43t-38.5 -16h-320q-9 0 -15.5 5t-6.5 15z" />
<glyph unicode="." horiz-adv-x="633" d="M231 60q0 36 22.5 56t62.5 20q41 0 63.5 -20t22.5 -56t-22.5 -56t-63.5 -20q-40 0 -62.5 20.5t-22.5 55.5z" />
<glyph unicode="/" horiz-adv-x="796" d="M238 20l181 1357q3 25 18.5 41t37.5 16h66q10 0 16 -6.5t4 -15.5l-181 -1357q-3 -25 -18.5 -40.5t-37.5 -15.5h-66q-10 0 -16 6t-4 15z" />
<glyph unicode="0" horiz-adv-x="4195" d="M527 167q0 9 5 21q2 7 4.5 14t7.5 12q3 5 5.5 9.5t7.5 9.5q3 4 8 8.5t9 7.5q8 3 13 5t11 5q5 0 12 1.5t16 1.5t17 -2t20 -7q9 -3 16 -8t13 -12q-3 -4 -5 -4q0 -1 -1 -2t-2 -1q0 -1 -4 -1h-4q-7 0 -9 1q-5 2 -10.5 6.5t-10.5 5.5t-9.5 1h-10.5q-8 0 -16 -0.5t-13 -1.5 q-8 -5 -14 -9.5t-13 -9.5q-5 -5 -8.5 -10t-5.5 -12q-5 -8 -6 -15.5t-1 -13.5q0 -10 4 -20q2 -5 3 -9.5t2 -9.5q3 -4 6 -7t6 -7q6 -3 10 -7t9 -5q4 -2 7.5 -4.5t8.5 -4.5t10.5 -2h10.5h11t11 2t13 4.5t11 5.5v40h-16h-2q-1 0 -2 1l-4.5 3t-3.5 4l-2.5 2.5t-1.5 2.5t-0.5 3 t-0.5 4v1h53v-73q-4 -4 -6.5 -5.5t-6.5 -6.5q-8 -2 -16 -2q-9 -4 -20 -4h-17h-15.5t-12.5 1q-6 2 -10.5 4t-13.5 7q-4 2 -9 5t-8 9q-5 3 -7.5 8.5t-5.5 11.5q-5 5 -7 10t-5 11q-2 8 -3.5 13.5t-1.5 13.5zM527 -274q0 11 2 15q0 2 7 10q2 3 3 5.5t2 6.5q2 2 4.5 5.5t3.5 6.5 l127 175h-138v50h213v-26v-6t-1 -6q-1 -5 -3.5 -7t-5.5 -5l-142 -195h2l2 3h4h4h139v-49h-223v17zM538 327v783h1219q0 41 7.5 79.5t24.5 73.5q16 36 36 68t50 58q51 52 123 80q36 16 72.5 23.5t76.5 7.5q43 0 81.5 -7.5t72.5 -25.5q38 -16 69 -37.5t58 -48.5 q48 -49 82 -124q27 -74 26 -147h1221v-783h-3219zM705 460h25v76h45q8 0 15 1t12 3q13 6 18 13q5 4 10.5 8.5t5.5 11.5q7 14 7 25q0 7 -2 13l-5 15q0 4 -5.5 8.5t-10.5 8.5q-3 4 -7.5 8t-10.5 5q-5 5 -12 6.5t-15 1.5h-70v-204zM730 561v74h45q10 0 16 -4q3 0 6 -2t6 -3 q2 -3 3 -7.5t4 -7.5q2 -4 2 -13v-6.5t-2 -6.5q-3 -3 -4 -7t-3 -5q-6 -6 -12 -9t-16 -3h-45zM737 74v185h115v-21h-91v-61h75v-20h-75v-64h91v-19h-115zM786 0h188v-50h-134v-69h107v-52h-107v-71h134v-49h-188v291zM861 460h127v24h-96v64h80v26h-80v61h96v29h-127v-204z M873 238v21h142v-21h-61v-164h-20v164h-61zM983 0h222v-50h-82v-241h-54v241h-86v50zM1032 460h29v84h32l53 -73q2 -7 9 -9q2 -2 6 -2h7h20l-65 88q5 1 9 2t8 6q10 2 12 10q3 3 6 8.5t6 10.5v17q0 7 -0.5 13t-3.5 12q-5 9 -13 17q-5 11 -20 12q-3 5 -9 6.5t-12 1.5h-74v-204 zM1061 570v65h45q7 0 11 -4q5 0 6 -1.5t4 -3.5q5 -6 8 -11q3 -4 3 -13q0 -8 -3 -12q-1 -1 -8 -9q-3 -2 -4 -4.5t-6 -3.5q-3 -3 -11 -3h-45zM1130 74v185h115v-21h-93v-65h80v-18h-80v-81h-22zM1164 -291l126 291h48l125 -291h-30q-13 0 -23 5q-4 2 -6.5 8t-7.5 11l-16 38 h-134l-14 -38q-2 -5 -3 -6t-4 -2q-2 -5 -3.5 -7t-4.5 -4q-3 -1 -6 -2.5t-6 -1.5q-1 -1 -4 -1h-5h-32zM1197 496q0 -4 2 -4q0 -4 5 -8q0 -4 4 -5q0 -2 2 -4q1 -1 2 -1q11 -9 23 -12.5t27 -3.5q6 0 12.5 0.5t12.5 3.5q5 1 13 4t11 8q5 4 9.5 8.5t6.5 12.5q1 6 2.5 11t1.5 11 q0 17 -5 27.5t-15 17.5q-3 2 -4.5 3.5t-7.5 3.5q-1 1 -3.5 1.5t-4.5 2.5q-3 1 -5.5 1.5t-2.5 4.5q-7 0 -10 3q-8 2 -11.5 3.5t-8.5 3.5q-8 2 -11 5q-6 4 -6 8v9v12l4 4t2 4q3 0 6 1.5l5 2.5q5 2 8 2.5t8 0.5q1 0 3.5 -1.5t4.5 -1.5q8 -1 10 -7q3 -1 5.5 -1.5t6.5 -0.5 q10 0 16 5l9 4q-2 3 -4.5 4.5t-5.5 4.5l-6 6t-10 5q-3 1 -6.5 3t-8.5 5q-5 1 -8 2.5t-6 1.5q-6 0 -13 -1.5t-11 -2.5q-7 -2 -11 -5.5t-9 -5.5q-4 -5 -9 -9t-7 -8q-1 -5 -2.5 -10t-1.5 -14q0 -7 0.5 -11.5t3.5 -9.5q2 -4 6.5 -8t6.5 -9l10 -6t10 -5q5 -3 9 -4.5t11 -4.5 q3 -2 7.5 -2.5t7.5 -1.5q5 -1 7.5 -2.5t5.5 -2.5q3 -3 4 -5t5 -7q2 -4 3 -7t1 -8q0 -2 -0.5 -6t-4.5 -7q-3 -3 -4 -5.5t-4 -3.5q-3 -5 -7 -7t-6 -4q-5 0 -8.5 -0.5t-6.5 -0.5q-6 0 -9.5 0.5t-6.5 0.5q-3 2 -6.5 3.5t-3.5 7.5l-4 1q-7 7 -15 7q-3 0 -6.5 -0.5t-6.5 -3.5z M1273 -177h83l-38 90q0 2 -1.5 4.5t-1.5 4.5q0 5 -1 8v-8q0 -2 -1.5 -4.5t-2.5 -4.5zM1279 144v115h20v-115q0 -6 2.5 -10t5.5 -8q2 -8 5 -11t6 -9q3 -3 6.5 -5.5t7.5 -5.5q6 -3 12 -3.5t11 -0.5q6 0 10 0.5t8 3.5q6 3 10.5 5.5t9.5 5.5q2 5 5.5 8.5t5.5 11.5q5 6 5 18v115 h21v-115q0 -8 -2.5 -14t-5.5 -14q-2 -7 -5.5 -13t-8.5 -12q-5 -4 -11 -8t-13 -6q-15 -4 -29 -4q-15 0 -31 4q-5 2 -10.5 6t-10.5 8q-10 10 -17 25q-2 8 -4.5 14t-2.5 14zM1355 558q0 -8 2.5 -18.5t6.5 -19.5q3 -10 8.5 -18.5t12.5 -17.5q8 -6 17 -11t18 -7q16 -8 39 -8h15 t13 2q15 4 23 11q16 7 23 13q9 9 16 24q3 6 7 12t6 12q2 8 2.5 14t0.5 12q0 18 -3 31q-2 7 -6 12.5t-7 12.5q-5 9 -16 21q-4 4 -9.5 7.5t-13.5 9.5q-5 2 -10 5t-13 6q-6 1 -13 2.5t-15 1.5q-7 0 -13.5 -1.5t-12.5 -2.5q-8 -2 -14 -5.5t-11 -5.5q-6 -6 -11.5 -9.5t-11.5 -7.5 q-5 -5 -9 -10t-7 -11q-4 -7 -5.5 -12.5t-4.5 -12.5q-4 -11 -4 -31zM1381 558q0 17 8 32q3 7 7.5 13t8.5 11q6 6 12 10t13 7q8 3 15 5t14 2q16 0 31 -7q7 -3 12.5 -7t9.5 -10q5 -5 10.5 -11t8.5 -13q2 -6 3.5 -14.5t1.5 -17.5q0 -6 -1.5 -13t-3.5 -16q-3 -6 -8 -11l-11 -11 q-4 -5 -9.5 -9t-12.5 -10q-6 -3 -14.5 -4t-16.5 -1q-15 0 -29 5q-6 5 -12.5 9.5t-12.5 9.5q-4 6 -8.5 11t-7.5 11q-3 8 -5.5 15.5t-2.5 13.5zM1467 74v185h23v-166h83v-19h-106zM1478 0h184v-50h-134v-76h111v-51h-111v-114h-50v291zM1594 74v185h21v-166h85v-19h-106z M1605 460h26v171v-4l2 -2l2 -2v-5l119 -158h21v204h-27v-160q0 4 -1.5 7.5t-2.5 5.5l-98 138q-5 1 -11 8q-3 0 -6 0.5t-6 0.5h-18v-204zM1679 -144q0 9 1 18.5t3 19.5q6 22 17 33q5 11 10 18t11 14q8 6 15.5 11.5t17.5 12.5q6 4 15 8t20 6q8 2 17.5 4t20.5 2q10 0 20 -2 t21 -4q9 -2 17.5 -6t18.5 -8q8 -6 14 -12t14 -12q7 -7 13 -14t12 -18q4 -7 7 -15t6 -18q3 -9 3.5 -19t0.5 -19q0 -11 -0.5 -21t-3.5 -19t-6 -18.5t-7 -18.5q-6 -6 -12 -14.5t-13 -14.5q-8 -7 -14 -12.5t-14 -10.5q-9 -7 -18 -10.5t-18 -6.5q-11 -1 -21 -2.5t-20 -1.5 q-15 0 -29 3t-29 8q-14 6 -25 14.5t-23 18.5q-19 20 -29 46q-6 14 -9.5 28t-3.5 32zM1733 -144q0 -9 1 -19t6 -18q4 -11 8.5 -18.5t12.5 -12.5q6 -7 14 -11.5t14 -9.5q10 -3 19.5 -6t18.5 -3q10 0 19 2.5t18 6.5q9 5 16 9.5t13 11.5q8 5 14 12.5t9 18.5q3 8 4.5 17.5 t1.5 19.5q0 16 -6 34q-3 11 -8.5 18t-14.5 14q-6 6 -13 11.5t-16 8.5q-15 8 -37 8q-20 0 -38 -8q-6 -3 -14 -8.5t-14 -11.5q-8 -7 -12.5 -13.5t-8.5 -18.5q-5 -9 -6 -17t-1 -17zM1789 259h10q7 0 11 -4q1 -2 3.5 -2.5t5.5 -3.5l58 -139v-8q3 -3 3 -7v7q0 1 0.5 3.5t0.5 4.5 q8 16 16.5 33.5t16.5 33.5q6 20 14 37t17 35q1 3 2.5 3.5t1.5 2.5q5 3 7 3.5t5 0.5h9q-9 -23 -19.5 -46.5t-21.5 -45.5q-9 -25 -18.5 -48t-19.5 -45h-20zM1789 1109q0 -75 30 -137q13 -33 32 -61.5t41 -54.5q25 -25 53 -44t62 -34q63 -30 140 -29q39 0 73 6.5t66 19.5 q34 14 62 33.5t52 44.5q25 24 45 53t33 61q30 69 30 142q0 33 -5 64t-17 59q-19 55 -57 100q-18 24 -39 42t-44 35q-27 13 -52.5 25.5t-52.5 19.5q-19 7 -43 10t-51 3q-40 0 -75 -7t-68 -23q-65 -26 -113 -78q-24 -24 -41.5 -53t-30.5 -61q-30 -63 -30 -136zM1795 460h16 q10 0 15 2q1 3 3 4.5t5 4.5l13 33h106l13 -33q2 -7 8 -9q1 -2 13 -2h16l-89 204h-29zM1826 1109q0 29 3.5 56.5t13.5 54.5q9 26 23 48.5t30 46.5h431l-422 -423q-38 46 -61 99q-11 27 -14.5 57t-3.5 61zM1860 532l36 86q0 3 1 5v8q0 -4 2 -7t2 -6l37 -86h-78zM1929 1351 q48 39 102 59q51 23 116 23q64 0 119 -23q27 -11 51.5 -26.5t44.5 -32.5h-433zM1932 867h431q-22 -18 -46 -34t-51 -27q-29 -8 -58.5 -16t-60.5 -8q-32 0 -60.5 8t-55.5 16q-27 11 -51.5 27t-47.5 34zM1967 901l421 426q40 -52 61 -107t21 -111q0 -30 -4 -58t-16 -55 q-9 -26 -22.5 -48.5t-31.5 -46.5h-429zM1987 74v185h111v-21h-91v-61h77v-20h-77v-64h91v-19h-111zM2012 0h48q4 0 9.5 -1.5t7.5 -2.5q5 -1 7.5 -3t4.5 -5q15 -22 30 -43.5t28 -43.5q17 -20 31.5 -41.5t32.5 -40.5q1 -3 2.5 -6t2.5 -9q0 -2 1.5 -5t1.5 -4v205h51v-291h-49 l-137 196q-2 2 -2.5 3t-1.5 2q-4 5 -4 8q-4 2 -4 5l-3.5 3.5l-3.5 3.5v-221h-53v291zM2022 460h117v24h-88v180h-29v-204zM2143 74v185h68q6 0 9.5 -0.5t8.5 -3.5q10 -3 20 -10q3 -5 6 -9.5t5 -9.5q2 -4 2 -9.5v-8.5v-9.5t-2 -10.5q0 -5 -2.5 -9.5t-4.5 -6.5q-3 -3 -7 -6 t-10 -6q-3 -3 -15 -5l64 -81h-15q-3 0 -6.5 0.5t-3.5 2.5l-6 2t-5 6l-50 70h-35v-81h-21zM2164 173h47q8 0 10 2q3 2 6 3.5l5 2.5q3 3 4 5.5t5 6.5q0 3 1.5 6.5t1.5 8.5q0 3 -1.5 5t-1.5 5q-3 3 -4.5 5.5t-4.5 5.5q-2 0 -5 2.5t-6 5.5q-2 1 -10 1h-47v-65zM2257 540 q0 -8 0.5 -14t2.5 -10q0 -10 6 -20q6 -11 15 -17q3 -3 7 -6t9 -6q3 -3 8.5 -4t9.5 -3q6 -2 12 -3.5t12 -1.5q7 0 11 1.5t12 3.5q4 2 9 3t9 4q9 5 16 12q5 3 7.5 7t5.5 10q2 5 5.5 9.5t5.5 10.5v24v124h-28v-124q0 -8 -0.5 -13t-3.5 -11q-1 -10 -12 -16q-3 -4 -8 -7t-9 -7 q-5 -2 -9 -2.5t-11 -0.5q-13 0 -21 3l-10.5 7t-6.5 7q-3 3 -6 7t-8 9q-1 6 -1.5 10.5t-0.5 13.5v124h-28v-124zM2297 0h222v-50h-86v-241h-53v241h-83v50zM2298 103l3 3q2 0 2.5 2t3.5 2h3q4 0 6.5 -2.5t6.5 -4.5q5 -3 8.5 -5.5t7.5 -4.5q2 -2 6 -2h7q11 0 15 2q10 0 16 6 q4 3 6 12q3 3 3.5 7.5t0.5 7.5q0 10 -1 14q-2 3 -4 5.5t-5 5.5q-3 4 -11 6q-5 0 -8.5 2t-8.5 4q-5 1 -9.5 3.5t-7.5 4.5q-12 2 -20 9q-2 1 -5 5l-6 8v19q0 7 0.5 11.5t2.5 9.5q2 9 12 16l10 5l10 5q5 0 8.5 1.5t8.5 1.5q4 0 9 -1.5t8 -1.5t5.5 -2t6.5 -4q3 -2 5.5 -3.5 t3.5 -3.5q5 -3 7 -5t4 -3l-5 -5q-3 -4 -11 -4h-9q-4 5 -4 8q-2 0 -3.5 0.5t-3.5 0.5h-2q-1 0 -3 0.5t-3 0.5h-5q-8 0 -11 -1q-9 0 -10 -5q-7 -7 -7 -11q-4 -1 -4 -10q0 -7 4 -8q0 -7 4 -8l5 -5t6 -3q4 -2 7.5 -3.5t9.5 -3.5q1 -1 5 -1.5t4 -2.5q3 0 5.5 -1t5.5 -3q2 -1 3 -1 t1.5 -0.5t1.5 -0.5q2 0 4.5 -1.5t3.5 -2.5l8.5 -8.5l7.5 -7.5q4 -13 4 -25q0 -8 -1 -12.5t-7 -11.5q-1 -9 -12 -16q-4 -5 -9.5 -6.5t-8.5 -2.5q-5 -3 -12 -3.5t-15 -0.5q-11 0 -22 3t-19 10q-3 1 -4 3.5t-6 5.5q0 3 -1.5 5t-1.5 3zM2449 496q1 -1 1.5 -2.5t3.5 -1.5 q0 -2 1.5 -4t1.5 -4l2.5 -2.5t1.5 -2.5q5 -5 8 -5q8 -9 20.5 -12.5t25.5 -3.5q6 0 12.5 0.5t15.5 3.5q6 1 10.5 4t10.5 8q4 4 7 8.5t6 12.5q8 11 9 22q0 17 -6 27.5t-17 17.5q-6 4 -8 7q-3 1 -5.5 1.5t-5.5 2.5q-1 1 -5 1.5t-7 4.5q-1 0 -3.5 1t-5.5 2q-5 2 -7.5 3.5 t-7.5 3.5q-9 2 -10 5q-5 2 -7 3.5t-4 4.5q0 1 -0.5 3.5t-0.5 5.5q0 6 4 12q1 4 8 8q3 0 4.5 1.5t5.5 2.5q3 3 14 3q1 0 3.5 -1.5t5.5 -1.5q3 -3 12 -7q8 -2 12 -2q8 0 13 5l7 4q-2 3 -4.5 4.5t-5.5 4.5q-2 3 -5.5 6t-7.5 5q-3 1 -6.5 3t-9.5 5q-4 1 -8 2.5t-6 1.5 q-6 0 -12 -1.5t-12 -2.5q-5 -2 -10.5 -5.5t-9.5 -5.5q-4 -5 -7 -9l-6 -8q-3 -5 -5 -10t-2 -14q0 -7 2 -11.5t5 -9.5q4 -10 10 -17q5 -3 9 -6t9 -5q6 -3 12 -4.5t10 -4.5q5 -2 7.5 -2.5t5.5 -1.5t8 -2.5t8 -2.5l5 -5t3 -7q3 -4 3.5 -7t0.5 -8q0 -2 -0.5 -6t-3.5 -7 q-2 -7 -9 -9q-5 -5 -8.5 -7t-6.5 -4q-4 0 -7 -0.5t-6 -0.5q-4 0 -8.5 0.5t-7.5 0.5q-7 3 -13 11l-3 1q-7 7 -14 7q-2 0 -5.5 -0.5t-5.5 -3.5zM2458 74v185h20v-185h-20zM2522 167q0 5 0.5 10.5t1.5 10.5q5 15 10 26q7 10 17 19q9 9 18 16q5 3 12 5t12 5q6 0 12 1.5t12 1.5 q7 0 14.5 -1.5t13.5 -1.5q5 -3 10.5 -5t10.5 -5t10 -7t10 -9q4 -5 6.5 -9.5t7.5 -9.5q5 -10 11 -26q1 -5 2.5 -10.5t1.5 -10.5q0 -9 -2.5 -19.5t-8.5 -19.5q-3 -9 -8 -16.5t-10 -12.5q-8 -7 -15.5 -12.5t-17.5 -8.5q-10 -5 -36 -5q-9 0 -18 1t-19 4q-19 6 -29 21 q-14 12 -23 29q-6 18 -6 39zM2522 -229q1 0 2 1.5t4 2.5q2 0 3 1.5t3 2.5q4 0 6.5 1.5t3.5 1.5h11q2 0 5 -0.5t5 -2.5q7 0 12 -4q6 -3 11 -6t9 -6q3 -1 8.5 -3t11.5 -2q3 0 8 0.5t9 3.5q10 2 16 9q7 4 12 11q3 5 5.5 8.5t2.5 8.5q0 10 -8 16q-6 8 -12 8q-3 4 -7.5 5.5 t-8.5 3.5q-8 2 -20 8q-7 2 -13.5 4t-12.5 5q-9 5 -15.5 9t-12.5 10q-6 4 -10 9.5t-7 11.5q-8 15 -9 33q0 23 9 34q4 8 9 14t11 13l14 8t16 6q8 2 15 4t19 2q5 0 11 -2l12 -4q7 -1 11 -3.5t13 -5.5q4 -3 8.5 -8t8.5 -9q4 -3 8.5 -7t7.5 -9l-11 -7q-3 -2 -6.5 -4.5t-6.5 -4.5 q-5 -1 -8 -1h-9h-3h-4q-8 2 -9 4q-5 1 -8 4q-3 0 -4.5 1t-3.5 1q-4 2 -7 2q-12 0 -17 -2q-4 0 -5.5 -1.5t-6.5 -3.5q-4 -2 -6 -10q-3 -3 -3 -11t3 -9q1 -3 3 -5t3 -7q5 0 8.5 -1.5t7.5 -2.5q6 -2 13 -5.5t12 -5.5l11 -2q7 -5 15 -8t14 -7q12 -6 21 -20q5 -4 9 -9.5t7 -11.5 q1 -6 2.5 -12.5t1.5 -16.5q0 -18 -8 -37q-5 -9 -10 -16t-14 -13q-7 -6 -14.5 -11.5t-18.5 -8.5q-8 -3 -18 -5t-20 -2t-19.5 2t-22.5 5q-8 3 -15.5 9.5t-15.5 14.5q-5 3 -9 7.5t-7 9.5q-4 4 -6 17zM2544 167q0 -5 0.5 -9.5t2.5 -10.5q1 -9 8 -19q1 -4 3.5 -7t5.5 -7 q4 -3 7.5 -7t8.5 -5q5 -2 9.5 -4.5t8.5 -4.5q5 -2 9.5 -2h9.5h10.5t10.5 2q5 2 9 4.5t8 4.5q3 1 8 5t8 7q3 4 6 7t5 7q3 5 4 9.5t2 9.5q2 5 2.5 10t0.5 10q0 6 -1.5 13t-3.5 16q-2 7 -6.5 12t-8.5 10q-5 5 -11.5 9t-13.5 10q-6 1 -13 1.5t-16 0.5q-8 0 -14.5 -0.5 t-13.5 -1.5q-6 -5 -12.5 -9.5t-12.5 -9.5q-5 -5 -7.5 -10t-5.5 -12q-3 -8 -5 -15.5t-2 -13.5zM2618 460h127v24h-98v64h81v26h-81v61h98v29h-127v-204zM2735 -256q0 4 2 6q2 3 3.5 5.5t3.5 2.5q6 8 13 9q1 3 4.5 3.5t6.5 0.5t7 -0.5t6 -3.5q3 -1 8 -9q6 0 9 -8q1 -2 1 -6v-6 q0 -8 -1 -12q-2 -6 -9 -12q-5 -2 -8 -5q-2 -2 -6 -2.5t-7 -0.5t-6.5 0.5t-4.5 2.5q-3 1 -6.5 2.5t-6.5 2.5q-2 2 -3.5 5l-3.5 7t-2 12v6zM2748 74v185h16q4 0 7.5 -0.5t6.5 -5.5l97 -137q1 -1 1 -5q3 -3 3 -2v-3v153h21v-185h-16l-112 152v3h-3v8v-163h-21zM2819 -144 q0 9 1.5 18.5t2.5 19.5q3 10 6 18t10 15q6 11 11.5 18t12.5 14q6 6 15 11.5t17 12.5q7 4 15 8t19 6q9 2 18.5 4t21.5 2q8 0 15.5 -0.5t13.5 -5.5q8 -1 16 -3.5t14 -5.5q8 -3 14.5 -8t16.5 -9q13 -11 21 -21l-11 -12q-2 -5 -4.5 -7t-5.5 -4q-5 -1 -9.5 -1h-9.5t-9.5 1t-8.5 4 q-6 5 -13.5 8.5t-13.5 6.5q-6 2 -12 3t-14 1q-20 0 -37 -8q-11 -3 -18 -8.5t-14 -11.5q-10 -12 -21 -32q-3 -9 -5.5 -17t-2.5 -17t2.5 -19t5.5 -18q5 -11 10 -18.5t11 -12.5q7 -7 13.5 -11.5t18.5 -9.5l18 -6t19 -3q8 0 14 2t12 3q6 2 13.5 6t13.5 9q5 1 9 4h9 q5 0 10.5 -0.5t8.5 -2.5q7 -2 10 -8l11 -13q-9 -12 -21 -20q-9 -4 -16 -8.5t-15 -8.5q-6 -5 -14 -7l-16 -4q-6 -3 -13.5 -3.5t-15.5 -0.5q-17 0 -31 3t-29 8q-28 13 -46 33q-20 20 -33 46q-5 14 -8 28t-3 32zM2863 558q0 -8 1.5 -18.5t6.5 -19.5q7 -20 24 -36q7 -6 15 -11 t18 -7q16 -8 41 -8h14t12 2l13.5 4.5t13.5 6.5q5 3 9.5 6t8.5 7q12 10 19 24q7 11 10 24q2 8 2.5 14t0.5 12q0 8 -0.5 16.5t-2.5 14.5q-3 12 -10 25q-5 8 -19 21q-4 4 -8.5 7.5t-9.5 9.5q-6 2 -13.5 5t-13.5 6q-6 1 -12 2.5t-14 1.5t-15 -1.5t-13 -2.5q-15 -5 -26 -11 q-5 -6 -10.5 -9.5t-9.5 -7.5q-5 -5 -9 -10t-10 -11q-2 -7 -5 -12.5t-4 -12.5q-4 -11 -4 -31zM2892 558q0 17 7 32q2 7 6.5 13t9.5 11q4 6 10.5 10t14.5 7q10 7 29 7q8 0 14.5 -2t14.5 -5q5 -3 12 -7t13 -10q4 -5 8.5 -11t7.5 -13q3 -6 4 -14.5t1 -17.5q0 -14 -5 -29 q-3 -6 -7.5 -11t-8.5 -11q-6 -5 -13 -9t-12 -10q-14 -5 -29 -5q-8 0 -16 1t-13 4q-8 5 -14.5 9.5t-10.5 9.5q-5 6 -9.5 11t-6.5 11q-3 8 -5 15.5t-2 13.5zM3036 74v185h114v-21h-91v-65h75v-18h-75v-81h-23zM3101 -144q0 9 1.5 18.5t2.5 19.5q3 10 7.5 18t8.5 15q4 11 10 18 t14 14q5 6 12.5 11.5t16.5 12.5q8 4 17 8t17 6q11 2 20.5 4t18.5 2q10 0 20.5 -2t18.5 -4q11 -2 19.5 -6t16.5 -8q9 -6 16 -12t17 -12l12 -14t9 -18q5 -7 8.5 -15t6.5 -18q3 -9 4 -19t1 -19q0 -11 -0.5 -21t-4.5 -19q-3 -9 -6.5 -18.5t-8.5 -18.5q-7 -14 -21 -29 q-9 -7 -16.5 -12.5t-16.5 -10.5q-8 -7 -16.5 -10.5t-19.5 -6.5q-8 -1 -18.5 -2.5t-20.5 -1.5q-29 0 -56 11q-14 6 -25.5 14.5t-20.5 18.5q-11 10 -19.5 21.5t-12.5 24.5q-6 14 -9 28t-3 32zM3110 460h31v171q0 -4 1 -4v-4q0 -1 1 -2l2 -3l115 -158h24v204h-28v-160 q-2 4 -3 7.5t-4 5.5l-98 138q-1 1 -2 3t-4 5q-3 0 -7.5 0.5t-7.5 0.5h-20v-204zM3154 -144q0 -9 1.5 -19t3.5 -18q9 -22 23 -31q7 -7 14 -11.5t16 -9.5q8 -3 17.5 -6t17.5 -3q10 0 20.5 2.5t16.5 6.5q10 5 18.5 9.5t14.5 11.5q13 12 18 31q7 17 7 37q0 9 -2 17t-5 17 q-3 11 -7.5 18t-10.5 14q-13 13 -33 20q-6 5 -16.5 6.5t-20.5 1.5q-19 0 -35 -8q-9 -3 -16 -8.5t-14 -11.5q-8 -7 -13 -13.5t-10 -18.5q-2 -9 -3.5 -17t-1.5 -17zM3171 74v185h68q5 0 10 -0.5t11 -3.5q5 -2 9.5 -4.5t7.5 -5.5q3 -5 5.5 -9.5t7.5 -9.5q0 -4 1.5 -9.5 t1.5 -8.5q0 -5 -1.5 -9.5t-1.5 -10.5q-3 -5 -5 -9.5t-4 -6.5l-12 -12q-10 -4 -17 -5l59 -81h-13q-8 0 -12 3q-2 1 -3.5 2t-2.5 6l-52 70h-34v-81h-23zM3194 173h45q8 0 13 2q3 2 4.5 3.5t3.5 2.5q7 7 9 12q1 4 1 15q0 6 -1 10t-9 11q-2 0 -3.5 2.5t-4.5 5.5q-5 1 -13 1h-45 v-65zM3331 167q0 5 0.5 10.5t2.5 10.5q1 7 3.5 14t4.5 12q4 5 9 9.5t8 9.5q5 4 10 8.5t10 7.5t12 5t12 5q6 0 11 1.5t13 1.5q5 0 12 -1.5t14 -1.5q6 -3 11 -5t9 -5q6 -3 11.5 -7t9.5 -9t7 -9.5t6 -9.5q7 -10 10 -26q3 -5 4.5 -10.5t1.5 -10.5q0 -9 -2 -19.5t-7 -19.5 q-3 -9 -8.5 -16.5t-11.5 -12.5q-7 -7 -15 -12.5t-17 -8.5q-7 -3 -15.5 -4t-19.5 -1t-20.5 1t-18.5 4q-17 6 -29 21q-6 5 -12 12.5t-9 16.5t-5 19.5t-2 19.5zM3334 460h118v24h-89v180h-29v-204zM3355 147q2 -5 3.5 -9.5t4.5 -9.5q2 -4 5 -7l7 -7q3 -3 6 -7t7 -5 q5 -2 9.5 -4.5t9.5 -4.5q4 -2 9.5 -2h10.5h10t11 2q4 2 7.5 4.5t6.5 4.5q5 1 9 5t10 7q3 4 5.5 7t4.5 7q2 5 4 9.5t3 9.5t1 10v10q0 6 -0.5 13t-1.5 16q-3 7 -8 12t-8 10q-8 5 -14 9t-11 10q-6 1 -14 1.5t-15 0.5q-8 0 -15 -0.5t-13 -1.5q-8 -5 -14 -9.5t-10 -9.5 q-7 -5 -10 -10t-6 -12q-3 -8 -3.5 -15.5t-0.5 -13.5v-20zM3421 664l76 -102q1 0 2 -4q0 -1 1 -1t2 -1v-4q0 -1 1 -2v-5v-85h31v85v5q1 0 1 6q2 0 4 2v3q0 1 1 1l76 102h-23q-8 0 -13 -5q-8 -6 -9 -11l-49 -63q-1 -1 -1 -2q-1 -1 -4 -1v-3v3l-2 3l-47 63q-5 6 -11 11 q-5 4 -13 5h-23zM3433 0h52q5 0 7.5 -1.5t5.5 -1.5q3 -1 4.5 -1t4.5 -1l8 -8q2 -2 4.5 -5.5t3.5 -5.5q8 -22 16.5 -43.5t16.5 -43.5q8 -23 17.5 -44.5t18.5 -42.5q0 -2 0.5 -4t0.5 -3v-7q3 0 3 -6q0 6 1 6v7q0 1 1 3t1 4l13 21l58 153q1 2 2.5 5.5t2.5 5.5q2 3 5 4.5t3 3.5 q3 1 6 1t6 1q3 0 4.5 1.5t6.5 1.5h51v-291h-51v213q-2 -3 -3 -6t-3 -7q-1 -6 -1 -9t-1 -6q-11 -23 -20.5 -46t-19.5 -46q-9 -24 -18.5 -46.5t-18.5 -46.5h-49l-75 185q-4 5 -4 15q-2 3 -3 5t-1 5v-210h-56v291zM3560 74v185h19q5 0 9 -4q3 -2 4 -2.5t1 -3.5l65 -146 q0 -4 3 -4v-4q0 3 0.5 5.5t0.5 5.5q1 5 7 10l55 133q2 3 3.5 3.5t3.5 2.5q3 3 5.5 3.5t4.5 0.5h16v-185h-18v152q0 -1 -3 -4v-1v-3q-5 -10 -9.5 -21.5t-10.5 -19.5q-4 -10 -7.5 -17.5t-8.5 -19.5q-2 -9 -6.5 -17.5t-7.5 -16.5l-8.5 -17l-7.5 -15h-19q-11 16 -18.5 34.5 t-15.5 35.5q-7 20 -15.5 38.5t-17.5 35.5v4q-3 3 -3 4v-152h-21z" />
<glyph unicode="1" horiz-adv-x="4195" d="M527 167q0 9 5 21q2 7 4.5 14t7.5 12q3 5 5.5 9.5t7.5 9.5q3 4 8 8.5t9 7.5q8 3 13 5t11 5q5 0 12 1.5t16 1.5t17 -2t20 -7q9 -3 16 -8t13 -12q-3 -4 -5 -4q0 -1 -1 -2t-2 -1q0 -1 -4 -1h-4q-7 0 -9 1q-5 2 -10.5 6.5t-10.5 5.5t-9.5 1h-10.5q-8 0 -16 -0.5t-13 -1.5 q-8 -5 -14 -9.5t-13 -9.5q-5 -5 -8.5 -10t-5.5 -12q-5 -8 -6 -15.5t-1 -13.5q0 -10 4 -20q2 -5 3 -9.5t2 -9.5q3 -4 6 -7t6 -7q6 -3 10 -7t9 -5q4 -2 7.5 -4.5t8.5 -4.5t10.5 -2h10.5h11t11 2t13 4.5t11 5.5v40h-16h-2q-1 0 -2 1l-4.5 3t-3.5 4l-2.5 2.5t-1.5 2.5t-0.5 3 t-0.5 4v1h53v-73q-4 -4 -6.5 -5.5t-6.5 -6.5q-8 -2 -16 -2q-9 -4 -20 -4h-17h-15.5t-12.5 1q-6 2 -10.5 4t-13.5 7q-4 2 -9 5t-8 9q-5 3 -7.5 8.5t-5.5 11.5q-5 5 -7 10t-5 11q-2 8 -3.5 13.5t-1.5 13.5zM527 -274q0 11 2 15q0 2 7 10q2 3 3 5.5t2 6.5q2 2 4.5 5.5t3.5 6.5 l127 175h-138v50h213v-26v-6t-1 -6q-1 -5 -3.5 -7t-5.5 -5l-142 -195h2l2 3h4h4h139v-49h-223v17zM538 327v783h1219q0 41 7.5 79.5t24.5 73.5q16 36 36 68t50 58q51 52 123 80q36 16 72.5 23.5t76.5 7.5q43 0 81.5 -7.5t72.5 -25.5q38 -16 69 -37.5t58 -48.5 q48 -49 82 -124q27 -74 26 -147h1221v-783h-3219zM705 460h25v76h45q8 0 15 1t12 3q13 6 18 13q5 4 10.5 8.5t5.5 11.5q7 14 7 25q0 7 -2 13l-5 15q0 4 -5.5 8.5t-10.5 8.5q-3 4 -7.5 8t-10.5 5q-5 5 -12 6.5t-15 1.5h-70v-204zM730 561v74h45q10 0 16 -4q3 0 6 -2t6 -3 q2 -3 3 -7.5t4 -7.5q2 -4 2 -13v-6.5t-2 -6.5q-3 -3 -4 -7t-3 -5q-6 -6 -12 -9t-16 -3h-45zM737 74v185h115v-21h-91v-61h75v-20h-75v-64h91v-19h-115zM786 0h188v-50h-134v-69h107v-52h-107v-71h134v-49h-188v291zM861 460h127v24h-96v64h80v26h-80v61h96v29h-127v-204z M873 238v21h142v-21h-61v-164h-20v164h-61zM983 0h222v-50h-82v-241h-54v241h-86v50zM1032 460h29v84h32l53 -73q2 -7 9 -9q2 -2 6 -2h7h20l-65 88q5 1 9 2t8 6q10 2 12 10q3 3 6 8.5t6 10.5v17q0 7 -0.5 13t-3.5 12q-5 9 -13 17q-5 11 -20 12q-3 5 -9 6.5t-12 1.5h-74v-204 zM1061 570v65h45q7 0 11 -4q5 0 6 -1.5t4 -3.5q5 -6 8 -11q3 -4 3 -13q0 -8 -3 -12q-1 -1 -8 -9q-3 -2 -4 -4.5t-6 -3.5q-3 -3 -11 -3h-45zM1130 74v185h115v-21h-93v-65h80v-18h-80v-81h-22zM1164 -291l126 291h48l125 -291h-30q-13 0 -23 5q-4 2 -6.5 8t-7.5 11l-16 38 h-134l-14 -38q-2 -5 -3 -6t-4 -2q-2 -5 -3.5 -7t-4.5 -4q-3 -1 -6 -2.5t-6 -1.5q-1 -1 -4 -1h-5h-32zM1197 496q0 -4 2 -4q0 -4 5 -8q0 -4 4 -5q0 -2 2 -4q1 -1 2 -1q11 -9 23 -12.5t27 -3.5q6 0 12.5 0.5t12.5 3.5q5 1 13 4t11 8q5 4 9.5 8.5t6.5 12.5q1 6 2.5 11t1.5 11 q0 17 -5 27.5t-15 17.5q-3 2 -4.5 3.5t-7.5 3.5q-1 1 -3.5 1.5t-4.5 2.5q-3 1 -5.5 1.5t-2.5 4.5q-7 0 -10 3q-8 2 -11.5 3.5t-8.5 3.5q-8 2 -11 5q-6 4 -6 8v9v12l4 4t2 4q3 0 6 1.5l5 2.5q5 2 8 2.5t8 0.5q1 0 3.5 -1.5t4.5 -1.5q8 -1 10 -7q3 -1 5.5 -1.5t6.5 -0.5 q10 0 16 5l9 4q-2 3 -4.5 4.5t-5.5 4.5l-6 6t-10 5q-3 1 -6.5 3t-8.5 5q-5 1 -8 2.5t-6 1.5q-6 0 -13 -1.5t-11 -2.5q-7 -2 -11 -5.5t-9 -5.5q-4 -5 -9 -9t-7 -8q-1 -5 -2.5 -10t-1.5 -14q0 -7 0.5 -11.5t3.5 -9.5q2 -4 6.5 -8t6.5 -9l10 -6t10 -5q5 -3 9 -4.5t11 -4.5 q3 -2 7.5 -2.5t7.5 -1.5q5 -1 7.5 -2.5t5.5 -2.5q3 -3 4 -5t5 -7q2 -4 3 -7t1 -8q0 -2 -0.5 -6t-4.5 -7q-3 -3 -4 -5.5t-4 -3.5q-3 -5 -7 -7t-6 -4q-5 0 -8.5 -0.5t-6.5 -0.5q-6 0 -9.5 0.5t-6.5 0.5q-3 2 -6.5 3.5t-3.5 7.5l-4 1q-7 7 -15 7q-3 0 -6.5 -0.5t-6.5 -3.5z M1273 -177h83l-38 90q0 2 -1.5 4.5t-1.5 4.5q0 5 -1 8v-8q0 -2 -1.5 -4.5t-2.5 -4.5zM1279 144v115h20v-115q0 -6 2.5 -10t5.5 -8q2 -8 5 -11t6 -9q3 -3 6.5 -5.5t7.5 -5.5q6 -3 12 -3.5t11 -0.5q6 0 10 0.5t8 3.5q6 3 10.5 5.5t9.5 5.5q2 5 5.5 8.5t5.5 11.5q5 6 5 18v115 h21v-115q0 -8 -2.5 -14t-5.5 -14q-2 -7 -5.5 -13t-8.5 -12q-5 -4 -11 -8t-13 -6q-15 -4 -29 -4q-15 0 -31 4q-5 2 -10.5 6t-10.5 8q-10 10 -17 25q-2 8 -4.5 14t-2.5 14zM1355 558q0 -8 2.5 -18.5t6.5 -19.5q3 -10 8.5 -18.5t12.5 -17.5q8 -6 17 -11t18 -7q16 -8 39 -8h15 t13 2q15 4 23 11q16 7 23 13q9 9 16 24q3 6 7 12t6 12q2 8 2.5 14t0.5 12q0 18 -3 31q-2 7 -6 12.5t-7 12.5q-5 9 -16 21q-4 4 -9.5 7.5t-13.5 9.5q-5 2 -10 5t-13 6q-6 1 -13 2.5t-15 1.5q-7 0 -13.5 -1.5t-12.5 -2.5q-8 -2 -14 -5.5t-11 -5.5q-6 -6 -11.5 -9.5t-11.5 -7.5 q-5 -5 -9 -10t-7 -11q-4 -7 -5.5 -12.5t-4.5 -12.5q-4 -11 -4 -31zM1381 558q0 17 8 32q3 7 7.5 13t8.5 11q6 6 12 10t13 7q8 3 15 5t14 2q16 0 31 -7q7 -3 12.5 -7t9.5 -10q5 -5 10.5 -11t8.5 -13q2 -6 3.5 -14.5t1.5 -17.5q0 -6 -1.5 -13t-3.5 -16q-3 -6 -8 -11l-11 -11 q-4 -5 -9.5 -9t-12.5 -10q-6 -3 -14.5 -4t-16.5 -1q-15 0 -29 5q-6 5 -12.5 9.5t-12.5 9.5q-4 6 -8.5 11t-7.5 11q-3 8 -5.5 15.5t-2.5 13.5zM1467 74v185h23v-166h83v-19h-106zM1478 0h184v-50h-134v-76h111v-51h-111v-114h-50v291zM1594 74v185h21v-166h85v-19h-106z M1605 460h26v171v-4l2 -2l2 -2v-5l119 -158h21v204h-27v-160q0 4 -1.5 7.5t-2.5 5.5l-98 138q-5 1 -11 8q-3 0 -6 0.5t-6 0.5h-18v-204zM1679 -144q0 9 1 18.5t3 19.5q6 22 17 33q5 11 10 18t11 14q8 6 15.5 11.5t17.5 12.5q6 4 15 8t20 6q8 2 17.5 4t20.5 2q10 0 20 -2 t21 -4q9 -2 17.5 -6t18.5 -8q8 -6 14 -12t14 -12q7 -7 13 -14t12 -18q4 -7 7 -15t6 -18q3 -9 3.5 -19t0.5 -19q0 -11 -0.5 -21t-3.5 -19t-6 -18.5t-7 -18.5q-6 -6 -12 -14.5t-13 -14.5q-8 -7 -14 -12.5t-14 -10.5q-9 -7 -18 -10.5t-18 -6.5q-11 -1 -21 -2.5t-20 -1.5 q-15 0 -29 3t-29 8q-14 6 -25 14.5t-23 18.5q-19 20 -29 46q-6 14 -9.5 28t-3.5 32zM1733 -144q0 -9 1 -19t6 -18q4 -11 8.5 -18.5t12.5 -12.5q6 -7 14 -11.5t14 -9.5q10 -3 19.5 -6t18.5 -3q10 0 19 2.5t18 6.5q9 5 16 9.5t13 11.5q8 5 14 12.5t9 18.5q3 8 4.5 17.5 t1.5 19.5q0 16 -6 34q-3 11 -8.5 18t-14.5 14q-6 6 -13 11.5t-16 8.5q-15 8 -37 8q-20 0 -38 -8q-6 -3 -14 -8.5t-14 -11.5q-8 -7 -12.5 -13.5t-8.5 -18.5q-5 -9 -6 -17t-1 -17zM1789 259h10q7 0 11 -4q1 -2 3.5 -2.5t5.5 -3.5l58 -139v-8q3 -3 3 -7v7q0 1 0.5 3.5t0.5 4.5 q8 16 16.5 33.5t16.5 33.5q6 20 14 37t17 35q1 3 2.5 3.5t1.5 2.5q5 3 7 3.5t5 0.5h9q-9 -23 -19.5 -46.5t-21.5 -45.5q-9 -25 -18.5 -48t-19.5 -45h-20zM1789 1109q0 -75 30 -137q13 -33 32 -61.5t41 -54.5q25 -25 53 -44t62 -34q63 -30 140 -29q39 0 73 6.5t66 19.5 q34 14 62 33.5t52 44.5q25 24 45 53t33 61q30 69 30 142q0 33 -5 64t-17 59q-19 55 -57 100q-18 24 -39 42t-44 35q-27 13 -52.5 25.5t-52.5 19.5q-19 7 -43 10t-51 3q-40 0 -75 -7t-68 -23q-65 -26 -113 -78q-24 -24 -41.5 -53t-30.5 -61q-30 -63 -30 -136zM1795 460h16 q10 0 15 2q1 3 3 4.5t5 4.5l13 33h106l13 -33q2 -7 8 -9q1 -2 13 -2h16l-89 204h-29zM1826 1109q0 29 3.5 56.5t13.5 54.5q9 26 23 48.5t30 46.5h431l-422 -423q-38 46 -61 99q-11 27 -14.5 57t-3.5 61zM1860 532l36 86q0 3 1 5v8q0 -4 2 -7t2 -6l37 -86h-78zM1929 1351 q48 39 102 59q51 23 116 23q64 0 119 -23q27 -11 51.5 -26.5t44.5 -32.5h-433zM1932 867h431q-22 -18 -46 -34t-51 -27q-29 -8 -58.5 -16t-60.5 -8q-32 0 -60.5 8t-55.5 16q-27 11 -51.5 27t-47.5 34zM1967 901l421 426q40 -52 61 -107t21 -111q0 -30 -4 -58t-16 -55 q-9 -26 -22.5 -48.5t-31.5 -46.5h-429zM1987 74v185h111v-21h-91v-61h77v-20h-77v-64h91v-19h-111zM2012 0h48q4 0 9.5 -1.5t7.5 -2.5q5 -1 7.5 -3t4.5 -5q15 -22 30 -43.5t28 -43.5q17 -20 31.5 -41.5t32.5 -40.5q1 -3 2.5 -6t2.5 -9q0 -2 1.5 -5t1.5 -4v205h51v-291h-49 l-137 196q-2 2 -2.5 3t-1.5 2q-4 5 -4 8q-4 2 -4 5l-3.5 3.5l-3.5 3.5v-221h-53v291zM2022 460h117v24h-88v180h-29v-204zM2143 74v185h68q6 0 9.5 -0.5t8.5 -3.5q10 -3 20 -10q3 -5 6 -9.5t5 -9.5q2 -4 2 -9.5v-8.5v-9.5t-2 -10.5q0 -5 -2.5 -9.5t-4.5 -6.5q-3 -3 -7 -6 t-10 -6q-3 -3 -15 -5l64 -81h-15q-3 0 -6.5 0.5t-3.5 2.5l-6 2t-5 6l-50 70h-35v-81h-21zM2164 173h47q8 0 10 2q3 2 6 3.5l5 2.5q3 3 4 5.5t5 6.5q0 3 1.5 6.5t1.5 8.5q0 3 -1.5 5t-1.5 5q-3 3 -4.5 5.5t-4.5 5.5q-2 0 -5 2.5t-6 5.5q-2 1 -10 1h-47v-65zM2257 540 q0 -8 0.5 -14t2.5 -10q0 -10 6 -20q6 -11 15 -17q3 -3 7 -6t9 -6q3 -3 8.5 -4t9.5 -3q6 -2 12 -3.5t12 -1.5q7 0 11 1.5t12 3.5q4 2 9 3t9 4q9 5 16 12q5 3 7.5 7t5.5 10q2 5 5.5 9.5t5.5 10.5v24v124h-28v-124q0 -8 -0.5 -13t-3.5 -11q-1 -10 -12 -16q-3 -4 -8 -7t-9 -7 q-5 -2 -9 -2.5t-11 -0.5q-13 0 -21 3l-10.5 7t-6.5 7q-3 3 -6 7t-8 9q-1 6 -1.5 10.5t-0.5 13.5v124h-28v-124zM2297 0h222v-50h-86v-241h-53v241h-83v50zM2298 103l3 3q2 0 2.5 2t3.5 2h3q4 0 6.5 -2.5t6.5 -4.5q5 -3 8.5 -5.5t7.5 -4.5q2 -2 6 -2h7q11 0 15 2q10 0 16 6 q4 3 6 12q3 3 3.5 7.5t0.5 7.5q0 10 -1 14q-2 3 -4 5.5t-5 5.5q-3 4 -11 6q-5 0 -8.5 2t-8.5 4q-5 1 -9.5 3.5t-7.5 4.5q-12 2 -20 9q-2 1 -5 5l-6 8v19q0 7 0.5 11.5t2.5 9.5q2 9 12 16l10 5l10 5q5 0 8.5 1.5t8.5 1.5q4 0 9 -1.5t8 -1.5t5.5 -2t6.5 -4q3 -2 5.5 -3.5 t3.5 -3.5q5 -3 7 -5t4 -3l-5 -5q-3 -4 -11 -4h-9q-4 5 -4 8q-2 0 -3.5 0.5t-3.5 0.5h-2q-1 0 -3 0.5t-3 0.5h-5q-8 0 -11 -1q-9 0 -10 -5q-7 -7 -7 -11q-4 -1 -4 -10q0 -7 4 -8q0 -7 4 -8l5 -5t6 -3q4 -2 7.5 -3.5t9.5 -3.5q1 -1 5 -1.5t4 -2.5q3 0 5.5 -1t5.5 -3q2 -1 3 -1 t1.5 -0.5t1.5 -0.5q2 0 4.5 -1.5t3.5 -2.5l8.5 -8.5l7.5 -7.5q4 -13 4 -25q0 -8 -1 -12.5t-7 -11.5q-1 -9 -12 -16q-4 -5 -9.5 -6.5t-8.5 -2.5q-5 -3 -12 -3.5t-15 -0.5q-11 0 -22 3t-19 10q-3 1 -4 3.5t-6 5.5q0 3 -1.5 5t-1.5 3zM2449 496q1 -1 1.5 -2.5t3.5 -1.5 q0 -2 1.5 -4t1.5 -4l2.5 -2.5t1.5 -2.5q5 -5 8 -5q8 -9 20.5 -12.5t25.5 -3.5q6 0 12.5 0.5t15.5 3.5q6 1 10.5 4t10.5 8q4 4 7 8.5t6 12.5q8 11 9 22q0 17 -6 27.5t-17 17.5q-6 4 -8 7q-3 1 -5.5 1.5t-5.5 2.5q-1 1 -5 1.5t-7 4.5q-1 0 -3.5 1t-5.5 2q-5 2 -7.5 3.5 t-7.5 3.5q-9 2 -10 5q-5 2 -7 3.5t-4 4.5q0 1 -0.5 3.5t-0.5 5.5q0 6 4 12q1 4 8 8q3 0 4.5 1.5t5.5 2.5q3 3 14 3q1 0 3.5 -1.5t5.5 -1.5q3 -3 12 -7q8 -2 12 -2q8 0 13 5l7 4q-2 3 -4.5 4.5t-5.5 4.5q-2 3 -5.5 6t-7.5 5q-3 1 -6.5 3t-9.5 5q-4 1 -8 2.5t-6 1.5 q-6 0 -12 -1.5t-12 -2.5q-5 -2 -10.5 -5.5t-9.5 -5.5q-4 -5 -7 -9l-6 -8q-3 -5 -5 -10t-2 -14q0 -7 2 -11.5t5 -9.5q4 -10 10 -17q5 -3 9 -6t9 -5q6 -3 12 -4.5t10 -4.5q5 -2 7.5 -2.5t5.5 -1.5t8 -2.5t8 -2.5l5 -5t3 -7q3 -4 3.5 -7t0.5 -8q0 -2 -0.5 -6t-3.5 -7 q-2 -7 -9 -9q-5 -5 -8.5 -7t-6.5 -4q-4 0 -7 -0.5t-6 -0.5q-4 0 -8.5 0.5t-7.5 0.5q-7 3 -13 11l-3 1q-7 7 -14 7q-2 0 -5.5 -0.5t-5.5 -3.5zM2458 74v185h20v-185h-20zM2522 167q0 5 0.5 10.5t1.5 10.5q5 15 10 26q7 10 17 19q9 9 18 16q5 3 12 5t12 5q6 0 12 1.5t12 1.5 q7 0 14.5 -1.5t13.5 -1.5q5 -3 10.5 -5t10.5 -5t10 -7t10 -9q4 -5 6.5 -9.5t7.5 -9.5q5 -10 11 -26q1 -5 2.5 -10.5t1.5 -10.5q0 -9 -2.5 -19.5t-8.5 -19.5q-3 -9 -8 -16.5t-10 -12.5q-8 -7 -15.5 -12.5t-17.5 -8.5q-10 -5 -36 -5q-9 0 -18 1t-19 4q-19 6 -29 21 q-14 12 -23 29q-6 18 -6 39zM2522 -229q1 0 2 1.5t4 2.5q2 0 3 1.5t3 2.5q4 0 6.5 1.5t3.5 1.5h11q2 0 5 -0.5t5 -2.5q7 0 12 -4q6 -3 11 -6t9 -6q3 -1 8.5 -3t11.5 -2q3 0 8 0.5t9 3.5q10 2 16 9q7 4 12 11q3 5 5.5 8.5t2.5 8.5q0 10 -8 16q-6 8 -12 8q-3 4 -7.5 5.5 t-8.5 3.5q-8 2 -20 8q-7 2 -13.5 4t-12.5 5q-9 5 -15.5 9t-12.5 10q-6 4 -10 9.5t-7 11.5q-8 15 -9 33q0 23 9 34q4 8 9 14t11 13l14 8t16 6q8 2 15 4t19 2q5 0 11 -2l12 -4q7 -1 11 -3.5t13 -5.5q4 -3 8.5 -8t8.5 -9q4 -3 8.5 -7t7.5 -9l-11 -7q-3 -2 -6.5 -4.5t-6.5 -4.5 q-5 -1 -8 -1h-9h-3h-4q-8 2 -9 4q-5 1 -8 4q-3 0 -4.5 1t-3.5 1q-4 2 -7 2q-12 0 -17 -2q-4 0 -5.5 -1.5t-6.5 -3.5q-4 -2 -6 -10q-3 -3 -3 -11t3 -9q1 -3 3 -5t3 -7q5 0 8.5 -1.5t7.5 -2.5q6 -2 13 -5.5t12 -5.5l11 -2q7 -5 15 -8t14 -7q12 -6 21 -20q5 -4 9 -9.5t7 -11.5 q1 -6 2.5 -12.5t1.5 -16.5q0 -18 -8 -37q-5 -9 -10 -16t-14 -13q-7 -6 -14.5 -11.5t-18.5 -8.5q-8 -3 -18 -5t-20 -2t-19.5 2t-22.5 5q-8 3 -15.5 9.5t-15.5 14.5q-5 3 -9 7.5t-7 9.5q-4 4 -6 17zM2544 167q0 -5 0.5 -9.5t2.5 -10.5q1 -9 8 -19q1 -4 3.5 -7t5.5 -7 q4 -3 7.5 -7t8.5 -5q5 -2 9.5 -4.5t8.5 -4.5q5 -2 9.5 -2h9.5h10.5t10.5 2q5 2 9 4.5t8 4.5q3 1 8 5t8 7q3 4 6 7t5 7q3 5 4 9.5t2 9.5q2 5 2.5 10t0.5 10q0 6 -1.5 13t-3.5 16q-2 7 -6.5 12t-8.5 10q-5 5 -11.5 9t-13.5 10q-6 1 -13 1.5t-16 0.5q-8 0 -14.5 -0.5 t-13.5 -1.5q-6 -5 -12.5 -9.5t-12.5 -9.5q-5 -5 -7.5 -10t-5.5 -12q-3 -8 -5 -15.5t-2 -13.5zM2618 460h127v24h-98v64h81v26h-81v61h98v29h-127v-204zM2735 -256q0 4 2 6q2 3 3.5 5.5t3.5 2.5q6 8 13 9q1 3 4.5 3.5t6.5 0.5t7 -0.5t6 -3.5q3 -1 8 -9q6 0 9 -8q1 -2 1 -6v-6 q0 -8 -1 -12q-2 -6 -9 -12q-5 -2 -8 -5q-2 -2 -6 -2.5t-7 -0.5t-6.5 0.5t-4.5 2.5q-3 1 -6.5 2.5t-6.5 2.5q-2 2 -3.5 5l-3.5 7t-2 12v6zM2748 74v185h16q4 0 7.5 -0.5t6.5 -5.5l97 -137q1 -1 1 -5q3 -3 3 -2v-3v153h21v-185h-16l-112 152v3h-3v8v-163h-21zM2819 -144 q0 9 1.5 18.5t2.5 19.5q3 10 6 18t10 15q6 11 11.5 18t12.5 14q6 6 15 11.5t17 12.5q7 4 15 8t19 6q9 2 18.5 4t21.5 2q8 0 15.5 -0.5t13.5 -5.5q8 -1 16 -3.5t14 -5.5q8 -3 14.5 -8t16.5 -9q13 -11 21 -21l-11 -12q-2 -5 -4.5 -7t-5.5 -4q-5 -1 -9.5 -1h-9.5t-9.5 1t-8.5 4 q-6 5 -13.5 8.5t-13.5 6.5q-6 2 -12 3t-14 1q-20 0 -37 -8q-11 -3 -18 -8.5t-14 -11.5q-10 -12 -21 -32q-3 -9 -5.5 -17t-2.5 -17t2.5 -19t5.5 -18q5 -11 10 -18.5t11 -12.5q7 -7 13.5 -11.5t18.5 -9.5l18 -6t19 -3q8 0 14 2t12 3q6 2 13.5 6t13.5 9q5 1 9 4h9 q5 0 10.5 -0.5t8.5 -2.5q7 -2 10 -8l11 -13q-9 -12 -21 -20q-9 -4 -16 -8.5t-15 -8.5q-6 -5 -14 -7l-16 -4q-6 -3 -13.5 -3.5t-15.5 -0.5q-17 0 -31 3t-29 8q-28 13 -46 33q-20 20 -33 46q-5 14 -8 28t-3 32zM2863 558q0 -8 1.5 -18.5t6.5 -19.5q7 -20 24 -36q7 -6 15 -11 t18 -7q16 -8 41 -8h14t12 2l13.5 4.5t13.5 6.5q5 3 9.5 6t8.5 7q12 10 19 24q7 11 10 24q2 8 2.5 14t0.5 12q0 8 -0.5 16.5t-2.5 14.5q-3 12 -10 25q-5 8 -19 21q-4 4 -8.5 7.5t-9.5 9.5q-6 2 -13.5 5t-13.5 6q-6 1 -12 2.5t-14 1.5t-15 -1.5t-13 -2.5q-15 -5 -26 -11 q-5 -6 -10.5 -9.5t-9.5 -7.5q-5 -5 -9 -10t-10 -11q-2 -7 -5 -12.5t-4 -12.5q-4 -11 -4 -31zM2892 558q0 17 7 32q2 7 6.5 13t9.5 11q4 6 10.5 10t14.5 7q10 7 29 7q8 0 14.5 -2t14.5 -5q5 -3 12 -7t13 -10q4 -5 8.5 -11t7.5 -13q3 -6 4 -14.5t1 -17.5q0 -14 -5 -29 q-3 -6 -7.5 -11t-8.5 -11q-6 -5 -13 -9t-12 -10q-14 -5 -29 -5q-8 0 -16 1t-13 4q-8 5 -14.5 9.5t-10.5 9.5q-5 6 -9.5 11t-6.5 11q-3 8 -5 15.5t-2 13.5zM3036 74v185h114v-21h-91v-65h75v-18h-75v-81h-23zM3101 -144q0 9 1.5 18.5t2.5 19.5q3 10 7.5 18t8.5 15q4 11 10 18 t14 14q5 6 12.5 11.5t16.5 12.5q8 4 17 8t17 6q11 2 20.5 4t18.5 2q10 0 20.5 -2t18.5 -4q11 -2 19.5 -6t16.5 -8q9 -6 16 -12t17 -12l12 -14t9 -18q5 -7 8.5 -15t6.5 -18q3 -9 4 -19t1 -19q0 -11 -0.5 -21t-4.5 -19q-3 -9 -6.5 -18.5t-8.5 -18.5q-7 -14 -21 -29 q-9 -7 -16.5 -12.5t-16.5 -10.5q-8 -7 -16.5 -10.5t-19.5 -6.5q-8 -1 -18.5 -2.5t-20.5 -1.5q-29 0 -56 11q-14 6 -25.5 14.5t-20.5 18.5q-11 10 -19.5 21.5t-12.5 24.5q-6 14 -9 28t-3 32zM3110 460h31v171q0 -4 1 -4v-4q0 -1 1 -2l2 -3l115 -158h24v204h-28v-160 q-2 4 -3 7.5t-4 5.5l-98 138q-1 1 -2 3t-4 5q-3 0 -7.5 0.5t-7.5 0.5h-20v-204zM3154 -144q0 -9 1.5 -19t3.5 -18q9 -22 23 -31q7 -7 14 -11.5t16 -9.5q8 -3 17.5 -6t17.5 -3q10 0 20.5 2.5t16.5 6.5q10 5 18.5 9.5t14.5 11.5q13 12 18 31q7 17 7 37q0 9 -2 17t-5 17 q-3 11 -7.5 18t-10.5 14q-13 13 -33 20q-6 5 -16.5 6.5t-20.5 1.5q-19 0 -35 -8q-9 -3 -16 -8.5t-14 -11.5q-8 -7 -13 -13.5t-10 -18.5q-2 -9 -3.5 -17t-1.5 -17zM3171 74v185h68q5 0 10 -0.5t11 -3.5q5 -2 9.5 -4.5t7.5 -5.5q3 -5 5.5 -9.5t7.5 -9.5q0 -4 1.5 -9.5 t1.5 -8.5q0 -5 -1.5 -9.5t-1.5 -10.5q-3 -5 -5 -9.5t-4 -6.5l-12 -12q-10 -4 -17 -5l59 -81h-13q-8 0 -12 3q-2 1 -3.5 2t-2.5 6l-52 70h-34v-81h-23zM3194 173h45q8 0 13 2q3 2 4.5 3.5t3.5 2.5q7 7 9 12q1 4 1 15q0 6 -1 10t-9 11q-2 0 -3.5 2.5t-4.5 5.5q-5 1 -13 1h-45 v-65zM3331 167q0 5 0.5 10.5t2.5 10.5q1 7 3.5 14t4.5 12q4 5 9 9.5t8 9.5q5 4 10 8.5t10 7.5t12 5t12 5q6 0 11 1.5t13 1.5q5 0 12 -1.5t14 -1.5q6 -3 11 -5t9 -5q6 -3 11.5 -7t9.5 -9t7 -9.5t6 -9.5q7 -10 10 -26q3 -5 4.5 -10.5t1.5 -10.5q0 -9 -2 -19.5t-7 -19.5 q-3 -9 -8.5 -16.5t-11.5 -12.5q-7 -7 -15 -12.5t-17 -8.5q-7 -3 -15.5 -4t-19.5 -1t-20.5 1t-18.5 4q-17 6 -29 21q-6 5 -12 12.5t-9 16.5t-5 19.5t-2 19.5zM3334 460h118v24h-89v180h-29v-204zM3355 147q2 -5 3.5 -9.5t4.5 -9.5q2 -4 5 -7l7 -7q3 -3 6 -7t7 -5 q5 -2 9.5 -4.5t9.5 -4.5q4 -2 9.5 -2h10.5h10t11 2q4 2 7.5 4.5t6.5 4.5q5 1 9 5t10 7q3 4 5.5 7t4.5 7q2 5 4 9.5t3 9.5t1 10v10q0 6 -0.5 13t-1.5 16q-3 7 -8 12t-8 10q-8 5 -14 9t-11 10q-6 1 -14 1.5t-15 0.5q-8 0 -15 -0.5t-13 -1.5q-8 -5 -14 -9.5t-10 -9.5 q-7 -5 -10 -10t-6 -12q-3 -8 -3.5 -15.5t-0.5 -13.5v-20zM3421 664l76 -102q1 0 2 -4q0 -1 1 -1t2 -1v-4q0 -1 1 -2v-5v-85h31v85v5q1 0 1 6q2 0 4 2v3q0 1 1 1l76 102h-23q-8 0 -13 -5q-8 -6 -9 -11l-49 -63q-1 -1 -1 -2q-1 -1 -4 -1v-3v3l-2 3l-47 63q-5 6 -11 11 q-5 4 -13 5h-23zM3433 0h52q5 0 7.5 -1.5t5.5 -1.5q3 -1 4.5 -1t4.5 -1l8 -8q2 -2 4.5 -5.5t3.5 -5.5q8 -22 16.5 -43.5t16.5 -43.5q8 -23 17.5 -44.5t18.5 -42.5q0 -2 0.5 -4t0.5 -3v-7q3 0 3 -6q0 6 1 6v7q0 1 1 3t1 4l13 21l58 153q1 2 2.5 5.5t2.5 5.5q2 3 5 4.5t3 3.5 q3 1 6 1t6 1q3 0 4.5 1.5t6.5 1.5h51v-291h-51v213q-2 -3 -3 -6t-3 -7q-1 -6 -1 -9t-1 -6q-11 -23 -20.5 -46t-19.5 -46q-9 -24 -18.5 -46.5t-18.5 -46.5h-49l-75 185q-4 5 -4 15q-2 3 -3 5t-1 5v-210h-56v291zM3560 74v185h19q5 0 9 -4q3 -2 4 -2.5t1 -3.5l65 -146 q0 -4 3 -4v-4q0 3 0.5 5.5t0.5 5.5q1 5 7 10l55 133q2 3 3.5 3.5t3.5 2.5q3 3 5.5 3.5t4.5 0.5h16v-185h-18v152q0 -1 -3 -4v-1v-3q-5 -10 -9.5 -21.5t-10.5 -19.5q-4 -10 -7.5 -17.5t-8.5 -19.5q-2 -9 -6.5 -17.5t-7.5 -16.5l-8.5 -17l-7.5 -15h-19q-11 16 -18.5 34.5 t-15.5 35.5q-7 20 -15.5 38.5t-17.5 35.5v4q-3 3 -3 4v-152h-21z" />
<glyph unicode="2" horiz-adv-x="4195" d="M527 167q0 9 5 21q2 7 4.5 14t7.5 12q3 5 5.5 9.5t7.5 9.5q3 4 8 8.5t9 7.5q8 3 13 5t11 5q5 0 12 1.5t16 1.5t17 -2t20 -7q9 -3 16 -8t13 -12q-3 -4 -5 -4q0 -1 -1 -2t-2 -1q0 -1 -4 -1h-4q-7 0 -9 1q-5 2 -10.5 6.5t-10.5 5.5t-9.5 1h-10.5q-8 0 -16 -0.5t-13 -1.5 q-8 -5 -14 -9.5t-13 -9.5q-5 -5 -8.5 -10t-5.5 -12q-5 -8 -6 -15.5t-1 -13.5q0 -10 4 -20q2 -5 3 -9.5t2 -9.5q3 -4 6 -7t6 -7q6 -3 10 -7t9 -5q4 -2 7.5 -4.5t8.5 -4.5t10.5 -2h10.5h11t11 2t13 4.5t11 5.5v40h-16h-2q-1 0 -2 1l-4.5 3t-3.5 4l-2.5 2.5t-1.5 2.5t-0.5 3 t-0.5 4v1h53v-73q-4 -4 -6.5 -5.5t-6.5 -6.5q-8 -2 -16 -2q-9 -4 -20 -4h-17h-15.5t-12.5 1q-6 2 -10.5 4t-13.5 7q-4 2 -9 5t-8 9q-5 3 -7.5 8.5t-5.5 11.5q-5 5 -7 10t-5 11q-2 8 -3.5 13.5t-1.5 13.5zM527 -274q0 11 2 15q0 2 7 10q2 3 3 5.5t2 6.5q2 2 4.5 5.5t3.5 6.5 l127 175h-138v50h213v-26v-6t-1 -6q-1 -5 -3.5 -7t-5.5 -5l-142 -195h2l2 3h4h4h139v-49h-223v17zM538 327v783h1219q0 41 7.5 79.5t24.5 73.5q16 36 36 68t50 58q51 52 123 80q36 16 72.5 23.5t76.5 7.5q43 0 81.5 -7.5t72.5 -25.5q38 -16 69 -37.5t58 -48.5 q48 -49 82 -124q27 -74 26 -147h1221v-783h-3219zM705 460h25v76h45q8 0 15 1t12 3q13 6 18 13q5 4 10.5 8.5t5.5 11.5q7 14 7 25q0 7 -2 13l-5 15q0 4 -5.5 8.5t-10.5 8.5q-3 4 -7.5 8t-10.5 5q-5 5 -12 6.5t-15 1.5h-70v-204zM730 561v74h45q10 0 16 -4q3 0 6 -2t6 -3 q2 -3 3 -7.5t4 -7.5q2 -4 2 -13v-6.5t-2 -6.5q-3 -3 -4 -7t-3 -5q-6 -6 -12 -9t-16 -3h-45zM737 74v185h115v-21h-91v-61h75v-20h-75v-64h91v-19h-115zM786 0h188v-50h-134v-69h107v-52h-107v-71h134v-49h-188v291zM861 460h127v24h-96v64h80v26h-80v61h96v29h-127v-204z M873 238v21h142v-21h-61v-164h-20v164h-61zM983 0h222v-50h-82v-241h-54v241h-86v50zM1032 460h29v84h32l53 -73q2 -7 9 -9q2 -2 6 -2h7h20l-65 88q5 1 9 2t8 6q10 2 12 10q3 3 6 8.5t6 10.5v17q0 7 -0.5 13t-3.5 12q-5 9 -13 17q-5 11 -20 12q-3 5 -9 6.5t-12 1.5h-74v-204 zM1061 570v65h45q7 0 11 -4q5 0 6 -1.5t4 -3.5q5 -6 8 -11q3 -4 3 -13q0 -8 -3 -12q-1 -1 -8 -9q-3 -2 -4 -4.5t-6 -3.5q-3 -3 -11 -3h-45zM1130 74v185h115v-21h-93v-65h80v-18h-80v-81h-22zM1164 -291l126 291h48l125 -291h-30q-13 0 -23 5q-4 2 -6.5 8t-7.5 11l-16 38 h-134l-14 -38q-2 -5 -3 -6t-4 -2q-2 -5 -3.5 -7t-4.5 -4q-3 -1 -6 -2.5t-6 -1.5q-1 -1 -4 -1h-5h-32zM1197 496q0 -4 2 -4q0 -4 5 -8q0 -4 4 -5q0 -2 2 -4q1 -1 2 -1q11 -9 23 -12.5t27 -3.5q6 0 12.5 0.5t12.5 3.5q5 1 13 4t11 8q5 4 9.5 8.5t6.5 12.5q1 6 2.5 11t1.5 11 q0 17 -5 27.5t-15 17.5q-3 2 -4.5 3.5t-7.5 3.5q-1 1 -3.5 1.5t-4.5 2.5q-3 1 -5.5 1.5t-2.5 4.5q-7 0 -10 3q-8 2 -11.5 3.5t-8.5 3.5q-8 2 -11 5q-6 4 -6 8v9v12l4 4t2 4q3 0 6 1.5l5 2.5q5 2 8 2.5t8 0.5q1 0 3.5 -1.5t4.5 -1.5q8 -1 10 -7q3 -1 5.5 -1.5t6.5 -0.5 q10 0 16 5l9 4q-2 3 -4.5 4.5t-5.5 4.5l-6 6t-10 5q-3 1 -6.5 3t-8.5 5q-5 1 -8 2.5t-6 1.5q-6 0 -13 -1.5t-11 -2.5q-7 -2 -11 -5.5t-9 -5.5q-4 -5 -9 -9t-7 -8q-1 -5 -2.5 -10t-1.5 -14q0 -7 0.5 -11.5t3.5 -9.5q2 -4 6.5 -8t6.5 -9l10 -6t10 -5q5 -3 9 -4.5t11 -4.5 q3 -2 7.5 -2.5t7.5 -1.5q5 -1 7.5 -2.5t5.5 -2.5q3 -3 4 -5t5 -7q2 -4 3 -7t1 -8q0 -2 -0.5 -6t-4.5 -7q-3 -3 -4 -5.5t-4 -3.5q-3 -5 -7 -7t-6 -4q-5 0 -8.5 -0.5t-6.5 -0.5q-6 0 -9.5 0.5t-6.5 0.5q-3 2 -6.5 3.5t-3.5 7.5l-4 1q-7 7 -15 7q-3 0 -6.5 -0.5t-6.5 -3.5z M1273 -177h83l-38 90q0 2 -1.5 4.5t-1.5 4.5q0 5 -1 8v-8q0 -2 -1.5 -4.5t-2.5 -4.5zM1279 144v115h20v-115q0 -6 2.5 -10t5.5 -8q2 -8 5 -11t6 -9q3 -3 6.5 -5.5t7.5 -5.5q6 -3 12 -3.5t11 -0.5q6 0 10 0.5t8 3.5q6 3 10.5 5.5t9.5 5.5q2 5 5.5 8.5t5.5 11.5q5 6 5 18v115 h21v-115q0 -8 -2.5 -14t-5.5 -14q-2 -7 -5.5 -13t-8.5 -12q-5 -4 -11 -8t-13 -6q-15 -4 -29 -4q-15 0 -31 4q-5 2 -10.5 6t-10.5 8q-10 10 -17 25q-2 8 -4.5 14t-2.5 14zM1355 558q0 -8 2.5 -18.5t6.5 -19.5q3 -10 8.5 -18.5t12.5 -17.5q8 -6 17 -11t18 -7q16 -8 39 -8h15 t13 2q15 4 23 11q16 7 23 13q9 9 16 24q3 6 7 12t6 12q2 8 2.5 14t0.5 12q0 18 -3 31q-2 7 -6 12.5t-7 12.5q-5 9 -16 21q-4 4 -9.5 7.5t-13.5 9.5q-5 2 -10 5t-13 6q-6 1 -13 2.5t-15 1.5q-7 0 -13.5 -1.5t-12.5 -2.5q-8 -2 -14 -5.5t-11 -5.5q-6 -6 -11.5 -9.5t-11.5 -7.5 q-5 -5 -9 -10t-7 -11q-4 -7 -5.5 -12.5t-4.5 -12.5q-4 -11 -4 -31zM1381 558q0 17 8 32q3 7 7.5 13t8.5 11q6 6 12 10t13 7q8 3 15 5t14 2q16 0 31 -7q7 -3 12.5 -7t9.5 -10q5 -5 10.5 -11t8.5 -13q2 -6 3.5 -14.5t1.5 -17.5q0 -6 -1.5 -13t-3.5 -16q-3 -6 -8 -11l-11 -11 q-4 -5 -9.5 -9t-12.5 -10q-6 -3 -14.5 -4t-16.5 -1q-15 0 -29 5q-6 5 -12.5 9.5t-12.5 9.5q-4 6 -8.5 11t-7.5 11q-3 8 -5.5 15.5t-2.5 13.5zM1467 74v185h23v-166h83v-19h-106zM1478 0h184v-50h-134v-76h111v-51h-111v-114h-50v291zM1594 74v185h21v-166h85v-19h-106z M1605 460h26v171v-4l2 -2l2 -2v-5l119 -158h21v204h-27v-160q0 4 -1.5 7.5t-2.5 5.5l-98 138q-5 1 -11 8q-3 0 -6 0.5t-6 0.5h-18v-204zM1679 -144q0 9 1 18.5t3 19.5q6 22 17 33q5 11 10 18t11 14q8 6 15.5 11.5t17.5 12.5q6 4 15 8t20 6q8 2 17.5 4t20.5 2q10 0 20 -2 t21 -4q9 -2 17.5 -6t18.5 -8q8 -6 14 -12t14 -12q7 -7 13 -14t12 -18q4 -7 7 -15t6 -18q3 -9 3.5 -19t0.5 -19q0 -11 -0.5 -21t-3.5 -19t-6 -18.5t-7 -18.5q-6 -6 -12 -14.5t-13 -14.5q-8 -7 -14 -12.5t-14 -10.5q-9 -7 -18 -10.5t-18 -6.5q-11 -1 -21 -2.5t-20 -1.5 q-15 0 -29 3t-29 8q-14 6 -25 14.5t-23 18.5q-19 20 -29 46q-6 14 -9.5 28t-3.5 32zM1733 -144q0 -9 1 -19t6 -18q4 -11 8.5 -18.5t12.5 -12.5q6 -7 14 -11.5t14 -9.5q10 -3 19.5 -6t18.5 -3q10 0 19 2.5t18 6.5q9 5 16 9.5t13 11.5q8 5 14 12.5t9 18.5q3 8 4.5 17.5 t1.5 19.5q0 16 -6 34q-3 11 -8.5 18t-14.5 14q-6 6 -13 11.5t-16 8.5q-15 8 -37 8q-20 0 -38 -8q-6 -3 -14 -8.5t-14 -11.5q-8 -7 -12.5 -13.5t-8.5 -18.5q-5 -9 -6 -17t-1 -17zM1789 259h10q7 0 11 -4q1 -2 3.5 -2.5t5.5 -3.5l58 -139v-8q3 -3 3 -7v7q0 1 0.5 3.5t0.5 4.5 q8 16 16.5 33.5t16.5 33.5q6 20 14 37t17 35q1 3 2.5 3.5t1.5 2.5q5 3 7 3.5t5 0.5h9q-9 -23 -19.5 -46.5t-21.5 -45.5q-9 -25 -18.5 -48t-19.5 -45h-20zM1789 1109q0 -75 30 -137q13 -33 32 -61.5t41 -54.5q25 -25 53 -44t62 -34q63 -30 140 -29q39 0 73 6.5t66 19.5 q34 14 62 33.5t52 44.5q25 24 45 53t33 61q30 69 30 142q0 33 -5 64t-17 59q-19 55 -57 100q-18 24 -39 42t-44 35q-27 13 -52.5 25.5t-52.5 19.5q-19 7 -43 10t-51 3q-40 0 -75 -7t-68 -23q-65 -26 -113 -78q-24 -24 -41.5 -53t-30.5 -61q-30 -63 -30 -136zM1795 460h16 q10 0 15 2q1 3 3 4.5t5 4.5l13 33h106l13 -33q2 -7 8 -9q1 -2 13 -2h16l-89 204h-29zM1826 1109q0 29 3.5 56.5t13.5 54.5q9 26 23 48.5t30 46.5h431l-422 -423q-38 46 -61 99q-11 27 -14.5 57t-3.5 61zM1860 532l36 86q0 3 1 5v8q0 -4 2 -7t2 -6l37 -86h-78zM1929 1351 q48 39 102 59q51 23 116 23q64 0 119 -23q27 -11 51.5 -26.5t44.5 -32.5h-433zM1932 867h431q-22 -18 -46 -34t-51 -27q-29 -8 -58.5 -16t-60.5 -8q-32 0 -60.5 8t-55.5 16q-27 11 -51.5 27t-47.5 34zM1967 901l421 426q40 -52 61 -107t21 -111q0 -30 -4 -58t-16 -55 q-9 -26 -22.5 -48.5t-31.5 -46.5h-429zM1987 74v185h111v-21h-91v-61h77v-20h-77v-64h91v-19h-111zM2012 0h48q4 0 9.5 -1.5t7.5 -2.5q5 -1 7.5 -3t4.5 -5q15 -22 30 -43.5t28 -43.5q17 -20 31.5 -41.5t32.5 -40.5q1 -3 2.5 -6t2.5 -9q0 -2 1.5 -5t1.5 -4v205h51v-291h-49 l-137 196q-2 2 -2.5 3t-1.5 2q-4 5 -4 8q-4 2 -4 5l-3.5 3.5l-3.5 3.5v-221h-53v291zM2022 460h117v24h-88v180h-29v-204zM2143 74v185h68q6 0 9.5 -0.5t8.5 -3.5q10 -3 20 -10q3 -5 6 -9.5t5 -9.5q2 -4 2 -9.5v-8.5v-9.5t-2 -10.5q0 -5 -2.5 -9.5t-4.5 -6.5q-3 -3 -7 -6 t-10 -6q-3 -3 -15 -5l64 -81h-15q-3 0 -6.5 0.5t-3.5 2.5l-6 2t-5 6l-50 70h-35v-81h-21zM2164 173h47q8 0 10 2q3 2 6 3.5l5 2.5q3 3 4 5.5t5 6.5q0 3 1.5 6.5t1.5 8.5q0 3 -1.5 5t-1.5 5q-3 3 -4.5 5.5t-4.5 5.5q-2 0 -5 2.5t-6 5.5q-2 1 -10 1h-47v-65zM2257 540 q0 -8 0.5 -14t2.5 -10q0 -10 6 -20q6 -11 15 -17q3 -3 7 -6t9 -6q3 -3 8.5 -4t9.5 -3q6 -2 12 -3.5t12 -1.5q7 0 11 1.5t12 3.5q4 2 9 3t9 4q9 5 16 12q5 3 7.5 7t5.5 10q2 5 5.5 9.5t5.5 10.5v24v124h-28v-124q0 -8 -0.5 -13t-3.5 -11q-1 -10 -12 -16q-3 -4 -8 -7t-9 -7 q-5 -2 -9 -2.5t-11 -0.5q-13 0 -21 3l-10.5 7t-6.5 7q-3 3 -6 7t-8 9q-1 6 -1.5 10.5t-0.5 13.5v124h-28v-124zM2297 0h222v-50h-86v-241h-53v241h-83v50zM2298 103l3 3q2 0 2.5 2t3.5 2h3q4 0 6.5 -2.5t6.5 -4.5q5 -3 8.5 -5.5t7.5 -4.5q2 -2 6 -2h7q11 0 15 2q10 0 16 6 q4 3 6 12q3 3 3.5 7.5t0.5 7.5q0 10 -1 14q-2 3 -4 5.5t-5 5.5q-3 4 -11 6q-5 0 -8.5 2t-8.5 4q-5 1 -9.5 3.5t-7.5 4.5q-12 2 -20 9q-2 1 -5 5l-6 8v19q0 7 0.5 11.5t2.5 9.5q2 9 12 16l10 5l10 5q5 0 8.5 1.5t8.5 1.5q4 0 9 -1.5t8 -1.5t5.5 -2t6.5 -4q3 -2 5.5 -3.5 t3.5 -3.5q5 -3 7 -5t4 -3l-5 -5q-3 -4 -11 -4h-9q-4 5 -4 8q-2 0 -3.5 0.5t-3.5 0.5h-2q-1 0 -3 0.5t-3 0.5h-5q-8 0 -11 -1q-9 0 -10 -5q-7 -7 -7 -11q-4 -1 -4 -10q0 -7 4 -8q0 -7 4 -8l5 -5t6 -3q4 -2 7.5 -3.5t9.5 -3.5q1 -1 5 -1.5t4 -2.5q3 0 5.5 -1t5.5 -3q2 -1 3 -1 t1.5 -0.5t1.5 -0.5q2 0 4.5 -1.5t3.5 -2.5l8.5 -8.5l7.5 -7.5q4 -13 4 -25q0 -8 -1 -12.5t-7 -11.5q-1 -9 -12 -16q-4 -5 -9.5 -6.5t-8.5 -2.5q-5 -3 -12 -3.5t-15 -0.5q-11 0 -22 3t-19 10q-3 1 -4 3.5t-6 5.5q0 3 -1.5 5t-1.5 3zM2449 496q1 -1 1.5 -2.5t3.5 -1.5 q0 -2 1.5 -4t1.5 -4l2.5 -2.5t1.5 -2.5q5 -5 8 -5q8 -9 20.5 -12.5t25.5 -3.5q6 0 12.5 0.5t15.5 3.5q6 1 10.5 4t10.5 8q4 4 7 8.5t6 12.5q8 11 9 22q0 17 -6 27.5t-17 17.5q-6 4 -8 7q-3 1 -5.5 1.5t-5.5 2.5q-1 1 -5 1.5t-7 4.5q-1 0 -3.5 1t-5.5 2q-5 2 -7.5 3.5 t-7.5 3.5q-9 2 -10 5q-5 2 -7 3.5t-4 4.5q0 1 -0.5 3.5t-0.5 5.5q0 6 4 12q1 4 8 8q3 0 4.5 1.5t5.5 2.5q3 3 14 3q1 0 3.5 -1.5t5.5 -1.5q3 -3 12 -7q8 -2 12 -2q8 0 13 5l7 4q-2 3 -4.5 4.5t-5.5 4.5q-2 3 -5.5 6t-7.5 5q-3 1 -6.5 3t-9.5 5q-4 1 -8 2.5t-6 1.5 q-6 0 -12 -1.5t-12 -2.5q-5 -2 -10.5 -5.5t-9.5 -5.5q-4 -5 -7 -9l-6 -8q-3 -5 -5 -10t-2 -14q0 -7 2 -11.5t5 -9.5q4 -10 10 -17q5 -3 9 -6t9 -5q6 -3 12 -4.5t10 -4.5q5 -2 7.5 -2.5t5.5 -1.5t8 -2.5t8 -2.5l5 -5t3 -7q3 -4 3.5 -7t0.5 -8q0 -2 -0.5 -6t-3.5 -7 q-2 -7 -9 -9q-5 -5 -8.5 -7t-6.5 -4q-4 0 -7 -0.5t-6 -0.5q-4 0 -8.5 0.5t-7.5 0.5q-7 3 -13 11l-3 1q-7 7 -14 7q-2 0 -5.5 -0.5t-5.5 -3.5zM2458 74v185h20v-185h-20zM2522 167q0 5 0.5 10.5t1.5 10.5q5 15 10 26q7 10 17 19q9 9 18 16q5 3 12 5t12 5q6 0 12 1.5t12 1.5 q7 0 14.5 -1.5t13.5 -1.5q5 -3 10.5 -5t10.5 -5t10 -7t10 -9q4 -5 6.5 -9.5t7.5 -9.5q5 -10 11 -26q1 -5 2.5 -10.5t1.5 -10.5q0 -9 -2.5 -19.5t-8.5 -19.5q-3 -9 -8 -16.5t-10 -12.5q-8 -7 -15.5 -12.5t-17.5 -8.5q-10 -5 -36 -5q-9 0 -18 1t-19 4q-19 6 -29 21 q-14 12 -23 29q-6 18 -6 39zM2522 -229q1 0 2 1.5t4 2.5q2 0 3 1.5t3 2.5q4 0 6.5 1.5t3.5 1.5h11q2 0 5 -0.5t5 -2.5q7 0 12 -4q6 -3 11 -6t9 -6q3 -1 8.5 -3t11.5 -2q3 0 8 0.5t9 3.5q10 2 16 9q7 4 12 11q3 5 5.5 8.5t2.5 8.5q0 10 -8 16q-6 8 -12 8q-3 4 -7.5 5.5 t-8.5 3.5q-8 2 -20 8q-7 2 -13.5 4t-12.5 5q-9 5 -15.5 9t-12.5 10q-6 4 -10 9.5t-7 11.5q-8 15 -9 33q0 23 9 34q4 8 9 14t11 13l14 8t16 6q8 2 15 4t19 2q5 0 11 -2l12 -4q7 -1 11 -3.5t13 -5.5q4 -3 8.5 -8t8.5 -9q4 -3 8.5 -7t7.5 -9l-11 -7q-3 -2 -6.5 -4.5t-6.5 -4.5 q-5 -1 -8 -1h-9h-3h-4q-8 2 -9 4q-5 1 -8 4q-3 0 -4.5 1t-3.5 1q-4 2 -7 2q-12 0 -17 -2q-4 0 -5.5 -1.5t-6.5 -3.5q-4 -2 -6 -10q-3 -3 -3 -11t3 -9q1 -3 3 -5t3 -7q5 0 8.5 -1.5t7.5 -2.5q6 -2 13 -5.5t12 -5.5l11 -2q7 -5 15 -8t14 -7q12 -6 21 -20q5 -4 9 -9.5t7 -11.5 q1 -6 2.5 -12.5t1.5 -16.5q0 -18 -8 -37q-5 -9 -10 -16t-14 -13q-7 -6 -14.5 -11.5t-18.5 -8.5q-8 -3 -18 -5t-20 -2t-19.5 2t-22.5 5q-8 3 -15.5 9.5t-15.5 14.5q-5 3 -9 7.5t-7 9.5q-4 4 -6 17zM2544 167q0 -5 0.5 -9.5t2.5 -10.5q1 -9 8 -19q1 -4 3.5 -7t5.5 -7 q4 -3 7.5 -7t8.5 -5q5 -2 9.5 -4.5t8.5 -4.5q5 -2 9.5 -2h9.5h10.5t10.5 2q5 2 9 4.5t8 4.5q3 1 8 5t8 7q3 4 6 7t5 7q3 5 4 9.5t2 9.5q2 5 2.5 10t0.5 10q0 6 -1.5 13t-3.5 16q-2 7 -6.5 12t-8.5 10q-5 5 -11.5 9t-13.5 10q-6 1 -13 1.5t-16 0.5q-8 0 -14.5 -0.5 t-13.5 -1.5q-6 -5 -12.5 -9.5t-12.5 -9.5q-5 -5 -7.5 -10t-5.5 -12q-3 -8 -5 -15.5t-2 -13.5zM2618 460h127v24h-98v64h81v26h-81v61h98v29h-127v-204zM2735 -256q0 4 2 6q2 3 3.5 5.5t3.5 2.5q6 8 13 9q1 3 4.5 3.5t6.5 0.5t7 -0.5t6 -3.5q3 -1 8 -9q6 0 9 -8q1 -2 1 -6v-6 q0 -8 -1 -12q-2 -6 -9 -12q-5 -2 -8 -5q-2 -2 -6 -2.5t-7 -0.5t-6.5 0.5t-4.5 2.5q-3 1 -6.5 2.5t-6.5 2.5q-2 2 -3.5 5l-3.5 7t-2 12v6zM2748 74v185h16q4 0 7.5 -0.5t6.5 -5.5l97 -137q1 -1 1 -5q3 -3 3 -2v-3v153h21v-185h-16l-112 152v3h-3v8v-163h-21zM2819 -144 q0 9 1.5 18.5t2.5 19.5q3 10 6 18t10 15q6 11 11.5 18t12.5 14q6 6 15 11.5t17 12.5q7 4 15 8t19 6q9 2 18.5 4t21.5 2q8 0 15.5 -0.5t13.5 -5.5q8 -1 16 -3.5t14 -5.5q8 -3 14.5 -8t16.5 -9q13 -11 21 -21l-11 -12q-2 -5 -4.5 -7t-5.5 -4q-5 -1 -9.5 -1h-9.5t-9.5 1t-8.5 4 q-6 5 -13.5 8.5t-13.5 6.5q-6 2 -12 3t-14 1q-20 0 -37 -8q-11 -3 -18 -8.5t-14 -11.5q-10 -12 -21 -32q-3 -9 -5.5 -17t-2.5 -17t2.5 -19t5.5 -18q5 -11 10 -18.5t11 -12.5q7 -7 13.5 -11.5t18.5 -9.5l18 -6t19 -3q8 0 14 2t12 3q6 2 13.5 6t13.5 9q5 1 9 4h9 q5 0 10.5 -0.5t8.5 -2.5q7 -2 10 -8l11 -13q-9 -12 -21 -20q-9 -4 -16 -8.5t-15 -8.5q-6 -5 -14 -7l-16 -4q-6 -3 -13.5 -3.5t-15.5 -0.5q-17 0 -31 3t-29 8q-28 13 -46 33q-20 20 -33 46q-5 14 -8 28t-3 32zM2863 558q0 -8 1.5 -18.5t6.5 -19.5q7 -20 24 -36q7 -6 15 -11 t18 -7q16 -8 41 -8h14t12 2l13.5 4.5t13.5 6.5q5 3 9.5 6t8.5 7q12 10 19 24q7 11 10 24q2 8 2.5 14t0.5 12q0 8 -0.5 16.5t-2.5 14.5q-3 12 -10 25q-5 8 -19 21q-4 4 -8.5 7.5t-9.5 9.5q-6 2 -13.5 5t-13.5 6q-6 1 -12 2.5t-14 1.5t-15 -1.5t-13 -2.5q-15 -5 -26 -11 q-5 -6 -10.5 -9.5t-9.5 -7.5q-5 -5 -9 -10t-10 -11q-2 -7 -5 -12.5t-4 -12.5q-4 -11 -4 -31zM2892 558q0 17 7 32q2 7 6.5 13t9.5 11q4 6 10.5 10t14.5 7q10 7 29 7q8 0 14.5 -2t14.5 -5q5 -3 12 -7t13 -10q4 -5 8.5 -11t7.5 -13q3 -6 4 -14.5t1 -17.5q0 -14 -5 -29 q-3 -6 -7.5 -11t-8.5 -11q-6 -5 -13 -9t-12 -10q-14 -5 -29 -5q-8 0 -16 1t-13 4q-8 5 -14.5 9.5t-10.5 9.5q-5 6 -9.5 11t-6.5 11q-3 8 -5 15.5t-2 13.5zM3036 74v185h114v-21h-91v-65h75v-18h-75v-81h-23zM3101 -144q0 9 1.5 18.5t2.5 19.5q3 10 7.5 18t8.5 15q4 11 10 18 t14 14q5 6 12.5 11.5t16.5 12.5q8 4 17 8t17 6q11 2 20.5 4t18.5 2q10 0 20.5 -2t18.5 -4q11 -2 19.5 -6t16.5 -8q9 -6 16 -12t17 -12l12 -14t9 -18q5 -7 8.5 -15t6.5 -18q3 -9 4 -19t1 -19q0 -11 -0.5 -21t-4.5 -19q-3 -9 -6.5 -18.5t-8.5 -18.5q-7 -14 -21 -29 q-9 -7 -16.5 -12.5t-16.5 -10.5q-8 -7 -16.5 -10.5t-19.5 -6.5q-8 -1 -18.5 -2.5t-20.5 -1.5q-29 0 -56 11q-14 6 -25.5 14.5t-20.5 18.5q-11 10 -19.5 21.5t-12.5 24.5q-6 14 -9 28t-3 32zM3110 460h31v171q0 -4 1 -4v-4q0 -1 1 -2l2 -3l115 -158h24v204h-28v-160 q-2 4 -3 7.5t-4 5.5l-98 138q-1 1 -2 3t-4 5q-3 0 -7.5 0.5t-7.5 0.5h-20v-204zM3154 -144q0 -9 1.5 -19t3.5 -18q9 -22 23 -31q7 -7 14 -11.5t16 -9.5q8 -3 17.5 -6t17.5 -3q10 0 20.5 2.5t16.5 6.5q10 5 18.5 9.5t14.5 11.5q13 12 18 31q7 17 7 37q0 9 -2 17t-5 17 q-3 11 -7.5 18t-10.5 14q-13 13 -33 20q-6 5 -16.5 6.5t-20.5 1.5q-19 0 -35 -8q-9 -3 -16 -8.5t-14 -11.5q-8 -7 -13 -13.5t-10 -18.5q-2 -9 -3.5 -17t-1.5 -17zM3171 74v185h68q5 0 10 -0.5t11 -3.5q5 -2 9.5 -4.5t7.5 -5.5q3 -5 5.5 -9.5t7.5 -9.5q0 -4 1.5 -9.5 t1.5 -8.5q0 -5 -1.5 -9.5t-1.5 -10.5q-3 -5 -5 -9.5t-4 -6.5l-12 -12q-10 -4 -17 -5l59 -81h-13q-8 0 -12 3q-2 1 -3.5 2t-2.5 6l-52 70h-34v-81h-23zM3194 173h45q8 0 13 2q3 2 4.5 3.5t3.5 2.5q7 7 9 12q1 4 1 15q0 6 -1 10t-9 11q-2 0 -3.5 2.5t-4.5 5.5q-5 1 -13 1h-45 v-65zM3331 167q0 5 0.5 10.5t2.5 10.5q1 7 3.5 14t4.5 12q4 5 9 9.5t8 9.5q5 4 10 8.5t10 7.5t12 5t12 5q6 0 11 1.5t13 1.5q5 0 12 -1.5t14 -1.5q6 -3 11 -5t9 -5q6 -3 11.5 -7t9.5 -9t7 -9.5t6 -9.5q7 -10 10 -26q3 -5 4.5 -10.5t1.5 -10.5q0 -9 -2 -19.5t-7 -19.5 q-3 -9 -8.5 -16.5t-11.5 -12.5q-7 -7 -15 -12.5t-17 -8.5q-7 -3 -15.5 -4t-19.5 -1t-20.5 1t-18.5 4q-17 6 -29 21q-6 5 -12 12.5t-9 16.5t-5 19.5t-2 19.5zM3334 460h118v24h-89v180h-29v-204zM3355 147q2 -5 3.5 -9.5t4.5 -9.5q2 -4 5 -7l7 -7q3 -3 6 -7t7 -5 q5 -2 9.5 -4.5t9.5 -4.5q4 -2 9.5 -2h10.5h10t11 2q4 2 7.5 4.5t6.5 4.5q5 1 9 5t10 7q3 4 5.5 7t4.5 7q2 5 4 9.5t3 9.5t1 10v10q0 6 -0.5 13t-1.5 16q-3 7 -8 12t-8 10q-8 5 -14 9t-11 10q-6 1 -14 1.5t-15 0.5q-8 0 -15 -0.5t-13 -1.5q-8 -5 -14 -9.5t-10 -9.5 q-7 -5 -10 -10t-6 -12q-3 -8 -3.5 -15.5t-0.5 -13.5v-20zM3421 664l76 -102q1 0 2 -4q0 -1 1 -1t2 -1v-4q0 -1 1 -2v-5v-85h31v85v5q1 0 1 6q2 0 4 2v3q0 1 1 1l76 102h-23q-8 0 -13 -5q-8 -6 -9 -11l-49 -63q-1 -1 -1 -2q-1 -1 -4 -1v-3v3l-2 3l-47 63q-5 6 -11 11 q-5 4 -13 5h-23zM3433 0h52q5 0 7.5 -1.5t5.5 -1.5q3 -1 4.5 -1t4.5 -1l8 -8q2 -2 4.5 -5.5t3.5 -5.5q8 -22 16.5 -43.5t16.5 -43.5q8 -23 17.5 -44.5t18.5 -42.5q0 -2 0.5 -4t0.5 -3v-7q3 0 3 -6q0 6 1 6v7q0 1 1 3t1 4l13 21l58 153q1 2 2.5 5.5t2.5 5.5q2 3 5 4.5t3 3.5 q3 1 6 1t6 1q3 0 4.5 1.5t6.5 1.5h51v-291h-51v213q-2 -3 -3 -6t-3 -7q-1 -6 -1 -9t-1 -6q-11 -23 -20.5 -46t-19.5 -46q-9 -24 -18.5 -46.5t-18.5 -46.5h-49l-75 185q-4 5 -4 15q-2 3 -3 5t-1 5v-210h-56v291zM3560 74v185h19q5 0 9 -4q3 -2 4 -2.5t1 -3.5l65 -146 q0 -4 3 -4v-4q0 3 0.5 5.5t0.5 5.5q1 5 7 10l55 133q2 3 3.5 3.5t3.5 2.5q3 3 5.5 3.5t4.5 0.5h16v-185h-18v152q0 -1 -3 -4v-1v-3q-5 -10 -9.5 -21.5t-10.5 -19.5q-4 -10 -7.5 -17.5t-8.5 -19.5q-2 -9 -6.5 -17.5t-7.5 -16.5l-8.5 -17l-7.5 -15h-19q-11 16 -18.5 34.5 t-15.5 35.5q-7 20 -15.5 38.5t-17.5 35.5v4q-3 3 -3 4v-152h-21z" />
<glyph unicode="3" horiz-adv-x="4195" d="M527 167q0 9 5 21q2 7 4.5 14t7.5 12q3 5 5.5 9.5t7.5 9.5q3 4 8 8.5t9 7.5q8 3 13 5t11 5q5 0 12 1.5t16 1.5t17 -2t20 -7q9 -3 16 -8t13 -12q-3 -4 -5 -4q0 -1 -1 -2t-2 -1q0 -1 -4 -1h-4q-7 0 -9 1q-5 2 -10.5 6.5t-10.5 5.5t-9.5 1h-10.5q-8 0 -16 -0.5t-13 -1.5 q-8 -5 -14 -9.5t-13 -9.5q-5 -5 -8.5 -10t-5.5 -12q-5 -8 -6 -15.5t-1 -13.5q0 -10 4 -20q2 -5 3 -9.5t2 -9.5q3 -4 6 -7t6 -7q6 -3 10 -7t9 -5q4 -2 7.5 -4.5t8.5 -4.5t10.5 -2h10.5h11t11 2t13 4.5t11 5.5v40h-16h-2q-1 0 -2 1l-4.5 3t-3.5 4l-2.5 2.5t-1.5 2.5t-0.5 3 t-0.5 4v1h53v-73q-4 -4 -6.5 -5.5t-6.5 -6.5q-8 -2 -16 -2q-9 -4 -20 -4h-17h-15.5t-12.5 1q-6 2 -10.5 4t-13.5 7q-4 2 -9 5t-8 9q-5 3 -7.5 8.5t-5.5 11.5q-5 5 -7 10t-5 11q-2 8 -3.5 13.5t-1.5 13.5zM527 -274q0 11 2 15q0 2 7 10q2 3 3 5.5t2 6.5q2 2 4.5 5.5t3.5 6.5 l127 175h-138v50h213v-26v-6t-1 -6q-1 -5 -3.5 -7t-5.5 -5l-142 -195h2l2 3h4h4h139v-49h-223v17zM538 327v783h1219q0 41 7.5 79.5t24.5 73.5q16 36 36 68t50 58q51 52 123 80q36 16 72.5 23.5t76.5 7.5q43 0 81.5 -7.5t72.5 -25.5q38 -16 69 -37.5t58 -48.5 q48 -49 82 -124q27 -74 26 -147h1221v-783h-3219zM705 460h25v76h45q8 0 15 1t12 3q13 6 18 13q5 4 10.5 8.5t5.5 11.5q7 14 7 25q0 7 -2 13l-5 15q0 4 -5.5 8.5t-10.5 8.5q-3 4 -7.5 8t-10.5 5q-5 5 -12 6.5t-15 1.5h-70v-204zM730 561v74h45q10 0 16 -4q3 0 6 -2t6 -3 q2 -3 3 -7.5t4 -7.5q2 -4 2 -13v-6.5t-2 -6.5q-3 -3 -4 -7t-3 -5q-6 -6 -12 -9t-16 -3h-45zM737 74v185h115v-21h-91v-61h75v-20h-75v-64h91v-19h-115zM786 0h188v-50h-134v-69h107v-52h-107v-71h134v-49h-188v291zM861 460h127v24h-96v64h80v26h-80v61h96v29h-127v-204z M873 238v21h142v-21h-61v-164h-20v164h-61zM983 0h222v-50h-82v-241h-54v241h-86v50zM1032 460h29v84h32l53 -73q2 -7 9 -9q2 -2 6 -2h7h20l-65 88q5 1 9 2t8 6q10 2 12 10q3 3 6 8.5t6 10.5v17q0 7 -0.5 13t-3.5 12q-5 9 -13 17q-5 11 -20 12q-3 5 -9 6.5t-12 1.5h-74v-204 zM1061 570v65h45q7 0 11 -4q5 0 6 -1.5t4 -3.5q5 -6 8 -11q3 -4 3 -13q0 -8 -3 -12q-1 -1 -8 -9q-3 -2 -4 -4.5t-6 -3.5q-3 -3 -11 -3h-45zM1130 74v185h115v-21h-93v-65h80v-18h-80v-81h-22zM1164 -291l126 291h48l125 -291h-30q-13 0 -23 5q-4 2 -6.5 8t-7.5 11l-16 38 h-134l-14 -38q-2 -5 -3 -6t-4 -2q-2 -5 -3.5 -7t-4.5 -4q-3 -1 -6 -2.5t-6 -1.5q-1 -1 -4 -1h-5h-32zM1197 496q0 -4 2 -4q0 -4 5 -8q0 -4 4 -5q0 -2 2 -4q1 -1 2 -1q11 -9 23 -12.5t27 -3.5q6 0 12.5 0.5t12.5 3.5q5 1 13 4t11 8q5 4 9.5 8.5t6.5 12.5q1 6 2.5 11t1.5 11 q0 17 -5 27.5t-15 17.5q-3 2 -4.5 3.5t-7.5 3.5q-1 1 -3.5 1.5t-4.5 2.5q-3 1 -5.5 1.5t-2.5 4.5q-7 0 -10 3q-8 2 -11.5 3.5t-8.5 3.5q-8 2 -11 5q-6 4 -6 8v9v12l4 4t2 4q3 0 6 1.5l5 2.5q5 2 8 2.5t8 0.5q1 0 3.5 -1.5t4.5 -1.5q8 -1 10 -7q3 -1 5.5 -1.5t6.5 -0.5 q10 0 16 5l9 4q-2 3 -4.5 4.5t-5.5 4.5l-6 6t-10 5q-3 1 -6.5 3t-8.5 5q-5 1 -8 2.5t-6 1.5q-6 0 -13 -1.5t-11 -2.5q-7 -2 -11 -5.5t-9 -5.5q-4 -5 -9 -9t-7 -8q-1 -5 -2.5 -10t-1.5 -14q0 -7 0.5 -11.5t3.5 -9.5q2 -4 6.5 -8t6.5 -9l10 -6t10 -5q5 -3 9 -4.5t11 -4.5 q3 -2 7.5 -2.5t7.5 -1.5q5 -1 7.5 -2.5t5.5 -2.5q3 -3 4 -5t5 -7q2 -4 3 -7t1 -8q0 -2 -0.5 -6t-4.5 -7q-3 -3 -4 -5.5t-4 -3.5q-3 -5 -7 -7t-6 -4q-5 0 -8.5 -0.5t-6.5 -0.5q-6 0 -9.5 0.5t-6.5 0.5q-3 2 -6.5 3.5t-3.5 7.5l-4 1q-7 7 -15 7q-3 0 -6.5 -0.5t-6.5 -3.5z M1273 -177h83l-38 90q0 2 -1.5 4.5t-1.5 4.5q0 5 -1 8v-8q0 -2 -1.5 -4.5t-2.5 -4.5zM1279 144v115h20v-115q0 -6 2.5 -10t5.5 -8q2 -8 5 -11t6 -9q3 -3 6.5 -5.5t7.5 -5.5q6 -3 12 -3.5t11 -0.5q6 0 10 0.5t8 3.5q6 3 10.5 5.5t9.5 5.5q2 5 5.5 8.5t5.5 11.5q5 6 5 18v115 h21v-115q0 -8 -2.5 -14t-5.5 -14q-2 -7 -5.5 -13t-8.5 -12q-5 -4 -11 -8t-13 -6q-15 -4 -29 -4q-15 0 -31 4q-5 2 -10.5 6t-10.5 8q-10 10 -17 25q-2 8 -4.5 14t-2.5 14zM1355 558q0 -8 2.5 -18.5t6.5 -19.5q3 -10 8.5 -18.5t12.5 -17.5q8 -6 17 -11t18 -7q16 -8 39 -8h15 t13 2q15 4 23 11q16 7 23 13q9 9 16 24q3 6 7 12t6 12q2 8 2.5 14t0.5 12q0 18 -3 31q-2 7 -6 12.5t-7 12.5q-5 9 -16 21q-4 4 -9.5 7.5t-13.5 9.5q-5 2 -10 5t-13 6q-6 1 -13 2.5t-15 1.5q-7 0 -13.5 -1.5t-12.5 -2.5q-8 -2 -14 -5.5t-11 -5.5q-6 -6 -11.5 -9.5t-11.5 -7.5 q-5 -5 -9 -10t-7 -11q-4 -7 -5.5 -12.5t-4.5 -12.5q-4 -11 -4 -31zM1381 558q0 17 8 32q3 7 7.5 13t8.5 11q6 6 12 10t13 7q8 3 15 5t14 2q16 0 31 -7q7 -3 12.5 -7t9.5 -10q5 -5 10.5 -11t8.5 -13q2 -6 3.5 -14.5t1.5 -17.5q0 -6 -1.5 -13t-3.5 -16q-3 -6 -8 -11l-11 -11 q-4 -5 -9.5 -9t-12.5 -10q-6 -3 -14.5 -4t-16.5 -1q-15 0 -29 5q-6 5 -12.5 9.5t-12.5 9.5q-4 6 -8.5 11t-7.5 11q-3 8 -5.5 15.5t-2.5 13.5zM1467 74v185h23v-166h83v-19h-106zM1478 0h184v-50h-134v-76h111v-51h-111v-114h-50v291zM1594 74v185h21v-166h85v-19h-106z M1605 460h26v171v-4l2 -2l2 -2v-5l119 -158h21v204h-27v-160q0 4 -1.5 7.5t-2.5 5.5l-98 138q-5 1 -11 8q-3 0 -6 0.5t-6 0.5h-18v-204zM1679 -144q0 9 1 18.5t3 19.5q6 22 17 33q5 11 10 18t11 14q8 6 15.5 11.5t17.5 12.5q6 4 15 8t20 6q8 2 17.5 4t20.5 2q10 0 20 -2 t21 -4q9 -2 17.5 -6t18.5 -8q8 -6 14 -12t14 -12q7 -7 13 -14t12 -18q4 -7 7 -15t6 -18q3 -9 3.5 -19t0.5 -19q0 -11 -0.5 -21t-3.5 -19t-6 -18.5t-7 -18.5q-6 -6 -12 -14.5t-13 -14.5q-8 -7 -14 -12.5t-14 -10.5q-9 -7 -18 -10.5t-18 -6.5q-11 -1 -21 -2.5t-20 -1.5 q-15 0 -29 3t-29 8q-14 6 -25 14.5t-23 18.5q-19 20 -29 46q-6 14 -9.5 28t-3.5 32zM1733 -144q0 -9 1 -19t6 -18q4 -11 8.5 -18.5t12.5 -12.5q6 -7 14 -11.5t14 -9.5q10 -3 19.5 -6t18.5 -3q10 0 19 2.5t18 6.5q9 5 16 9.5t13 11.5q8 5 14 12.5t9 18.5q3 8 4.5 17.5 t1.5 19.5q0 16 -6 34q-3 11 -8.5 18t-14.5 14q-6 6 -13 11.5t-16 8.5q-15 8 -37 8q-20 0 -38 -8q-6 -3 -14 -8.5t-14 -11.5q-8 -7 -12.5 -13.5t-8.5 -18.5q-5 -9 -6 -17t-1 -17zM1789 259h10q7 0 11 -4q1 -2 3.5 -2.5t5.5 -3.5l58 -139v-8q3 -3 3 -7v7q0 1 0.5 3.5t0.5 4.5 q8 16 16.5 33.5t16.5 33.5q6 20 14 37t17 35q1 3 2.5 3.5t1.5 2.5q5 3 7 3.5t5 0.5h9q-9 -23 -19.5 -46.5t-21.5 -45.5q-9 -25 -18.5 -48t-19.5 -45h-20zM1789 1109q0 -75 30 -137q13 -33 32 -61.5t41 -54.5q25 -25 53 -44t62 -34q63 -30 140 -29q39 0 73 6.5t66 19.5 q34 14 62 33.5t52 44.5q25 24 45 53t33 61q30 69 30 142q0 33 -5 64t-17 59q-19 55 -57 100q-18 24 -39 42t-44 35q-27 13 -52.5 25.5t-52.5 19.5q-19 7 -43 10t-51 3q-40 0 -75 -7t-68 -23q-65 -26 -113 -78q-24 -24 -41.5 -53t-30.5 -61q-30 -63 -30 -136zM1795 460h16 q10 0 15 2q1 3 3 4.5t5 4.5l13 33h106l13 -33q2 -7 8 -9q1 -2 13 -2h16l-89 204h-29zM1826 1109q0 29 3.5 56.5t13.5 54.5q9 26 23 48.5t30 46.5h431l-422 -423q-38 46 -61 99q-11 27 -14.5 57t-3.5 61zM1860 532l36 86q0 3 1 5v8q0 -4 2 -7t2 -6l37 -86h-78zM1929 1351 q48 39 102 59q51 23 116 23q64 0 119 -23q27 -11 51.5 -26.5t44.5 -32.5h-433zM1932 867h431q-22 -18 -46 -34t-51 -27q-29 -8 -58.5 -16t-60.5 -8q-32 0 -60.5 8t-55.5 16q-27 11 -51.5 27t-47.5 34zM1967 901l421 426q40 -52 61 -107t21 -111q0 -30 -4 -58t-16 -55 q-9 -26 -22.5 -48.5t-31.5 -46.5h-429zM1987 74v185h111v-21h-91v-61h77v-20h-77v-64h91v-19h-111zM2012 0h48q4 0 9.5 -1.5t7.5 -2.5q5 -1 7.5 -3t4.5 -5q15 -22 30 -43.5t28 -43.5q17 -20 31.5 -41.5t32.5 -40.5q1 -3 2.5 -6t2.5 -9q0 -2 1.5 -5t1.5 -4v205h51v-291h-49 l-137 196q-2 2 -2.5 3t-1.5 2q-4 5 -4 8q-4 2 -4 5l-3.5 3.5l-3.5 3.5v-221h-53v291zM2022 460h117v24h-88v180h-29v-204zM2143 74v185h68q6 0 9.5 -0.5t8.5 -3.5q10 -3 20 -10q3 -5 6 -9.5t5 -9.5q2 -4 2 -9.5v-8.5v-9.5t-2 -10.5q0 -5 -2.5 -9.5t-4.5 -6.5q-3 -3 -7 -6 t-10 -6q-3 -3 -15 -5l64 -81h-15q-3 0 -6.5 0.5t-3.5 2.5l-6 2t-5 6l-50 70h-35v-81h-21zM2164 173h47q8 0 10 2q3 2 6 3.5l5 2.5q3 3 4 5.5t5 6.5q0 3 1.5 6.5t1.5 8.5q0 3 -1.5 5t-1.5 5q-3 3 -4.5 5.5t-4.5 5.5q-2 0 -5 2.5t-6 5.5q-2 1 -10 1h-47v-65zM2257 540 q0 -8 0.5 -14t2.5 -10q0 -10 6 -20q6 -11 15 -17q3 -3 7 -6t9 -6q3 -3 8.5 -4t9.5 -3q6 -2 12 -3.5t12 -1.5q7 0 11 1.5t12 3.5q4 2 9 3t9 4q9 5 16 12q5 3 7.5 7t5.5 10q2 5 5.5 9.5t5.5 10.5v24v124h-28v-124q0 -8 -0.5 -13t-3.5 -11q-1 -10 -12 -16q-3 -4 -8 -7t-9 -7 q-5 -2 -9 -2.5t-11 -0.5q-13 0 -21 3l-10.5 7t-6.5 7q-3 3 -6 7t-8 9q-1 6 -1.5 10.5t-0.5 13.5v124h-28v-124zM2297 0h222v-50h-86v-241h-53v241h-83v50zM2298 103l3 3q2 0 2.5 2t3.5 2h3q4 0 6.5 -2.5t6.5 -4.5q5 -3 8.5 -5.5t7.5 -4.5q2 -2 6 -2h7q11 0 15 2q10 0 16 6 q4 3 6 12q3 3 3.5 7.5t0.5 7.5q0 10 -1 14q-2 3 -4 5.5t-5 5.5q-3 4 -11 6q-5 0 -8.5 2t-8.5 4q-5 1 -9.5 3.5t-7.5 4.5q-12 2 -20 9q-2 1 -5 5l-6 8v19q0 7 0.5 11.5t2.5 9.5q2 9 12 16l10 5l10 5q5 0 8.5 1.5t8.5 1.5q4 0 9 -1.5t8 -1.5t5.5 -2t6.5 -4q3 -2 5.5 -3.5 t3.5 -3.5q5 -3 7 -5t4 -3l-5 -5q-3 -4 -11 -4h-9q-4 5 -4 8q-2 0 -3.5 0.5t-3.5 0.5h-2q-1 0 -3 0.5t-3 0.5h-5q-8 0 -11 -1q-9 0 -10 -5q-7 -7 -7 -11q-4 -1 -4 -10q0 -7 4 -8q0 -7 4 -8l5 -5t6 -3q4 -2 7.5 -3.5t9.5 -3.5q1 -1 5 -1.5t4 -2.5q3 0 5.5 -1t5.5 -3q2 -1 3 -1 t1.5 -0.5t1.5 -0.5q2 0 4.5 -1.5t3.5 -2.5l8.5 -8.5l7.5 -7.5q4 -13 4 -25q0 -8 -1 -12.5t-7 -11.5q-1 -9 -12 -16q-4 -5 -9.5 -6.5t-8.5 -2.5q-5 -3 -12 -3.5t-15 -0.5q-11 0 -22 3t-19 10q-3 1 -4 3.5t-6 5.5q0 3 -1.5 5t-1.5 3zM2449 496q1 -1 1.5 -2.5t3.5 -1.5 q0 -2 1.5 -4t1.5 -4l2.5 -2.5t1.5 -2.5q5 -5 8 -5q8 -9 20.5 -12.5t25.5 -3.5q6 0 12.5 0.5t15.5 3.5q6 1 10.5 4t10.5 8q4 4 7 8.5t6 12.5q8 11 9 22q0 17 -6 27.5t-17 17.5q-6 4 -8 7q-3 1 -5.5 1.5t-5.5 2.5q-1 1 -5 1.5t-7 4.5q-1 0 -3.5 1t-5.5 2q-5 2 -7.5 3.5 t-7.5 3.5q-9 2 -10 5q-5 2 -7 3.5t-4 4.5q0 1 -0.5 3.5t-0.5 5.5q0 6 4 12q1 4 8 8q3 0 4.5 1.5t5.5 2.5q3 3 14 3q1 0 3.5 -1.5t5.5 -1.5q3 -3 12 -7q8 -2 12 -2q8 0 13 5l7 4q-2 3 -4.5 4.5t-5.5 4.5q-2 3 -5.5 6t-7.5 5q-3 1 -6.5 3t-9.5 5q-4 1 -8 2.5t-6 1.5 q-6 0 -12 -1.5t-12 -2.5q-5 -2 -10.5 -5.5t-9.5 -5.5q-4 -5 -7 -9l-6 -8q-3 -5 -5 -10t-2 -14q0 -7 2 -11.5t5 -9.5q4 -10 10 -17q5 -3 9 -6t9 -5q6 -3 12 -4.5t10 -4.5q5 -2 7.5 -2.5t5.5 -1.5t8 -2.5t8 -2.5l5 -5t3 -7q3 -4 3.5 -7t0.5 -8q0 -2 -0.5 -6t-3.5 -7 q-2 -7 -9 -9q-5 -5 -8.5 -7t-6.5 -4q-4 0 -7 -0.5t-6 -0.5q-4 0 -8.5 0.5t-7.5 0.5q-7 3 -13 11l-3 1q-7 7 -14 7q-2 0 -5.5 -0.5t-5.5 -3.5zM2458 74v185h20v-185h-20zM2522 167q0 5 0.5 10.5t1.5 10.5q5 15 10 26q7 10 17 19q9 9 18 16q5 3 12 5t12 5q6 0 12 1.5t12 1.5 q7 0 14.5 -1.5t13.5 -1.5q5 -3 10.5 -5t10.5 -5t10 -7t10 -9q4 -5 6.5 -9.5t7.5 -9.5q5 -10 11 -26q1 -5 2.5 -10.5t1.5 -10.5q0 -9 -2.5 -19.5t-8.5 -19.5q-3 -9 -8 -16.5t-10 -12.5q-8 -7 -15.5 -12.5t-17.5 -8.5q-10 -5 -36 -5q-9 0 -18 1t-19 4q-19 6 -29 21 q-14 12 -23 29q-6 18 -6 39zM2522 -229q1 0 2 1.5t4 2.5q2 0 3 1.5t3 2.5q4 0 6.5 1.5t3.5 1.5h11q2 0 5 -0.5t5 -2.5q7 0 12 -4q6 -3 11 -6t9 -6q3 -1 8.5 -3t11.5 -2q3 0 8 0.5t9 3.5q10 2 16 9q7 4 12 11q3 5 5.5 8.5t2.5 8.5q0 10 -8 16q-6 8 -12 8q-3 4 -7.5 5.5 t-8.5 3.5q-8 2 -20 8q-7 2 -13.5 4t-12.5 5q-9 5 -15.5 9t-12.5 10q-6 4 -10 9.5t-7 11.5q-8 15 -9 33q0 23 9 34q4 8 9 14t11 13l14 8t16 6q8 2 15 4t19 2q5 0 11 -2l12 -4q7 -1 11 -3.5t13 -5.5q4 -3 8.5 -8t8.5 -9q4 -3 8.5 -7t7.5 -9l-11 -7q-3 -2 -6.5 -4.5t-6.5 -4.5 q-5 -1 -8 -1h-9h-3h-4q-8 2 -9 4q-5 1 -8 4q-3 0 -4.5 1t-3.5 1q-4 2 -7 2q-12 0 -17 -2q-4 0 -5.5 -1.5t-6.5 -3.5q-4 -2 -6 -10q-3 -3 -3 -11t3 -9q1 -3 3 -5t3 -7q5 0 8.5 -1.5t7.5 -2.5q6 -2 13 -5.5t12 -5.5l11 -2q7 -5 15 -8t14 -7q12 -6 21 -20q5 -4 9 -9.5t7 -11.5 q1 -6 2.5 -12.5t1.5 -16.5q0 -18 -8 -37q-5 -9 -10 -16t-14 -13q-7 -6 -14.5 -11.5t-18.5 -8.5q-8 -3 -18 -5t-20 -2t-19.5 2t-22.5 5q-8 3 -15.5 9.5t-15.5 14.5q-5 3 -9 7.5t-7 9.5q-4 4 -6 17zM2544 167q0 -5 0.5 -9.5t2.5 -10.5q1 -9 8 -19q1 -4 3.5 -7t5.5 -7 q4 -3 7.5 -7t8.5 -5q5 -2 9.5 -4.5t8.5 -4.5q5 -2 9.5 -2h9.5h10.5t10.5 2q5 2 9 4.5t8 4.5q3 1 8 5t8 7q3 4 6 7t5 7q3 5 4 9.5t2 9.5q2 5 2.5 10t0.5 10q0 6 -1.5 13t-3.5 16q-2 7 -6.5 12t-8.5 10q-5 5 -11.5 9t-13.5 10q-6 1 -13 1.5t-16 0.5q-8 0 -14.5 -0.5 t-13.5 -1.5q-6 -5 -12.5 -9.5t-12.5 -9.5q-5 -5 -7.5 -10t-5.5 -12q-3 -8 -5 -15.5t-2 -13.5zM2618 460h127v24h-98v64h81v26h-81v61h98v29h-127v-204zM2735 -256q0 4 2 6q2 3 3.5 5.5t3.5 2.5q6 8 13 9q1 3 4.5 3.5t6.5 0.5t7 -0.5t6 -3.5q3 -1 8 -9q6 0 9 -8q1 -2 1 -6v-6 q0 -8 -1 -12q-2 -6 -9 -12q-5 -2 -8 -5q-2 -2 -6 -2.5t-7 -0.5t-6.5 0.5t-4.5 2.5q-3 1 -6.5 2.5t-6.5 2.5q-2 2 -3.5 5l-3.5 7t-2 12v6zM2748 74v185h16q4 0 7.5 -0.5t6.5 -5.5l97 -137q1 -1 1 -5q3 -3 3 -2v-3v153h21v-185h-16l-112 152v3h-3v8v-163h-21zM2819 -144 q0 9 1.5 18.5t2.5 19.5q3 10 6 18t10 15q6 11 11.5 18t12.5 14q6 6 15 11.5t17 12.5q7 4 15 8t19 6q9 2 18.5 4t21.5 2q8 0 15.5 -0.5t13.5 -5.5q8 -1 16 -3.5t14 -5.5q8 -3 14.5 -8t16.5 -9q13 -11 21 -21l-11 -12q-2 -5 -4.5 -7t-5.5 -4q-5 -1 -9.5 -1h-9.5t-9.5 1t-8.5 4 q-6 5 -13.5 8.5t-13.5 6.5q-6 2 -12 3t-14 1q-20 0 -37 -8q-11 -3 -18 -8.5t-14 -11.5q-10 -12 -21 -32q-3 -9 -5.5 -17t-2.5 -17t2.5 -19t5.5 -18q5 -11 10 -18.5t11 -12.5q7 -7 13.5 -11.5t18.5 -9.5l18 -6t19 -3q8 0 14 2t12 3q6 2 13.5 6t13.5 9q5 1 9 4h9 q5 0 10.5 -0.5t8.5 -2.5q7 -2 10 -8l11 -13q-9 -12 -21 -20q-9 -4 -16 -8.5t-15 -8.5q-6 -5 -14 -7l-16 -4q-6 -3 -13.5 -3.5t-15.5 -0.5q-17 0 -31 3t-29 8q-28 13 -46 33q-20 20 -33 46q-5 14 -8 28t-3 32zM2863 558q0 -8 1.5 -18.5t6.5 -19.5q7 -20 24 -36q7 -6 15 -11 t18 -7q16 -8 41 -8h14t12 2l13.5 4.5t13.5 6.5q5 3 9.5 6t8.5 7q12 10 19 24q7 11 10 24q2 8 2.5 14t0.5 12q0 8 -0.5 16.5t-2.5 14.5q-3 12 -10 25q-5 8 -19 21q-4 4 -8.5 7.5t-9.5 9.5q-6 2 -13.5 5t-13.5 6q-6 1 -12 2.5t-14 1.5t-15 -1.5t-13 -2.5q-15 -5 -26 -11 q-5 -6 -10.5 -9.5t-9.5 -7.5q-5 -5 -9 -10t-10 -11q-2 -7 -5 -12.5t-4 -12.5q-4 -11 -4 -31zM2892 558q0 17 7 32q2 7 6.5 13t9.5 11q4 6 10.5 10t14.5 7q10 7 29 7q8 0 14.5 -2t14.5 -5q5 -3 12 -7t13 -10q4 -5 8.5 -11t7.5 -13q3 -6 4 -14.5t1 -17.5q0 -14 -5 -29 q-3 -6 -7.5 -11t-8.5 -11q-6 -5 -13 -9t-12 -10q-14 -5 -29 -5q-8 0 -16 1t-13 4q-8 5 -14.5 9.5t-10.5 9.5q-5 6 -9.5 11t-6.5 11q-3 8 -5 15.5t-2 13.5zM3036 74v185h114v-21h-91v-65h75v-18h-75v-81h-23zM3101 -144q0 9 1.5 18.5t2.5 19.5q3 10 7.5 18t8.5 15q4 11 10 18 t14 14q5 6 12.5 11.5t16.5 12.5q8 4 17 8t17 6q11 2 20.5 4t18.5 2q10 0 20.5 -2t18.5 -4q11 -2 19.5 -6t16.5 -8q9 -6 16 -12t17 -12l12 -14t9 -18q5 -7 8.5 -15t6.5 -18q3 -9 4 -19t1 -19q0 -11 -0.5 -21t-4.5 -19q-3 -9 -6.5 -18.5t-8.5 -18.5q-7 -14 -21 -29 q-9 -7 -16.5 -12.5t-16.5 -10.5q-8 -7 -16.5 -10.5t-19.5 -6.5q-8 -1 -18.5 -2.5t-20.5 -1.5q-29 0 -56 11q-14 6 -25.5 14.5t-20.5 18.5q-11 10 -19.5 21.5t-12.5 24.5q-6 14 -9 28t-3 32zM3110 460h31v171q0 -4 1 -4v-4q0 -1 1 -2l2 -3l115 -158h24v204h-28v-160 q-2 4 -3 7.5t-4 5.5l-98 138q-1 1 -2 3t-4 5q-3 0 -7.5 0.5t-7.5 0.5h-20v-204zM3154 -144q0 -9 1.5 -19t3.5 -18q9 -22 23 -31q7 -7 14 -11.5t16 -9.5q8 -3 17.5 -6t17.5 -3q10 0 20.5 2.5t16.5 6.5q10 5 18.5 9.5t14.5 11.5q13 12 18 31q7 17 7 37q0 9 -2 17t-5 17 q-3 11 -7.5 18t-10.5 14q-13 13 -33 20q-6 5 -16.5 6.5t-20.5 1.5q-19 0 -35 -8q-9 -3 -16 -8.5t-14 -11.5q-8 -7 -13 -13.5t-10 -18.5q-2 -9 -3.5 -17t-1.5 -17zM3171 74v185h68q5 0 10 -0.5t11 -3.5q5 -2 9.5 -4.5t7.5 -5.5q3 -5 5.5 -9.5t7.5 -9.5q0 -4 1.5 -9.5 t1.5 -8.5q0 -5 -1.5 -9.5t-1.5 -10.5q-3 -5 -5 -9.5t-4 -6.5l-12 -12q-10 -4 -17 -5l59 -81h-13q-8 0 -12 3q-2 1 -3.5 2t-2.5 6l-52 70h-34v-81h-23zM3194 173h45q8 0 13 2q3 2 4.5 3.5t3.5 2.5q7 7 9 12q1 4 1 15q0 6 -1 10t-9 11q-2 0 -3.5 2.5t-4.5 5.5q-5 1 -13 1h-45 v-65zM3331 167q0 5 0.5 10.5t2.5 10.5q1 7 3.5 14t4.5 12q4 5 9 9.5t8 9.5q5 4 10 8.5t10 7.5t12 5t12 5q6 0 11 1.5t13 1.5q5 0 12 -1.5t14 -1.5q6 -3 11 -5t9 -5q6 -3 11.5 -7t9.5 -9t7 -9.5t6 -9.5q7 -10 10 -26q3 -5 4.5 -10.5t1.5 -10.5q0 -9 -2 -19.5t-7 -19.5 q-3 -9 -8.5 -16.5t-11.5 -12.5q-7 -7 -15 -12.5t-17 -8.5q-7 -3 -15.5 -4t-19.5 -1t-20.5 1t-18.5 4q-17 6 -29 21q-6 5 -12 12.5t-9 16.5t-5 19.5t-2 19.5zM3334 460h118v24h-89v180h-29v-204zM3355 147q2 -5 3.5 -9.5t4.5 -9.5q2 -4 5 -7l7 -7q3 -3 6 -7t7 -5 q5 -2 9.5 -4.5t9.5 -4.5q4 -2 9.5 -2h10.5h10t11 2q4 2 7.5 4.5t6.5 4.5q5 1 9 5t10 7q3 4 5.5 7t4.5 7q2 5 4 9.5t3 9.5t1 10v10q0 6 -0.5 13t-1.5 16q-3 7 -8 12t-8 10q-8 5 -14 9t-11 10q-6 1 -14 1.5t-15 0.5q-8 0 -15 -0.5t-13 -1.5q-8 -5 -14 -9.5t-10 -9.5 q-7 -5 -10 -10t-6 -12q-3 -8 -3.5 -15.5t-0.5 -13.5v-20zM3421 664l76 -102q1 0 2 -4q0 -1 1 -1t2 -1v-4q0 -1 1 -2v-5v-85h31v85v5q1 0 1 6q2 0 4 2v3q0 1 1 1l76 102h-23q-8 0 -13 -5q-8 -6 -9 -11l-49 -63q-1 -1 -1 -2q-1 -1 -4 -1v-3v3l-2 3l-47 63q-5 6 -11 11 q-5 4 -13 5h-23zM3433 0h52q5 0 7.5 -1.5t5.5 -1.5q3 -1 4.5 -1t4.5 -1l8 -8q2 -2 4.5 -5.5t3.5 -5.5q8 -22 16.5 -43.5t16.5 -43.5q8 -23 17.5 -44.5t18.5 -42.5q0 -2 0.5 -4t0.5 -3v-7q3 0 3 -6q0 6 1 6v7q0 1 1 3t1 4l13 21l58 153q1 2 2.5 5.5t2.5 5.5q2 3 5 4.5t3 3.5 q3 1 6 1t6 1q3 0 4.5 1.5t6.5 1.5h51v-291h-51v213q-2 -3 -3 -6t-3 -7q-1 -6 -1 -9t-1 -6q-11 -23 -20.5 -46t-19.5 -46q-9 -24 -18.5 -46.5t-18.5 -46.5h-49l-75 185q-4 5 -4 15q-2 3 -3 5t-1 5v-210h-56v291zM3560 74v185h19q5 0 9 -4q3 -2 4 -2.5t1 -3.5l65 -146 q0 -4 3 -4v-4q0 3 0.5 5.5t0.5 5.5q1 5 7 10l55 133q2 3 3.5 3.5t3.5 2.5q3 3 5.5 3.5t4.5 0.5h16v-185h-18v152q0 -1 -3 -4v-1v-3q-5 -10 -9.5 -21.5t-10.5 -19.5q-4 -10 -7.5 -17.5t-8.5 -19.5q-2 -9 -6.5 -17.5t-7.5 -16.5l-8.5 -17l-7.5 -15h-19q-11 16 -18.5 34.5 t-15.5 35.5q-7 20 -15.5 38.5t-17.5 35.5v4q-3 3 -3 4v-152h-21z" />
<glyph unicode="4" horiz-adv-x="4195" d="M527 167q0 9 5 21q2 7 4.5 14t7.5 12q3 5 5.5 9.5t7.5 9.5q3 4 8 8.5t9 7.5q8 3 13 5t11 5q5 0 12 1.5t16 1.5t17 -2t20 -7q9 -3 16 -8t13 -12q-3 -4 -5 -4q0 -1 -1 -2t-2 -1q0 -1 -4 -1h-4q-7 0 -9 1q-5 2 -10.5 6.5t-10.5 5.5t-9.5 1h-10.5q-8 0 -16 -0.5t-13 -1.5 q-8 -5 -14 -9.5t-13 -9.5q-5 -5 -8.5 -10t-5.5 -12q-5 -8 -6 -15.5t-1 -13.5q0 -10 4 -20q2 -5 3 -9.5t2 -9.5q3 -4 6 -7t6 -7q6 -3 10 -7t9 -5q4 -2 7.5 -4.5t8.5 -4.5t10.5 -2h10.5h11t11 2t13 4.5t11 5.5v40h-16h-2q-1 0 -2 1l-4.5 3t-3.5 4l-2.5 2.5t-1.5 2.5t-0.5 3 t-0.5 4v1h53v-73q-4 -4 -6.5 -5.5t-6.5 -6.5q-8 -2 -16 -2q-9 -4 -20 -4h-17h-15.5t-12.5 1q-6 2 -10.5 4t-13.5 7q-4 2 -9 5t-8 9q-5 3 -7.5 8.5t-5.5 11.5q-5 5 -7 10t-5 11q-2 8 -3.5 13.5t-1.5 13.5zM527 -274q0 11 2 15q0 2 7 10q2 3 3 5.5t2 6.5q2 2 4.5 5.5t3.5 6.5 l127 175h-138v50h213v-26v-6t-1 -6q-1 -5 -3.5 -7t-5.5 -5l-142 -195h2l2 3h4h4h139v-49h-223v17zM538 327v783h1219q0 41 7.5 79.5t24.5 73.5q16 36 36 68t50 58q51 52 123 80q36 16 72.5 23.5t76.5 7.5q43 0 81.5 -7.5t72.5 -25.5q38 -16 69 -37.5t58 -48.5 q48 -49 82 -124q27 -74 26 -147h1221v-783h-3219zM705 460h25v76h45q8 0 15 1t12 3q13 6 18 13q5 4 10.5 8.5t5.5 11.5q7 14 7 25q0 7 -2 13l-5 15q0 4 -5.5 8.5t-10.5 8.5q-3 4 -7.5 8t-10.5 5q-5 5 -12 6.5t-15 1.5h-70v-204zM730 561v74h45q10 0 16 -4q3 0 6 -2t6 -3 q2 -3 3 -7.5t4 -7.5q2 -4 2 -13v-6.5t-2 -6.5q-3 -3 -4 -7t-3 -5q-6 -6 -12 -9t-16 -3h-45zM737 74v185h115v-21h-91v-61h75v-20h-75v-64h91v-19h-115zM786 0h188v-50h-134v-69h107v-52h-107v-71h134v-49h-188v291zM861 460h127v24h-96v64h80v26h-80v61h96v29h-127v-204z M873 238v21h142v-21h-61v-164h-20v164h-61zM983 0h222v-50h-82v-241h-54v241h-86v50zM1032 460h29v84h32l53 -73q2 -7 9 -9q2 -2 6 -2h7h20l-65 88q5 1 9 2t8 6q10 2 12 10q3 3 6 8.5t6 10.5v17q0 7 -0.5 13t-3.5 12q-5 9 -13 17q-5 11 -20 12q-3 5 -9 6.5t-12 1.5h-74v-204 zM1061 570v65h45q7 0 11 -4q5 0 6 -1.5t4 -3.5q5 -6 8 -11q3 -4 3 -13q0 -8 -3 -12q-1 -1 -8 -9q-3 -2 -4 -4.5t-6 -3.5q-3 -3 -11 -3h-45zM1130 74v185h115v-21h-93v-65h80v-18h-80v-81h-22zM1164 -291l126 291h48l125 -291h-30q-13 0 -23 5q-4 2 -6.5 8t-7.5 11l-16 38 h-134l-14 -38q-2 -5 -3 -6t-4 -2q-2 -5 -3.5 -7t-4.5 -4q-3 -1 -6 -2.5t-6 -1.5q-1 -1 -4 -1h-5h-32zM1197 496q0 -4 2 -4q0 -4 5 -8q0 -4 4 -5q0 -2 2 -4q1 -1 2 -1q11 -9 23 -12.5t27 -3.5q6 0 12.5 0.5t12.5 3.5q5 1 13 4t11 8q5 4 9.5 8.5t6.5 12.5q1 6 2.5 11t1.5 11 q0 17 -5 27.5t-15 17.5q-3 2 -4.5 3.5t-7.5 3.5q-1 1 -3.5 1.5t-4.5 2.5q-3 1 -5.5 1.5t-2.5 4.5q-7 0 -10 3q-8 2 -11.5 3.5t-8.5 3.5q-8 2 -11 5q-6 4 -6 8v9v12l4 4t2 4q3 0 6 1.5l5 2.5q5 2 8 2.5t8 0.5q1 0 3.5 -1.5t4.5 -1.5q8 -1 10 -7q3 -1 5.5 -1.5t6.5 -0.5 q10 0 16 5l9 4q-2 3 -4.5 4.5t-5.5 4.5l-6 6t-10 5q-3 1 -6.5 3t-8.5 5q-5 1 -8 2.5t-6 1.5q-6 0 -13 -1.5t-11 -2.5q-7 -2 -11 -5.5t-9 -5.5q-4 -5 -9 -9t-7 -8q-1 -5 -2.5 -10t-1.5 -14q0 -7 0.5 -11.5t3.5 -9.5q2 -4 6.5 -8t6.5 -9l10 -6t10 -5q5 -3 9 -4.5t11 -4.5 q3 -2 7.5 -2.5t7.5 -1.5q5 -1 7.5 -2.5t5.5 -2.5q3 -3 4 -5t5 -7q2 -4 3 -7t1 -8q0 -2 -0.5 -6t-4.5 -7q-3 -3 -4 -5.5t-4 -3.5q-3 -5 -7 -7t-6 -4q-5 0 -8.5 -0.5t-6.5 -0.5q-6 0 -9.5 0.5t-6.5 0.5q-3 2 -6.5 3.5t-3.5 7.5l-4 1q-7 7 -15 7q-3 0 -6.5 -0.5t-6.5 -3.5z M1273 -177h83l-38 90q0 2 -1.5 4.5t-1.5 4.5q0 5 -1 8v-8q0 -2 -1.5 -4.5t-2.5 -4.5zM1279 144v115h20v-115q0 -6 2.5 -10t5.5 -8q2 -8 5 -11t6 -9q3 -3 6.5 -5.5t7.5 -5.5q6 -3 12 -3.5t11 -0.5q6 0 10 0.5t8 3.5q6 3 10.5 5.5t9.5 5.5q2 5 5.5 8.5t5.5 11.5q5 6 5 18v115 h21v-115q0 -8 -2.5 -14t-5.5 -14q-2 -7 -5.5 -13t-8.5 -12q-5 -4 -11 -8t-13 -6q-15 -4 -29 -4q-15 0 -31 4q-5 2 -10.5 6t-10.5 8q-10 10 -17 25q-2 8 -4.5 14t-2.5 14zM1355 558q0 -8 2.5 -18.5t6.5 -19.5q3 -10 8.5 -18.5t12.5 -17.5q8 -6 17 -11t18 -7q16 -8 39 -8h15 t13 2q15 4 23 11q16 7 23 13q9 9 16 24q3 6 7 12t6 12q2 8 2.5 14t0.5 12q0 18 -3 31q-2 7 -6 12.5t-7 12.5q-5 9 -16 21q-4 4 -9.5 7.5t-13.5 9.5q-5 2 -10 5t-13 6q-6 1 -13 2.5t-15 1.5q-7 0 -13.5 -1.5t-12.5 -2.5q-8 -2 -14 -5.5t-11 -5.5q-6 -6 -11.5 -9.5t-11.5 -7.5 q-5 -5 -9 -10t-7 -11q-4 -7 -5.5 -12.5t-4.5 -12.5q-4 -11 -4 -31zM1381 558q0 17 8 32q3 7 7.5 13t8.5 11q6 6 12 10t13 7q8 3 15 5t14 2q16 0 31 -7q7 -3 12.5 -7t9.5 -10q5 -5 10.5 -11t8.5 -13q2 -6 3.5 -14.5t1.5 -17.5q0 -6 -1.5 -13t-3.5 -16q-3 -6 -8 -11l-11 -11 q-4 -5 -9.5 -9t-12.5 -10q-6 -3 -14.5 -4t-16.5 -1q-15 0 -29 5q-6 5 -12.5 9.5t-12.5 9.5q-4 6 -8.5 11t-7.5 11q-3 8 -5.5 15.5t-2.5 13.5zM1467 74v185h23v-166h83v-19h-106zM1478 0h184v-50h-134v-76h111v-51h-111v-114h-50v291zM1594 74v185h21v-166h85v-19h-106z M1605 460h26v171v-4l2 -2l2 -2v-5l119 -158h21v204h-27v-160q0 4 -1.5 7.5t-2.5 5.5l-98 138q-5 1 -11 8q-3 0 -6 0.5t-6 0.5h-18v-204zM1679 -144q0 9 1 18.5t3 19.5q6 22 17 33q5 11 10 18t11 14q8 6 15.5 11.5t17.5 12.5q6 4 15 8t20 6q8 2 17.5 4t20.5 2q10 0 20 -2 t21 -4q9 -2 17.5 -6t18.5 -8q8 -6 14 -12t14 -12q7 -7 13 -14t12 -18q4 -7 7 -15t6 -18q3 -9 3.5 -19t0.5 -19q0 -11 -0.5 -21t-3.5 -19t-6 -18.5t-7 -18.5q-6 -6 -12 -14.5t-13 -14.5q-8 -7 -14 -12.5t-14 -10.5q-9 -7 -18 -10.5t-18 -6.5q-11 -1 -21 -2.5t-20 -1.5 q-15 0 -29 3t-29 8q-14 6 -25 14.5t-23 18.5q-19 20 -29 46q-6 14 -9.5 28t-3.5 32zM1733 -144q0 -9 1 -19t6 -18q4 -11 8.5 -18.5t12.5 -12.5q6 -7 14 -11.5t14 -9.5q10 -3 19.5 -6t18.5 -3q10 0 19 2.5t18 6.5q9 5 16 9.5t13 11.5q8 5 14 12.5t9 18.5q3 8 4.5 17.5 t1.5 19.5q0 16 -6 34q-3 11 -8.5 18t-14.5 14q-6 6 -13 11.5t-16 8.5q-15 8 -37 8q-20 0 -38 -8q-6 -3 -14 -8.5t-14 -11.5q-8 -7 -12.5 -13.5t-8.5 -18.5q-5 -9 -6 -17t-1 -17zM1789 259h10q7 0 11 -4q1 -2 3.5 -2.5t5.5 -3.5l58 -139v-8q3 -3 3 -7v7q0 1 0.5 3.5t0.5 4.5 q8 16 16.5 33.5t16.5 33.5q6 20 14 37t17 35q1 3 2.5 3.5t1.5 2.5q5 3 7 3.5t5 0.5h9q-9 -23 -19.5 -46.5t-21.5 -45.5q-9 -25 -18.5 -48t-19.5 -45h-20zM1789 1109q0 -75 30 -137q13 -33 32 -61.5t41 -54.5q25 -25 53 -44t62 -34q63 -30 140 -29q39 0 73 6.5t66 19.5 q34 14 62 33.5t52 44.5q25 24 45 53t33 61q30 69 30 142q0 33 -5 64t-17 59q-19 55 -57 100q-18 24 -39 42t-44 35q-27 13 -52.5 25.5t-52.5 19.5q-19 7 -43 10t-51 3q-40 0 -75 -7t-68 -23q-65 -26 -113 -78q-24 -24 -41.5 -53t-30.5 -61q-30 -63 -30 -136zM1795 460h16 q10 0 15 2q1 3 3 4.5t5 4.5l13 33h106l13 -33q2 -7 8 -9q1 -2 13 -2h16l-89 204h-29zM1826 1109q0 29 3.5 56.5t13.5 54.5q9 26 23 48.5t30 46.5h431l-422 -423q-38 46 -61 99q-11 27 -14.5 57t-3.5 61zM1860 532l36 86q0 3 1 5v8q0 -4 2 -7t2 -6l37 -86h-78zM1929 1351 q48 39 102 59q51 23 116 23q64 0 119 -23q27 -11 51.5 -26.5t44.5 -32.5h-433zM1932 867h431q-22 -18 -46 -34t-51 -27q-29 -8 -58.5 -16t-60.5 -8q-32 0 -60.5 8t-55.5 16q-27 11 -51.5 27t-47.5 34zM1967 901l421 426q40 -52 61 -107t21 -111q0 -30 -4 -58t-16 -55 q-9 -26 -22.5 -48.5t-31.5 -46.5h-429zM1987 74v185h111v-21h-91v-61h77v-20h-77v-64h91v-19h-111zM2012 0h48q4 0 9.5 -1.5t7.5 -2.5q5 -1 7.5 -3t4.5 -5q15 -22 30 -43.5t28 -43.5q17 -20 31.5 -41.5t32.5 -40.5q1 -3 2.5 -6t2.5 -9q0 -2 1.5 -5t1.5 -4v205h51v-291h-49 l-137 196q-2 2 -2.5 3t-1.5 2q-4 5 -4 8q-4 2 -4 5l-3.5 3.5l-3.5 3.5v-221h-53v291zM2022 460h117v24h-88v180h-29v-204zM2143 74v185h68q6 0 9.5 -0.5t8.5 -3.5q10 -3 20 -10q3 -5 6 -9.5t5 -9.5q2 -4 2 -9.5v-8.5v-9.5t-2 -10.5q0 -5 -2.5 -9.5t-4.5 -6.5q-3 -3 -7 -6 t-10 -6q-3 -3 -15 -5l64 -81h-15q-3 0 -6.5 0.5t-3.5 2.5l-6 2t-5 6l-50 70h-35v-81h-21zM2164 173h47q8 0 10 2q3 2 6 3.5l5 2.5q3 3 4 5.5t5 6.5q0 3 1.5 6.5t1.5 8.5q0 3 -1.5 5t-1.5 5q-3 3 -4.5 5.5t-4.5 5.5q-2 0 -5 2.5t-6 5.5q-2 1 -10 1h-47v-65zM2257 540 q0 -8 0.5 -14t2.5 -10q0 -10 6 -20q6 -11 15 -17q3 -3 7 -6t9 -6q3 -3 8.5 -4t9.5 -3q6 -2 12 -3.5t12 -1.5q7 0 11 1.5t12 3.5q4 2 9 3t9 4q9 5 16 12q5 3 7.5 7t5.5 10q2 5 5.5 9.5t5.5 10.5v24v124h-28v-124q0 -8 -0.5 -13t-3.5 -11q-1 -10 -12 -16q-3 -4 -8 -7t-9 -7 q-5 -2 -9 -2.5t-11 -0.5q-13 0 -21 3l-10.5 7t-6.5 7q-3 3 -6 7t-8 9q-1 6 -1.5 10.5t-0.5 13.5v124h-28v-124zM2297 0h222v-50h-86v-241h-53v241h-83v50zM2298 103l3 3q2 0 2.5 2t3.5 2h3q4 0 6.5 -2.5t6.5 -4.5q5 -3 8.5 -5.5t7.5 -4.5q2 -2 6 -2h7q11 0 15 2q10 0 16 6 q4 3 6 12q3 3 3.5 7.5t0.5 7.5q0 10 -1 14q-2 3 -4 5.5t-5 5.5q-3 4 -11 6q-5 0 -8.5 2t-8.5 4q-5 1 -9.5 3.5t-7.5 4.5q-12 2 -20 9q-2 1 -5 5l-6 8v19q0 7 0.5 11.5t2.5 9.5q2 9 12 16l10 5l10 5q5 0 8.5 1.5t8.5 1.5q4 0 9 -1.5t8 -1.5t5.5 -2t6.5 -4q3 -2 5.5 -3.5 t3.5 -3.5q5 -3 7 -5t4 -3l-5 -5q-3 -4 -11 -4h-9q-4 5 -4 8q-2 0 -3.5 0.5t-3.5 0.5h-2q-1 0 -3 0.5t-3 0.5h-5q-8 0 -11 -1q-9 0 -10 -5q-7 -7 -7 -11q-4 -1 -4 -10q0 -7 4 -8q0 -7 4 -8l5 -5t6 -3q4 -2 7.5 -3.5t9.5 -3.5q1 -1 5 -1.5t4 -2.5q3 0 5.5 -1t5.5 -3q2 -1 3 -1 t1.5 -0.5t1.5 -0.5q2 0 4.5 -1.5t3.5 -2.5l8.5 -8.5l7.5 -7.5q4 -13 4 -25q0 -8 -1 -12.5t-7 -11.5q-1 -9 -12 -16q-4 -5 -9.5 -6.5t-8.5 -2.5q-5 -3 -12 -3.5t-15 -0.5q-11 0 -22 3t-19 10q-3 1 -4 3.5t-6 5.5q0 3 -1.5 5t-1.5 3zM2449 496q1 -1 1.5 -2.5t3.5 -1.5 q0 -2 1.5 -4t1.5 -4l2.5 -2.5t1.5 -2.5q5 -5 8 -5q8 -9 20.5 -12.5t25.5 -3.5q6 0 12.5 0.5t15.5 3.5q6 1 10.5 4t10.5 8q4 4 7 8.5t6 12.5q8 11 9 22q0 17 -6 27.5t-17 17.5q-6 4 -8 7q-3 1 -5.5 1.5t-5.5 2.5q-1 1 -5 1.5t-7 4.5q-1 0 -3.5 1t-5.5 2q-5 2 -7.5 3.5 t-7.5 3.5q-9 2 -10 5q-5 2 -7 3.5t-4 4.5q0 1 -0.5 3.5t-0.5 5.5q0 6 4 12q1 4 8 8q3 0 4.5 1.5t5.5 2.5q3 3 14 3q1 0 3.5 -1.5t5.5 -1.5q3 -3 12 -7q8 -2 12 -2q8 0 13 5l7 4q-2 3 -4.5 4.5t-5.5 4.5q-2 3 -5.5 6t-7.5 5q-3 1 -6.5 3t-9.5 5q-4 1 -8 2.5t-6 1.5 q-6 0 -12 -1.5t-12 -2.5q-5 -2 -10.5 -5.5t-9.5 -5.5q-4 -5 -7 -9l-6 -8q-3 -5 -5 -10t-2 -14q0 -7 2 -11.5t5 -9.5q4 -10 10 -17q5 -3 9 -6t9 -5q6 -3 12 -4.5t10 -4.5q5 -2 7.5 -2.5t5.5 -1.5t8 -2.5t8 -2.5l5 -5t3 -7q3 -4 3.5 -7t0.5 -8q0 -2 -0.5 -6t-3.5 -7 q-2 -7 -9 -9q-5 -5 -8.5 -7t-6.5 -4q-4 0 -7 -0.5t-6 -0.5q-4 0 -8.5 0.5t-7.5 0.5q-7 3 -13 11l-3 1q-7 7 -14 7q-2 0 -5.5 -0.5t-5.5 -3.5zM2458 74v185h20v-185h-20zM2522 167q0 5 0.5 10.5t1.5 10.5q5 15 10 26q7 10 17 19q9 9 18 16q5 3 12 5t12 5q6 0 12 1.5t12 1.5 q7 0 14.5 -1.5t13.5 -1.5q5 -3 10.5 -5t10.5 -5t10 -7t10 -9q4 -5 6.5 -9.5t7.5 -9.5q5 -10 11 -26q1 -5 2.5 -10.5t1.5 -10.5q0 -9 -2.5 -19.5t-8.5 -19.5q-3 -9 -8 -16.5t-10 -12.5q-8 -7 -15.5 -12.5t-17.5 -8.5q-10 -5 -36 -5q-9 0 -18 1t-19 4q-19 6 -29 21 q-14 12 -23 29q-6 18 -6 39zM2522 -229q1 0 2 1.5t4 2.5q2 0 3 1.5t3 2.5q4 0 6.5 1.5t3.5 1.5h11q2 0 5 -0.5t5 -2.5q7 0 12 -4q6 -3 11 -6t9 -6q3 -1 8.5 -3t11.5 -2q3 0 8 0.5t9 3.5q10 2 16 9q7 4 12 11q3 5 5.5 8.5t2.5 8.5q0 10 -8 16q-6 8 -12 8q-3 4 -7.5 5.5 t-8.5 3.5q-8 2 -20 8q-7 2 -13.5 4t-12.5 5q-9 5 -15.5 9t-12.5 10q-6 4 -10 9.5t-7 11.5q-8 15 -9 33q0 23 9 34q4 8 9 14t11 13l14 8t16 6q8 2 15 4t19 2q5 0 11 -2l12 -4q7 -1 11 -3.5t13 -5.5q4 -3 8.5 -8t8.5 -9q4 -3 8.5 -7t7.5 -9l-11 -7q-3 -2 -6.5 -4.5t-6.5 -4.5 q-5 -1 -8 -1h-9h-3h-4q-8 2 -9 4q-5 1 -8 4q-3 0 -4.5 1t-3.5 1q-4 2 -7 2q-12 0 -17 -2q-4 0 -5.5 -1.5t-6.5 -3.5q-4 -2 -6 -10q-3 -3 -3 -11t3 -9q1 -3 3 -5t3 -7q5 0 8.5 -1.5t7.5 -2.5q6 -2 13 -5.5t12 -5.5l11 -2q7 -5 15 -8t14 -7q12 -6 21 -20q5 -4 9 -9.5t7 -11.5 q1 -6 2.5 -12.5t1.5 -16.5q0 -18 -8 -37q-5 -9 -10 -16t-14 -13q-7 -6 -14.5 -11.5t-18.5 -8.5q-8 -3 -18 -5t-20 -2t-19.5 2t-22.5 5q-8 3 -15.5 9.5t-15.5 14.5q-5 3 -9 7.5t-7 9.5q-4 4 -6 17zM2544 167q0 -5 0.5 -9.5t2.5 -10.5q1 -9 8 -19q1 -4 3.5 -7t5.5 -7 q4 -3 7.5 -7t8.5 -5q5 -2 9.5 -4.5t8.5 -4.5q5 -2 9.5 -2h9.5h10.5t10.5 2q5 2 9 4.5t8 4.5q3 1 8 5t8 7q3 4 6 7t5 7q3 5 4 9.5t2 9.5q2 5 2.5 10t0.5 10q0 6 -1.5 13t-3.5 16q-2 7 -6.5 12t-8.5 10q-5 5 -11.5 9t-13.5 10q-6 1 -13 1.5t-16 0.5q-8 0 -14.5 -0.5 t-13.5 -1.5q-6 -5 -12.5 -9.5t-12.5 -9.5q-5 -5 -7.5 -10t-5.5 -12q-3 -8 -5 -15.5t-2 -13.5zM2618 460h127v24h-98v64h81v26h-81v61h98v29h-127v-204zM2735 -256q0 4 2 6q2 3 3.5 5.5t3.5 2.5q6 8 13 9q1 3 4.5 3.5t6.5 0.5t7 -0.5t6 -3.5q3 -1 8 -9q6 0 9 -8q1 -2 1 -6v-6 q0 -8 -1 -12q-2 -6 -9 -12q-5 -2 -8 -5q-2 -2 -6 -2.5t-7 -0.5t-6.5 0.5t-4.5 2.5q-3 1 -6.5 2.5t-6.5 2.5q-2 2 -3.5 5l-3.5 7t-2 12v6zM2748 74v185h16q4 0 7.5 -0.5t6.5 -5.5l97 -137q1 -1 1 -5q3 -3 3 -2v-3v153h21v-185h-16l-112 152v3h-3v8v-163h-21zM2819 -144 q0 9 1.5 18.5t2.5 19.5q3 10 6 18t10 15q6 11 11.5 18t12.5 14q6 6 15 11.5t17 12.5q7 4 15 8t19 6q9 2 18.5 4t21.5 2q8 0 15.5 -0.5t13.5 -5.5q8 -1 16 -3.5t14 -5.5q8 -3 14.5 -8t16.5 -9q13 -11 21 -21l-11 -12q-2 -5 -4.5 -7t-5.5 -4q-5 -1 -9.5 -1h-9.5t-9.5 1t-8.5 4 q-6 5 -13.5 8.5t-13.5 6.5q-6 2 -12 3t-14 1q-20 0 -37 -8q-11 -3 -18 -8.5t-14 -11.5q-10 -12 -21 -32q-3 -9 -5.5 -17t-2.5 -17t2.5 -19t5.5 -18q5 -11 10 -18.5t11 -12.5q7 -7 13.5 -11.5t18.5 -9.5l18 -6t19 -3q8 0 14 2t12 3q6 2 13.5 6t13.5 9q5 1 9 4h9 q5 0 10.5 -0.5t8.5 -2.5q7 -2 10 -8l11 -13q-9 -12 -21 -20q-9 -4 -16 -8.5t-15 -8.5q-6 -5 -14 -7l-16 -4q-6 -3 -13.5 -3.5t-15.5 -0.5q-17 0 -31 3t-29 8q-28 13 -46 33q-20 20 -33 46q-5 14 -8 28t-3 32zM2863 558q0 -8 1.5 -18.5t6.5 -19.5q7 -20 24 -36q7 -6 15 -11 t18 -7q16 -8 41 -8h14t12 2l13.5 4.5t13.5 6.5q5 3 9.5 6t8.5 7q12 10 19 24q7 11 10 24q2 8 2.5 14t0.5 12q0 8 -0.5 16.5t-2.5 14.5q-3 12 -10 25q-5 8 -19 21q-4 4 -8.5 7.5t-9.5 9.5q-6 2 -13.5 5t-13.5 6q-6 1 -12 2.5t-14 1.5t-15 -1.5t-13 -2.5q-15 -5 -26 -11 q-5 -6 -10.5 -9.5t-9.5 -7.5q-5 -5 -9 -10t-10 -11q-2 -7 -5 -12.5t-4 -12.5q-4 -11 -4 -31zM2892 558q0 17 7 32q2 7 6.5 13t9.5 11q4 6 10.5 10t14.5 7q10 7 29 7q8 0 14.5 -2t14.5 -5q5 -3 12 -7t13 -10q4 -5 8.5 -11t7.5 -13q3 -6 4 -14.5t1 -17.5q0 -14 -5 -29 q-3 -6 -7.5 -11t-8.5 -11q-6 -5 -13 -9t-12 -10q-14 -5 -29 -5q-8 0 -16 1t-13 4q-8 5 -14.5 9.5t-10.5 9.5q-5 6 -9.5 11t-6.5 11q-3 8 -5 15.5t-2 13.5zM3036 74v185h114v-21h-91v-65h75v-18h-75v-81h-23zM3101 -144q0 9 1.5 18.5t2.5 19.5q3 10 7.5 18t8.5 15q4 11 10 18 t14 14q5 6 12.5 11.5t16.5 12.5q8 4 17 8t17 6q11 2 20.5 4t18.5 2q10 0 20.5 -2t18.5 -4q11 -2 19.5 -6t16.5 -8q9 -6 16 -12t17 -12l12 -14t9 -18q5 -7 8.5 -15t6.5 -18q3 -9 4 -19t1 -19q0 -11 -0.5 -21t-4.5 -19q-3 -9 -6.5 -18.5t-8.5 -18.5q-7 -14 -21 -29 q-9 -7 -16.5 -12.5t-16.5 -10.5q-8 -7 -16.5 -10.5t-19.5 -6.5q-8 -1 -18.5 -2.5t-20.5 -1.5q-29 0 -56 11q-14 6 -25.5 14.5t-20.5 18.5q-11 10 -19.5 21.5t-12.5 24.5q-6 14 -9 28t-3 32zM3110 460h31v171q0 -4 1 -4v-4q0 -1 1 -2l2 -3l115 -158h24v204h-28v-160 q-2 4 -3 7.5t-4 5.5l-98 138q-1 1 -2 3t-4 5q-3 0 -7.5 0.5t-7.5 0.5h-20v-204zM3154 -144q0 -9 1.5 -19t3.5 -18q9 -22 23 -31q7 -7 14 -11.5t16 -9.5q8 -3 17.5 -6t17.5 -3q10 0 20.5 2.5t16.5 6.5q10 5 18.5 9.5t14.5 11.5q13 12 18 31q7 17 7 37q0 9 -2 17t-5 17 q-3 11 -7.5 18t-10.5 14q-13 13 -33 20q-6 5 -16.5 6.5t-20.5 1.5q-19 0 -35 -8q-9 -3 -16 -8.5t-14 -11.5q-8 -7 -13 -13.5t-10 -18.5q-2 -9 -3.5 -17t-1.5 -17zM3171 74v185h68q5 0 10 -0.5t11 -3.5q5 -2 9.5 -4.5t7.5 -5.5q3 -5 5.5 -9.5t7.5 -9.5q0 -4 1.5 -9.5 t1.5 -8.5q0 -5 -1.5 -9.5t-1.5 -10.5q-3 -5 -5 -9.5t-4 -6.5l-12 -12q-10 -4 -17 -5l59 -81h-13q-8 0 -12 3q-2 1 -3.5 2t-2.5 6l-52 70h-34v-81h-23zM3194 173h45q8 0 13 2q3 2 4.5 3.5t3.5 2.5q7 7 9 12q1 4 1 15q0 6 -1 10t-9 11q-2 0 -3.5 2.5t-4.5 5.5q-5 1 -13 1h-45 v-65zM3331 167q0 5 0.5 10.5t2.5 10.5q1 7 3.5 14t4.5 12q4 5 9 9.5t8 9.5q5 4 10 8.5t10 7.5t12 5t12 5q6 0 11 1.5t13 1.5q5 0 12 -1.5t14 -1.5q6 -3 11 -5t9 -5q6 -3 11.5 -7t9.5 -9t7 -9.5t6 -9.5q7 -10 10 -26q3 -5 4.5 -10.5t1.5 -10.5q0 -9 -2 -19.5t-7 -19.5 q-3 -9 -8.5 -16.5t-11.5 -12.5q-7 -7 -15 -12.5t-17 -8.5q-7 -3 -15.5 -4t-19.5 -1t-20.5 1t-18.5 4q-17 6 -29 21q-6 5 -12 12.5t-9 16.5t-5 19.5t-2 19.5zM3334 460h118v24h-89v180h-29v-204zM3355 147q2 -5 3.5 -9.5t4.5 -9.5q2 -4 5 -7l7 -7q3 -3 6 -7t7 -5 q5 -2 9.5 -4.5t9.5 -4.5q4 -2 9.5 -2h10.5h10t11 2q4 2 7.5 4.5t6.5 4.5q5 1 9 5t10 7q3 4 5.5 7t4.5 7q2 5 4 9.5t3 9.5t1 10v10q0 6 -0.5 13t-1.5 16q-3 7 -8 12t-8 10q-8 5 -14 9t-11 10q-6 1 -14 1.5t-15 0.5q-8 0 -15 -0.5t-13 -1.5q-8 -5 -14 -9.5t-10 -9.5 q-7 -5 -10 -10t-6 -12q-3 -8 -3.5 -15.5t-0.5 -13.5v-20zM3421 664l76 -102q1 0 2 -4q0 -1 1 -1t2 -1v-4q0 -1 1 -2v-5v-85h31v85v5q1 0 1 6q2 0 4 2v3q0 1 1 1l76 102h-23q-8 0 -13 -5q-8 -6 -9 -11l-49 -63q-1 -1 -1 -2q-1 -1 -4 -1v-3v3l-2 3l-47 63q-5 6 -11 11 q-5 4 -13 5h-23zM3433 0h52q5 0 7.5 -1.5t5.5 -1.5q3 -1 4.5 -1t4.5 -1l8 -8q2 -2 4.5 -5.5t3.5 -5.5q8 -22 16.5 -43.5t16.5 -43.5q8 -23 17.5 -44.5t18.5 -42.5q0 -2 0.5 -4t0.5 -3v-7q3 0 3 -6q0 6 1 6v7q0 1 1 3t1 4l13 21l58 153q1 2 2.5 5.5t2.5 5.5q2 3 5 4.5t3 3.5 q3 1 6 1t6 1q3 0 4.5 1.5t6.5 1.5h51v-291h-51v213q-2 -3 -3 -6t-3 -7q-1 -6 -1 -9t-1 -6q-11 -23 -20.5 -46t-19.5 -46q-9 -24 -18.5 -46.5t-18.5 -46.5h-49l-75 185q-4 5 -4 15q-2 3 -3 5t-1 5v-210h-56v291zM3560 74v185h19q5 0 9 -4q3 -2 4 -2.5t1 -3.5l65 -146 q0 -4 3 -4v-4q0 3 0.5 5.5t0.5 5.5q1 5 7 10l55 133q2 3 3.5 3.5t3.5 2.5q3 3 5.5 3.5t4.5 0.5h16v-185h-18v152q0 -1 -3 -4v-1v-3q-5 -10 -9.5 -21.5t-10.5 -19.5q-4 -10 -7.5 -17.5t-8.5 -19.5q-2 -9 -6.5 -17.5t-7.5 -16.5l-8.5 -17l-7.5 -15h-19q-11 16 -18.5 34.5 t-15.5 35.5q-7 20 -15.5 38.5t-17.5 35.5v4q-3 3 -3 4v-152h-21z" />
<glyph unicode="5" horiz-adv-x="4195" d="M527 167q0 9 5 21q2 7 4.5 14t7.5 12q3 5 5.5 9.5t7.5 9.5q3 4 8 8.5t9 7.5q8 3 13 5t11 5q5 0 12 1.5t16 1.5t17 -2t20 -7q9 -3 16 -8t13 -12q-3 -4 -5 -4q0 -1 -1 -2t-2 -1q0 -1 -4 -1h-4q-7 0 -9 1q-5 2 -10.5 6.5t-10.5 5.5t-9.5 1h-10.5q-8 0 -16 -0.5t-13 -1.5 q-8 -5 -14 -9.5t-13 -9.5q-5 -5 -8.5 -10t-5.5 -12q-5 -8 -6 -15.5t-1 -13.5q0 -10 4 -20q2 -5 3 -9.5t2 -9.5q3 -4 6 -7t6 -7q6 -3 10 -7t9 -5q4 -2 7.5 -4.5t8.5 -4.5t10.5 -2h10.5h11t11 2t13 4.5t11 5.5v40h-16h-2q-1 0 -2 1l-4.5 3t-3.5 4l-2.5 2.5t-1.5 2.5t-0.5 3 t-0.5 4v1h53v-73q-4 -4 -6.5 -5.5t-6.5 -6.5q-8 -2 -16 -2q-9 -4 -20 -4h-17h-15.5t-12.5 1q-6 2 -10.5 4t-13.5 7q-4 2 -9 5t-8 9q-5 3 -7.5 8.5t-5.5 11.5q-5 5 -7 10t-5 11q-2 8 -3.5 13.5t-1.5 13.5zM527 -274q0 11 2 15q0 2 7 10q2 3 3 5.5t2 6.5q2 2 4.5 5.5t3.5 6.5 l127 175h-138v50h213v-26v-6t-1 -6q-1 -5 -3.5 -7t-5.5 -5l-142 -195h2l2 3h4h4h139v-49h-223v17zM538 327v783h1219q0 41 7.5 79.5t24.5 73.5q16 36 36 68t50 58q51 52 123 80q36 16 72.5 23.5t76.5 7.5q43 0 81.5 -7.5t72.5 -25.5q38 -16 69 -37.5t58 -48.5 q48 -49 82 -124q27 -74 26 -147h1221v-783h-3219zM705 460h25v76h45q8 0 15 1t12 3q13 6 18 13q5 4 10.5 8.5t5.5 11.5q7 14 7 25q0 7 -2 13l-5 15q0 4 -5.5 8.5t-10.5 8.5q-3 4 -7.5 8t-10.5 5q-5 5 -12 6.5t-15 1.5h-70v-204zM730 561v74h45q10 0 16 -4q3 0 6 -2t6 -3 q2 -3 3 -7.5t4 -7.5q2 -4 2 -13v-6.5t-2 -6.5q-3 -3 -4 -7t-3 -5q-6 -6 -12 -9t-16 -3h-45zM737 74v185h115v-21h-91v-61h75v-20h-75v-64h91v-19h-115zM786 0h188v-50h-134v-69h107v-52h-107v-71h134v-49h-188v291zM861 460h127v24h-96v64h80v26h-80v61h96v29h-127v-204z M873 238v21h142v-21h-61v-164h-20v164h-61zM983 0h222v-50h-82v-241h-54v241h-86v50zM1032 460h29v84h32l53 -73q2 -7 9 -9q2 -2 6 -2h7h20l-65 88q5 1 9 2t8 6q10 2 12 10q3 3 6 8.5t6 10.5v17q0 7 -0.5 13t-3.5 12q-5 9 -13 17q-5 11 -20 12q-3 5 -9 6.5t-12 1.5h-74v-204 zM1061 570v65h45q7 0 11 -4q5 0 6 -1.5t4 -3.5q5 -6 8 -11q3 -4 3 -13q0 -8 -3 -12q-1 -1 -8 -9q-3 -2 -4 -4.5t-6 -3.5q-3 -3 -11 -3h-45zM1130 74v185h115v-21h-93v-65h80v-18h-80v-81h-22zM1164 -291l126 291h48l125 -291h-30q-13 0 -23 5q-4 2 -6.5 8t-7.5 11l-16 38 h-134l-14 -38q-2 -5 -3 -6t-4 -2q-2 -5 -3.5 -7t-4.5 -4q-3 -1 -6 -2.5t-6 -1.5q-1 -1 -4 -1h-5h-32zM1197 496q0 -4 2 -4q0 -4 5 -8q0 -4 4 -5q0 -2 2 -4q1 -1 2 -1q11 -9 23 -12.5t27 -3.5q6 0 12.5 0.5t12.5 3.5q5 1 13 4t11 8q5 4 9.5 8.5t6.5 12.5q1 6 2.5 11t1.5 11 q0 17 -5 27.5t-15 17.5q-3 2 -4.5 3.5t-7.5 3.5q-1 1 -3.5 1.5t-4.5 2.5q-3 1 -5.5 1.5t-2.5 4.5q-7 0 -10 3q-8 2 -11.5 3.5t-8.5 3.5q-8 2 -11 5q-6 4 -6 8v9v12l4 4t2 4q3 0 6 1.5l5 2.5q5 2 8 2.5t8 0.5q1 0 3.5 -1.5t4.5 -1.5q8 -1 10 -7q3 -1 5.5 -1.5t6.5 -0.5 q10 0 16 5l9 4q-2 3 -4.5 4.5t-5.5 4.5l-6 6t-10 5q-3 1 -6.5 3t-8.5 5q-5 1 -8 2.5t-6 1.5q-6 0 -13 -1.5t-11 -2.5q-7 -2 -11 -5.5t-9 -5.5q-4 -5 -9 -9t-7 -8q-1 -5 -2.5 -10t-1.5 -14q0 -7 0.5 -11.5t3.5 -9.5q2 -4 6.5 -8t6.5 -9l10 -6t10 -5q5 -3 9 -4.5t11 -4.5 q3 -2 7.5 -2.5t7.5 -1.5q5 -1 7.5 -2.5t5.5 -2.5q3 -3 4 -5t5 -7q2 -4 3 -7t1 -8q0 -2 -0.5 -6t-4.5 -7q-3 -3 -4 -5.5t-4 -3.5q-3 -5 -7 -7t-6 -4q-5 0 -8.5 -0.5t-6.5 -0.5q-6 0 -9.5 0.5t-6.5 0.5q-3 2 -6.5 3.5t-3.5 7.5l-4 1q-7 7 -15 7q-3 0 -6.5 -0.5t-6.5 -3.5z M1273 -177h83l-38 90q0 2 -1.5 4.5t-1.5 4.5q0 5 -1 8v-8q0 -2 -1.5 -4.5t-2.5 -4.5zM1279 144v115h20v-115q0 -6 2.5 -10t5.5 -8q2 -8 5 -11t6 -9q3 -3 6.5 -5.5t7.5 -5.5q6 -3 12 -3.5t11 -0.5q6 0 10 0.5t8 3.5q6 3 10.5 5.5t9.5 5.5q2 5 5.5 8.5t5.5 11.5q5 6 5 18v115 h21v-115q0 -8 -2.5 -14t-5.5 -14q-2 -7 -5.5 -13t-8.5 -12q-5 -4 -11 -8t-13 -6q-15 -4 -29 -4q-15 0 -31 4q-5 2 -10.5 6t-10.5 8q-10 10 -17 25q-2 8 -4.5 14t-2.5 14zM1355 558q0 -8 2.5 -18.5t6.5 -19.5q3 -10 8.5 -18.5t12.5 -17.5q8 -6 17 -11t18 -7q16 -8 39 -8h15 t13 2q15 4 23 11q16 7 23 13q9 9 16 24q3 6 7 12t6 12q2 8 2.5 14t0.5 12q0 18 -3 31q-2 7 -6 12.5t-7 12.5q-5 9 -16 21q-4 4 -9.5 7.5t-13.5 9.5q-5 2 -10 5t-13 6q-6 1 -13 2.5t-15 1.5q-7 0 -13.5 -1.5t-12.5 -2.5q-8 -2 -14 -5.5t-11 -5.5q-6 -6 -11.5 -9.5t-11.5 -7.5 q-5 -5 -9 -10t-7 -11q-4 -7 -5.5 -12.5t-4.5 -12.5q-4 -11 -4 -31zM1381 558q0 17 8 32q3 7 7.5 13t8.5 11q6 6 12 10t13 7q8 3 15 5t14 2q16 0 31 -7q7 -3 12.5 -7t9.5 -10q5 -5 10.5 -11t8.5 -13q2 -6 3.5 -14.5t1.5 -17.5q0 -6 -1.5 -13t-3.5 -16q-3 -6 -8 -11l-11 -11 q-4 -5 -9.5 -9t-12.5 -10q-6 -3 -14.5 -4t-16.5 -1q-15 0 -29 5q-6 5 -12.5 9.5t-12.5 9.5q-4 6 -8.5 11t-7.5 11q-3 8 -5.5 15.5t-2.5 13.5zM1467 74v185h23v-166h83v-19h-106zM1478 0h184v-50h-134v-76h111v-51h-111v-114h-50v291zM1594 74v185h21v-166h85v-19h-106z M1605 460h26v171v-4l2 -2l2 -2v-5l119 -158h21v204h-27v-160q0 4 -1.5 7.5t-2.5 5.5l-98 138q-5 1 -11 8q-3 0 -6 0.5t-6 0.5h-18v-204zM1679 -144q0 9 1 18.5t3 19.5q6 22 17 33q5 11 10 18t11 14q8 6 15.5 11.5t17.5 12.5q6 4 15 8t20 6q8 2 17.5 4t20.5 2q10 0 20 -2 t21 -4q9 -2 17.5 -6t18.5 -8q8 -6 14 -12t14 -12q7 -7 13 -14t12 -18q4 -7 7 -15t6 -18q3 -9 3.5 -19t0.5 -19q0 -11 -0.5 -21t-3.5 -19t-6 -18.5t-7 -18.5q-6 -6 -12 -14.5t-13 -14.5q-8 -7 -14 -12.5t-14 -10.5q-9 -7 -18 -10.5t-18 -6.5q-11 -1 -21 -2.5t-20 -1.5 q-15 0 -29 3t-29 8q-14 6 -25 14.5t-23 18.5q-19 20 -29 46q-6 14 -9.5 28t-3.5 32zM1733 -144q0 -9 1 -19t6 -18q4 -11 8.5 -18.5t12.5 -12.5q6 -7 14 -11.5t14 -9.5q10 -3 19.5 -6t18.5 -3q10 0 19 2.5t18 6.5q9 5 16 9.5t13 11.5q8 5 14 12.5t9 18.5q3 8 4.5 17.5 t1.5 19.5q0 16 -6 34q-3 11 -8.5 18t-14.5 14q-6 6 -13 11.5t-16 8.5q-15 8 -37 8q-20 0 -38 -8q-6 -3 -14 -8.5t-14 -11.5q-8 -7 -12.5 -13.5t-8.5 -18.5q-5 -9 -6 -17t-1 -17zM1789 259h10q7 0 11 -4q1 -2 3.5 -2.5t5.5 -3.5l58 -139v-8q3 -3 3 -7v7q0 1 0.5 3.5t0.5 4.5 q8 16 16.5 33.5t16.5 33.5q6 20 14 37t17 35q1 3 2.5 3.5t1.5 2.5q5 3 7 3.5t5 0.5h9q-9 -23 -19.5 -46.5t-21.5 -45.5q-9 -25 -18.5 -48t-19.5 -45h-20zM1789 1109q0 -75 30 -137q13 -33 32 -61.5t41 -54.5q25 -25 53 -44t62 -34q63 -30 140 -29q39 0 73 6.5t66 19.5 q34 14 62 33.5t52 44.5q25 24 45 53t33 61q30 69 30 142q0 33 -5 64t-17 59q-19 55 -57 100q-18 24 -39 42t-44 35q-27 13 -52.5 25.5t-52.5 19.5q-19 7 -43 10t-51 3q-40 0 -75 -7t-68 -23q-65 -26 -113 -78q-24 -24 -41.5 -53t-30.5 -61q-30 -63 -30 -136zM1795 460h16 q10 0 15 2q1 3 3 4.5t5 4.5l13 33h106l13 -33q2 -7 8 -9q1 -2 13 -2h16l-89 204h-29zM1826 1109q0 29 3.5 56.5t13.5 54.5q9 26 23 48.5t30 46.5h431l-422 -423q-38 46 -61 99q-11 27 -14.5 57t-3.5 61zM1860 532l36 86q0 3 1 5v8q0 -4 2 -7t2 -6l37 -86h-78zM1929 1351 q48 39 102 59q51 23 116 23q64 0 119 -23q27 -11 51.5 -26.5t44.5 -32.5h-433zM1932 867h431q-22 -18 -46 -34t-51 -27q-29 -8 -58.5 -16t-60.5 -8q-32 0 -60.5 8t-55.5 16q-27 11 -51.5 27t-47.5 34zM1967 901l421 426q40 -52 61 -107t21 -111q0 -30 -4 -58t-16 -55 q-9 -26 -22.5 -48.5t-31.5 -46.5h-429zM1987 74v185h111v-21h-91v-61h77v-20h-77v-64h91v-19h-111zM2012 0h48q4 0 9.5 -1.5t7.5 -2.5q5 -1 7.5 -3t4.5 -5q15 -22 30 -43.5t28 -43.5q17 -20 31.5 -41.5t32.5 -40.5q1 -3 2.5 -6t2.5 -9q0 -2 1.5 -5t1.5 -4v205h51v-291h-49 l-137 196q-2 2 -2.5 3t-1.5 2q-4 5 -4 8q-4 2 -4 5l-3.5 3.5l-3.5 3.5v-221h-53v291zM2022 460h117v24h-88v180h-29v-204zM2143 74v185h68q6 0 9.5 -0.5t8.5 -3.5q10 -3 20 -10q3 -5 6 -9.5t5 -9.5q2 -4 2 -9.5v-8.5v-9.5t-2 -10.5q0 -5 -2.5 -9.5t-4.5 -6.5q-3 -3 -7 -6 t-10 -6q-3 -3 -15 -5l64 -81h-15q-3 0 -6.5 0.5t-3.5 2.5l-6 2t-5 6l-50 70h-35v-81h-21zM2164 173h47q8 0 10 2q3 2 6 3.5l5 2.5q3 3 4 5.5t5 6.5q0 3 1.5 6.5t1.5 8.5q0 3 -1.5 5t-1.5 5q-3 3 -4.5 5.5t-4.5 5.5q-2 0 -5 2.5t-6 5.5q-2 1 -10 1h-47v-65zM2257 540 q0 -8 0.5 -14t2.5 -10q0 -10 6 -20q6 -11 15 -17q3 -3 7 -6t9 -6q3 -3 8.5 -4t9.5 -3q6 -2 12 -3.5t12 -1.5q7 0 11 1.5t12 3.5q4 2 9 3t9 4q9 5 16 12q5 3 7.5 7t5.5 10q2 5 5.5 9.5t5.5 10.5v24v124h-28v-124q0 -8 -0.5 -13t-3.5 -11q-1 -10 -12 -16q-3 -4 -8 -7t-9 -7 q-5 -2 -9 -2.5t-11 -0.5q-13 0 -21 3l-10.5 7t-6.5 7q-3 3 -6 7t-8 9q-1 6 -1.5 10.5t-0.5 13.5v124h-28v-124zM2297 0h222v-50h-86v-241h-53v241h-83v50zM2298 103l3 3q2 0 2.5 2t3.5 2h3q4 0 6.5 -2.5t6.5 -4.5q5 -3 8.5 -5.5t7.5 -4.5q2 -2 6 -2h7q11 0 15 2q10 0 16 6 q4 3 6 12q3 3 3.5 7.5t0.5 7.5q0 10 -1 14q-2 3 -4 5.5t-5 5.5q-3 4 -11 6q-5 0 -8.5 2t-8.5 4q-5 1 -9.5 3.5t-7.5 4.5q-12 2 -20 9q-2 1 -5 5l-6 8v19q0 7 0.5 11.5t2.5 9.5q2 9 12 16l10 5l10 5q5 0 8.5 1.5t8.5 1.5q4 0 9 -1.5t8 -1.5t5.5 -2t6.5 -4q3 -2 5.5 -3.5 t3.5 -3.5q5 -3 7 -5t4 -3l-5 -5q-3 -4 -11 -4h-9q-4 5 -4 8q-2 0 -3.5 0.5t-3.5 0.5h-2q-1 0 -3 0.5t-3 0.5h-5q-8 0 -11 -1q-9 0 -10 -5q-7 -7 -7 -11q-4 -1 -4 -10q0 -7 4 -8q0 -7 4 -8l5 -5t6 -3q4 -2 7.5 -3.5t9.5 -3.5q1 -1 5 -1.5t4 -2.5q3 0 5.5 -1t5.5 -3q2 -1 3 -1 t1.5 -0.5t1.5 -0.5q2 0 4.5 -1.5t3.5 -2.5l8.5 -8.5l7.5 -7.5q4 -13 4 -25q0 -8 -1 -12.5t-7 -11.5q-1 -9 -12 -16q-4 -5 -9.5 -6.5t-8.5 -2.5q-5 -3 -12 -3.5t-15 -0.5q-11 0 -22 3t-19 10q-3 1 -4 3.5t-6 5.5q0 3 -1.5 5t-1.5 3zM2449 496q1 -1 1.5 -2.5t3.5 -1.5 q0 -2 1.5 -4t1.5 -4l2.5 -2.5t1.5 -2.5q5 -5 8 -5q8 -9 20.5 -12.5t25.5 -3.5q6 0 12.5 0.5t15.5 3.5q6 1 10.5 4t10.5 8q4 4 7 8.5t6 12.5q8 11 9 22q0 17 -6 27.5t-17 17.5q-6 4 -8 7q-3 1 -5.5 1.5t-5.5 2.5q-1 1 -5 1.5t-7 4.5q-1 0 -3.5 1t-5.5 2q-5 2 -7.5 3.5 t-7.5 3.5q-9 2 -10 5q-5 2 -7 3.5t-4 4.5q0 1 -0.5 3.5t-0.5 5.5q0 6 4 12q1 4 8 8q3 0 4.5 1.5t5.5 2.5q3 3 14 3q1 0 3.5 -1.5t5.5 -1.5q3 -3 12 -7q8 -2 12 -2q8 0 13 5l7 4q-2 3 -4.5 4.5t-5.5 4.5q-2 3 -5.5 6t-7.5 5q-3 1 -6.5 3t-9.5 5q-4 1 -8 2.5t-6 1.5 q-6 0 -12 -1.5t-12 -2.5q-5 -2 -10.5 -5.5t-9.5 -5.5q-4 -5 -7 -9l-6 -8q-3 -5 -5 -10t-2 -14q0 -7 2 -11.5t5 -9.5q4 -10 10 -17q5 -3 9 -6t9 -5q6 -3 12 -4.5t10 -4.5q5 -2 7.5 -2.5t5.5 -1.5t8 -2.5t8 -2.5l5 -5t3 -7q3 -4 3.5 -7t0.5 -8q0 -2 -0.5 -6t-3.5 -7 q-2 -7 -9 -9q-5 -5 -8.5 -7t-6.5 -4q-4 0 -7 -0.5t-6 -0.5q-4 0 -8.5 0.5t-7.5 0.5q-7 3 -13 11l-3 1q-7 7 -14 7q-2 0 -5.5 -0.5t-5.5 -3.5zM2458 74v185h20v-185h-20zM2522 167q0 5 0.5 10.5t1.5 10.5q5 15 10 26q7 10 17 19q9 9 18 16q5 3 12 5t12 5q6 0 12 1.5t12 1.5 q7 0 14.5 -1.5t13.5 -1.5q5 -3 10.5 -5t10.5 -5t10 -7t10 -9q4 -5 6.5 -9.5t7.5 -9.5q5 -10 11 -26q1 -5 2.5 -10.5t1.5 -10.5q0 -9 -2.5 -19.5t-8.5 -19.5q-3 -9 -8 -16.5t-10 -12.5q-8 -7 -15.5 -12.5t-17.5 -8.5q-10 -5 -36 -5q-9 0 -18 1t-19 4q-19 6 -29 21 q-14 12 -23 29q-6 18 -6 39zM2522 -229q1 0 2 1.5t4 2.5q2 0 3 1.5t3 2.5q4 0 6.5 1.5t3.5 1.5h11q2 0 5 -0.5t5 -2.5q7 0 12 -4q6 -3 11 -6t9 -6q3 -1 8.5 -3t11.5 -2q3 0 8 0.5t9 3.5q10 2 16 9q7 4 12 11q3 5 5.5 8.5t2.5 8.5q0 10 -8 16q-6 8 -12 8q-3 4 -7.5 5.5 t-8.5 3.5q-8 2 -20 8q-7 2 -13.5 4t-12.5 5q-9 5 -15.5 9t-12.5 10q-6 4 -10 9.5t-7 11.5q-8 15 -9 33q0 23 9 34q4 8 9 14t11 13l14 8t16 6q8 2 15 4t19 2q5 0 11 -2l12 -4q7 -1 11 -3.5t13 -5.5q4 -3 8.5 -8t8.5 -9q4 -3 8.5 -7t7.5 -9l-11 -7q-3 -2 -6.5 -4.5t-6.5 -4.5 q-5 -1 -8 -1h-9h-3h-4q-8 2 -9 4q-5 1 -8 4q-3 0 -4.5 1t-3.5 1q-4 2 -7 2q-12 0 -17 -2q-4 0 -5.5 -1.5t-6.5 -3.5q-4 -2 -6 -10q-3 -3 -3 -11t3 -9q1 -3 3 -5t3 -7q5 0 8.5 -1.5t7.5 -2.5q6 -2 13 -5.5t12 -5.5l11 -2q7 -5 15 -8t14 -7q12 -6 21 -20q5 -4 9 -9.5t7 -11.5 q1 -6 2.5 -12.5t1.5 -16.5q0 -18 -8 -37q-5 -9 -10 -16t-14 -13q-7 -6 -14.5 -11.5t-18.5 -8.5q-8 -3 -18 -5t-20 -2t-19.5 2t-22.5 5q-8 3 -15.5 9.5t-15.5 14.5q-5 3 -9 7.5t-7 9.5q-4 4 -6 17zM2544 167q0 -5 0.5 -9.5t2.5 -10.5q1 -9 8 -19q1 -4 3.5 -7t5.5 -7 q4 -3 7.5 -7t8.5 -5q5 -2 9.5 -4.5t8.5 -4.5q5 -2 9.5 -2h9.5h10.5t10.5 2q5 2 9 4.5t8 4.5q3 1 8 5t8 7q3 4 6 7t5 7q3 5 4 9.5t2 9.5q2 5 2.5 10t0.5 10q0 6 -1.5 13t-3.5 16q-2 7 -6.5 12t-8.5 10q-5 5 -11.5 9t-13.5 10q-6 1 -13 1.5t-16 0.5q-8 0 -14.5 -0.5 t-13.5 -1.5q-6 -5 -12.5 -9.5t-12.5 -9.5q-5 -5 -7.5 -10t-5.5 -12q-3 -8 -5 -15.5t-2 -13.5zM2618 460h127v24h-98v64h81v26h-81v61h98v29h-127v-204zM2735 -256q0 4 2 6q2 3 3.5 5.5t3.5 2.5q6 8 13 9q1 3 4.5 3.5t6.5 0.5t7 -0.5t6 -3.5q3 -1 8 -9q6 0 9 -8q1 -2 1 -6v-6 q0 -8 -1 -12q-2 -6 -9 -12q-5 -2 -8 -5q-2 -2 -6 -2.5t-7 -0.5t-6.5 0.5t-4.5 2.5q-3 1 -6.5 2.5t-6.5 2.5q-2 2 -3.5 5l-3.5 7t-2 12v6zM2748 74v185h16q4 0 7.5 -0.5t6.5 -5.5l97 -137q1 -1 1 -5q3 -3 3 -2v-3v153h21v-185h-16l-112 152v3h-3v8v-163h-21zM2819 -144 q0 9 1.5 18.5t2.5 19.5q3 10 6 18t10 15q6 11 11.5 18t12.5 14q6 6 15 11.5t17 12.5q7 4 15 8t19 6q9 2 18.5 4t21.5 2q8 0 15.5 -0.5t13.5 -5.5q8 -1 16 -3.5t14 -5.5q8 -3 14.5 -8t16.5 -9q13 -11 21 -21l-11 -12q-2 -5 -4.5 -7t-5.5 -4q-5 -1 -9.5 -1h-9.5t-9.5 1t-8.5 4 q-6 5 -13.5 8.5t-13.5 6.5q-6 2 -12 3t-14 1q-20 0 -37 -8q-11 -3 -18 -8.5t-14 -11.5q-10 -12 -21 -32q-3 -9 -5.5 -17t-2.5 -17t2.5 -19t5.5 -18q5 -11 10 -18.5t11 -12.5q7 -7 13.5 -11.5t18.5 -9.5l18 -6t19 -3q8 0 14 2t12 3q6 2 13.5 6t13.5 9q5 1 9 4h9 q5 0 10.5 -0.5t8.5 -2.5q7 -2 10 -8l11 -13q-9 -12 -21 -20q-9 -4 -16 -8.5t-15 -8.5q-6 -5 -14 -7l-16 -4q-6 -3 -13.5 -3.5t-15.5 -0.5q-17 0 -31 3t-29 8q-28 13 -46 33q-20 20 -33 46q-5 14 -8 28t-3 32zM2863 558q0 -8 1.5 -18.5t6.5 -19.5q7 -20 24 -36q7 -6 15 -11 t18 -7q16 -8 41 -8h14t12 2l13.5 4.5t13.5 6.5q5 3 9.5 6t8.5 7q12 10 19 24q7 11 10 24q2 8 2.5 14t0.5 12q0 8 -0.5 16.5t-2.5 14.5q-3 12 -10 25q-5 8 -19 21q-4 4 -8.5 7.5t-9.5 9.5q-6 2 -13.5 5t-13.5 6q-6 1 -12 2.5t-14 1.5t-15 -1.5t-13 -2.5q-15 -5 -26 -11 q-5 -6 -10.5 -9.5t-9.5 -7.5q-5 -5 -9 -10t-10 -11q-2 -7 -5 -12.5t-4 -12.5q-4 -11 -4 -31zM2892 558q0 17 7 32q2 7 6.5 13t9.5 11q4 6 10.5 10t14.5 7q10 7 29 7q8 0 14.5 -2t14.5 -5q5 -3 12 -7t13 -10q4 -5 8.5 -11t7.5 -13q3 -6 4 -14.5t1 -17.5q0 -14 -5 -29 q-3 -6 -7.5 -11t-8.5 -11q-6 -5 -13 -9t-12 -10q-14 -5 -29 -5q-8 0 -16 1t-13 4q-8 5 -14.5 9.5t-10.5 9.5q-5 6 -9.5 11t-6.5 11q-3 8 -5 15.5t-2 13.5zM3036 74v185h114v-21h-91v-65h75v-18h-75v-81h-23zM3101 -144q0 9 1.5 18.5t2.5 19.5q3 10 7.5 18t8.5 15q4 11 10 18 t14 14q5 6 12.5 11.5t16.5 12.5q8 4 17 8t17 6q11 2 20.5 4t18.5 2q10 0 20.5 -2t18.5 -4q11 -2 19.5 -6t16.5 -8q9 -6 16 -12t17 -12l12 -14t9 -18q5 -7 8.5 -15t6.5 -18q3 -9 4 -19t1 -19q0 -11 -0.5 -21t-4.5 -19q-3 -9 -6.5 -18.5t-8.5 -18.5q-7 -14 -21 -29 q-9 -7 -16.5 -12.5t-16.5 -10.5q-8 -7 -16.5 -10.5t-19.5 -6.5q-8 -1 -18.5 -2.5t-20.5 -1.5q-29 0 -56 11q-14 6 -25.5 14.5t-20.5 18.5q-11 10 -19.5 21.5t-12.5 24.5q-6 14 -9 28t-3 32zM3110 460h31v171q0 -4 1 -4v-4q0 -1 1 -2l2 -3l115 -158h24v204h-28v-160 q-2 4 -3 7.5t-4 5.5l-98 138q-1 1 -2 3t-4 5q-3 0 -7.5 0.5t-7.5 0.5h-20v-204zM3154 -144q0 -9 1.5 -19t3.5 -18q9 -22 23 -31q7 -7 14 -11.5t16 -9.5q8 -3 17.5 -6t17.5 -3q10 0 20.5 2.5t16.5 6.5q10 5 18.5 9.5t14.5 11.5q13 12 18 31q7 17 7 37q0 9 -2 17t-5 17 q-3 11 -7.5 18t-10.5 14q-13 13 -33 20q-6 5 -16.5 6.5t-20.5 1.5q-19 0 -35 -8q-9 -3 -16 -8.5t-14 -11.5q-8 -7 -13 -13.5t-10 -18.5q-2 -9 -3.5 -17t-1.5 -17zM3171 74v185h68q5 0 10 -0.5t11 -3.5q5 -2 9.5 -4.5t7.5 -5.5q3 -5 5.5 -9.5t7.5 -9.5q0 -4 1.5 -9.5 t1.5 -8.5q0 -5 -1.5 -9.5t-1.5 -10.5q-3 -5 -5 -9.5t-4 -6.5l-12 -12q-10 -4 -17 -5l59 -81h-13q-8 0 -12 3q-2 1 -3.5 2t-2.5 6l-52 70h-34v-81h-23zM3194 173h45q8 0 13 2q3 2 4.5 3.5t3.5 2.5q7 7 9 12q1 4 1 15q0 6 -1 10t-9 11q-2 0 -3.5 2.5t-4.5 5.5q-5 1 -13 1h-45 v-65zM3331 167q0 5 0.5 10.5t2.5 10.5q1 7 3.5 14t4.5 12q4 5 9 9.5t8 9.5q5 4 10 8.5t10 7.5t12 5t12 5q6 0 11 1.5t13 1.5q5 0 12 -1.5t14 -1.5q6 -3 11 -5t9 -5q6 -3 11.5 -7t9.5 -9t7 -9.5t6 -9.5q7 -10 10 -26q3 -5 4.5 -10.5t1.5 -10.5q0 -9 -2 -19.5t-7 -19.5 q-3 -9 -8.5 -16.5t-11.5 -12.5q-7 -7 -15 -12.5t-17 -8.5q-7 -3 -15.5 -4t-19.5 -1t-20.5 1t-18.5 4q-17 6 -29 21q-6 5 -12 12.5t-9 16.5t-5 19.5t-2 19.5zM3334 460h118v24h-89v180h-29v-204zM3355 147q2 -5 3.5 -9.5t4.5 -9.5q2 -4 5 -7l7 -7q3 -3 6 -7t7 -5 q5 -2 9.5 -4.5t9.5 -4.5q4 -2 9.5 -2h10.5h10t11 2q4 2 7.5 4.5t6.5 4.5q5 1 9 5t10 7q3 4 5.5 7t4.5 7q2 5 4 9.5t3 9.5t1 10v10q0 6 -0.5 13t-1.5 16q-3 7 -8 12t-8 10q-8 5 -14 9t-11 10q-6 1 -14 1.5t-15 0.5q-8 0 -15 -0.5t-13 -1.5q-8 -5 -14 -9.5t-10 -9.5 q-7 -5 -10 -10t-6 -12q-3 -8 -3.5 -15.5t-0.5 -13.5v-20zM3421 664l76 -102q1 0 2 -4q0 -1 1 -1t2 -1v-4q0 -1 1 -2v-5v-85h31v85v5q1 0 1 6q2 0 4 2v3q0 1 1 1l76 102h-23q-8 0 -13 -5q-8 -6 -9 -11l-49 -63q-1 -1 -1 -2q-1 -1 -4 -1v-3v3l-2 3l-47 63q-5 6 -11 11 q-5 4 -13 5h-23zM3433 0h52q5 0 7.5 -1.5t5.5 -1.5q3 -1 4.5 -1t4.5 -1l8 -8q2 -2 4.5 -5.5t3.5 -5.5q8 -22 16.5 -43.5t16.5 -43.5q8 -23 17.5 -44.5t18.5 -42.5q0 -2 0.5 -4t0.5 -3v-7q3 0 3 -6q0 6 1 6v7q0 1 1 3t1 4l13 21l58 153q1 2 2.5 5.5t2.5 5.5q2 3 5 4.5t3 3.5 q3 1 6 1t6 1q3 0 4.5 1.5t6.5 1.5h51v-291h-51v213q-2 -3 -3 -6t-3 -7q-1 -6 -1 -9t-1 -6q-11 -23 -20.5 -46t-19.5 -46q-9 -24 -18.5 -46.5t-18.5 -46.5h-49l-75 185q-4 5 -4 15q-2 3 -3 5t-1 5v-210h-56v291zM3560 74v185h19q5 0 9 -4q3 -2 4 -2.5t1 -3.5l65 -146 q0 -4 3 -4v-4q0 3 0.5 5.5t0.5 5.5q1 5 7 10l55 133q2 3 3.5 3.5t3.5 2.5q3 3 5.5 3.5t4.5 0.5h16v-185h-18v152q0 -1 -3 -4v-1v-3q-5 -10 -9.5 -21.5t-10.5 -19.5q-4 -10 -7.5 -17.5t-8.5 -19.5q-2 -9 -6.5 -17.5t-7.5 -16.5l-8.5 -17l-7.5 -15h-19q-11 16 -18.5 34.5 t-15.5 35.5q-7 20 -15.5 38.5t-17.5 35.5v4q-3 3 -3 4v-152h-21z" />
<glyph unicode="6" horiz-adv-x="4195" d="M527 167q0 9 5 21q2 7 4.5 14t7.5 12q3 5 5.5 9.5t7.5 9.5q3 4 8 8.5t9 7.5q8 3 13 5t11 5q5 0 12 1.5t16 1.5t17 -2t20 -7q9 -3 16 -8t13 -12q-3 -4 -5 -4q0 -1 -1 -2t-2 -1q0 -1 -4 -1h-4q-7 0 -9 1q-5 2 -10.5 6.5t-10.5 5.5t-9.5 1h-10.5q-8 0 -16 -0.5t-13 -1.5 q-8 -5 -14 -9.5t-13 -9.5q-5 -5 -8.5 -10t-5.5 -12q-5 -8 -6 -15.5t-1 -13.5q0 -10 4 -20q2 -5 3 -9.5t2 -9.5q3 -4 6 -7t6 -7q6 -3 10 -7t9 -5q4 -2 7.5 -4.5t8.5 -4.5t10.5 -2h10.5h11t11 2t13 4.5t11 5.5v40h-16h-2q-1 0 -2 1l-4.5 3t-3.5 4l-2.5 2.5t-1.5 2.5t-0.5 3 t-0.5 4v1h53v-73q-4 -4 -6.5 -5.5t-6.5 -6.5q-8 -2 -16 -2q-9 -4 -20 -4h-17h-15.5t-12.5 1q-6 2 -10.5 4t-13.5 7q-4 2 -9 5t-8 9q-5 3 -7.5 8.5t-5.5 11.5q-5 5 -7 10t-5 11q-2 8 -3.5 13.5t-1.5 13.5zM527 -274q0 11 2 15q0 2 7 10q2 3 3 5.5t2 6.5q2 2 4.5 5.5t3.5 6.5 l127 175h-138v50h213v-26v-6t-1 -6q-1 -5 -3.5 -7t-5.5 -5l-142 -195h2l2 3h4h4h139v-49h-223v17zM538 327v783h1219q0 41 7.5 79.5t24.5 73.5q16 36 36 68t50 58q51 52 123 80q36 16 72.5 23.5t76.5 7.5q43 0 81.5 -7.5t72.5 -25.5q38 -16 69 -37.5t58 -48.5 q48 -49 82 -124q27 -74 26 -147h1221v-783h-3219zM705 460h25v76h45q8 0 15 1t12 3q13 6 18 13q5 4 10.5 8.5t5.5 11.5q7 14 7 25q0 7 -2 13l-5 15q0 4 -5.5 8.5t-10.5 8.5q-3 4 -7.5 8t-10.5 5q-5 5 -12 6.5t-15 1.5h-70v-204zM730 561v74h45q10 0 16 -4q3 0 6 -2t6 -3 q2 -3 3 -7.5t4 -7.5q2 -4 2 -13v-6.5t-2 -6.5q-3 -3 -4 -7t-3 -5q-6 -6 -12 -9t-16 -3h-45zM737 74v185h115v-21h-91v-61h75v-20h-75v-64h91v-19h-115zM786 0h188v-50h-134v-69h107v-52h-107v-71h134v-49h-188v291zM861 460h127v24h-96v64h80v26h-80v61h96v29h-127v-204z M873 238v21h142v-21h-61v-164h-20v164h-61zM983 0h222v-50h-82v-241h-54v241h-86v50zM1032 460h29v84h32l53 -73q2 -7 9 -9q2 -2 6 -2h7h20l-65 88q5 1 9 2t8 6q10 2 12 10q3 3 6 8.5t6 10.5v17q0 7 -0.5 13t-3.5 12q-5 9 -13 17q-5 11 -20 12q-3 5 -9 6.5t-12 1.5h-74v-204 zM1061 570v65h45q7 0 11 -4q5 0 6 -1.5t4 -3.5q5 -6 8 -11q3 -4 3 -13q0 -8 -3 -12q-1 -1 -8 -9q-3 -2 -4 -4.5t-6 -3.5q-3 -3 -11 -3h-45zM1130 74v185h115v-21h-93v-65h80v-18h-80v-81h-22zM1164 -291l126 291h48l125 -291h-30q-13 0 -23 5q-4 2 -6.5 8t-7.5 11l-16 38 h-134l-14 -38q-2 -5 -3 -6t-4 -2q-2 -5 -3.5 -7t-4.5 -4q-3 -1 -6 -2.5t-6 -1.5q-1 -1 -4 -1h-5h-32zM1197 496q0 -4 2 -4q0 -4 5 -8q0 -4 4 -5q0 -2 2 -4q1 -1 2 -1q11 -9 23 -12.5t27 -3.5q6 0 12.5 0.5t12.5 3.5q5 1 13 4t11 8q5 4 9.5 8.5t6.5 12.5q1 6 2.5 11t1.5 11 q0 17 -5 27.5t-15 17.5q-3 2 -4.5 3.5t-7.5 3.5q-1 1 -3.5 1.5t-4.5 2.5q-3 1 -5.5 1.5t-2.5 4.5q-7 0 -10 3q-8 2 -11.5 3.5t-8.5 3.5q-8 2 -11 5q-6 4 -6 8v9v12l4 4t2 4q3 0 6 1.5l5 2.5q5 2 8 2.5t8 0.5q1 0 3.5 -1.5t4.5 -1.5q8 -1 10 -7q3 -1 5.5 -1.5t6.5 -0.5 q10 0 16 5l9 4q-2 3 -4.5 4.5t-5.5 4.5l-6 6t-10 5q-3 1 -6.5 3t-8.5 5q-5 1 -8 2.5t-6 1.5q-6 0 -13 -1.5t-11 -2.5q-7 -2 -11 -5.5t-9 -5.5q-4 -5 -9 -9t-7 -8q-1 -5 -2.5 -10t-1.5 -14q0 -7 0.5 -11.5t3.5 -9.5q2 -4 6.5 -8t6.5 -9l10 -6t10 -5q5 -3 9 -4.5t11 -4.5 q3 -2 7.5 -2.5t7.5 -1.5q5 -1 7.5 -2.5t5.5 -2.5q3 -3 4 -5t5 -7q2 -4 3 -7t1 -8q0 -2 -0.5 -6t-4.5 -7q-3 -3 -4 -5.5t-4 -3.5q-3 -5 -7 -7t-6 -4q-5 0 -8.5 -0.5t-6.5 -0.5q-6 0 -9.5 0.5t-6.5 0.5q-3 2 -6.5 3.5t-3.5 7.5l-4 1q-7 7 -15 7q-3 0 -6.5 -0.5t-6.5 -3.5z M1273 -177h83l-38 90q0 2 -1.5 4.5t-1.5 4.5q0 5 -1 8v-8q0 -2 -1.5 -4.5t-2.5 -4.5zM1279 144v115h20v-115q0 -6 2.5 -10t5.5 -8q2 -8 5 -11t6 -9q3 -3 6.5 -5.5t7.5 -5.5q6 -3 12 -3.5t11 -0.5q6 0 10 0.5t8 3.5q6 3 10.5 5.5t9.5 5.5q2 5 5.5 8.5t5.5 11.5q5 6 5 18v115 h21v-115q0 -8 -2.5 -14t-5.5 -14q-2 -7 -5.5 -13t-8.5 -12q-5 -4 -11 -8t-13 -6q-15 -4 -29 -4q-15 0 -31 4q-5 2 -10.5 6t-10.5 8q-10 10 -17 25q-2 8 -4.5 14t-2.5 14zM1355 558q0 -8 2.5 -18.5t6.5 -19.5q3 -10 8.5 -18.5t12.5 -17.5q8 -6 17 -11t18 -7q16 -8 39 -8h15 t13 2q15 4 23 11q16 7 23 13q9 9 16 24q3 6 7 12t6 12q2 8 2.5 14t0.5 12q0 18 -3 31q-2 7 -6 12.5t-7 12.5q-5 9 -16 21q-4 4 -9.5 7.5t-13.5 9.5q-5 2 -10 5t-13 6q-6 1 -13 2.5t-15 1.5q-7 0 -13.5 -1.5t-12.5 -2.5q-8 -2 -14 -5.5t-11 -5.5q-6 -6 -11.5 -9.5t-11.5 -7.5 q-5 -5 -9 -10t-7 -11q-4 -7 -5.5 -12.5t-4.5 -12.5q-4 -11 -4 -31zM1381 558q0 17 8 32q3 7 7.5 13t8.5 11q6 6 12 10t13 7q8 3 15 5t14 2q16 0 31 -7q7 -3 12.5 -7t9.5 -10q5 -5 10.5 -11t8.5 -13q2 -6 3.5 -14.5t1.5 -17.5q0 -6 -1.5 -13t-3.5 -16q-3 -6 -8 -11l-11 -11 q-4 -5 -9.5 -9t-12.5 -10q-6 -3 -14.5 -4t-16.5 -1q-15 0 -29 5q-6 5 -12.5 9.5t-12.5 9.5q-4 6 -8.5 11t-7.5 11q-3 8 -5.5 15.5t-2.5 13.5zM1467 74v185h23v-166h83v-19h-106zM1478 0h184v-50h-134v-76h111v-51h-111v-114h-50v291zM1594 74v185h21v-166h85v-19h-106z M1605 460h26v171v-4l2 -2l2 -2v-5l119 -158h21v204h-27v-160q0 4 -1.5 7.5t-2.5 5.5l-98 138q-5 1 -11 8q-3 0 -6 0.5t-6 0.5h-18v-204zM1679 -144q0 9 1 18.5t3 19.5q6 22 17 33q5 11 10 18t11 14q8 6 15.5 11.5t17.5 12.5q6 4 15 8t20 6q8 2 17.5 4t20.5 2q10 0 20 -2 t21 -4q9 -2 17.5 -6t18.5 -8q8 -6 14 -12t14 -12q7 -7 13 -14t12 -18q4 -7 7 -15t6 -18q3 -9 3.5 -19t0.5 -19q0 -11 -0.5 -21t-3.5 -19t-6 -18.5t-7 -18.5q-6 -6 -12 -14.5t-13 -14.5q-8 -7 -14 -12.5t-14 -10.5q-9 -7 -18 -10.5t-18 -6.5q-11 -1 -21 -2.5t-20 -1.5 q-15 0 -29 3t-29 8q-14 6 -25 14.5t-23 18.5q-19 20 -29 46q-6 14 -9.5 28t-3.5 32zM1733 -144q0 -9 1 -19t6 -18q4 -11 8.5 -18.5t12.5 -12.5q6 -7 14 -11.5t14 -9.5q10 -3 19.5 -6t18.5 -3q10 0 19 2.5t18 6.5q9 5 16 9.5t13 11.5q8 5 14 12.5t9 18.5q3 8 4.5 17.5 t1.5 19.5q0 16 -6 34q-3 11 -8.5 18t-14.5 14q-6 6 -13 11.5t-16 8.5q-15 8 -37 8q-20 0 -38 -8q-6 -3 -14 -8.5t-14 -11.5q-8 -7 -12.5 -13.5t-8.5 -18.5q-5 -9 -6 -17t-1 -17zM1789 259h10q7 0 11 -4q1 -2 3.5 -2.5t5.5 -3.5l58 -139v-8q3 -3 3 -7v7q0 1 0.5 3.5t0.5 4.5 q8 16 16.5 33.5t16.5 33.5q6 20 14 37t17 35q1 3 2.5 3.5t1.5 2.5q5 3 7 3.5t5 0.5h9q-9 -23 -19.5 -46.5t-21.5 -45.5q-9 -25 -18.5 -48t-19.5 -45h-20zM1789 1109q0 -75 30 -137q13 -33 32 -61.5t41 -54.5q25 -25 53 -44t62 -34q63 -30 140 -29q39 0 73 6.5t66 19.5 q34 14 62 33.5t52 44.5q25 24 45 53t33 61q30 69 30 142q0 33 -5 64t-17 59q-19 55 -57 100q-18 24 -39 42t-44 35q-27 13 -52.5 25.5t-52.5 19.5q-19 7 -43 10t-51 3q-40 0 -75 -7t-68 -23q-65 -26 -113 -78q-24 -24 -41.5 -53t-30.5 -61q-30 -63 -30 -136zM1795 460h16 q10 0 15 2q1 3 3 4.5t5 4.5l13 33h106l13 -33q2 -7 8 -9q1 -2 13 -2h16l-89 204h-29zM1826 1109q0 29 3.5 56.5t13.5 54.5q9 26 23 48.5t30 46.5h431l-422 -423q-38 46 -61 99q-11 27 -14.5 57t-3.5 61zM1860 532l36 86q0 3 1 5v8q0 -4 2 -7t2 -6l37 -86h-78zM1929 1351 q48 39 102 59q51 23 116 23q64 0 119 -23q27 -11 51.5 -26.5t44.5 -32.5h-433zM1932 867h431q-22 -18 -46 -34t-51 -27q-29 -8 -58.5 -16t-60.5 -8q-32 0 -60.5 8t-55.5 16q-27 11 -51.5 27t-47.5 34zM1967 901l421 426q40 -52 61 -107t21 -111q0 -30 -4 -58t-16 -55 q-9 -26 -22.5 -48.5t-31.5 -46.5h-429zM1987 74v185h111v-21h-91v-61h77v-20h-77v-64h91v-19h-111zM2012 0h48q4 0 9.5 -1.5t7.5 -2.5q5 -1 7.5 -3t4.5 -5q15 -22 30 -43.5t28 -43.5q17 -20 31.5 -41.5t32.5 -40.5q1 -3 2.5 -6t2.5 -9q0 -2 1.5 -5t1.5 -4v205h51v-291h-49 l-137 196q-2 2 -2.5 3t-1.5 2q-4 5 -4 8q-4 2 -4 5l-3.5 3.5l-3.5 3.5v-221h-53v291zM2022 460h117v24h-88v180h-29v-204zM2143 74v185h68q6 0 9.5 -0.5t8.5 -3.5q10 -3 20 -10q3 -5 6 -9.5t5 -9.5q2 -4 2 -9.5v-8.5v-9.5t-2 -10.5q0 -5 -2.5 -9.5t-4.5 -6.5q-3 -3 -7 -6 t-10 -6q-3 -3 -15 -5l64 -81h-15q-3 0 -6.5 0.5t-3.5 2.5l-6 2t-5 6l-50 70h-35v-81h-21zM2164 173h47q8 0 10 2q3 2 6 3.5l5 2.5q3 3 4 5.5t5 6.5q0 3 1.5 6.5t1.5 8.5q0 3 -1.5 5t-1.5 5q-3 3 -4.5 5.5t-4.5 5.5q-2 0 -5 2.5t-6 5.5q-2 1 -10 1h-47v-65zM2257 540 q0 -8 0.5 -14t2.5 -10q0 -10 6 -20q6 -11 15 -17q3 -3 7 -6t9 -6q3 -3 8.5 -4t9.5 -3q6 -2 12 -3.5t12 -1.5q7 0 11 1.5t12 3.5q4 2 9 3t9 4q9 5 16 12q5 3 7.5 7t5.5 10q2 5 5.5 9.5t5.5 10.5v24v124h-28v-124q0 -8 -0.5 -13t-3.5 -11q-1 -10 -12 -16q-3 -4 -8 -7t-9 -7 q-5 -2 -9 -2.5t-11 -0.5q-13 0 -21 3l-10.5 7t-6.5 7q-3 3 -6 7t-8 9q-1 6 -1.5 10.5t-0.5 13.5v124h-28v-124zM2297 0h222v-50h-86v-241h-53v241h-83v50zM2298 103l3 3q2 0 2.5 2t3.5 2h3q4 0 6.5 -2.5t6.5 -4.5q5 -3 8.5 -5.5t7.5 -4.5q2 -2 6 -2h7q11 0 15 2q10 0 16 6 q4 3 6 12q3 3 3.5 7.5t0.5 7.5q0 10 -1 14q-2 3 -4 5.5t-5 5.5q-3 4 -11 6q-5 0 -8.5 2t-8.5 4q-5 1 -9.5 3.5t-7.5 4.5q-12 2 -20 9q-2 1 -5 5l-6 8v19q0 7 0.5 11.5t2.5 9.5q2 9 12 16l10 5l10 5q5 0 8.5 1.5t8.5 1.5q4 0 9 -1.5t8 -1.5t5.5 -2t6.5 -4q3 -2 5.5 -3.5 t3.5 -3.5q5 -3 7 -5t4 -3l-5 -5q-3 -4 -11 -4h-9q-4 5 -4 8q-2 0 -3.5 0.5t-3.5 0.5h-2q-1 0 -3 0.5t-3 0.5h-5q-8 0 -11 -1q-9 0 -10 -5q-7 -7 -7 -11q-4 -1 -4 -10q0 -7 4 -8q0 -7 4 -8l5 -5t6 -3q4 -2 7.5 -3.5t9.5 -3.5q1 -1 5 -1.5t4 -2.5q3 0 5.5 -1t5.5 -3q2 -1 3 -1 t1.5 -0.5t1.5 -0.5q2 0 4.5 -1.5t3.5 -2.5l8.5 -8.5l7.5 -7.5q4 -13 4 -25q0 -8 -1 -12.5t-7 -11.5q-1 -9 -12 -16q-4 -5 -9.5 -6.5t-8.5 -2.5q-5 -3 -12 -3.5t-15 -0.5q-11 0 -22 3t-19 10q-3 1 -4 3.5t-6 5.5q0 3 -1.5 5t-1.5 3zM2449 496q1 -1 1.5 -2.5t3.5 -1.5 q0 -2 1.5 -4t1.5 -4l2.5 -2.5t1.5 -2.5q5 -5 8 -5q8 -9 20.5 -12.5t25.5 -3.5q6 0 12.5 0.5t15.5 3.5q6 1 10.5 4t10.5 8q4 4 7 8.5t6 12.5q8 11 9 22q0 17 -6 27.5t-17 17.5q-6 4 -8 7q-3 1 -5.5 1.5t-5.5 2.5q-1 1 -5 1.5t-7 4.5q-1 0 -3.5 1t-5.5 2q-5 2 -7.5 3.5 t-7.5 3.5q-9 2 -10 5q-5 2 -7 3.5t-4 4.5q0 1 -0.5 3.5t-0.5 5.5q0 6 4 12q1 4 8 8q3 0 4.5 1.5t5.5 2.5q3 3 14 3q1 0 3.5 -1.5t5.5 -1.5q3 -3 12 -7q8 -2 12 -2q8 0 13 5l7 4q-2 3 -4.5 4.5t-5.5 4.5q-2 3 -5.5 6t-7.5 5q-3 1 -6.5 3t-9.5 5q-4 1 -8 2.5t-6 1.5 q-6 0 -12 -1.5t-12 -2.5q-5 -2 -10.5 -5.5t-9.5 -5.5q-4 -5 -7 -9l-6 -8q-3 -5 -5 -10t-2 -14q0 -7 2 -11.5t5 -9.5q4 -10 10 -17q5 -3 9 -6t9 -5q6 -3 12 -4.5t10 -4.5q5 -2 7.5 -2.5t5.5 -1.5t8 -2.5t8 -2.5l5 -5t3 -7q3 -4 3.5 -7t0.5 -8q0 -2 -0.5 -6t-3.5 -7 q-2 -7 -9 -9q-5 -5 -8.5 -7t-6.5 -4q-4 0 -7 -0.5t-6 -0.5q-4 0 -8.5 0.5t-7.5 0.5q-7 3 -13 11l-3 1q-7 7 -14 7q-2 0 -5.5 -0.5t-5.5 -3.5zM2458 74v185h20v-185h-20zM2522 167q0 5 0.5 10.5t1.5 10.5q5 15 10 26q7 10 17 19q9 9 18 16q5 3 12 5t12 5q6 0 12 1.5t12 1.5 q7 0 14.5 -1.5t13.5 -1.5q5 -3 10.5 -5t10.5 -5t10 -7t10 -9q4 -5 6.5 -9.5t7.5 -9.5q5 -10 11 -26q1 -5 2.5 -10.5t1.5 -10.5q0 -9 -2.5 -19.5t-8.5 -19.5q-3 -9 -8 -16.5t-10 -12.5q-8 -7 -15.5 -12.5t-17.5 -8.5q-10 -5 -36 -5q-9 0 -18 1t-19 4q-19 6 -29 21 q-14 12 -23 29q-6 18 -6 39zM2522 -229q1 0 2 1.5t4 2.5q2 0 3 1.5t3 2.5q4 0 6.5 1.5t3.5 1.5h11q2 0 5 -0.5t5 -2.5q7 0 12 -4q6 -3 11 -6t9 -6q3 -1 8.5 -3t11.5 -2q3 0 8 0.5t9 3.5q10 2 16 9q7 4 12 11q3 5 5.5 8.5t2.5 8.5q0 10 -8 16q-6 8 -12 8q-3 4 -7.5 5.5 t-8.5 3.5q-8 2 -20 8q-7 2 -13.5 4t-12.5 5q-9 5 -15.5 9t-12.5 10q-6 4 -10 9.5t-7 11.5q-8 15 -9 33q0 23 9 34q4 8 9 14t11 13l14 8t16 6q8 2 15 4t19 2q5 0 11 -2l12 -4q7 -1 11 -3.5t13 -5.5q4 -3 8.5 -8t8.5 -9q4 -3 8.5 -7t7.5 -9l-11 -7q-3 -2 -6.5 -4.5t-6.5 -4.5 q-5 -1 -8 -1h-9h-3h-4q-8 2 -9 4q-5 1 -8 4q-3 0 -4.5 1t-3.5 1q-4 2 -7 2q-12 0 -17 -2q-4 0 -5.5 -1.5t-6.5 -3.5q-4 -2 -6 -10q-3 -3 -3 -11t3 -9q1 -3 3 -5t3 -7q5 0 8.5 -1.5t7.5 -2.5q6 -2 13 -5.5t12 -5.5l11 -2q7 -5 15 -8t14 -7q12 -6 21 -20q5 -4 9 -9.5t7 -11.5 q1 -6 2.5 -12.5t1.5 -16.5q0 -18 -8 -37q-5 -9 -10 -16t-14 -13q-7 -6 -14.5 -11.5t-18.5 -8.5q-8 -3 -18 -5t-20 -2t-19.5 2t-22.5 5q-8 3 -15.5 9.5t-15.5 14.5q-5 3 -9 7.5t-7 9.5q-4 4 -6 17zM2544 167q0 -5 0.5 -9.5t2.5 -10.5q1 -9 8 -19q1 -4 3.5 -7t5.5 -7 q4 -3 7.5 -7t8.5 -5q5 -2 9.5 -4.5t8.5 -4.5q5 -2 9.5 -2h9.5h10.5t10.5 2q5 2 9 4.5t8 4.5q3 1 8 5t8 7q3 4 6 7t5 7q3 5 4 9.5t2 9.5q2 5 2.5 10t0.5 10q0 6 -1.5 13t-3.5 16q-2 7 -6.5 12t-8.5 10q-5 5 -11.5 9t-13.5 10q-6 1 -13 1.5t-16 0.5q-8 0 -14.5 -0.5 t-13.5 -1.5q-6 -5 -12.5 -9.5t-12.5 -9.5q-5 -5 -7.5 -10t-5.5 -12q-3 -8 -5 -15.5t-2 -13.5zM2618 460h127v24h-98v64h81v26h-81v61h98v29h-127v-204zM2735 -256q0 4 2 6q2 3 3.5 5.5t3.5 2.5q6 8 13 9q1 3 4.5 3.5t6.5 0.5t7 -0.5t6 -3.5q3 -1 8 -9q6 0 9 -8q1 -2 1 -6v-6 q0 -8 -1 -12q-2 -6 -9 -12q-5 -2 -8 -5q-2 -2 -6 -2.5t-7 -0.5t-6.5 0.5t-4.5 2.5q-3 1 -6.5 2.5t-6.5 2.5q-2 2 -3.5 5l-3.5 7t-2 12v6zM2748 74v185h16q4 0 7.5 -0.5t6.5 -5.5l97 -137q1 -1 1 -5q3 -3 3 -2v-3v153h21v-185h-16l-112 152v3h-3v8v-163h-21zM2819 -144 q0 9 1.5 18.5t2.5 19.5q3 10 6 18t10 15q6 11 11.5 18t12.5 14q6 6 15 11.5t17 12.5q7 4 15 8t19 6q9 2 18.5 4t21.5 2q8 0 15.5 -0.5t13.5 -5.5q8 -1 16 -3.5t14 -5.5q8 -3 14.5 -8t16.5 -9q13 -11 21 -21l-11 -12q-2 -5 -4.5 -7t-5.5 -4q-5 -1 -9.5 -1h-9.5t-9.5 1t-8.5 4 q-6 5 -13.5 8.5t-13.5 6.5q-6 2 -12 3t-14 1q-20 0 -37 -8q-11 -3 -18 -8.5t-14 -11.5q-10 -12 -21 -32q-3 -9 -5.5 -17t-2.5 -17t2.5 -19t5.5 -18q5 -11 10 -18.5t11 -12.5q7 -7 13.5 -11.5t18.5 -9.5l18 -6t19 -3q8 0 14 2t12 3q6 2 13.5 6t13.5 9q5 1 9 4h9 q5 0 10.5 -0.5t8.5 -2.5q7 -2 10 -8l11 -13q-9 -12 -21 -20q-9 -4 -16 -8.5t-15 -8.5q-6 -5 -14 -7l-16 -4q-6 -3 -13.5 -3.5t-15.5 -0.5q-17 0 -31 3t-29 8q-28 13 -46 33q-20 20 -33 46q-5 14 -8 28t-3 32zM2863 558q0 -8 1.5 -18.5t6.5 -19.5q7 -20 24 -36q7 -6 15 -11 t18 -7q16 -8 41 -8h14t12 2l13.5 4.5t13.5 6.5q5 3 9.5 6t8.5 7q12 10 19 24q7 11 10 24q2 8 2.5 14t0.5 12q0 8 -0.5 16.5t-2.5 14.5q-3 12 -10 25q-5 8 -19 21q-4 4 -8.5 7.5t-9.5 9.5q-6 2 -13.5 5t-13.5 6q-6 1 -12 2.5t-14 1.5t-15 -1.5t-13 -2.5q-15 -5 -26 -11 q-5 -6 -10.5 -9.5t-9.5 -7.5q-5 -5 -9 -10t-10 -11q-2 -7 -5 -12.5t-4 -12.5q-4 -11 -4 -31zM2892 558q0 17 7 32q2 7 6.5 13t9.5 11q4 6 10.5 10t14.5 7q10 7 29 7q8 0 14.5 -2t14.5 -5q5 -3 12 -7t13 -10q4 -5 8.5 -11t7.5 -13q3 -6 4 -14.5t1 -17.5q0 -14 -5 -29 q-3 -6 -7.5 -11t-8.5 -11q-6 -5 -13 -9t-12 -10q-14 -5 -29 -5q-8 0 -16 1t-13 4q-8 5 -14.5 9.5t-10.5 9.5q-5 6 -9.5 11t-6.5 11q-3 8 -5 15.5t-2 13.5zM3036 74v185h114v-21h-91v-65h75v-18h-75v-81h-23zM3101 -144q0 9 1.5 18.5t2.5 19.5q3 10 7.5 18t8.5 15q4 11 10 18 t14 14q5 6 12.5 11.5t16.5 12.5q8 4 17 8t17 6q11 2 20.5 4t18.5 2q10 0 20.5 -2t18.5 -4q11 -2 19.5 -6t16.5 -8q9 -6 16 -12t17 -12l12 -14t9 -18q5 -7 8.5 -15t6.5 -18q3 -9 4 -19t1 -19q0 -11 -0.5 -21t-4.5 -19q-3 -9 -6.5 -18.5t-8.5 -18.5q-7 -14 -21 -29 q-9 -7 -16.5 -12.5t-16.5 -10.5q-8 -7 -16.5 -10.5t-19.5 -6.5q-8 -1 -18.5 -2.5t-20.5 -1.5q-29 0 -56 11q-14 6 -25.5 14.5t-20.5 18.5q-11 10 -19.5 21.5t-12.5 24.5q-6 14 -9 28t-3 32zM3110 460h31v171q0 -4 1 -4v-4q0 -1 1 -2l2 -3l115 -158h24v204h-28v-160 q-2 4 -3 7.5t-4 5.5l-98 138q-1 1 -2 3t-4 5q-3 0 -7.5 0.5t-7.5 0.5h-20v-204zM3154 -144q0 -9 1.5 -19t3.5 -18q9 -22 23 -31q7 -7 14 -11.5t16 -9.5q8 -3 17.5 -6t17.5 -3q10 0 20.5 2.5t16.5 6.5q10 5 18.5 9.5t14.5 11.5q13 12 18 31q7 17 7 37q0 9 -2 17t-5 17 q-3 11 -7.5 18t-10.5 14q-13 13 -33 20q-6 5 -16.5 6.5t-20.5 1.5q-19 0 -35 -8q-9 -3 -16 -8.5t-14 -11.5q-8 -7 -13 -13.5t-10 -18.5q-2 -9 -3.5 -17t-1.5 -17zM3171 74v185h68q5 0 10 -0.5t11 -3.5q5 -2 9.5 -4.5t7.5 -5.5q3 -5 5.5 -9.5t7.5 -9.5q0 -4 1.5 -9.5 t1.5 -8.5q0 -5 -1.5 -9.5t-1.5 -10.5q-3 -5 -5 -9.5t-4 -6.5l-12 -12q-10 -4 -17 -5l59 -81h-13q-8 0 -12 3q-2 1 -3.5 2t-2.5 6l-52 70h-34v-81h-23zM3194 173h45q8 0 13 2q3 2 4.5 3.5t3.5 2.5q7 7 9 12q1 4 1 15q0 6 -1 10t-9 11q-2 0 -3.5 2.5t-4.5 5.5q-5 1 -13 1h-45 v-65zM3331 167q0 5 0.5 10.5t2.5 10.5q1 7 3.5 14t4.5 12q4 5 9 9.5t8 9.5q5 4 10 8.5t10 7.5t12 5t12 5q6 0 11 1.5t13 1.5q5 0 12 -1.5t14 -1.5q6 -3 11 -5t9 -5q6 -3 11.5 -7t9.5 -9t7 -9.5t6 -9.5q7 -10 10 -26q3 -5 4.5 -10.5t1.5 -10.5q0 -9 -2 -19.5t-7 -19.5 q-3 -9 -8.5 -16.5t-11.5 -12.5q-7 -7 -15 -12.5t-17 -8.5q-7 -3 -15.5 -4t-19.5 -1t-20.5 1t-18.5 4q-17 6 -29 21q-6 5 -12 12.5t-9 16.5t-5 19.5t-2 19.5zM3334 460h118v24h-89v180h-29v-204zM3355 147q2 -5 3.5 -9.5t4.5 -9.5q2 -4 5 -7l7 -7q3 -3 6 -7t7 -5 q5 -2 9.5 -4.5t9.5 -4.5q4 -2 9.5 -2h10.5h10t11 2q4 2 7.5 4.5t6.5 4.5q5 1 9 5t10 7q3 4 5.5 7t4.5 7q2 5 4 9.5t3 9.5t1 10v10q0 6 -0.5 13t-1.5 16q-3 7 -8 12t-8 10q-8 5 -14 9t-11 10q-6 1 -14 1.5t-15 0.5q-8 0 -15 -0.5t-13 -1.5q-8 -5 -14 -9.5t-10 -9.5 q-7 -5 -10 -10t-6 -12q-3 -8 -3.5 -15.5t-0.5 -13.5v-20zM3421 664l76 -102q1 0 2 -4q0 -1 1 -1t2 -1v-4q0 -1 1 -2v-5v-85h31v85v5q1 0 1 6q2 0 4 2v3q0 1 1 1l76 102h-23q-8 0 -13 -5q-8 -6 -9 -11l-49 -63q-1 -1 -1 -2q-1 -1 -4 -1v-3v3l-2 3l-47 63q-5 6 -11 11 q-5 4 -13 5h-23zM3433 0h52q5 0 7.5 -1.5t5.5 -1.5q3 -1 4.5 -1t4.5 -1l8 -8q2 -2 4.5 -5.5t3.5 -5.5q8 -22 16.5 -43.5t16.5 -43.5q8 -23 17.5 -44.5t18.5 -42.5q0 -2 0.5 -4t0.5 -3v-7q3 0 3 -6q0 6 1 6v7q0 1 1 3t1 4l13 21l58 153q1 2 2.5 5.5t2.5 5.5q2 3 5 4.5t3 3.5 q3 1 6 1t6 1q3 0 4.5 1.5t6.5 1.5h51v-291h-51v213q-2 -3 -3 -6t-3 -7q-1 -6 -1 -9t-1 -6q-11 -23 -20.5 -46t-19.5 -46q-9 -24 -18.5 -46.5t-18.5 -46.5h-49l-75 185q-4 5 -4 15q-2 3 -3 5t-1 5v-210h-56v291zM3560 74v185h19q5 0 9 -4q3 -2 4 -2.5t1 -3.5l65 -146 q0 -4 3 -4v-4q0 3 0.5 5.5t0.5 5.5q1 5 7 10l55 133q2 3 3.5 3.5t3.5 2.5q3 3 5.5 3.5t4.5 0.5h16v-185h-18v152q0 -1 -3 -4v-1v-3q-5 -10 -9.5 -21.5t-10.5 -19.5q-4 -10 -7.5 -17.5t-8.5 -19.5q-2 -9 -6.5 -17.5t-7.5 -16.5l-8.5 -17l-7.5 -15h-19q-11 16 -18.5 34.5 t-15.5 35.5q-7 20 -15.5 38.5t-17.5 35.5v4q-3 3 -3 4v-152h-21z" />
<glyph unicode="7" horiz-adv-x="4195" d="M527 167q0 9 5 21q2 7 4.5 14t7.5 12q3 5 5.5 9.5t7.5 9.5q3 4 8 8.5t9 7.5q8 3 13 5t11 5q5 0 12 1.5t16 1.5t17 -2t20 -7q9 -3 16 -8t13 -12q-3 -4 -5 -4q0 -1 -1 -2t-2 -1q0 -1 -4 -1h-4q-7 0 -9 1q-5 2 -10.5 6.5t-10.5 5.5t-9.5 1h-10.5q-8 0 -16 -0.5t-13 -1.5 q-8 -5 -14 -9.5t-13 -9.5q-5 -5 -8.5 -10t-5.5 -12q-5 -8 -6 -15.5t-1 -13.5q0 -10 4 -20q2 -5 3 -9.5t2 -9.5q3 -4 6 -7t6 -7q6 -3 10 -7t9 -5q4 -2 7.5 -4.5t8.5 -4.5t10.5 -2h10.5h11t11 2t13 4.5t11 5.5v40h-16h-2q-1 0 -2 1l-4.5 3t-3.5 4l-2.5 2.5t-1.5 2.5t-0.5 3 t-0.5 4v1h53v-73q-4 -4 -6.5 -5.5t-6.5 -6.5q-8 -2 -16 -2q-9 -4 -20 -4h-17h-15.5t-12.5 1q-6 2 -10.5 4t-13.5 7q-4 2 -9 5t-8 9q-5 3 -7.5 8.5t-5.5 11.5q-5 5 -7 10t-5 11q-2 8 -3.5 13.5t-1.5 13.5zM527 -274q0 11 2 15q0 2 7 10q2 3 3 5.5t2 6.5q2 2 4.5 5.5t3.5 6.5 l127 175h-138v50h213v-26v-6t-1 -6q-1 -5 -3.5 -7t-5.5 -5l-142 -195h2l2 3h4h4h139v-49h-223v17zM538 327v783h1219q0 41 7.5 79.5t24.5 73.5q16 36 36 68t50 58q51 52 123 80q36 16 72.5 23.5t76.5 7.5q43 0 81.5 -7.5t72.5 -25.5q38 -16 69 -37.5t58 -48.5 q48 -49 82 -124q27 -74 26 -147h1221v-783h-3219zM705 460h25v76h45q8 0 15 1t12 3q13 6 18 13q5 4 10.5 8.5t5.5 11.5q7 14 7 25q0 7 -2 13l-5 15q0 4 -5.5 8.5t-10.5 8.5q-3 4 -7.5 8t-10.5 5q-5 5 -12 6.5t-15 1.5h-70v-204zM730 561v74h45q10 0 16 -4q3 0 6 -2t6 -3 q2 -3 3 -7.5t4 -7.5q2 -4 2 -13v-6.5t-2 -6.5q-3 -3 -4 -7t-3 -5q-6 -6 -12 -9t-16 -3h-45zM737 74v185h115v-21h-91v-61h75v-20h-75v-64h91v-19h-115zM786 0h188v-50h-134v-69h107v-52h-107v-71h134v-49h-188v291zM861 460h127v24h-96v64h80v26h-80v61h96v29h-127v-204z M873 238v21h142v-21h-61v-164h-20v164h-61zM983 0h222v-50h-82v-241h-54v241h-86v50zM1032 460h29v84h32l53 -73q2 -7 9 -9q2 -2 6 -2h7h20l-65 88q5 1 9 2t8 6q10 2 12 10q3 3 6 8.5t6 10.5v17q0 7 -0.5 13t-3.5 12q-5 9 -13 17q-5 11 -20 12q-3 5 -9 6.5t-12 1.5h-74v-204 zM1061 570v65h45q7 0 11 -4q5 0 6 -1.5t4 -3.5q5 -6 8 -11q3 -4 3 -13q0 -8 -3 -12q-1 -1 -8 -9q-3 -2 -4 -4.5t-6 -3.5q-3 -3 -11 -3h-45zM1130 74v185h115v-21h-93v-65h80v-18h-80v-81h-22zM1164 -291l126 291h48l125 -291h-30q-13 0 -23 5q-4 2 -6.5 8t-7.5 11l-16 38 h-134l-14 -38q-2 -5 -3 -6t-4 -2q-2 -5 -3.5 -7t-4.5 -4q-3 -1 -6 -2.5t-6 -1.5q-1 -1 -4 -1h-5h-32zM1197 496q0 -4 2 -4q0 -4 5 -8q0 -4 4 -5q0 -2 2 -4q1 -1 2 -1q11 -9 23 -12.5t27 -3.5q6 0 12.5 0.5t12.5 3.5q5 1 13 4t11 8q5 4 9.5 8.5t6.5 12.5q1 6 2.5 11t1.5 11 q0 17 -5 27.5t-15 17.5q-3 2 -4.5 3.5t-7.5 3.5q-1 1 -3.5 1.5t-4.5 2.5q-3 1 -5.5 1.5t-2.5 4.5q-7 0 -10 3q-8 2 -11.5 3.5t-8.5 3.5q-8 2 -11 5q-6 4 -6 8v9v12l4 4t2 4q3 0 6 1.5l5 2.5q5 2 8 2.5t8 0.5q1 0 3.5 -1.5t4.5 -1.5q8 -1 10 -7q3 -1 5.5 -1.5t6.5 -0.5 q10 0 16 5l9 4q-2 3 -4.5 4.5t-5.5 4.5l-6 6t-10 5q-3 1 -6.5 3t-8.5 5q-5 1 -8 2.5t-6 1.5q-6 0 -13 -1.5t-11 -2.5q-7 -2 -11 -5.5t-9 -5.5q-4 -5 -9 -9t-7 -8q-1 -5 -2.5 -10t-1.5 -14q0 -7 0.5 -11.5t3.5 -9.5q2 -4 6.5 -8t6.5 -9l10 -6t10 -5q5 -3 9 -4.5t11 -4.5 q3 -2 7.5 -2.5t7.5 -1.5q5 -1 7.5 -2.5t5.5 -2.5q3 -3 4 -5t5 -7q2 -4 3 -7t1 -8q0 -2 -0.5 -6t-4.5 -7q-3 -3 -4 -5.5t-4 -3.5q-3 -5 -7 -7t-6 -4q-5 0 -8.5 -0.5t-6.5 -0.5q-6 0 -9.5 0.5t-6.5 0.5q-3 2 -6.5 3.5t-3.5 7.5l-4 1q-7 7 -15 7q-3 0 -6.5 -0.5t-6.5 -3.5z M1273 -177h83l-38 90q0 2 -1.5 4.5t-1.5 4.5q0 5 -1 8v-8q0 -2 -1.5 -4.5t-2.5 -4.5zM1279 144v115h20v-115q0 -6 2.5 -10t5.5 -8q2 -8 5 -11t6 -9q3 -3 6.5 -5.5t7.5 -5.5q6 -3 12 -3.5t11 -0.5q6 0 10 0.5t8 3.5q6 3 10.5 5.5t9.5 5.5q2 5 5.5 8.5t5.5 11.5q5 6 5 18v115 h21v-115q0 -8 -2.5 -14t-5.5 -14q-2 -7 -5.5 -13t-8.5 -12q-5 -4 -11 -8t-13 -6q-15 -4 -29 -4q-15 0 -31 4q-5 2 -10.5 6t-10.5 8q-10 10 -17 25q-2 8 -4.5 14t-2.5 14zM1355 558q0 -8 2.5 -18.5t6.5 -19.5q3 -10 8.5 -18.5t12.5 -17.5q8 -6 17 -11t18 -7q16 -8 39 -8h15 t13 2q15 4 23 11q16 7 23 13q9 9 16 24q3 6 7 12t6 12q2 8 2.5 14t0.5 12q0 18 -3 31q-2 7 -6 12.5t-7 12.5q-5 9 -16 21q-4 4 -9.5 7.5t-13.5 9.5q-5 2 -10 5t-13 6q-6 1 -13 2.5t-15 1.5q-7 0 -13.5 -1.5t-12.5 -2.5q-8 -2 -14 -5.5t-11 -5.5q-6 -6 -11.5 -9.5t-11.5 -7.5 q-5 -5 -9 -10t-7 -11q-4 -7 -5.5 -12.5t-4.5 -12.5q-4 -11 -4 -31zM1381 558q0 17 8 32q3 7 7.5 13t8.5 11q6 6 12 10t13 7q8 3 15 5t14 2q16 0 31 -7q7 -3 12.5 -7t9.5 -10q5 -5 10.5 -11t8.5 -13q2 -6 3.5 -14.5t1.5 -17.5q0 -6 -1.5 -13t-3.5 -16q-3 -6 -8 -11l-11 -11 q-4 -5 -9.5 -9t-12.5 -10q-6 -3 -14.5 -4t-16.5 -1q-15 0 -29 5q-6 5 -12.5 9.5t-12.5 9.5q-4 6 -8.5 11t-7.5 11q-3 8 -5.5 15.5t-2.5 13.5zM1467 74v185h23v-166h83v-19h-106zM1478 0h184v-50h-134v-76h111v-51h-111v-114h-50v291zM1594 74v185h21v-166h85v-19h-106z M1605 460h26v171v-4l2 -2l2 -2v-5l119 -158h21v204h-27v-160q0 4 -1.5 7.5t-2.5 5.5l-98 138q-5 1 -11 8q-3 0 -6 0.5t-6 0.5h-18v-204zM1679 -144q0 9 1 18.5t3 19.5q6 22 17 33q5 11 10 18t11 14q8 6 15.5 11.5t17.5 12.5q6 4 15 8t20 6q8 2 17.5 4t20.5 2q10 0 20 -2 t21 -4q9 -2 17.5 -6t18.5 -8q8 -6 14 -12t14 -12q7 -7 13 -14t12 -18q4 -7 7 -15t6 -18q3 -9 3.5 -19t0.5 -19q0 -11 -0.5 -21t-3.5 -19t-6 -18.5t-7 -18.5q-6 -6 -12 -14.5t-13 -14.5q-8 -7 -14 -12.5t-14 -10.5q-9 -7 -18 -10.5t-18 -6.5q-11 -1 -21 -2.5t-20 -1.5 q-15 0 -29 3t-29 8q-14 6 -25 14.5t-23 18.5q-19 20 -29 46q-6 14 -9.5 28t-3.5 32zM1733 -144q0 -9 1 -19t6 -18q4 -11 8.5 -18.5t12.5 -12.5q6 -7 14 -11.5t14 -9.5q10 -3 19.5 -6t18.5 -3q10 0 19 2.5t18 6.5q9 5 16 9.5t13 11.5q8 5 14 12.5t9 18.5q3 8 4.5 17.5 t1.5 19.5q0 16 -6 34q-3 11 -8.5 18t-14.5 14q-6 6 -13 11.5t-16 8.5q-15 8 -37 8q-20 0 -38 -8q-6 -3 -14 -8.5t-14 -11.5q-8 -7 -12.5 -13.5t-8.5 -18.5q-5 -9 -6 -17t-1 -17zM1789 259h10q7 0 11 -4q1 -2 3.5 -2.5t5.5 -3.5l58 -139v-8q3 -3 3 -7v7q0 1 0.5 3.5t0.5 4.5 q8 16 16.5 33.5t16.5 33.5q6 20 14 37t17 35q1 3 2.5 3.5t1.5 2.5q5 3 7 3.5t5 0.5h9q-9 -23 -19.5 -46.5t-21.5 -45.5q-9 -25 -18.5 -48t-19.5 -45h-20zM1789 1109q0 -75 30 -137q13 -33 32 -61.5t41 -54.5q25 -25 53 -44t62 -34q63 -30 140 -29q39 0 73 6.5t66 19.5 q34 14 62 33.5t52 44.5q25 24 45 53t33 61q30 69 30 142q0 33 -5 64t-17 59q-19 55 -57 100q-18 24 -39 42t-44 35q-27 13 -52.5 25.5t-52.5 19.5q-19 7 -43 10t-51 3q-40 0 -75 -7t-68 -23q-65 -26 -113 -78q-24 -24 -41.5 -53t-30.5 -61q-30 -63 -30 -136zM1795 460h16 q10 0 15 2q1 3 3 4.5t5 4.5l13 33h106l13 -33q2 -7 8 -9q1 -2 13 -2h16l-89 204h-29zM1826 1109q0 29 3.5 56.5t13.5 54.5q9 26 23 48.5t30 46.5h431l-422 -423q-38 46 -61 99q-11 27 -14.5 57t-3.5 61zM1860 532l36 86q0 3 1 5v8q0 -4 2 -7t2 -6l37 -86h-78zM1929 1351 q48 39 102 59q51 23 116 23q64 0 119 -23q27 -11 51.5 -26.5t44.5 -32.5h-433zM1932 867h431q-22 -18 -46 -34t-51 -27q-29 -8 -58.5 -16t-60.5 -8q-32 0 -60.5 8t-55.5 16q-27 11 -51.5 27t-47.5 34zM1967 901l421 426q40 -52 61 -107t21 -111q0 -30 -4 -58t-16 -55 q-9 -26 -22.5 -48.5t-31.5 -46.5h-429zM1987 74v185h111v-21h-91v-61h77v-20h-77v-64h91v-19h-111zM2012 0h48q4 0 9.5 -1.5t7.5 -2.5q5 -1 7.5 -3t4.5 -5q15 -22 30 -43.5t28 -43.5q17 -20 31.5 -41.5t32.5 -40.5q1 -3 2.5 -6t2.5 -9q0 -2 1.5 -5t1.5 -4v205h51v-291h-49 l-137 196q-2 2 -2.5 3t-1.5 2q-4 5 -4 8q-4 2 -4 5l-3.5 3.5l-3.5 3.5v-221h-53v291zM2022 460h117v24h-88v180h-29v-204zM2143 74v185h68q6 0 9.5 -0.5t8.5 -3.5q10 -3 20 -10q3 -5 6 -9.5t5 -9.5q2 -4 2 -9.5v-8.5v-9.5t-2 -10.5q0 -5 -2.5 -9.5t-4.5 -6.5q-3 -3 -7 -6 t-10 -6q-3 -3 -15 -5l64 -81h-15q-3 0 -6.5 0.5t-3.5 2.5l-6 2t-5 6l-50 70h-35v-81h-21zM2164 173h47q8 0 10 2q3 2 6 3.5l5 2.5q3 3 4 5.5t5 6.5q0 3 1.5 6.5t1.5 8.5q0 3 -1.5 5t-1.5 5q-3 3 -4.5 5.5t-4.5 5.5q-2 0 -5 2.5t-6 5.5q-2 1 -10 1h-47v-65zM2257 540 q0 -8 0.5 -14t2.5 -10q0 -10 6 -20q6 -11 15 -17q3 -3 7 -6t9 -6q3 -3 8.5 -4t9.5 -3q6 -2 12 -3.5t12 -1.5q7 0 11 1.5t12 3.5q4 2 9 3t9 4q9 5 16 12q5 3 7.5 7t5.5 10q2 5 5.5 9.5t5.5 10.5v24v124h-28v-124q0 -8 -0.5 -13t-3.5 -11q-1 -10 -12 -16q-3 -4 -8 -7t-9 -7 q-5 -2 -9 -2.5t-11 -0.5q-13 0 -21 3l-10.5 7t-6.5 7q-3 3 -6 7t-8 9q-1 6 -1.5 10.5t-0.5 13.5v124h-28v-124zM2297 0h222v-50h-86v-241h-53v241h-83v50zM2298 103l3 3q2 0 2.5 2t3.5 2h3q4 0 6.5 -2.5t6.5 -4.5q5 -3 8.5 -5.5t7.5 -4.5q2 -2 6 -2h7q11 0 15 2q10 0 16 6 q4 3 6 12q3 3 3.5 7.5t0.5 7.5q0 10 -1 14q-2 3 -4 5.5t-5 5.5q-3 4 -11 6q-5 0 -8.5 2t-8.5 4q-5 1 -9.5 3.5t-7.5 4.5q-12 2 -20 9q-2 1 -5 5l-6 8v19q0 7 0.5 11.5t2.5 9.5q2 9 12 16l10 5l10 5q5 0 8.5 1.5t8.5 1.5q4 0 9 -1.5t8 -1.5t5.5 -2t6.5 -4q3 -2 5.5 -3.5 t3.5 -3.5q5 -3 7 -5t4 -3l-5 -5q-3 -4 -11 -4h-9q-4 5 -4 8q-2 0 -3.5 0.5t-3.5 0.5h-2q-1 0 -3 0.5t-3 0.5h-5q-8 0 -11 -1q-9 0 -10 -5q-7 -7 -7 -11q-4 -1 -4 -10q0 -7 4 -8q0 -7 4 -8l5 -5t6 -3q4 -2 7.5 -3.5t9.5 -3.5q1 -1 5 -1.5t4 -2.5q3 0 5.5 -1t5.5 -3q2 -1 3 -1 t1.5 -0.5t1.5 -0.5q2 0 4.5 -1.5t3.5 -2.5l8.5 -8.5l7.5 -7.5q4 -13 4 -25q0 -8 -1 -12.5t-7 -11.5q-1 -9 -12 -16q-4 -5 -9.5 -6.5t-8.5 -2.5q-5 -3 -12 -3.5t-15 -0.5q-11 0 -22 3t-19 10q-3 1 -4 3.5t-6 5.5q0 3 -1.5 5t-1.5 3zM2449 496q1 -1 1.5 -2.5t3.5 -1.5 q0 -2 1.5 -4t1.5 -4l2.5 -2.5t1.5 -2.5q5 -5 8 -5q8 -9 20.5 -12.5t25.5 -3.5q6 0 12.5 0.5t15.5 3.5q6 1 10.5 4t10.5 8q4 4 7 8.5t6 12.5q8 11 9 22q0 17 -6 27.5t-17 17.5q-6 4 -8 7q-3 1 -5.5 1.5t-5.5 2.5q-1 1 -5 1.5t-7 4.5q-1 0 -3.5 1t-5.5 2q-5 2 -7.5 3.5 t-7.5 3.5q-9 2 -10 5q-5 2 -7 3.5t-4 4.5q0 1 -0.5 3.5t-0.5 5.5q0 6 4 12q1 4 8 8q3 0 4.5 1.5t5.5 2.5q3 3 14 3q1 0 3.5 -1.5t5.5 -1.5q3 -3 12 -7q8 -2 12 -2q8 0 13 5l7 4q-2 3 -4.5 4.5t-5.5 4.5q-2 3 -5.5 6t-7.5 5q-3 1 -6.5 3t-9.5 5q-4 1 -8 2.5t-6 1.5 q-6 0 -12 -1.5t-12 -2.5q-5 -2 -10.5 -5.5t-9.5 -5.5q-4 -5 -7 -9l-6 -8q-3 -5 -5 -10t-2 -14q0 -7 2 -11.5t5 -9.5q4 -10 10 -17q5 -3 9 -6t9 -5q6 -3 12 -4.5t10 -4.5q5 -2 7.5 -2.5t5.5 -1.5t8 -2.5t8 -2.5l5 -5t3 -7q3 -4 3.5 -7t0.5 -8q0 -2 -0.5 -6t-3.5 -7 q-2 -7 -9 -9q-5 -5 -8.5 -7t-6.5 -4q-4 0 -7 -0.5t-6 -0.5q-4 0 -8.5 0.5t-7.5 0.5q-7 3 -13 11l-3 1q-7 7 -14 7q-2 0 -5.5 -0.5t-5.5 -3.5zM2458 74v185h20v-185h-20zM2522 167q0 5 0.5 10.5t1.5 10.5q5 15 10 26q7 10 17 19q9 9 18 16q5 3 12 5t12 5q6 0 12 1.5t12 1.5 q7 0 14.5 -1.5t13.5 -1.5q5 -3 10.5 -5t10.5 -5t10 -7t10 -9q4 -5 6.5 -9.5t7.5 -9.5q5 -10 11 -26q1 -5 2.5 -10.5t1.5 -10.5q0 -9 -2.5 -19.5t-8.5 -19.5q-3 -9 -8 -16.5t-10 -12.5q-8 -7 -15.5 -12.5t-17.5 -8.5q-10 -5 -36 -5q-9 0 -18 1t-19 4q-19 6 -29 21 q-14 12 -23 29q-6 18 -6 39zM2522 -229q1 0 2 1.5t4 2.5q2 0 3 1.5t3 2.5q4 0 6.5 1.5t3.5 1.5h11q2 0 5 -0.5t5 -2.5q7 0 12 -4q6 -3 11 -6t9 -6q3 -1 8.5 -3t11.5 -2q3 0 8 0.5t9 3.5q10 2 16 9q7 4 12 11q3 5 5.5 8.5t2.5 8.5q0 10 -8 16q-6 8 -12 8q-3 4 -7.5 5.5 t-8.5 3.5q-8 2 -20 8q-7 2 -13.5 4t-12.5 5q-9 5 -15.5 9t-12.5 10q-6 4 -10 9.5t-7 11.5q-8 15 -9 33q0 23 9 34q4 8 9 14t11 13l14 8t16 6q8 2 15 4t19 2q5 0 11 -2l12 -4q7 -1 11 -3.5t13 -5.5q4 -3 8.5 -8t8.5 -9q4 -3 8.5 -7t7.5 -9l-11 -7q-3 -2 -6.5 -4.5t-6.5 -4.5 q-5 -1 -8 -1h-9h-3h-4q-8 2 -9 4q-5 1 -8 4q-3 0 -4.5 1t-3.5 1q-4 2 -7 2q-12 0 -17 -2q-4 0 -5.5 -1.5t-6.5 -3.5q-4 -2 -6 -10q-3 -3 -3 -11t3 -9q1 -3 3 -5t3 -7q5 0 8.5 -1.5t7.5 -2.5q6 -2 13 -5.5t12 -5.5l11 -2q7 -5 15 -8t14 -7q12 -6 21 -20q5 -4 9 -9.5t7 -11.5 q1 -6 2.5 -12.5t1.5 -16.5q0 -18 -8 -37q-5 -9 -10 -16t-14 -13q-7 -6 -14.5 -11.5t-18.5 -8.5q-8 -3 -18 -5t-20 -2t-19.5 2t-22.5 5q-8 3 -15.5 9.5t-15.5 14.5q-5 3 -9 7.5t-7 9.5q-4 4 -6 17zM2544 167q0 -5 0.5 -9.5t2.5 -10.5q1 -9 8 -19q1 -4 3.5 -7t5.5 -7 q4 -3 7.5 -7t8.5 -5q5 -2 9.5 -4.5t8.5 -4.5q5 -2 9.5 -2h9.5h10.5t10.5 2q5 2 9 4.5t8 4.5q3 1 8 5t8 7q3 4 6 7t5 7q3 5 4 9.5t2 9.5q2 5 2.5 10t0.5 10q0 6 -1.5 13t-3.5 16q-2 7 -6.5 12t-8.5 10q-5 5 -11.5 9t-13.5 10q-6 1 -13 1.5t-16 0.5q-8 0 -14.5 -0.5 t-13.5 -1.5q-6 -5 -12.5 -9.5t-12.5 -9.5q-5 -5 -7.5 -10t-5.5 -12q-3 -8 -5 -15.5t-2 -13.5zM2618 460h127v24h-98v64h81v26h-81v61h98v29h-127v-204zM2735 -256q0 4 2 6q2 3 3.5 5.5t3.5 2.5q6 8 13 9q1 3 4.5 3.5t6.5 0.5t7 -0.5t6 -3.5q3 -1 8 -9q6 0 9 -8q1 -2 1 -6v-6 q0 -8 -1 -12q-2 -6 -9 -12q-5 -2 -8 -5q-2 -2 -6 -2.5t-7 -0.5t-6.5 0.5t-4.5 2.5q-3 1 -6.5 2.5t-6.5 2.5q-2 2 -3.5 5l-3.5 7t-2 12v6zM2748 74v185h16q4 0 7.5 -0.5t6.5 -5.5l97 -137q1 -1 1 -5q3 -3 3 -2v-3v153h21v-185h-16l-112 152v3h-3v8v-163h-21zM2819 -144 q0 9 1.5 18.5t2.5 19.5q3 10 6 18t10 15q6 11 11.5 18t12.5 14q6 6 15 11.5t17 12.5q7 4 15 8t19 6q9 2 18.5 4t21.5 2q8 0 15.5 -0.5t13.5 -5.5q8 -1 16 -3.5t14 -5.5q8 -3 14.5 -8t16.5 -9q13 -11 21 -21l-11 -12q-2 -5 -4.5 -7t-5.5 -4q-5 -1 -9.5 -1h-9.5t-9.5 1t-8.5 4 q-6 5 -13.5 8.5t-13.5 6.5q-6 2 -12 3t-14 1q-20 0 -37 -8q-11 -3 -18 -8.5t-14 -11.5q-10 -12 -21 -32q-3 -9 -5.5 -17t-2.5 -17t2.5 -19t5.5 -18q5 -11 10 -18.5t11 -12.5q7 -7 13.5 -11.5t18.5 -9.5l18 -6t19 -3q8 0 14 2t12 3q6 2 13.5 6t13.5 9q5 1 9 4h9 q5 0 10.5 -0.5t8.5 -2.5q7 -2 10 -8l11 -13q-9 -12 -21 -20q-9 -4 -16 -8.5t-15 -8.5q-6 -5 -14 -7l-16 -4q-6 -3 -13.5 -3.5t-15.5 -0.5q-17 0 -31 3t-29 8q-28 13 -46 33q-20 20 -33 46q-5 14 -8 28t-3 32zM2863 558q0 -8 1.5 -18.5t6.5 -19.5q7 -20 24 -36q7 -6 15 -11 t18 -7q16 -8 41 -8h14t12 2l13.5 4.5t13.5 6.5q5 3 9.5 6t8.5 7q12 10 19 24q7 11 10 24q2 8 2.5 14t0.5 12q0 8 -0.5 16.5t-2.5 14.5q-3 12 -10 25q-5 8 -19 21q-4 4 -8.5 7.5t-9.5 9.5q-6 2 -13.5 5t-13.5 6q-6 1 -12 2.5t-14 1.5t-15 -1.5t-13 -2.5q-15 -5 -26 -11 q-5 -6 -10.5 -9.5t-9.5 -7.5q-5 -5 -9 -10t-10 -11q-2 -7 -5 -12.5t-4 -12.5q-4 -11 -4 -31zM2892 558q0 17 7 32q2 7 6.5 13t9.5 11q4 6 10.5 10t14.5 7q10 7 29 7q8 0 14.5 -2t14.5 -5q5 -3 12 -7t13 -10q4 -5 8.5 -11t7.5 -13q3 -6 4 -14.5t1 -17.5q0 -14 -5 -29 q-3 -6 -7.5 -11t-8.5 -11q-6 -5 -13 -9t-12 -10q-14 -5 -29 -5q-8 0 -16 1t-13 4q-8 5 -14.5 9.5t-10.5 9.5q-5 6 -9.5 11t-6.5 11q-3 8 -5 15.5t-2 13.5zM3036 74v185h114v-21h-91v-65h75v-18h-75v-81h-23zM3101 -144q0 9 1.5 18.5t2.5 19.5q3 10 7.5 18t8.5 15q4 11 10 18 t14 14q5 6 12.5 11.5t16.5 12.5q8 4 17 8t17 6q11 2 20.5 4t18.5 2q10 0 20.5 -2t18.5 -4q11 -2 19.5 -6t16.5 -8q9 -6 16 -12t17 -12l12 -14t9 -18q5 -7 8.5 -15t6.5 -18q3 -9 4 -19t1 -19q0 -11 -0.5 -21t-4.5 -19q-3 -9 -6.5 -18.5t-8.5 -18.5q-7 -14 -21 -29 q-9 -7 -16.5 -12.5t-16.5 -10.5q-8 -7 -16.5 -10.5t-19.5 -6.5q-8 -1 -18.5 -2.5t-20.5 -1.5q-29 0 -56 11q-14 6 -25.5 14.5t-20.5 18.5q-11 10 -19.5 21.5t-12.5 24.5q-6 14 -9 28t-3 32zM3110 460h31v171q0 -4 1 -4v-4q0 -1 1 -2l2 -3l115 -158h24v204h-28v-160 q-2 4 -3 7.5t-4 5.5l-98 138q-1 1 -2 3t-4 5q-3 0 -7.5 0.5t-7.5 0.5h-20v-204zM3154 -144q0 -9 1.5 -19t3.5 -18q9 -22 23 -31q7 -7 14 -11.5t16 -9.5q8 -3 17.5 -6t17.5 -3q10 0 20.5 2.5t16.5 6.5q10 5 18.5 9.5t14.5 11.5q13 12 18 31q7 17 7 37q0 9 -2 17t-5 17 q-3 11 -7.5 18t-10.5 14q-13 13 -33 20q-6 5 -16.5 6.5t-20.5 1.5q-19 0 -35 -8q-9 -3 -16 -8.5t-14 -11.5q-8 -7 -13 -13.5t-10 -18.5q-2 -9 -3.5 -17t-1.5 -17zM3171 74v185h68q5 0 10 -0.5t11 -3.5q5 -2 9.5 -4.5t7.5 -5.5q3 -5 5.5 -9.5t7.5 -9.5q0 -4 1.5 -9.5 t1.5 -8.5q0 -5 -1.5 -9.5t-1.5 -10.5q-3 -5 -5 -9.5t-4 -6.5l-12 -12q-10 -4 -17 -5l59 -81h-13q-8 0 -12 3q-2 1 -3.5 2t-2.5 6l-52 70h-34v-81h-23zM3194 173h45q8 0 13 2q3 2 4.5 3.5t3.5 2.5q7 7 9 12q1 4 1 15q0 6 -1 10t-9 11q-2 0 -3.5 2.5t-4.5 5.5q-5 1 -13 1h-45 v-65zM3331 167q0 5 0.5 10.5t2.5 10.5q1 7 3.5 14t4.5 12q4 5 9 9.5t8 9.5q5 4 10 8.5t10 7.5t12 5t12 5q6 0 11 1.5t13 1.5q5 0 12 -1.5t14 -1.5q6 -3 11 -5t9 -5q6 -3 11.5 -7t9.5 -9t7 -9.5t6 -9.5q7 -10 10 -26q3 -5 4.5 -10.5t1.5 -10.5q0 -9 -2 -19.5t-7 -19.5 q-3 -9 -8.5 -16.5t-11.5 -12.5q-7 -7 -15 -12.5t-17 -8.5q-7 -3 -15.5 -4t-19.5 -1t-20.5 1t-18.5 4q-17 6 -29 21q-6 5 -12 12.5t-9 16.5t-5 19.5t-2 19.5zM3334 460h118v24h-89v180h-29v-204zM3355 147q2 -5 3.5 -9.5t4.5 -9.5q2 -4 5 -7l7 -7q3 -3 6 -7t7 -5 q5 -2 9.5 -4.5t9.5 -4.5q4 -2 9.5 -2h10.5h10t11 2q4 2 7.5 4.5t6.5 4.5q5 1 9 5t10 7q3 4 5.5 7t4.5 7q2 5 4 9.5t3 9.5t1 10v10q0 6 -0.5 13t-1.5 16q-3 7 -8 12t-8 10q-8 5 -14 9t-11 10q-6 1 -14 1.5t-15 0.5q-8 0 -15 -0.5t-13 -1.5q-8 -5 -14 -9.5t-10 -9.5 q-7 -5 -10 -10t-6 -12q-3 -8 -3.5 -15.5t-0.5 -13.5v-20zM3421 664l76 -102q1 0 2 -4q0 -1 1 -1t2 -1v-4q0 -1 1 -2v-5v-85h31v85v5q1 0 1 6q2 0 4 2v3q0 1 1 1l76 102h-23q-8 0 -13 -5q-8 -6 -9 -11l-49 -63q-1 -1 -1 -2q-1 -1 -4 -1v-3v3l-2 3l-47 63q-5 6 -11 11 q-5 4 -13 5h-23zM3433 0h52q5 0 7.5 -1.5t5.5 -1.5q3 -1 4.5 -1t4.5 -1l8 -8q2 -2 4.5 -5.5t3.5 -5.5q8 -22 16.5 -43.5t16.5 -43.5q8 -23 17.5 -44.5t18.5 -42.5q0 -2 0.5 -4t0.5 -3v-7q3 0 3 -6q0 6 1 6v7q0 1 1 3t1 4l13 21l58 153q1 2 2.5 5.5t2.5 5.5q2 3 5 4.5t3 3.5 q3 1 6 1t6 1q3 0 4.5 1.5t6.5 1.5h51v-291h-51v213q-2 -3 -3 -6t-3 -7q-1 -6 -1 -9t-1 -6q-11 -23 -20.5 -46t-19.5 -46q-9 -24 -18.5 -46.5t-18.5 -46.5h-49l-75 185q-4 5 -4 15q-2 3 -3 5t-1 5v-210h-56v291zM3560 74v185h19q5 0 9 -4q3 -2 4 -2.5t1 -3.5l65 -146 q0 -4 3 -4v-4q0 3 0.5 5.5t0.5 5.5q1 5 7 10l55 133q2 3 3.5 3.5t3.5 2.5q3 3 5.5 3.5t4.5 0.5h16v-185h-18v152q0 -1 -3 -4v-1v-3q-5 -10 -9.5 -21.5t-10.5 -19.5q-4 -10 -7.5 -17.5t-8.5 -19.5q-2 -9 -6.5 -17.5t-7.5 -16.5l-8.5 -17l-7.5 -15h-19q-11 16 -18.5 34.5 t-15.5 35.5q-7 20 -15.5 38.5t-17.5 35.5v4q-3 3 -3 4v-152h-21z" />
<glyph unicode="8" horiz-adv-x="4195" d="M527 167q0 9 5 21q2 7 4.5 14t7.5 12q3 5 5.5 9.5t7.5 9.5q3 4 8 8.5t9 7.5q8 3 13 5t11 5q5 0 12 1.5t16 1.5t17 -2t20 -7q9 -3 16 -8t13 -12q-3 -4 -5 -4q0 -1 -1 -2t-2 -1q0 -1 -4 -1h-4q-7 0 -9 1q-5 2 -10.5 6.5t-10.5 5.5t-9.5 1h-10.5q-8 0 -16 -0.5t-13 -1.5 q-8 -5 -14 -9.5t-13 -9.5q-5 -5 -8.5 -10t-5.5 -12q-5 -8 -6 -15.5t-1 -13.5q0 -10 4 -20q2 -5 3 -9.5t2 -9.5q3 -4 6 -7t6 -7q6 -3 10 -7t9 -5q4 -2 7.5 -4.5t8.5 -4.5t10.5 -2h10.5h11t11 2t13 4.5t11 5.5v40h-16h-2q-1 0 -2 1l-4.5 3t-3.5 4l-2.5 2.5t-1.5 2.5t-0.5 3 t-0.5 4v1h53v-73q-4 -4 -6.5 -5.5t-6.5 -6.5q-8 -2 -16 -2q-9 -4 -20 -4h-17h-15.5t-12.5 1q-6 2 -10.5 4t-13.5 7q-4 2 -9 5t-8 9q-5 3 -7.5 8.5t-5.5 11.5q-5 5 -7 10t-5 11q-2 8 -3.5 13.5t-1.5 13.5zM527 -274q0 11 2 15q0 2 7 10q2 3 3 5.5t2 6.5q2 2 4.5 5.5t3.5 6.5 l127 175h-138v50h213v-26v-6t-1 -6q-1 -5 -3.5 -7t-5.5 -5l-142 -195h2l2 3h4h4h139v-49h-223v17zM538 327v783h1219q0 41 7.5 79.5t24.5 73.5q16 36 36 68t50 58q51 52 123 80q36 16 72.5 23.5t76.5 7.5q43 0 81.5 -7.5t72.5 -25.5q38 -16 69 -37.5t58 -48.5 q48 -49 82 -124q27 -74 26 -147h1221v-783h-3219zM705 460h25v76h45q8 0 15 1t12 3q13 6 18 13q5 4 10.5 8.5t5.5 11.5q7 14 7 25q0 7 -2 13l-5 15q0 4 -5.5 8.5t-10.5 8.5q-3 4 -7.5 8t-10.5 5q-5 5 -12 6.5t-15 1.5h-70v-204zM730 561v74h45q10 0 16 -4q3 0 6 -2t6 -3 q2 -3 3 -7.5t4 -7.5q2 -4 2 -13v-6.5t-2 -6.5q-3 -3 -4 -7t-3 -5q-6 -6 -12 -9t-16 -3h-45zM737 74v185h115v-21h-91v-61h75v-20h-75v-64h91v-19h-115zM786 0h188v-50h-134v-69h107v-52h-107v-71h134v-49h-188v291zM861 460h127v24h-96v64h80v26h-80v61h96v29h-127v-204z M873 238v21h142v-21h-61v-164h-20v164h-61zM983 0h222v-50h-82v-241h-54v241h-86v50zM1032 460h29v84h32l53 -73q2 -7 9 -9q2 -2 6 -2h7h20l-65 88q5 1 9 2t8 6q10 2 12 10q3 3 6 8.5t6 10.5v17q0 7 -0.5 13t-3.5 12q-5 9 -13 17q-5 11 -20 12q-3 5 -9 6.5t-12 1.5h-74v-204 zM1061 570v65h45q7 0 11 -4q5 0 6 -1.5t4 -3.5q5 -6 8 -11q3 -4 3 -13q0 -8 -3 -12q-1 -1 -8 -9q-3 -2 -4 -4.5t-6 -3.5q-3 -3 -11 -3h-45zM1130 74v185h115v-21h-93v-65h80v-18h-80v-81h-22zM1164 -291l126 291h48l125 -291h-30q-13 0 -23 5q-4 2 -6.5 8t-7.5 11l-16 38 h-134l-14 -38q-2 -5 -3 -6t-4 -2q-2 -5 -3.5 -7t-4.5 -4q-3 -1 -6 -2.5t-6 -1.5q-1 -1 -4 -1h-5h-32zM1197 496q0 -4 2 -4q0 -4 5 -8q0 -4 4 -5q0 -2 2 -4q1 -1 2 -1q11 -9 23 -12.5t27 -3.5q6 0 12.5 0.5t12.5 3.5q5 1 13 4t11 8q5 4 9.5 8.5t6.5 12.5q1 6 2.5 11t1.5 11 q0 17 -5 27.5t-15 17.5q-3 2 -4.5 3.5t-7.5 3.5q-1 1 -3.5 1.5t-4.5 2.5q-3 1 -5.5 1.5t-2.5 4.5q-7 0 -10 3q-8 2 -11.5 3.5t-8.5 3.5q-8 2 -11 5q-6 4 -6 8v9v12l4 4t2 4q3 0 6 1.5l5 2.5q5 2 8 2.5t8 0.5q1 0 3.5 -1.5t4.5 -1.5q8 -1 10 -7q3 -1 5.5 -1.5t6.5 -0.5 q10 0 16 5l9 4q-2 3 -4.5 4.5t-5.5 4.5l-6 6t-10 5q-3 1 -6.5 3t-8.5 5q-5 1 -8 2.5t-6 1.5q-6 0 -13 -1.5t-11 -2.5q-7 -2 -11 -5.5t-9 -5.5q-4 -5 -9 -9t-7 -8q-1 -5 -2.5 -10t-1.5 -14q0 -7 0.5 -11.5t3.5 -9.5q2 -4 6.5 -8t6.5 -9l10 -6t10 -5q5 -3 9 -4.5t11 -4.5 q3 -2 7.5 -2.5t7.5 -1.5q5 -1 7.5 -2.5t5.5 -2.5q3 -3 4 -5t5 -7q2 -4 3 -7t1 -8q0 -2 -0.5 -6t-4.5 -7q-3 -3 -4 -5.5t-4 -3.5q-3 -5 -7 -7t-6 -4q-5 0 -8.5 -0.5t-6.5 -0.5q-6 0 -9.5 0.5t-6.5 0.5q-3 2 -6.5 3.5t-3.5 7.5l-4 1q-7 7 -15 7q-3 0 -6.5 -0.5t-6.5 -3.5z M1273 -177h83l-38 90q0 2 -1.5 4.5t-1.5 4.5q0 5 -1 8v-8q0 -2 -1.5 -4.5t-2.5 -4.5zM1279 144v115h20v-115q0 -6 2.5 -10t5.5 -8q2 -8 5 -11t6 -9q3 -3 6.5 -5.5t7.5 -5.5q6 -3 12 -3.5t11 -0.5q6 0 10 0.5t8 3.5q6 3 10.5 5.5t9.5 5.5q2 5 5.5 8.5t5.5 11.5q5 6 5 18v115 h21v-115q0 -8 -2.5 -14t-5.5 -14q-2 -7 -5.5 -13t-8.5 -12q-5 -4 -11 -8t-13 -6q-15 -4 -29 -4q-15 0 -31 4q-5 2 -10.5 6t-10.5 8q-10 10 -17 25q-2 8 -4.5 14t-2.5 14zM1355 558q0 -8 2.5 -18.5t6.5 -19.5q3 -10 8.5 -18.5t12.5 -17.5q8 -6 17 -11t18 -7q16 -8 39 -8h15 t13 2q15 4 23 11q16 7 23 13q9 9 16 24q3 6 7 12t6 12q2 8 2.5 14t0.5 12q0 18 -3 31q-2 7 -6 12.5t-7 12.5q-5 9 -16 21q-4 4 -9.5 7.5t-13.5 9.5q-5 2 -10 5t-13 6q-6 1 -13 2.5t-15 1.5q-7 0 -13.5 -1.5t-12.5 -2.5q-8 -2 -14 -5.5t-11 -5.5q-6 -6 -11.5 -9.5t-11.5 -7.5 q-5 -5 -9 -10t-7 -11q-4 -7 -5.5 -12.5t-4.5 -12.5q-4 -11 -4 -31zM1381 558q0 17 8 32q3 7 7.5 13t8.5 11q6 6 12 10t13 7q8 3 15 5t14 2q16 0 31 -7q7 -3 12.5 -7t9.5 -10q5 -5 10.5 -11t8.5 -13q2 -6 3.5 -14.5t1.5 -17.5q0 -6 -1.5 -13t-3.5 -16q-3 -6 -8 -11l-11 -11 q-4 -5 -9.5 -9t-12.5 -10q-6 -3 -14.5 -4t-16.5 -1q-15 0 -29 5q-6 5 -12.5 9.5t-12.5 9.5q-4 6 -8.5 11t-7.5 11q-3 8 -5.5 15.5t-2.5 13.5zM1467 74v185h23v-166h83v-19h-106zM1478 0h184v-50h-134v-76h111v-51h-111v-114h-50v291zM1594 74v185h21v-166h85v-19h-106z M1605 460h26v171v-4l2 -2l2 -2v-5l119 -158h21v204h-27v-160q0 4 -1.5 7.5t-2.5 5.5l-98 138q-5 1 -11 8q-3 0 -6 0.5t-6 0.5h-18v-204zM1679 -144q0 9 1 18.5t3 19.5q6 22 17 33q5 11 10 18t11 14q8 6 15.5 11.5t17.5 12.5q6 4 15 8t20 6q8 2 17.5 4t20.5 2q10 0 20 -2 t21 -4q9 -2 17.5 -6t18.5 -8q8 -6 14 -12t14 -12q7 -7 13 -14t12 -18q4 -7 7 -15t6 -18q3 -9 3.5 -19t0.5 -19q0 -11 -0.5 -21t-3.5 -19t-6 -18.5t-7 -18.5q-6 -6 -12 -14.5t-13 -14.5q-8 -7 -14 -12.5t-14 -10.5q-9 -7 -18 -10.5t-18 -6.5q-11 -1 -21 -2.5t-20 -1.5 q-15 0 -29 3t-29 8q-14 6 -25 14.5t-23 18.5q-19 20 -29 46q-6 14 -9.5 28t-3.5 32zM1733 -144q0 -9 1 -19t6 -18q4 -11 8.5 -18.5t12.5 -12.5q6 -7 14 -11.5t14 -9.5q10 -3 19.5 -6t18.5 -3q10 0 19 2.5t18 6.5q9 5 16 9.5t13 11.5q8 5 14 12.5t9 18.5q3 8 4.5 17.5 t1.5 19.5q0 16 -6 34q-3 11 -8.5 18t-14.5 14q-6 6 -13 11.5t-16 8.5q-15 8 -37 8q-20 0 -38 -8q-6 -3 -14 -8.5t-14 -11.5q-8 -7 -12.5 -13.5t-8.5 -18.5q-5 -9 -6 -17t-1 -17zM1789 259h10q7 0 11 -4q1 -2 3.5 -2.5t5.5 -3.5l58 -139v-8q3 -3 3 -7v7q0 1 0.5 3.5t0.5 4.5 q8 16 16.5 33.5t16.5 33.5q6 20 14 37t17 35q1 3 2.5 3.5t1.5 2.5q5 3 7 3.5t5 0.5h9q-9 -23 -19.5 -46.5t-21.5 -45.5q-9 -25 -18.5 -48t-19.5 -45h-20zM1789 1109q0 -75 30 -137q13 -33 32 -61.5t41 -54.5q25 -25 53 -44t62 -34q63 -30 140 -29q39 0 73 6.5t66 19.5 q34 14 62 33.5t52 44.5q25 24 45 53t33 61q30 69 30 142q0 33 -5 64t-17 59q-19 55 -57 100q-18 24 -39 42t-44 35q-27 13 -52.5 25.5t-52.5 19.5q-19 7 -43 10t-51 3q-40 0 -75 -7t-68 -23q-65 -26 -113 -78q-24 -24 -41.5 -53t-30.5 -61q-30 -63 -30 -136zM1795 460h16 q10 0 15 2q1 3 3 4.5t5 4.5l13 33h106l13 -33q2 -7 8 -9q1 -2 13 -2h16l-89 204h-29zM1826 1109q0 29 3.5 56.5t13.5 54.5q9 26 23 48.5t30 46.5h431l-422 -423q-38 46 -61 99q-11 27 -14.5 57t-3.5 61zM1860 532l36 86q0 3 1 5v8q0 -4 2 -7t2 -6l37 -86h-78zM1929 1351 q48 39 102 59q51 23 116 23q64 0 119 -23q27 -11 51.5 -26.5t44.5 -32.5h-433zM1932 867h431q-22 -18 -46 -34t-51 -27q-29 -8 -58.5 -16t-60.5 -8q-32 0 -60.5 8t-55.5 16q-27 11 -51.5 27t-47.5 34zM1967 901l421 426q40 -52 61 -107t21 -111q0 -30 -4 -58t-16 -55 q-9 -26 -22.5 -48.5t-31.5 -46.5h-429zM1987 74v185h111v-21h-91v-61h77v-20h-77v-64h91v-19h-111zM2012 0h48q4 0 9.5 -1.5t7.5 -2.5q5 -1 7.5 -3t4.5 -5q15 -22 30 -43.5t28 -43.5q17 -20 31.5 -41.5t32.5 -40.5q1 -3 2.5 -6t2.5 -9q0 -2 1.5 -5t1.5 -4v205h51v-291h-49 l-137 196q-2 2 -2.5 3t-1.5 2q-4 5 -4 8q-4 2 -4 5l-3.5 3.5l-3.5 3.5v-221h-53v291zM2022 460h117v24h-88v180h-29v-204zM2143 74v185h68q6 0 9.5 -0.5t8.5 -3.5q10 -3 20 -10q3 -5 6 -9.5t5 -9.5q2 -4 2 -9.5v-8.5v-9.5t-2 -10.5q0 -5 -2.5 -9.5t-4.5 -6.5q-3 -3 -7 -6 t-10 -6q-3 -3 -15 -5l64 -81h-15q-3 0 -6.5 0.5t-3.5 2.5l-6 2t-5 6l-50 70h-35v-81h-21zM2164 173h47q8 0 10 2q3 2 6 3.5l5 2.5q3 3 4 5.5t5 6.5q0 3 1.5 6.5t1.5 8.5q0 3 -1.5 5t-1.5 5q-3 3 -4.5 5.5t-4.5 5.5q-2 0 -5 2.5t-6 5.5q-2 1 -10 1h-47v-65zM2257 540 q0 -8 0.5 -14t2.5 -10q0 -10 6 -20q6 -11 15 -17q3 -3 7 -6t9 -6q3 -3 8.5 -4t9.5 -3q6 -2 12 -3.5t12 -1.5q7 0 11 1.5t12 3.5q4 2 9 3t9 4q9 5 16 12q5 3 7.5 7t5.5 10q2 5 5.5 9.5t5.5 10.5v24v124h-28v-124q0 -8 -0.5 -13t-3.5 -11q-1 -10 -12 -16q-3 -4 -8 -7t-9 -7 q-5 -2 -9 -2.5t-11 -0.5q-13 0 -21 3l-10.5 7t-6.5 7q-3 3 -6 7t-8 9q-1 6 -1.5 10.5t-0.5 13.5v124h-28v-124zM2297 0h222v-50h-86v-241h-53v241h-83v50zM2298 103l3 3q2 0 2.5 2t3.5 2h3q4 0 6.5 -2.5t6.5 -4.5q5 -3 8.5 -5.5t7.5 -4.5q2 -2 6 -2h7q11 0 15 2q10 0 16 6 q4 3 6 12q3 3 3.5 7.5t0.5 7.5q0 10 -1 14q-2 3 -4 5.5t-5 5.5q-3 4 -11 6q-5 0 -8.5 2t-8.5 4q-5 1 -9.5 3.5t-7.5 4.5q-12 2 -20 9q-2 1 -5 5l-6 8v19q0 7 0.5 11.5t2.5 9.5q2 9 12 16l10 5l10 5q5 0 8.5 1.5t8.5 1.5q4 0 9 -1.5t8 -1.5t5.5 -2t6.5 -4q3 -2 5.5 -3.5 t3.5 -3.5q5 -3 7 -5t4 -3l-5 -5q-3 -4 -11 -4h-9q-4 5 -4 8q-2 0 -3.5 0.5t-3.5 0.5h-2q-1 0 -3 0.5t-3 0.5h-5q-8 0 -11 -1q-9 0 -10 -5q-7 -7 -7 -11q-4 -1 -4 -10q0 -7 4 -8q0 -7 4 -8l5 -5t6 -3q4 -2 7.5 -3.5t9.5 -3.5q1 -1 5 -1.5t4 -2.5q3 0 5.5 -1t5.5 -3q2 -1 3 -1 t1.5 -0.5t1.5 -0.5q2 0 4.5 -1.5t3.5 -2.5l8.5 -8.5l7.5 -7.5q4 -13 4 -25q0 -8 -1 -12.5t-7 -11.5q-1 -9 -12 -16q-4 -5 -9.5 -6.5t-8.5 -2.5q-5 -3 -12 -3.5t-15 -0.5q-11 0 -22 3t-19 10q-3 1 -4 3.5t-6 5.5q0 3 -1.5 5t-1.5 3zM2449 496q1 -1 1.5 -2.5t3.5 -1.5 q0 -2 1.5 -4t1.5 -4l2.5 -2.5t1.5 -2.5q5 -5 8 -5q8 -9 20.5 -12.5t25.5 -3.5q6 0 12.5 0.5t15.5 3.5q6 1 10.5 4t10.5 8q4 4 7 8.5t6 12.5q8 11 9 22q0 17 -6 27.5t-17 17.5q-6 4 -8 7q-3 1 -5.5 1.5t-5.5 2.5q-1 1 -5 1.5t-7 4.5q-1 0 -3.5 1t-5.5 2q-5 2 -7.5 3.5 t-7.5 3.5q-9 2 -10 5q-5 2 -7 3.5t-4 4.5q0 1 -0.5 3.5t-0.5 5.5q0 6 4 12q1 4 8 8q3 0 4.5 1.5t5.5 2.5q3 3 14 3q1 0 3.5 -1.5t5.5 -1.5q3 -3 12 -7q8 -2 12 -2q8 0 13 5l7 4q-2 3 -4.5 4.5t-5.5 4.5q-2 3 -5.5 6t-7.5 5q-3 1 -6.5 3t-9.5 5q-4 1 -8 2.5t-6 1.5 q-6 0 -12 -1.5t-12 -2.5q-5 -2 -10.5 -5.5t-9.5 -5.5q-4 -5 -7 -9l-6 -8q-3 -5 -5 -10t-2 -14q0 -7 2 -11.5t5 -9.5q4 -10 10 -17q5 -3 9 -6t9 -5q6 -3 12 -4.5t10 -4.5q5 -2 7.5 -2.5t5.5 -1.5t8 -2.5t8 -2.5l5 -5t3 -7q3 -4 3.5 -7t0.5 -8q0 -2 -0.5 -6t-3.5 -7 q-2 -7 -9 -9q-5 -5 -8.5 -7t-6.5 -4q-4 0 -7 -0.5t-6 -0.5q-4 0 -8.5 0.5t-7.5 0.5q-7 3 -13 11l-3 1q-7 7 -14 7q-2 0 -5.5 -0.5t-5.5 -3.5zM2458 74v185h20v-185h-20zM2522 167q0 5 0.5 10.5t1.5 10.5q5 15 10 26q7 10 17 19q9 9 18 16q5 3 12 5t12 5q6 0 12 1.5t12 1.5 q7 0 14.5 -1.5t13.5 -1.5q5 -3 10.5 -5t10.5 -5t10 -7t10 -9q4 -5 6.5 -9.5t7.5 -9.5q5 -10 11 -26q1 -5 2.5 -10.5t1.5 -10.5q0 -9 -2.5 -19.5t-8.5 -19.5q-3 -9 -8 -16.5t-10 -12.5q-8 -7 -15.5 -12.5t-17.5 -8.5q-10 -5 -36 -5q-9 0 -18 1t-19 4q-19 6 -29 21 q-14 12 -23 29q-6 18 -6 39zM2522 -229q1 0 2 1.5t4 2.5q2 0 3 1.5t3 2.5q4 0 6.5 1.5t3.5 1.5h11q2 0 5 -0.5t5 -2.5q7 0 12 -4q6 -3 11 -6t9 -6q3 -1 8.5 -3t11.5 -2q3 0 8 0.5t9 3.5q10 2 16 9q7 4 12 11q3 5 5.5 8.5t2.5 8.5q0 10 -8 16q-6 8 -12 8q-3 4 -7.5 5.5 t-8.5 3.5q-8 2 -20 8q-7 2 -13.5 4t-12.5 5q-9 5 -15.5 9t-12.5 10q-6 4 -10 9.5t-7 11.5q-8 15 -9 33q0 23 9 34q4 8 9 14t11 13l14 8t16 6q8 2 15 4t19 2q5 0 11 -2l12 -4q7 -1 11 -3.5t13 -5.5q4 -3 8.5 -8t8.5 -9q4 -3 8.5 -7t7.5 -9l-11 -7q-3 -2 -6.5 -4.5t-6.5 -4.5 q-5 -1 -8 -1h-9h-3h-4q-8 2 -9 4q-5 1 -8 4q-3 0 -4.5 1t-3.5 1q-4 2 -7 2q-12 0 -17 -2q-4 0 -5.5 -1.5t-6.5 -3.5q-4 -2 -6 -10q-3 -3 -3 -11t3 -9q1 -3 3 -5t3 -7q5 0 8.5 -1.5t7.5 -2.5q6 -2 13 -5.5t12 -5.5l11 -2q7 -5 15 -8t14 -7q12 -6 21 -20q5 -4 9 -9.5t7 -11.5 q1 -6 2.5 -12.5t1.5 -16.5q0 -18 -8 -37q-5 -9 -10 -16t-14 -13q-7 -6 -14.5 -11.5t-18.5 -8.5q-8 -3 -18 -5t-20 -2t-19.5 2t-22.5 5q-8 3 -15.5 9.5t-15.5 14.5q-5 3 -9 7.5t-7 9.5q-4 4 -6 17zM2544 167q0 -5 0.5 -9.5t2.5 -10.5q1 -9 8 -19q1 -4 3.5 -7t5.5 -7 q4 -3 7.5 -7t8.5 -5q5 -2 9.5 -4.5t8.5 -4.5q5 -2 9.5 -2h9.5h10.5t10.5 2q5 2 9 4.5t8 4.5q3 1 8 5t8 7q3 4 6 7t5 7q3 5 4 9.5t2 9.5q2 5 2.5 10t0.5 10q0 6 -1.5 13t-3.5 16q-2 7 -6.5 12t-8.5 10q-5 5 -11.5 9t-13.5 10q-6 1 -13 1.5t-16 0.5q-8 0 -14.5 -0.5 t-13.5 -1.5q-6 -5 -12.5 -9.5t-12.5 -9.5q-5 -5 -7.5 -10t-5.5 -12q-3 -8 -5 -15.5t-2 -13.5zM2618 460h127v24h-98v64h81v26h-81v61h98v29h-127v-204zM2735 -256q0 4 2 6q2 3 3.5 5.5t3.5 2.5q6 8 13 9q1 3 4.5 3.5t6.5 0.5t7 -0.5t6 -3.5q3 -1 8 -9q6 0 9 -8q1 -2 1 -6v-6 q0 -8 -1 -12q-2 -6 -9 -12q-5 -2 -8 -5q-2 -2 -6 -2.5t-7 -0.5t-6.5 0.5t-4.5 2.5q-3 1 -6.5 2.5t-6.5 2.5q-2 2 -3.5 5l-3.5 7t-2 12v6zM2748 74v185h16q4 0 7.5 -0.5t6.5 -5.5l97 -137q1 -1 1 -5q3 -3 3 -2v-3v153h21v-185h-16l-112 152v3h-3v8v-163h-21zM2819 -144 q0 9 1.5 18.5t2.5 19.5q3 10 6 18t10 15q6 11 11.5 18t12.5 14q6 6 15 11.5t17 12.5q7 4 15 8t19 6q9 2 18.5 4t21.5 2q8 0 15.5 -0.5t13.5 -5.5q8 -1 16 -3.5t14 -5.5q8 -3 14.5 -8t16.5 -9q13 -11 21 -21l-11 -12q-2 -5 -4.5 -7t-5.5 -4q-5 -1 -9.5 -1h-9.5t-9.5 1t-8.5 4 q-6 5 -13.5 8.5t-13.5 6.5q-6 2 -12 3t-14 1q-20 0 -37 -8q-11 -3 -18 -8.5t-14 -11.5q-10 -12 -21 -32q-3 -9 -5.5 -17t-2.5 -17t2.5 -19t5.5 -18q5 -11 10 -18.5t11 -12.5q7 -7 13.5 -11.5t18.5 -9.5l18 -6t19 -3q8 0 14 2t12 3q6 2 13.5 6t13.5 9q5 1 9 4h9 q5 0 10.5 -0.5t8.5 -2.5q7 -2 10 -8l11 -13q-9 -12 -21 -20q-9 -4 -16 -8.5t-15 -8.5q-6 -5 -14 -7l-16 -4q-6 -3 -13.5 -3.5t-15.5 -0.5q-17 0 -31 3t-29 8q-28 13 -46 33q-20 20 -33 46q-5 14 -8 28t-3 32zM2863 558q0 -8 1.5 -18.5t6.5 -19.5q7 -20 24 -36q7 -6 15 -11 t18 -7q16 -8 41 -8h14t12 2l13.5 4.5t13.5 6.5q5 3 9.5 6t8.5 7q12 10 19 24q7 11 10 24q2 8 2.5 14t0.5 12q0 8 -0.5 16.5t-2.5 14.5q-3 12 -10 25q-5 8 -19 21q-4 4 -8.5 7.5t-9.5 9.5q-6 2 -13.5 5t-13.5 6q-6 1 -12 2.5t-14 1.5t-15 -1.5t-13 -2.5q-15 -5 -26 -11 q-5 -6 -10.5 -9.5t-9.5 -7.5q-5 -5 -9 -10t-10 -11q-2 -7 -5 -12.5t-4 -12.5q-4 -11 -4 -31zM2892 558q0 17 7 32q2 7 6.5 13t9.5 11q4 6 10.5 10t14.5 7q10 7 29 7q8 0 14.5 -2t14.5 -5q5 -3 12 -7t13 -10q4 -5 8.5 -11t7.5 -13q3 -6 4 -14.5t1 -17.5q0 -14 -5 -29 q-3 -6 -7.5 -11t-8.5 -11q-6 -5 -13 -9t-12 -10q-14 -5 -29 -5q-8 0 -16 1t-13 4q-8 5 -14.5 9.5t-10.5 9.5q-5 6 -9.5 11t-6.5 11q-3 8 -5 15.5t-2 13.5zM3036 74v185h114v-21h-91v-65h75v-18h-75v-81h-23zM3101 -144q0 9 1.5 18.5t2.5 19.5q3 10 7.5 18t8.5 15q4 11 10 18 t14 14q5 6 12.5 11.5t16.5 12.5q8 4 17 8t17 6q11 2 20.5 4t18.5 2q10 0 20.5 -2t18.5 -4q11 -2 19.5 -6t16.5 -8q9 -6 16 -12t17 -12l12 -14t9 -18q5 -7 8.5 -15t6.5 -18q3 -9 4 -19t1 -19q0 -11 -0.5 -21t-4.5 -19q-3 -9 -6.5 -18.5t-8.5 -18.5q-7 -14 -21 -29 q-9 -7 -16.5 -12.5t-16.5 -10.5q-8 -7 -16.5 -10.5t-19.5 -6.5q-8 -1 -18.5 -2.5t-20.5 -1.5q-29 0 -56 11q-14 6 -25.5 14.5t-20.5 18.5q-11 10 -19.5 21.5t-12.5 24.5q-6 14 -9 28t-3 32zM3110 460h31v171q0 -4 1 -4v-4q0 -1 1 -2l2 -3l115 -158h24v204h-28v-160 q-2 4 -3 7.5t-4 5.5l-98 138q-1 1 -2 3t-4 5q-3 0 -7.5 0.5t-7.5 0.5h-20v-204zM3154 -144q0 -9 1.5 -19t3.5 -18q9 -22 23 -31q7 -7 14 -11.5t16 -9.5q8 -3 17.5 -6t17.5 -3q10 0 20.5 2.5t16.5 6.5q10 5 18.5 9.5t14.5 11.5q13 12 18 31q7 17 7 37q0 9 -2 17t-5 17 q-3 11 -7.5 18t-10.5 14q-13 13 -33 20q-6 5 -16.5 6.5t-20.5 1.5q-19 0 -35 -8q-9 -3 -16 -8.5t-14 -11.5q-8 -7 -13 -13.5t-10 -18.5q-2 -9 -3.5 -17t-1.5 -17zM3171 74v185h68q5 0 10 -0.5t11 -3.5q5 -2 9.5 -4.5t7.5 -5.5q3 -5 5.5 -9.5t7.5 -9.5q0 -4 1.5 -9.5 t1.5 -8.5q0 -5 -1.5 -9.5t-1.5 -10.5q-3 -5 -5 -9.5t-4 -6.5l-12 -12q-10 -4 -17 -5l59 -81h-13q-8 0 -12 3q-2 1 -3.5 2t-2.5 6l-52 70h-34v-81h-23zM3194 173h45q8 0 13 2q3 2 4.5 3.5t3.5 2.5q7 7 9 12q1 4 1 15q0 6 -1 10t-9 11q-2 0 -3.5 2.5t-4.5 5.5q-5 1 -13 1h-45 v-65zM3331 167q0 5 0.5 10.5t2.5 10.5q1 7 3.5 14t4.5 12q4 5 9 9.5t8 9.5q5 4 10 8.5t10 7.5t12 5t12 5q6 0 11 1.5t13 1.5q5 0 12 -1.5t14 -1.5q6 -3 11 -5t9 -5q6 -3 11.5 -7t9.5 -9t7 -9.5t6 -9.5q7 -10 10 -26q3 -5 4.5 -10.5t1.5 -10.5q0 -9 -2 -19.5t-7 -19.5 q-3 -9 -8.5 -16.5t-11.5 -12.5q-7 -7 -15 -12.5t-17 -8.5q-7 -3 -15.5 -4t-19.5 -1t-20.5 1t-18.5 4q-17 6 -29 21q-6 5 -12 12.5t-9 16.5t-5 19.5t-2 19.5zM3334 460h118v24h-89v180h-29v-204zM3355 147q2 -5 3.5 -9.5t4.5 -9.5q2 -4 5 -7l7 -7q3 -3 6 -7t7 -5 q5 -2 9.5 -4.5t9.5 -4.5q4 -2 9.5 -2h10.5h10t11 2q4 2 7.5 4.5t6.5 4.5q5 1 9 5t10 7q3 4 5.5 7t4.5 7q2 5 4 9.5t3 9.5t1 10v10q0 6 -0.5 13t-1.5 16q-3 7 -8 12t-8 10q-8 5 -14 9t-11 10q-6 1 -14 1.5t-15 0.5q-8 0 -15 -0.5t-13 -1.5q-8 -5 -14 -9.5t-10 -9.5 q-7 -5 -10 -10t-6 -12q-3 -8 -3.5 -15.5t-0.5 -13.5v-20zM3421 664l76 -102q1 0 2 -4q0 -1 1 -1t2 -1v-4q0 -1 1 -2v-5v-85h31v85v5q1 0 1 6q2 0 4 2v3q0 1 1 1l76 102h-23q-8 0 -13 -5q-8 -6 -9 -11l-49 -63q-1 -1 -1 -2q-1 -1 -4 -1v-3v3l-2 3l-47 63q-5 6 -11 11 q-5 4 -13 5h-23zM3433 0h52q5 0 7.5 -1.5t5.5 -1.5q3 -1 4.5 -1t4.5 -1l8 -8q2 -2 4.5 -5.5t3.5 -5.5q8 -22 16.5 -43.5t16.5 -43.5q8 -23 17.5 -44.5t18.5 -42.5q0 -2 0.5 -4t0.5 -3v-7q3 0 3 -6q0 6 1 6v7q0 1 1 3t1 4l13 21l58 153q1 2 2.5 5.5t2.5 5.5q2 3 5 4.5t3 3.5 q3 1 6 1t6 1q3 0 4.5 1.5t6.5 1.5h51v-291h-51v213q-2 -3 -3 -6t-3 -7q-1 -6 -1 -9t-1 -6q-11 -23 -20.5 -46t-19.5 -46q-9 -24 -18.5 -46.5t-18.5 -46.5h-49l-75 185q-4 5 -4 15q-2 3 -3 5t-1 5v-210h-56v291zM3560 74v185h19q5 0 9 -4q3 -2 4 -2.5t1 -3.5l65 -146 q0 -4 3 -4v-4q0 3 0.5 5.5t0.5 5.5q1 5 7 10l55 133q2 3 3.5 3.5t3.5 2.5q3 3 5.5 3.5t4.5 0.5h16v-185h-18v152q0 -1 -3 -4v-1v-3q-5 -10 -9.5 -21.5t-10.5 -19.5q-4 -10 -7.5 -17.5t-8.5 -19.5q-2 -9 -6.5 -17.5t-7.5 -16.5l-8.5 -17l-7.5 -15h-19q-11 16 -18.5 34.5 t-15.5 35.5q-7 20 -15.5 38.5t-17.5 35.5v4q-3 3 -3 4v-152h-21z" />
<glyph unicode="9" horiz-adv-x="4195" d="M527 167q0 9 5 21q2 7 4.5 14t7.5 12q3 5 5.5 9.5t7.5 9.5q3 4 8 8.5t9 7.5q8 3 13 5t11 5q5 0 12 1.5t16 1.5t17 -2t20 -7q9 -3 16 -8t13 -12q-3 -4 -5 -4q0 -1 -1 -2t-2 -1q0 -1 -4 -1h-4q-7 0 -9 1q-5 2 -10.5 6.5t-10.5 5.5t-9.5 1h-10.5q-8 0 -16 -0.5t-13 -1.5 q-8 -5 -14 -9.5t-13 -9.5q-5 -5 -8.5 -10t-5.5 -12q-5 -8 -6 -15.5t-1 -13.5q0 -10 4 -20q2 -5 3 -9.5t2 -9.5q3 -4 6 -7t6 -7q6 -3 10 -7t9 -5q4 -2 7.5 -4.5t8.5 -4.5t10.5 -2h10.5h11t11 2t13 4.5t11 5.5v40h-16h-2q-1 0 -2 1l-4.5 3t-3.5 4l-2.5 2.5t-1.5 2.5t-0.5 3 t-0.5 4v1h53v-73q-4 -4 -6.5 -5.5t-6.5 -6.5q-8 -2 -16 -2q-9 -4 -20 -4h-17h-15.5t-12.5 1q-6 2 -10.5 4t-13.5 7q-4 2 -9 5t-8 9q-5 3 -7.5 8.5t-5.5 11.5q-5 5 -7 10t-5 11q-2 8 -3.5 13.5t-1.5 13.5zM527 -274q0 11 2 15q0 2 7 10q2 3 3 5.5t2 6.5q2 2 4.5 5.5t3.5 6.5 l127 175h-138v50h213v-26v-6t-1 -6q-1 -5 -3.5 -7t-5.5 -5l-142 -195h2l2 3h4h4h139v-49h-223v17zM538 327v783h1219q0 41 7.5 79.5t24.5 73.5q16 36 36 68t50 58q51 52 123 80q36 16 72.5 23.5t76.5 7.5q43 0 81.5 -7.5t72.5 -25.5q38 -16 69 -37.5t58 -48.5 q48 -49 82 -124q27 -74 26 -147h1221v-783h-3219zM705 460h25v76h45q8 0 15 1t12 3q13 6 18 13q5 4 10.5 8.5t5.5 11.5q7 14 7 25q0 7 -2 13l-5 15q0 4 -5.5 8.5t-10.5 8.5q-3 4 -7.5 8t-10.5 5q-5 5 -12 6.5t-15 1.5h-70v-204zM730 561v74h45q10 0 16 -4q3 0 6 -2t6 -3 q2 -3 3 -7.5t4 -7.5q2 -4 2 -13v-6.5t-2 -6.5q-3 -3 -4 -7t-3 -5q-6 -6 -12 -9t-16 -3h-45zM737 74v185h115v-21h-91v-61h75v-20h-75v-64h91v-19h-115zM786 0h188v-50h-134v-69h107v-52h-107v-71h134v-49h-188v291zM861 460h127v24h-96v64h80v26h-80v61h96v29h-127v-204z M873 238v21h142v-21h-61v-164h-20v164h-61zM983 0h222v-50h-82v-241h-54v241h-86v50zM1032 460h29v84h32l53 -73q2 -7 9 -9q2 -2 6 -2h7h20l-65 88q5 1 9 2t8 6q10 2 12 10q3 3 6 8.5t6 10.5v17q0 7 -0.5 13t-3.5 12q-5 9 -13 17q-5 11 -20 12q-3 5 -9 6.5t-12 1.5h-74v-204 zM1061 570v65h45q7 0 11 -4q5 0 6 -1.5t4 -3.5q5 -6 8 -11q3 -4 3 -13q0 -8 -3 -12q-1 -1 -8 -9q-3 -2 -4 -4.5t-6 -3.5q-3 -3 -11 -3h-45zM1130 74v185h115v-21h-93v-65h80v-18h-80v-81h-22zM1164 -291l126 291h48l125 -291h-30q-13 0 -23 5q-4 2 -6.5 8t-7.5 11l-16 38 h-134l-14 -38q-2 -5 -3 -6t-4 -2q-2 -5 -3.5 -7t-4.5 -4q-3 -1 -6 -2.5t-6 -1.5q-1 -1 -4 -1h-5h-32zM1197 496q0 -4 2 -4q0 -4 5 -8q0 -4 4 -5q0 -2 2 -4q1 -1 2 -1q11 -9 23 -12.5t27 -3.5q6 0 12.5 0.5t12.5 3.5q5 1 13 4t11 8q5 4 9.5 8.5t6.5 12.5q1 6 2.5 11t1.5 11 q0 17 -5 27.5t-15 17.5q-3 2 -4.5 3.5t-7.5 3.5q-1 1 -3.5 1.5t-4.5 2.5q-3 1 -5.5 1.5t-2.5 4.5q-7 0 -10 3q-8 2 -11.5 3.5t-8.5 3.5q-8 2 -11 5q-6 4 -6 8v9v12l4 4t2 4q3 0 6 1.5l5 2.5q5 2 8 2.5t8 0.5q1 0 3.5 -1.5t4.5 -1.5q8 -1 10 -7q3 -1 5.5 -1.5t6.5 -0.5 q10 0 16 5l9 4q-2 3 -4.5 4.5t-5.5 4.5l-6 6t-10 5q-3 1 -6.5 3t-8.5 5q-5 1 -8 2.5t-6 1.5q-6 0 -13 -1.5t-11 -2.5q-7 -2 -11 -5.5t-9 -5.5q-4 -5 -9 -9t-7 -8q-1 -5 -2.5 -10t-1.5 -14q0 -7 0.5 -11.5t3.5 -9.5q2 -4 6.5 -8t6.5 -9l10 -6t10 -5q5 -3 9 -4.5t11 -4.5 q3 -2 7.5 -2.5t7.5 -1.5q5 -1 7.5 -2.5t5.5 -2.5q3 -3 4 -5t5 -7q2 -4 3 -7t1 -8q0 -2 -0.5 -6t-4.5 -7q-3 -3 -4 -5.5t-4 -3.5q-3 -5 -7 -7t-6 -4q-5 0 -8.5 -0.5t-6.5 -0.5q-6 0 -9.5 0.5t-6.5 0.5q-3 2 -6.5 3.5t-3.5 7.5l-4 1q-7 7 -15 7q-3 0 -6.5 -0.5t-6.5 -3.5z M1273 -177h83l-38 90q0 2 -1.5 4.5t-1.5 4.5q0 5 -1 8v-8q0 -2 -1.5 -4.5t-2.5 -4.5zM1279 144v115h20v-115q0 -6 2.5 -10t5.5 -8q2 -8 5 -11t6 -9q3 -3 6.5 -5.5t7.5 -5.5q6 -3 12 -3.5t11 -0.5q6 0 10 0.5t8 3.5q6 3 10.5 5.5t9.5 5.5q2 5 5.5 8.5t5.5 11.5q5 6 5 18v115 h21v-115q0 -8 -2.5 -14t-5.5 -14q-2 -7 -5.5 -13t-8.5 -12q-5 -4 -11 -8t-13 -6q-15 -4 -29 -4q-15 0 -31 4q-5 2 -10.5 6t-10.5 8q-10 10 -17 25q-2 8 -4.5 14t-2.5 14zM1355 558q0 -8 2.5 -18.5t6.5 -19.5q3 -10 8.5 -18.5t12.5 -17.5q8 -6 17 -11t18 -7q16 -8 39 -8h15 t13 2q15 4 23 11q16 7 23 13q9 9 16 24q3 6 7 12t6 12q2 8 2.5 14t0.5 12q0 18 -3 31q-2 7 -6 12.5t-7 12.5q-5 9 -16 21q-4 4 -9.5 7.5t-13.5 9.5q-5 2 -10 5t-13 6q-6 1 -13 2.5t-15 1.5q-7 0 -13.5 -1.5t-12.5 -2.5q-8 -2 -14 -5.5t-11 -5.5q-6 -6 -11.5 -9.5t-11.5 -7.5 q-5 -5 -9 -10t-7 -11q-4 -7 -5.5 -12.5t-4.5 -12.5q-4 -11 -4 -31zM1381 558q0 17 8 32q3 7 7.5 13t8.5 11q6 6 12 10t13 7q8 3 15 5t14 2q16 0 31 -7q7 -3 12.5 -7t9.5 -10q5 -5 10.5 -11t8.5 -13q2 -6 3.5 -14.5t1.5 -17.5q0 -6 -1.5 -13t-3.5 -16q-3 -6 -8 -11l-11 -11 q-4 -5 -9.5 -9t-12.5 -10q-6 -3 -14.5 -4t-16.5 -1q-15 0 -29 5q-6 5 -12.5 9.5t-12.5 9.5q-4 6 -8.5 11t-7.5 11q-3 8 -5.5 15.5t-2.5 13.5zM1467 74v185h23v-166h83v-19h-106zM1478 0h184v-50h-134v-76h111v-51h-111v-114h-50v291zM1594 74v185h21v-166h85v-19h-106z M1605 460h26v171v-4l2 -2l2 -2v-5l119 -158h21v204h-27v-160q0 4 -1.5 7.5t-2.5 5.5l-98 138q-5 1 -11 8q-3 0 -6 0.5t-6 0.5h-18v-204zM1679 -144q0 9 1 18.5t3 19.5q6 22 17 33q5 11 10 18t11 14q8 6 15.5 11.5t17.5 12.5q6 4 15 8t20 6q8 2 17.5 4t20.5 2q10 0 20 -2 t21 -4q9 -2 17.5 -6t18.5 -8q8 -6 14 -12t14 -12q7 -7 13 -14t12 -18q4 -7 7 -15t6 -18q3 -9 3.5 -19t0.5 -19q0 -11 -0.5 -21t-3.5 -19t-6 -18.5t-7 -18.5q-6 -6 -12 -14.5t-13 -14.5q-8 -7 -14 -12.5t-14 -10.5q-9 -7 -18 -10.5t-18 -6.5q-11 -1 -21 -2.5t-20 -1.5 q-15 0 -29 3t-29 8q-14 6 -25 14.5t-23 18.5q-19 20 -29 46q-6 14 -9.5 28t-3.5 32zM1733 -144q0 -9 1 -19t6 -18q4 -11 8.5 -18.5t12.5 -12.5q6 -7 14 -11.5t14 -9.5q10 -3 19.5 -6t18.5 -3q10 0 19 2.5t18 6.5q9 5 16 9.5t13 11.5q8 5 14 12.5t9 18.5q3 8 4.5 17.5 t1.5 19.5q0 16 -6 34q-3 11 -8.5 18t-14.5 14q-6 6 -13 11.5t-16 8.5q-15 8 -37 8q-20 0 -38 -8q-6 -3 -14 -8.5t-14 -11.5q-8 -7 -12.5 -13.5t-8.5 -18.5q-5 -9 -6 -17t-1 -17zM1789 259h10q7 0 11 -4q1 -2 3.5 -2.5t5.5 -3.5l58 -139v-8q3 -3 3 -7v7q0 1 0.5 3.5t0.5 4.5 q8 16 16.5 33.5t16.5 33.5q6 20 14 37t17 35q1 3 2.5 3.5t1.5 2.5q5 3 7 3.5t5 0.5h9q-9 -23 -19.5 -46.5t-21.5 -45.5q-9 -25 -18.5 -48t-19.5 -45h-20zM1789 1109q0 -75 30 -137q13 -33 32 -61.5t41 -54.5q25 -25 53 -44t62 -34q63 -30 140 -29q39 0 73 6.5t66 19.5 q34 14 62 33.5t52 44.5q25 24 45 53t33 61q30 69 30 142q0 33 -5 64t-17 59q-19 55 -57 100q-18 24 -39 42t-44 35q-27 13 -52.5 25.5t-52.5 19.5q-19 7 -43 10t-51 3q-40 0 -75 -7t-68 -23q-65 -26 -113 -78q-24 -24 -41.5 -53t-30.5 -61q-30 -63 -30 -136zM1795 460h16 q10 0 15 2q1 3 3 4.5t5 4.5l13 33h106l13 -33q2 -7 8 -9q1 -2 13 -2h16l-89 204h-29zM1826 1109q0 29 3.5 56.5t13.5 54.5q9 26 23 48.5t30 46.5h431l-422 -423q-38 46 -61 99q-11 27 -14.5 57t-3.5 61zM1860 532l36 86q0 3 1 5v8q0 -4 2 -7t2 -6l37 -86h-78zM1929 1351 q48 39 102 59q51 23 116 23q64 0 119 -23q27 -11 51.5 -26.5t44.5 -32.5h-433zM1932 867h431q-22 -18 -46 -34t-51 -27q-29 -8 -58.5 -16t-60.5 -8q-32 0 -60.5 8t-55.5 16q-27 11 -51.5 27t-47.5 34zM1967 901l421 426q40 -52 61 -107t21 -111q0 -30 -4 -58t-16 -55 q-9 -26 -22.5 -48.5t-31.5 -46.5h-429zM1987 74v185h111v-21h-91v-61h77v-20h-77v-64h91v-19h-111zM2012 0h48q4 0 9.5 -1.5t7.5 -2.5q5 -1 7.5 -3t4.5 -5q15 -22 30 -43.5t28 -43.5q17 -20 31.5 -41.5t32.5 -40.5q1 -3 2.5 -6t2.5 -9q0 -2 1.5 -5t1.5 -4v205h51v-291h-49 l-137 196q-2 2 -2.5 3t-1.5 2q-4 5 -4 8q-4 2 -4 5l-3.5 3.5l-3.5 3.5v-221h-53v291zM2022 460h117v24h-88v180h-29v-204zM2143 74v185h68q6 0 9.5 -0.5t8.5 -3.5q10 -3 20 -10q3 -5 6 -9.5t5 -9.5q2 -4 2 -9.5v-8.5v-9.5t-2 -10.5q0 -5 -2.5 -9.5t-4.5 -6.5q-3 -3 -7 -6 t-10 -6q-3 -3 -15 -5l64 -81h-15q-3 0 -6.5 0.5t-3.5 2.5l-6 2t-5 6l-50 70h-35v-81h-21zM2164 173h47q8 0 10 2q3 2 6 3.5l5 2.5q3 3 4 5.5t5 6.5q0 3 1.5 6.5t1.5 8.5q0 3 -1.5 5t-1.5 5q-3 3 -4.5 5.5t-4.5 5.5q-2 0 -5 2.5t-6 5.5q-2 1 -10 1h-47v-65zM2257 540 q0 -8 0.5 -14t2.5 -10q0 -10 6 -20q6 -11 15 -17q3 -3 7 -6t9 -6q3 -3 8.5 -4t9.5 -3q6 -2 12 -3.5t12 -1.5q7 0 11 1.5t12 3.5q4 2 9 3t9 4q9 5 16 12q5 3 7.5 7t5.5 10q2 5 5.5 9.5t5.5 10.5v24v124h-28v-124q0 -8 -0.5 -13t-3.5 -11q-1 -10 -12 -16q-3 -4 -8 -7t-9 -7 q-5 -2 -9 -2.5t-11 -0.5q-13 0 -21 3l-10.5 7t-6.5 7q-3 3 -6 7t-8 9q-1 6 -1.5 10.5t-0.5 13.5v124h-28v-124zM2297 0h222v-50h-86v-241h-53v241h-83v50zM2298 103l3 3q2 0 2.5 2t3.5 2h3q4 0 6.5 -2.5t6.5 -4.5q5 -3 8.5 -5.5t7.5 -4.5q2 -2 6 -2h7q11 0 15 2q10 0 16 6 q4 3 6 12q3 3 3.5 7.5t0.5 7.5q0 10 -1 14q-2 3 -4 5.5t-5 5.5q-3 4 -11 6q-5 0 -8.5 2t-8.5 4q-5 1 -9.5 3.5t-7.5 4.5q-12 2 -20 9q-2 1 -5 5l-6 8v19q0 7 0.5 11.5t2.5 9.5q2 9 12 16l10 5l10 5q5 0 8.5 1.5t8.5 1.5q4 0 9 -1.5t8 -1.5t5.5 -2t6.5 -4q3 -2 5.5 -3.5 t3.5 -3.5q5 -3 7 -5t4 -3l-5 -5q-3 -4 -11 -4h-9q-4 5 -4 8q-2 0 -3.5 0.5t-3.5 0.5h-2q-1 0 -3 0.5t-3 0.5h-5q-8 0 -11 -1q-9 0 -10 -5q-7 -7 -7 -11q-4 -1 -4 -10q0 -7 4 -8q0 -7 4 -8l5 -5t6 -3q4 -2 7.5 -3.5t9.5 -3.5q1 -1 5 -1.5t4 -2.5q3 0 5.5 -1t5.5 -3q2 -1 3 -1 t1.5 -0.5t1.5 -0.5q2 0 4.5 -1.5t3.5 -2.5l8.5 -8.5l7.5 -7.5q4 -13 4 -25q0 -8 -1 -12.5t-7 -11.5q-1 -9 -12 -16q-4 -5 -9.5 -6.5t-8.5 -2.5q-5 -3 -12 -3.5t-15 -0.5q-11 0 -22 3t-19 10q-3 1 -4 3.5t-6 5.5q0 3 -1.5 5t-1.5 3zM2449 496q1 -1 1.5 -2.5t3.5 -1.5 q0 -2 1.5 -4t1.5 -4l2.5 -2.5t1.5 -2.5q5 -5 8 -5q8 -9 20.5 -12.5t25.5 -3.5q6 0 12.5 0.5t15.5 3.5q6 1 10.5 4t10.5 8q4 4 7 8.5t6 12.5q8 11 9 22q0 17 -6 27.5t-17 17.5q-6 4 -8 7q-3 1 -5.5 1.5t-5.5 2.5q-1 1 -5 1.5t-7 4.5q-1 0 -3.5 1t-5.5 2q-5 2 -7.5 3.5 t-7.5 3.5q-9 2 -10 5q-5 2 -7 3.5t-4 4.5q0 1 -0.5 3.5t-0.5 5.5q0 6 4 12q1 4 8 8q3 0 4.5 1.5t5.5 2.5q3 3 14 3q1 0 3.5 -1.5t5.5 -1.5q3 -3 12 -7q8 -2 12 -2q8 0 13 5l7 4q-2 3 -4.5 4.5t-5.5 4.5q-2 3 -5.5 6t-7.5 5q-3 1 -6.5 3t-9.5 5q-4 1 -8 2.5t-6 1.5 q-6 0 -12 -1.5t-12 -2.5q-5 -2 -10.5 -5.5t-9.5 -5.5q-4 -5 -7 -9l-6 -8q-3 -5 -5 -10t-2 -14q0 -7 2 -11.5t5 -9.5q4 -10 10 -17q5 -3 9 -6t9 -5q6 -3 12 -4.5t10 -4.5q5 -2 7.5 -2.5t5.5 -1.5t8 -2.5t8 -2.5l5 -5t3 -7q3 -4 3.5 -7t0.5 -8q0 -2 -0.5 -6t-3.5 -7 q-2 -7 -9 -9q-5 -5 -8.5 -7t-6.5 -4q-4 0 -7 -0.5t-6 -0.5q-4 0 -8.5 0.5t-7.5 0.5q-7 3 -13 11l-3 1q-7 7 -14 7q-2 0 -5.5 -0.5t-5.5 -3.5zM2458 74v185h20v-185h-20zM2522 167q0 5 0.5 10.5t1.5 10.5q5 15 10 26q7 10 17 19q9 9 18 16q5 3 12 5t12 5q6 0 12 1.5t12 1.5 q7 0 14.5 -1.5t13.5 -1.5q5 -3 10.5 -5t10.5 -5t10 -7t10 -9q4 -5 6.5 -9.5t7.5 -9.5q5 -10 11 -26q1 -5 2.5 -10.5t1.5 -10.5q0 -9 -2.5 -19.5t-8.5 -19.5q-3 -9 -8 -16.5t-10 -12.5q-8 -7 -15.5 -12.5t-17.5 -8.5q-10 -5 -36 -5q-9 0 -18 1t-19 4q-19 6 -29 21 q-14 12 -23 29q-6 18 -6 39zM2522 -229q1 0 2 1.5t4 2.5q2 0 3 1.5t3 2.5q4 0 6.5 1.5t3.5 1.5h11q2 0 5 -0.5t5 -2.5q7 0 12 -4q6 -3 11 -6t9 -6q3 -1 8.5 -3t11.5 -2q3 0 8 0.5t9 3.5q10 2 16 9q7 4 12 11q3 5 5.5 8.5t2.5 8.5q0 10 -8 16q-6 8 -12 8q-3 4 -7.5 5.5 t-8.5 3.5q-8 2 -20 8q-7 2 -13.5 4t-12.5 5q-9 5 -15.5 9t-12.5 10q-6 4 -10 9.5t-7 11.5q-8 15 -9 33q0 23 9 34q4 8 9 14t11 13l14 8t16 6q8 2 15 4t19 2q5 0 11 -2l12 -4q7 -1 11 -3.5t13 -5.5q4 -3 8.5 -8t8.5 -9q4 -3 8.5 -7t7.5 -9l-11 -7q-3 -2 -6.5 -4.5t-6.5 -4.5 q-5 -1 -8 -1h-9h-3h-4q-8 2 -9 4q-5 1 -8 4q-3 0 -4.5 1t-3.5 1q-4 2 -7 2q-12 0 -17 -2q-4 0 -5.5 -1.5t-6.5 -3.5q-4 -2 -6 -10q-3 -3 -3 -11t3 -9q1 -3 3 -5t3 -7q5 0 8.5 -1.5t7.5 -2.5q6 -2 13 -5.5t12 -5.5l11 -2q7 -5 15 -8t14 -7q12 -6 21 -20q5 -4 9 -9.5t7 -11.5 q1 -6 2.5 -12.5t1.5 -16.5q0 -18 -8 -37q-5 -9 -10 -16t-14 -13q-7 -6 -14.5 -11.5t-18.5 -8.5q-8 -3 -18 -5t-20 -2t-19.5 2t-22.5 5q-8 3 -15.5 9.5t-15.5 14.5q-5 3 -9 7.5t-7 9.5q-4 4 -6 17zM2544 167q0 -5 0.5 -9.5t2.5 -10.5q1 -9 8 -19q1 -4 3.5 -7t5.5 -7 q4 -3 7.5 -7t8.5 -5q5 -2 9.5 -4.5t8.5 -4.5q5 -2 9.5 -2h9.5h10.5t10.5 2q5 2 9 4.5t8 4.5q3 1 8 5t8 7q3 4 6 7t5 7q3 5 4 9.5t2 9.5q2 5 2.5 10t0.5 10q0 6 -1.5 13t-3.5 16q-2 7 -6.5 12t-8.5 10q-5 5 -11.5 9t-13.5 10q-6 1 -13 1.5t-16 0.5q-8 0 -14.5 -0.5 t-13.5 -1.5q-6 -5 -12.5 -9.5t-12.5 -9.5q-5 -5 -7.5 -10t-5.5 -12q-3 -8 -5 -15.5t-2 -13.5zM2618 460h127v24h-98v64h81v26h-81v61h98v29h-127v-204zM2735 -256q0 4 2 6q2 3 3.5 5.5t3.5 2.5q6 8 13 9q1 3 4.5 3.5t6.5 0.5t7 -0.5t6 -3.5q3 -1 8 -9q6 0 9 -8q1 -2 1 -6v-6 q0 -8 -1 -12q-2 -6 -9 -12q-5 -2 -8 -5q-2 -2 -6 -2.5t-7 -0.5t-6.5 0.5t-4.5 2.5q-3 1 -6.5 2.5t-6.5 2.5q-2 2 -3.5 5l-3.5 7t-2 12v6zM2748 74v185h16q4 0 7.5 -0.5t6.5 -5.5l97 -137q1 -1 1 -5q3 -3 3 -2v-3v153h21v-185h-16l-112 152v3h-3v8v-163h-21zM2819 -144 q0 9 1.5 18.5t2.5 19.5q3 10 6 18t10 15q6 11 11.5 18t12.5 14q6 6 15 11.5t17 12.5q7 4 15 8t19 6q9 2 18.5 4t21.5 2q8 0 15.5 -0.5t13.5 -5.5q8 -1 16 -3.5t14 -5.5q8 -3 14.5 -8t16.5 -9q13 -11 21 -21l-11 -12q-2 -5 -4.5 -7t-5.5 -4q-5 -1 -9.5 -1h-9.5t-9.5 1t-8.5 4 q-6 5 -13.5 8.5t-13.5 6.5q-6 2 -12 3t-14 1q-20 0 -37 -8q-11 -3 -18 -8.5t-14 -11.5q-10 -12 -21 -32q-3 -9 -5.5 -17t-2.5 -17t2.5 -19t5.5 -18q5 -11 10 -18.5t11 -12.5q7 -7 13.5 -11.5t18.5 -9.5l18 -6t19 -3q8 0 14 2t12 3q6 2 13.5 6t13.5 9q5 1 9 4h9 q5 0 10.5 -0.5t8.5 -2.5q7 -2 10 -8l11 -13q-9 -12 -21 -20q-9 -4 -16 -8.5t-15 -8.5q-6 -5 -14 -7l-16 -4q-6 -3 -13.5 -3.5t-15.5 -0.5q-17 0 -31 3t-29 8q-28 13 -46 33q-20 20 -33 46q-5 14 -8 28t-3 32zM2863 558q0 -8 1.5 -18.5t6.5 -19.5q7 -20 24 -36q7 -6 15 -11 t18 -7q16 -8 41 -8h14t12 2l13.5 4.5t13.5 6.5q5 3 9.5 6t8.5 7q12 10 19 24q7 11 10 24q2 8 2.5 14t0.5 12q0 8 -0.5 16.5t-2.5 14.5q-3 12 -10 25q-5 8 -19 21q-4 4 -8.5 7.5t-9.5 9.5q-6 2 -13.5 5t-13.5 6q-6 1 -12 2.5t-14 1.5t-15 -1.5t-13 -2.5q-15 -5 -26 -11 q-5 -6 -10.5 -9.5t-9.5 -7.5q-5 -5 -9 -10t-10 -11q-2 -7 -5 -12.5t-4 -12.5q-4 -11 -4 -31zM2892 558q0 17 7 32q2 7 6.5 13t9.5 11q4 6 10.5 10t14.5 7q10 7 29 7q8 0 14.5 -2t14.5 -5q5 -3 12 -7t13 -10q4 -5 8.5 -11t7.5 -13q3 -6 4 -14.5t1 -17.5q0 -14 -5 -29 q-3 -6 -7.5 -11t-8.5 -11q-6 -5 -13 -9t-12 -10q-14 -5 -29 -5q-8 0 -16 1t-13 4q-8 5 -14.5 9.5t-10.5 9.5q-5 6 -9.5 11t-6.5 11q-3 8 -5 15.5t-2 13.5zM3036 74v185h114v-21h-91v-65h75v-18h-75v-81h-23zM3101 -144q0 9 1.5 18.5t2.5 19.5q3 10 7.5 18t8.5 15q4 11 10 18 t14 14q5 6 12.5 11.5t16.5 12.5q8 4 17 8t17 6q11 2 20.5 4t18.5 2q10 0 20.5 -2t18.5 -4q11 -2 19.5 -6t16.5 -8q9 -6 16 -12t17 -12l12 -14t9 -18q5 -7 8.5 -15t6.5 -18q3 -9 4 -19t1 -19q0 -11 -0.5 -21t-4.5 -19q-3 -9 -6.5 -18.5t-8.5 -18.5q-7 -14 -21 -29 q-9 -7 -16.5 -12.5t-16.5 -10.5q-8 -7 -16.5 -10.5t-19.5 -6.5q-8 -1 -18.5 -2.5t-20.5 -1.5q-29 0 -56 11q-14 6 -25.5 14.5t-20.5 18.5q-11 10 -19.5 21.5t-12.5 24.5q-6 14 -9 28t-3 32zM3110 460h31v171q0 -4 1 -4v-4q0 -1 1 -2l2 -3l115 -158h24v204h-28v-160 q-2 4 -3 7.5t-4 5.5l-98 138q-1 1 -2 3t-4 5q-3 0 -7.5 0.5t-7.5 0.5h-20v-204zM3154 -144q0 -9 1.5 -19t3.5 -18q9 -22 23 -31q7 -7 14 -11.5t16 -9.5q8 -3 17.5 -6t17.5 -3q10 0 20.5 2.5t16.5 6.5q10 5 18.5 9.5t14.5 11.5q13 12 18 31q7 17 7 37q0 9 -2 17t-5 17 q-3 11 -7.5 18t-10.5 14q-13 13 -33 20q-6 5 -16.5 6.5t-20.5 1.5q-19 0 -35 -8q-9 -3 -16 -8.5t-14 -11.5q-8 -7 -13 -13.5t-10 -18.5q-2 -9 -3.5 -17t-1.5 -17zM3171 74v185h68q5 0 10 -0.5t11 -3.5q5 -2 9.5 -4.5t7.5 -5.5q3 -5 5.5 -9.5t7.5 -9.5q0 -4 1.5 -9.5 t1.5 -8.5q0 -5 -1.5 -9.5t-1.5 -10.5q-3 -5 -5 -9.5t-4 -6.5l-12 -12q-10 -4 -17 -5l59 -81h-13q-8 0 -12 3q-2 1 -3.5 2t-2.5 6l-52 70h-34v-81h-23zM3194 173h45q8 0 13 2q3 2 4.5 3.5t3.5 2.5q7 7 9 12q1 4 1 15q0 6 -1 10t-9 11q-2 0 -3.5 2.5t-4.5 5.5q-5 1 -13 1h-45 v-65zM3331 167q0 5 0.5 10.5t2.5 10.5q1 7 3.5 14t4.5 12q4 5 9 9.5t8 9.5q5 4 10 8.5t10 7.5t12 5t12 5q6 0 11 1.5t13 1.5q5 0 12 -1.5t14 -1.5q6 -3 11 -5t9 -5q6 -3 11.5 -7t9.5 -9t7 -9.5t6 -9.5q7 -10 10 -26q3 -5 4.5 -10.5t1.5 -10.5q0 -9 -2 -19.5t-7 -19.5 q-3 -9 -8.5 -16.5t-11.5 -12.5q-7 -7 -15 -12.5t-17 -8.5q-7 -3 -15.5 -4t-19.5 -1t-20.5 1t-18.5 4q-17 6 -29 21q-6 5 -12 12.5t-9 16.5t-5 19.5t-2 19.5zM3334 460h118v24h-89v180h-29v-204zM3355 147q2 -5 3.5 -9.5t4.5 -9.5q2 -4 5 -7l7 -7q3 -3 6 -7t7 -5 q5 -2 9.5 -4.5t9.5 -4.5q4 -2 9.5 -2h10.5h10t11 2q4 2 7.5 4.5t6.5 4.5q5 1 9 5t10 7q3 4 5.5 7t4.5 7q2 5 4 9.5t3 9.5t1 10v10q0 6 -0.5 13t-1.5 16q-3 7 -8 12t-8 10q-8 5 -14 9t-11 10q-6 1 -14 1.5t-15 0.5q-8 0 -15 -0.5t-13 -1.5q-8 -5 -14 -9.5t-10 -9.5 q-7 -5 -10 -10t-6 -12q-3 -8 -3.5 -15.5t-0.5 -13.5v-20zM3421 664l76 -102q1 0 2 -4q0 -1 1 -1t2 -1v-4q0 -1 1 -2v-5v-85h31v85v5q1 0 1 6q2 0 4 2v3q0 1 1 1l76 102h-23q-8 0 -13 -5q-8 -6 -9 -11l-49 -63q-1 -1 -1 -2q-1 -1 -4 -1v-3v3l-2 3l-47 63q-5 6 -11 11 q-5 4 -13 5h-23zM3433 0h52q5 0 7.5 -1.5t5.5 -1.5q3 -1 4.5 -1t4.5 -1l8 -8q2 -2 4.5 -5.5t3.5 -5.5q8 -22 16.5 -43.5t16.5 -43.5q8 -23 17.5 -44.5t18.5 -42.5q0 -2 0.5 -4t0.5 -3v-7q3 0 3 -6q0 6 1 6v7q0 1 1 3t1 4l13 21l58 153q1 2 2.5 5.5t2.5 5.5q2 3 5 4.5t3 3.5 q3 1 6 1t6 1q3 0 4.5 1.5t6.5 1.5h51v-291h-51v213q-2 -3 -3 -6t-3 -7q-1 -6 -1 -9t-1 -6q-11 -23 -20.5 -46t-19.5 -46q-9 -24 -18.5 -46.5t-18.5 -46.5h-49l-75 185q-4 5 -4 15q-2 3 -3 5t-1 5v-210h-56v291zM3560 74v185h19q5 0 9 -4q3 -2 4 -2.5t1 -3.5l65 -146 q0 -4 3 -4v-4q0 3 0.5 5.5t0.5 5.5q1 5 7 10l55 133q2 3 3.5 3.5t3.5 2.5q3 3 5.5 3.5t4.5 0.5h16v-185h-18v152q0 -1 -3 -4v-1v-3q-5 -10 -9.5 -21.5t-10.5 -19.5q-4 -10 -7.5 -17.5t-8.5 -19.5q-2 -9 -6.5 -17.5t-7.5 -16.5l-8.5 -17l-7.5 -15h-19q-11 16 -18.5 34.5 t-15.5 35.5q-7 20 -15.5 38.5t-17.5 35.5v4q-3 3 -3 4v-152h-21z" />
<glyph unicode=":" horiz-adv-x="633" d="M231 60q0 36 22.5 56t62.5 20q41 0 63.5 -20t22.5 -56t-22.5 -56t-63.5 -20q-40 0 -62.5 20.5t-22.5 55.5zM231 881q0 36 22.5 55.5t62.5 19.5q41 0 63.5 -20t22.5 -55q0 -36 -22.5 -56.5t-63.5 -20.5q-40 0 -62.5 20.5t-22.5 56.5z" />
<glyph unicode=";" horiz-adv-x="633" d="M231 60q0 36 22.5 56t62.5 20q41 0 63.5 -20t22.5 -56q0 -34 -6 -64t-16 -52t-23.5 -34.5t-27.5 -12.5q-5 0 -9.5 3t-4.5 11v73q-40 1 -62 21t-22 55zM231 881q0 36 22.5 55.5t62.5 19.5q41 0 63.5 -20t22.5 -55q0 -36 -22.5 -56.5t-63.5 -20.5q-40 0 -62.5 20.5 t-22.5 56.5z" />
<glyph unicode="&#x3c;" horiz-adv-x="704" d="M213 652l115 288q8 25 23.5 42t44.5 17h49q12 0 20 -7t4 -17l-158 -323l158 -322q4 -10 -3.5 -17.5t-20.5 -7.5h-49q-30 0 -45 17.5t-23 42.5z" />
<glyph unicode="=" horiz-adv-x="848" d="M228 508v35q0 27 14.5 43t38.5 16h320q9 0 15.5 -5t6.5 -15v-35q0 -27 -14.5 -43.5t-38.5 -16.5h-320q-9 0 -15.5 5.5t-6.5 15.5zM228 713v35q0 27 14.5 43t38.5 16h320q9 0 15.5 -5t6.5 -16v-34q0 -27 -14.5 -43.5t-38.5 -16.5h-320q-9 0 -15.5 5t-6.5 16z" />
<glyph unicode="&#x3e;" horiz-adv-x="724" d="M249 330l158 322l-158 323q-4 10 3.5 17t19.5 7h50q30 0 45 -17t23 -42l115 -288l-115 -287q-8 -25 -23.5 -42.5t-44.5 -17.5h-50q-12 0 -19.5 7t-3.5 18z" />
<glyph unicode="?" d="M256 988v286q0 41 14 73t40 55t62 35.5t81 12.5q93 0 144.5 -47t51.5 -129v-312q0 -52 -10.5 -93t-26.5 -74t-34.5 -63.5t-35 -61.5t-28 -66.5t-12.5 -80.5l-9 -299q-1 -24 -17 -38t-43 -14h-24q-10 0 -15.5 6t-5.5 16v371q0 62 19.5 109.5t42.5 91t42.5 89.5t19.5 107 v312q0 28 -15 44.5t-44 16.5q-31 0 -45.5 -16.5t-14.5 -44.5v-247q0 -27 -14.5 -43.5t-44.5 -16.5h-58q-10 0 -15 6t-5 15zM354 60q0 36 22.5 56t62.5 20q41 0 63.5 -20t22.5 -56t-22.5 -56t-63.5 -20q-40 0 -62.5 20.5t-22.5 55.5z" />
<glyph unicode="@" horiz-adv-x="1419" d="M256 163v879q0 94 31 169.5t90 129t143.5 81.5t191.5 28q101 0 184.5 -28t142.5 -81.5t91.5 -128.5t32.5 -170v-880q0 -82 -51.5 -129t-144.5 -47q-60 0 -95.5 21t-53.5 46q-17 -27 -52.5 -47t-86.5 -20q-37 0 -67.5 14.5t-52 39.5t-33.5 56.5t-12 65.5v882 q0 82 51.5 129.5t145.5 47.5q44 0 80 -12.5t62.5 -35.5t40 -55.5t13.5 -73.5v-882q0 -28 14.5 -45t45.5 -17q30 0 44.5 17t14.5 45v848q0 74 -19 133.5t-58.5 102.5t-98.5 66t-140 23q-78 0 -137 -23t-99 -66t-60.5 -103t-20.5 -133v-814q0 -74 19 -134t58.5 -103t99 -66 t140.5 -23h116q9 0 15.5 -5t6.5 -16v-34q0 -27 -14.5 -43.5t-37.5 -16.5h-88q-101 0 -185 28.5t-142.5 81.5t-91.5 128.5t-33 169.5zM651 162q0 -28 14.5 -45t45.5 -17q30 0 44.5 17t14.5 45v882q0 28 -14.5 45t-44.5 17t-45 -17t-15 -45v-882z" />
<glyph unicode="A" horiz-adv-x="865" d="M231 26l123 1387q1 8 6.5 14.5t14.5 6.5h115q9 0 14.5 -6.5t6.5 -14.5l123 -1387q1 -9 -5.5 -17.5t-21.5 -8.5h-50q-26 0 -42.5 15t-18.5 36l-12 196h-103l-11 -196q-2 -22 -19 -36.5t-43 -14.5h-50q-14 0 -21 8t-6 18zM387 361h90l-45 766z" />
<glyph unicode="B" d="M256 22v1390q0 9 5 15.5t15 6.5h179q44 0 79.5 -12.5t61.5 -35.5t39.5 -56t13.5 -73v-408q0 -45 -18 -74t-49 -46q32 -17 49.5 -45.5t17.5 -72.5v-435q0 -82 -53 -129t-143 -47h-177q-10 0 -15 6t-5 16zM393 115h60q31 0 45 16.5t14 44.5v435q0 27 -14.5 44.5t-43.5 17.5 h-61v-558zM393 787h60q31 0 45 17.5t14 44.5v408q0 28 -14.5 45t-44.5 17h-60v-532z" />
<glyph unicode="C" d="M256 160v1114q0 82 51.5 129t145.5 47q44 0 80 -12.5t62.5 -35.5t40 -55t13.5 -73v-459q0 -9 -5 -15t-15 -6h-58q-30 0 -44.5 16.5t-14.5 43.5v420q0 28 -14.5 44.5t-44.5 16.5t-45 -16.5t-15 -44.5v-1114q0 -28 14.5 -45t45.5 -17q30 0 44.5 17t14.5 45v406 q0 27 14.5 44t42.5 18h60q10 0 15 -6.5t5 -15.5v-446q0 -82 -51.5 -129t-144.5 -47q-45 0 -81 12t-62 35t-40 55.5t-14 73.5z" />
<glyph unicode="D" d="M256 22v1390q0 9 5 15.5t15 6.5h177q90 0 143 -48t53 -129v-1081q0 -82 -51.5 -129t-144.5 -47h-177q-10 0 -15 6t-5 16zM393 115h60q31 0 45 17.5t14 43.5v1081q0 27 -14 44.5t-45 17.5h-60v-1204z" />
<glyph unicode="E" horiz-adv-x="798" d="M256 22v1390q0 9 5 15.5t15 6.5h274q9 0 15 -5.5t6 -15.5v-35q0 -27 -14 -43t-38 -16h-126v-552h136q9 0 15.5 -5t6.5 -16v-34q0 -27 -14.5 -43.5t-37.5 -16.5h-106v-537h126q24 0 38 -16.5t14 -43.5v-35q0 -10 -6 -15t-15 -5h-274q-10 0 -15 6t-5 16z" />
<glyph unicode="F" horiz-adv-x="798" d="M256 22v1390q0 9 5 15.5t15 6.5h274q9 0 15 -5.5t6 -15.5v-35q0 -27 -14 -43t-38 -16h-126v-552h136q9 0 15.5 -5t6.5 -16v-34q0 -27 -14.5 -43.5t-37.5 -16.5h-106v-592q0 -27 -14.5 -43.5t-44.5 -16.5h-58q-10 0 -15 6t-5 16z" />
<glyph unicode="G" d="M256 160v1114q0 82 51.5 129t145.5 47q44 0 80 -12.5t62.5 -35.5t40 -55t13.5 -73v-501q0 -9 -5 -15t-15 -6h-58q-30 0 -44.5 16.5t-14.5 43.5v462q0 28 -14.5 44.5t-44.5 16.5t-45 -16.5t-15 -44.5v-1114q0 -28 14.5 -45t45.5 -17q30 0 44.5 17t14.5 45v371 q-28 0 -44.5 15t-16.5 45v57q0 10 6 15.5t15 5.5h157q10 0 15 -6.5t5 -15.5v-487q0 -82 -51.5 -129t-144.5 -47q-45 0 -81 12t-62 35t-40 55.5t-14 73.5z" />
<glyph unicode="H" d="M256 22v1390q0 9 5 15.5t15 6.5h58q27 0 43 -14.5t16 -38.5v-594h119v594q0 24 16.5 38.5t42.5 14.5h58q10 0 15 -6.5t5 -15.5v-1390q0 -9 -5 -15.5t-15 -6.5h-58q-30 0 -44.5 17t-14.5 43v613h-119v-613q0 -27 -14.5 -43.5t-44.5 -16.5h-58q-10 0 -15 6t-5 16z" />
<glyph unicode="I" horiz-adv-x="649" d="M256 37v1344q0 24 16.5 38.5t42.5 14.5h58q10 0 15 -6.5t5 -15.5v-1375q0 -15 -10.5 -26t-26.5 -11h-63q-15 0 -26 11t-11 26z" />
<glyph unicode="J" d="M256 160v487q0 9 5 15.5t15 6.5h60q29 0 43 -17.5t14 -44.5v-447q0 -28 15 -45t45 -17q31 0 45 17t14 45v1221q0 24 16.5 38.5t42.5 14.5h58q10 0 15 -6.5t5 -15.5v-1252q0 -41 -13.5 -73.5t-40 -55.5t-62.5 -35t-80 -12q-93 0 -145 47t-52 129z" />
<glyph unicode="K" horiz-adv-x="916" d="M256 22v1390q0 9 5 15.5t15 6.5h58q27 0 43 -14.5t16 -38.5v-593l48 6l74 588q3 22 19.5 37t42.5 15h51q14 0 20.5 -8.5t4.5 -17.5l-87 -664l92 -718q1 -9 -5.5 -17.5t-20.5 -8.5h-49q-26 0 -42.5 15t-19.5 36l-78 615l-50 6v-612q0 -27 -14.5 -43.5t-44.5 -16.5h-58 q-10 0 -15 6t-5 16z" />
<glyph unicode="L" horiz-adv-x="798" d="M256 22v1390q0 9 5 15.5t15 6.5h58q27 0 43 -14.5t16 -38.5v-1266h126q24 0 38 -16.5t14 -43.5v-35q0 -10 -6 -15t-15 -5h-274q-10 0 -15 6t-5 16z" />
<glyph unicode="M" horiz-adv-x="1100" d="M256 22v1390q0 9 5 15.5t15 6.5h70q14 0 30 -6t30.5 -27.5t26 -63t19.5 -112.5l89 -867l90 867q7 71 17 112t22.5 62.5t27 28t28.5 6.5h78q10 0 15 -6.5t5 -15.5v-1390q0 -9 -5 -15.5t-15 -6.5h-58q-30 0 -45 17t-14 43l31 1004l-106 -1013q-2 -22 -23.5 -36.5 t-46.5 -14.5h-2q-26 0 -47.5 15t-23.5 36l-107 1015l31 -1006q1 -27 -14 -43.5t-45 -16.5h-58q-10 0 -15 6t-5 16z" />
<glyph unicode="N" horiz-adv-x="915" d="M256 22v1390q0 9 5 15.5t15 6.5h58q26 0 41.5 -14t17.5 -37q2 -16 9.5 -66.5t18.5 -121t24.5 -152.5t27 -161.5t26.5 -148t23 -112.5l-10 760q0 24 16.5 38.5t42.5 14.5h58q10 0 15 -6.5t5 -15.5v-1390q0 -9 -5 -15.5t-15 -6.5h-58q-27 0 -41 13t-17 34q0 12 -7.5 57.5 t-19.5 109.5t-26.5 140.5t-28.5 154t-27 148t-21 121.5l10 -718q1 -27 -14 -43.5t-45 -16.5h-58q-10 0 -15 6t-5 16z" />
<glyph unicode="O" d="M256 160v1114q0 82 51.5 129t145.5 47q44 0 80 -12.5t62.5 -35.5t40 -55t13.5 -73v-1114q0 -82 -51.5 -129t-144.5 -47q-45 0 -81 12t-62 35t-40 55.5t-14 73.5zM393 160q0 -28 14.5 -45t45.5 -17q30 0 44.5 17t14.5 45v1114q0 28 -14.5 44.5t-44.5 16.5t-45 -16.5 t-15 -44.5v-1114z" />
<glyph unicode="P" d="M256 22v1390q0 9 5 15.5t15 6.5h177q44 0 80 -12.5t62.5 -35.5t40 -55.5t13.5 -73.5v-543q0 -82 -51.5 -129t-144.5 -47h-60v-478q0 -27 -14.5 -43.5t-44.5 -16.5h-58q-10 0 -15 6t-5 16zM393 652h60q31 0 45 17.5t14 44.5v543q0 27 -14 44.5t-45 17.5h-60v-667z" />
<glyph unicode="Q" d="M256 160v1114q0 82 51.5 129t145.5 47q44 0 80 -12.5t62.5 -35.5t40 -55t13.5 -73v-1114q0 -73 -41 -118t-114 -55v-74q0 -9 -5.5 -15.5t-15.5 -6.5h-57q-30 0 -45 17t-15 44v49q-48 20 -74 60.5t-26 98.5zM393 166h41q27 0 42.5 -15.5t17.5 -38.5q18 15 18 48v1114 q0 28 -14.5 44.5t-44.5 16.5t-45 -16.5t-15 -44.5v-1108z" />
<glyph unicode="R" d="M256 22v1390q0 9 5 15.5t15 6.5h179q44 0 79.5 -13t61.5 -35.5t39.5 -55.5t13.5 -73v-485q0 -45 -18 -73.5t-49 -46.5q32 -17 49.5 -45t17.5 -72v-513q0 -9 -5 -15.5t-15 -6.5h-58q-30 0 -44.5 17t-14.5 43v475q0 28 -14 44.5t-45 16.5h-60v-536q0 -27 -14.5 -43.5 t-44.5 -16.5h-58q-10 0 -15 6t-5 16zM393 711h60q31 0 45 17t14 44v485q0 27 -15 44.5t-44 17.5h-60v-608z" />
<glyph unicode="S" d="M256 160v313q0 9 5 15.5t15 6.5h58q30 0 44.5 -17t14.5 -44v-274q0 -28 15 -45t45 -17q31 0 45 17t14 45q0 131 -19 229t-47.5 178.5t-61.5 153t-61.5 152t-47.5 176t-19 225.5q0 41 14 73t40 55t62 35.5t81 12.5q93 0 144.5 -47t51.5 -129v-313q0 -9 -5 -15.5t-15 -6.5 h-58q-30 0 -44.5 17t-14.5 43v275q0 28 -15 44.5t-44 16.5q-31 0 -45.5 -16.5t-14.5 -44.5q0 -93 11 -168t29.5 -138.5t41.5 -119.5t46.5 -112t46.5 -114.5t41.5 -127t29 -150.5t10.5 -184q0 -41 -13.5 -73.5t-40 -55.5t-62.5 -35t-80 -12q-93 0 -145 47t-52 129z" />
<glyph unicode="T" horiz-adv-x="823" d="M227 1378v35q0 10 6.5 15.5t15.5 5.5h325q9 0 15.5 -5.5t6.5 -15.5v-35q0 -27 -14.5 -43t-37.5 -16h-64v-1282q0 -15 -10.5 -26t-26.5 -11h-63q-15 0 -26 11t-11 26v1282h-63q-24 0 -38.5 16.5t-14.5 42.5z" />
<glyph unicode="U" d="M256 160v1252q0 9 5 15.5t15 6.5h58q27 0 43 -14.5t16 -38.5v-1221q0 -28 14.5 -45t45.5 -17q30 0 44.5 17t14.5 45v1221q0 24 16.5 38.5t42.5 14.5h58q10 0 15 -6.5t5 -15.5v-1252q0 -82 -51.5 -129t-144.5 -47q-45 0 -81 12t-62 35t-40 55.5t-14 73.5z" />
<glyph unicode="V" horiz-adv-x="865" d="M231 1408q-1 9 6 17.5t21 8.5h50q26 0 43 -15t19 -37l62 -1076l64 1076q2 22 18.5 37t42.5 15h50q14 0 21 -8.5t6 -17.5l-123 -1388q-1 -8 -6 -14t-15 -6h-115q-9 0 -14.5 6t-6.5 14z" />
<glyph unicode="W" horiz-adv-x="1177" d="M231 1408q-1 9 6 17.5t21 8.5h50q26 0 43 -15t19 -37l60 -1041l87 1031q2 28 23.5 39.5t47.5 11.5h2q26 0 47 -12t23 -39l86 -1031l62 1041q2 22 19 37t42 15h51q14 0 20.5 -8.5t5.5 -17.5l-123 -1388q-1 -8 -6 -14t-14 -6h-116q-9 0 -14 6t-6 14l-78 1096l-78 -1096 q-1 -8 -6 -14t-15 -6h-115q-9 0 -14.5 6t-6.5 14z" />
<glyph unicode="X" horiz-adv-x="836" d="M236 22l79 695l-79 695q-1 9 4.5 15.5t15.5 6.5h57q30 0 44 -17t16 -44l45 -506l46 506q2 27 16 44t43 17h58q10 0 15 -6.5t5 -15.5l-80 -695l80 -695q1 -9 -4.5 -15.5t-15.5 -6.5h-58q-30 0 -43.5 17t-15.5 43l-46 506l-45 -506q-2 -27 -16 -43.5t-44 -16.5h-57 q-10 0 -16 6t-4 16z" />
<glyph unicode="Y" horiz-adv-x="823" d="M229 1412q-2 9 4.5 15.5t16.5 6.5h57q30 0 44 -17t16 -44l45 -506l46 506q2 27 15.5 44t43.5 17h57q10 0 16.5 -6.5t4.5 -15.5l-115 -803v-572q0 -15 -10.5 -26t-26.5 -11h-63q-15 0 -26 11t-11 26v572z" />
<glyph unicode="Z" horiz-adv-x="821" d="M236 22l161 1297h-97q-24 0 -38 16.5t-14 42.5v35q0 10 6 16t15 5h216q38 0 51 -15t10 -39l-167 -1265h130q24 0 38 -16.5t14 -43.5v-35q0 -10 -6 -15t-15 -5h-284q-10 0 -16 6t-4 16z" />
<glyph unicode="[" horiz-adv-x="716" d="M256 -90v1614q0 9 5 15t15 6h214q9 0 15.5 -5t6.5 -15v-32q0 -27 -14.5 -43t-37.5 -16h-67v-1434h67q24 0 38 -16.5t14 -42.5v-32q0 -10 -6 -15.5t-16 -5.5h-214q-10 0 -15 6.5t-5 15.5z" />
<glyph unicode="\" horiz-adv-x="796" d="M238 1412q-2 9 4 15.5t16 6.5h66q23 0 38 -16t18 -41l181 -1357q2 -9 -4 -15t-16 -6h-66q-23 0 -38 16t-18 40z" />
<glyph unicode="]" horiz-adv-x="716" d="M205 -59q0 27 14 43t38 16h67v1434h-67q-24 0 -38 16t-14 43v32q0 10 6 15t15 5h214q10 0 15.5 -6t5.5 -15v-1614q0 -9 -5 -15.5t-16 -6.5h-214q-9 0 -15 5.5t-6 15.5v32z" />
<glyph unicode="^" horiz-adv-x="780" d="M233 508l82 288q3 11 11.5 17.5t19.5 6.5h87q12 0 20 -6.5t11 -17.5l82 -288q3 -10 -4 -17.5t-20 -7.5h-28q-30 0 -47 17t-22 43l-36 171l-35 -171q-5 -26 -21.5 -43t-46.5 -17h-29q-12 0 -19.5 7.5t-4.5 17.5z" />
<glyph unicode="_" horiz-adv-x="848" d="M228 -59q0 27 14.5 43t38.5 16h320q9 0 15.5 -5t6.5 -15v-35q0 -27 -14.5 -43.5t-38.5 -16.5h-320q-9 0 -15.5 5.5t-6.5 15.5v35z" />
<glyph unicode="`" horiz-adv-x="679" d="M254 1509q-9 20 1.5 36.5t37.5 16.5h51q10 0 17.5 -6.5t9.5 -15.5l51 -243q2 -9 -4 -15t-17 -6h-14q-27 0 -38.5 16t-20.5 36z" />
<glyph unicode="a" horiz-adv-x="840" d="M229 26l113 1162q1 8 6 14t14 6h116q9 0 14.5 -6t6.5 -14l112 -1162q1 -9 -5.5 -17.5t-20.5 -8.5h-50q-26 0 -43 15t-19 36l-10 165h-85l-10 -165q-2 -22 -19 -36.5t-43 -14.5h-50q-14 0 -21 8t-6 18zM385 331h71l-36 582z" />
<glyph unicode="b" d="M256 22v1165q0 9 5 15t15 6h177q44 0 80 -12t62.5 -35t40 -55.5t13.5 -73.5v-296q0 -45 -18 -73.5t-49 -46.5q32 -17 49.5 -45t17.5 -72v-323q0 -82 -53 -129t-143 -47h-177q-10 0 -15 6t-5 16zM393 115h60q32 0 45.5 17.5t13.5 43.5v323q0 27 -14.5 44t-44.5 17h-60 v-445zM393 675h60q31 0 45 17.5t14 43.5v296q0 28 -14.5 45t-44.5 17h-60v-419z" />
<glyph unicode="c" d="M256 160v889q0 82 51.5 129t145.5 47q44 0 80 -12.5t62.5 -35.5t40 -55t13.5 -73v-368q0 -9 -5 -15.5t-15 -6.5h-58q-30 0 -44.5 17t-14.5 44v329q0 28 -14.5 44.5t-44.5 16.5t-45 -17t-15 -44v-889q0 -28 14.5 -45t45.5 -17q30 0 44.5 17t14.5 45v314q0 27 14.5 44.5 t42.5 17.5h60q10 0 15 -6.5t5 -15.5v-354q0 -82 -51.5 -129t-144.5 -47q-45 0 -81 12t-62 35t-40 55.5t-14 73.5z" />
<glyph unicode="d" d="M256 22v1165q0 9 5 15t15 6h179q44 0 79.5 -12t61.5 -35t39.5 -56t13.5 -73v-856q0 -82 -51.5 -129t-144.5 -47h-177q-10 0 -15 6t-5 16zM393 115h60q31 0 45 17.5t14 43.5v856q0 27 -14 44.5t-45 17.5h-60v-979z" />
<glyph unicode="e" horiz-adv-x="798" d="M256 22v1165q0 9 5 15t15 6h274q9 0 15 -5t6 -15v-35q0 -27 -14 -43t-38 -16h-126v-440h136q9 0 15.5 -5t6.5 -15v-35q0 -27 -14.5 -43t-37.5 -16h-106v-425h126q24 0 38 -16.5t14 -43.5v-35q0 -10 -6 -15t-15 -5h-274q-10 0 -15 6t-5 16z" />
<glyph unicode="f" horiz-adv-x="798" d="M256 22v1165q0 9 5 15t15 6h274q9 0 15 -5t6 -15v-35q0 -27 -14 -43t-38 -16h-126v-440h136q9 0 15.5 -5t6.5 -15v-35q0 -27 -14.5 -43t-37.5 -16h-106v-480q0 -27 -14.5 -43.5t-44.5 -16.5h-58q-10 0 -15 6t-5 16z" />
<glyph unicode="g" d="M256 160v889q0 82 51.5 129t145.5 47q44 0 80 -12.5t62.5 -35.5t40 -55t13.5 -73v-389q0 -9 -5 -15t-15 -6h-58q-30 0 -44.5 17t-14.5 43v350q0 28 -14.5 44.5t-44.5 16.5t-45 -17t-15 -44v-889q0 -28 14.5 -45t45.5 -17q30 0 44.5 17t14.5 45v281q-61 0 -61 60v35 q0 10 6 15t15 5h157q10 0 15 -6t5 -15v-375q0 -82 -51.5 -129t-144.5 -47q-45 0 -81 12t-62 35t-40 55.5t-14 73.5z" />
<glyph unicode="h" d="M256 22v1165q0 9 5 15t15 6h58q27 0 43 -14t16 -38v-491h119v491q0 24 16.5 38t42.5 14h58q10 0 15 -6t5 -15v-1165q0 -9 -5 -15.5t-15 -6.5h-58q-30 0 -44.5 17t-14.5 43v490h-119v-490q0 -27 -14.5 -43.5t-44.5 -16.5h-58q-10 0 -15 6t-5 16z" />
<glyph unicode="i" horiz-adv-x="649" d="M256 37v1119q0 24 16.5 38t42.5 14h58q10 0 15 -6t5 -15v-1150q0 -15 -10.5 -26t-26.5 -11h-63q-15 0 -26 11t-11 26z" />
<glyph unicode="j" d="M256 160v375q0 9 5 15t15 6h60q29 0 43 -17.5t14 -43.5v-335q0 -28 15 -45t45 -17q31 0 45 17t14 45v996q0 24 16.5 38t42.5 14h58q10 0 15 -6t5 -15v-1027q0 -41 -13.5 -73.5t-40 -55.5t-62.5 -35t-80 -12q-93 0 -145 47t-52 129z" />
<glyph unicode="k" horiz-adv-x="916" d="M256 22v1165q0 9 5 15t15 6h58q27 0 43 -14t16 -38v-480l48 5l74 476q3 22 19.5 36.5t42.5 14.5h51q14 0 20.5 -8t4.5 -17l-87 -551l92 -606q1 -9 -5.5 -17.5t-20.5 -8.5h-49q-26 0 -42.5 15t-19.5 36l-78 502l-50 6v-499q0 -27 -14.5 -43.5t-44.5 -16.5h-58q-10 0 -15 6 t-5 16z" />
<glyph unicode="l" horiz-adv-x="798" d="M256 22v1165q0 9 5 15t15 6h58q27 0 43 -14t16 -38v-1041h126q24 0 38 -16.5t14 -43.5v-35q0 -10 -6 -15t-15 -5h-274q-10 0 -15 6t-5 16z" />
<glyph unicode="m" horiz-adv-x="1060" d="M256 22v1165q0 9 5 15t15 6h70q14 0 28.5 -5.5t27 -27t22.5 -63t17 -113.5l89 -641l80 641q7 71 17.5 112.5t23 63t26.5 27.5t29 6h77q10 0 15.5 -6t5.5 -15v-1165q0 -9 -5 -15.5t-16 -6.5h-57q-30 0 -45 17t-14 43l30 779l-95 -788q-2 -22 -23.5 -36.5t-47.5 -14.5h-2 q-26 0 -47 15t-23 36l-97 790l31 -781q1 -27 -14 -43.5t-45 -16.5h-58q-10 0 -15 6t-5 16z" />
<glyph unicode="n" d="M256 22v1165q0 9 5 15t15 6h58q26 0 41.5 -13.5t17.5 -36.5q2 -16 9.5 -58.5t18.5 -100t24.5 -125t27 -134.5t26.5 -127.5t23 -104.5l-10 648q0 24 16.5 38t42.5 14h58q10 0 15 -6t5 -15v-1165q0 -9 -5 -15.5t-15 -6.5h-58q-27 0 -41 13t-17 34q0 12 -7.5 49t-19.5 89 t-26.5 113.5t-28.5 126t-27 127t-21 114.5l10 -606q1 -27 -14 -43.5t-45 -16.5h-58q-10 0 -15 6t-5 16z" />
<glyph unicode="o" d="M256 160v889q0 82 51.5 129t145.5 47q44 0 80 -12.5t62.5 -35.5t40 -55t13.5 -73v-889q0 -82 -51.5 -129t-144.5 -47q-45 0 -81 12t-62 35t-40 55.5t-14 73.5zM393 160q0 -28 14.5 -45t45.5 -17q30 0 44.5 17t14.5 45v889q0 28 -14.5 44.5t-44.5 16.5t-45 -17t-15 -44 v-889z" />
<glyph unicode="p" d="M256 22v1165q0 9 5 15t15 6h177q44 0 80 -12t62.5 -35t40 -55.5t13.5 -73.5v-431q0 -82 -51.5 -129t-144.5 -47h-60v-365q0 -27 -14.5 -43.5t-44.5 -16.5h-58q-10 0 -15 6t-5 16zM393 540h60q31 0 45 17t14 44v431q0 27 -14 44.5t-45 17.5h-60v-554z" />
<glyph unicode="q" d="M256 160v889q0 82 51.5 129t145.5 47q44 0 80 -12.5t62.5 -35.5t40 -55t13.5 -73v-889q0 -73 -41 -118t-114 -55v-74q0 -9 -5.5 -15.5t-15.5 -6.5h-57q-30 0 -45 17t-15 44v49q-48 20 -74 60.5t-26 98.5zM393 166h41q27 0 42.5 -15.5t17.5 -38.5q18 15 18 48v889 q0 28 -14.5 44.5t-44.5 16.5t-45 -17t-15 -44v-883z" />
<glyph unicode="r" d="M256 22v1165q0 9 5 15t15 6h179q44 0 79.5 -12.5t61.5 -35t39.5 -55.5t13.5 -73v-373q0 -45 -18 -73.5t-49 -45.5q32 -17 49.5 -45.5t17.5 -72.5v-400q0 -9 -5 -15.5t-15 -6.5h-58q-30 0 -44.5 17t-14.5 43v362q0 28 -14 44.5t-45 16.5h-60v-423q0 -27 -14.5 -43.5 t-44.5 -16.5h-58q-10 0 -15 6t-5 16zM393 598h60q31 0 45 17.5t14 43.5v373q0 27 -15 44.5t-44 17.5h-60v-496z" />
<glyph unicode="s" d="M256 160v252q0 9 5 15t15 6h58q30 0 44.5 -17t14.5 -43v-213q0 -28 15 -45t45 -17q31 0 45 17t14 45q0 98 -11 167.5t-29 120.5t-41 88t-47 71.5t-47 71.5t-41 87t-29 117.5t-11 165.5q0 41 14 73t40 55t62 35.5t81 12.5q93 0 144.5 -47.5t51.5 -128.5v-242 q0 -9 -5 -15.5t-15 -6.5h-58q-30 0 -44.5 17t-14.5 44v203q0 28 -15 44.5t-44 16.5q-31 0 -45.5 -17t-14.5 -44q0 -83 11 -143.5t29.5 -106.5t41.5 -83t46.5 -74t46.5 -78.5t41.5 -97t29 -130t10.5 -176.5q0 -41 -13.5 -73.5t-40 -55.5t-62.5 -35t-80 -12q-93 0 -145 47 t-52 129z" />
<glyph unicode="t" horiz-adv-x="823" d="M227 1153v35q0 10 6.5 15t15.5 5h325q9 0 15.5 -5t6.5 -15v-35q0 -27 -14.5 -43t-37.5 -16h-64v-1057q0 -15 -10.5 -26t-26.5 -11h-63q-15 0 -26 11t-11 26v1057h-63q-24 0 -38.5 16t-14.5 43z" />
<glyph unicode="u" d="M256 160v1027q0 9 5 15t15 6h58q27 0 43 -14t16 -38v-996q0 -28 14.5 -45t45.5 -17q30 0 44.5 17t14.5 45v996q0 24 16.5 38t42.5 14h58q10 0 15 -6t5 -15v-1027q0 -82 -51.5 -129t-144.5 -47q-45 0 -81 12t-62 35t-40 55.5t-14 73.5z" />
<glyph unicode="v" horiz-adv-x="865" d="M242 1183q-1 9 5.5 17t20.5 8h50q26 0 43 -14.5t19 -36.5l52 -864l53 864q2 22 19 36.5t43 14.5h50q14 0 21 -8t6 -17l-113 -1163q-1 -8 -6 -14t-15 -6h-115q-9 0 -14.5 6t-6.5 14z" />
<glyph unicode="w" horiz-adv-x="1121" d="M230 1183q-1 9 6 17t21 8h50q26 0 43 -14.5t19 -36.5l54 -885l61 885q2 20 18 34.5t40 16.5h33q26 0 43 -14.5t19 -36.5l61 -885l55 885q2 22 18.5 36.5t42.5 14.5h50q14 0 21 -8t6 -17l-113 -1163q-1 -8 -6 -14t-14 -6h-116q-9 0 -14 6t-6 14l-62 747l-60 -747 q-1 -8 -6.5 -14t-14.5 -6h-115q-9 0 -14.5 6t-6.5 14z" />
<glyph unicode="x" horiz-adv-x="836" d="M245 1187q-1 9 4.5 15t15.5 6h58q30 0 43.5 -16.5t15.5 -43.5l36 -404l37 404q2 27 15.5 43.5t43.5 16.5h57q10 0 15.5 -6t5.5 -15l-71 -583l69 -582q1 -9 -4.5 -15.5t-16.5 -6.5h-57q-30 0 -43.5 17t-15.5 43l-35 404l-35 -404q-2 -27 -16 -43.5t-43 -16.5h-58 q-10 0 -15.5 6t-4.5 16l69 582z" />
<glyph unicode="y" horiz-adv-x="823" d="M239 1187q-2 9 4 15t16 6h57q30 0 44 -16.5t16 -43.5l36 -434l37 434q2 27 15.5 43.5t43.5 16.5h57q10 0 16.5 -6t4.5 -15l-106 -701v-449q0 -15 -10.5 -26t-26.5 -11h-63q-15 0 -26 11t-11 26v449z" />
<glyph unicode="z" horiz-adv-x="821" d="M236 22l161 1072h-97q-24 0 -38 16t-14 43v35q0 10 6 15.5t15 4.5h216q38 0 51 -14.5t10 -38.5l-167 -1040h130q24 0 38 -16.5t14 -43.5v-35q0 -10 -6 -15t-15 -5h-284q-10 0 -16 6t-4 16z" />
<glyph unicode="{" horiz-adv-x="823" d="M225 691v51q0 10 6.5 15.5t15.5 5.5q17 0 34 12t17 48q0 28 -1.5 49.5t-3 46t-2.5 59t-1 88.5q0 110 13 198.5t47.5 151t94.5 96t152 33.5q9 0 15 -5t6 -15v-16q0 -26 -8 -36t-21.5 -15t-30 -11t-33.5 -23q-28 -28 -46 -60t-30 -76.5t-16.5 -105t-4.5 -145.5 q0 -18 0.5 -44t1 -54.5t1 -55t0.5 -45.5q0 -36 -11 -59t-27.5 -37t-33.5 -19t-27 -6q11 -1 28 -7.5t33 -19.5t27 -36t11 -58q0 -19 -0.5 -46t-1 -55t-1 -54t-0.5 -45q0 -85 4.5 -145.5t16.5 -105t30.5 -76.5t45.5 -60q16 -17 33 -22.5t30.5 -11.5t21.5 -15.5t8 -35.5v-15 q0 -10 -6 -15.5t-15 -5.5q-92 0 -152 34t-94.5 96.5t-47.5 151t-13 198.5q0 54 1 88t2.5 59t3 46.5t1.5 48.5q0 33 -15 47t-36 14q-9 0 -15.5 5t-6.5 15z" />
<glyph unicode="|" horiz-adv-x="657" d="M256 -75v1583q0 15 11 26t26 11h63q15 0 26 -10.5t11 -26.5v-1583q0 -15 -10.5 -26t-26.5 -11h-63q-15 0 -26 11t-11 26z" />
<glyph unicode="}" horiz-adv-x="817" d="M205 -76q0 26 8 35.5t21.5 15.5t30 11.5t33.5 22.5q28 28 46 60t30 76.5t16.5 105t4.5 145.5q0 18 -0.5 44.5t-1 54.5t-1 55t-0.5 46q0 35 11.5 58t27 36t32.5 19.5t29 7.5q-11 1 -28 6t-33 19t-27.5 37t-11.5 59q0 19 0.5 45.5t1 55t1 54.5t0.5 44q0 85 -4.5 145.5 t-16.5 105t-30 77t-46 59.5q-17 16 -33.5 22.5t-30 11.5t-21.5 15.5t-8 35.5v16q0 10 6 15t15 5q92 0 152 -33.5t94.5 -96t48 -151t13.5 -198.5q0 -54 -2 -88.5t-3.5 -59t-2.5 -46t-1 -49.5q0 -36 17 -48t35 -12q9 0 15 -5t6 -16v-51q0 -10 -6 -15t-15 -5q-22 0 -37 -14 t-15 -47q0 -28 1 -49t2.5 -46t3.5 -59t2 -88q0 -110 -13.5 -198.5t-48 -151t-94.5 -96.5t-152 -34q-9 0 -15 5.5t-6 15.5v15z" />
<glyph unicode="~" horiz-adv-x="848" d="M228 612v26q0 25 12 41t31 26.5t42.5 14.5t46.5 4q25 0 43.5 -5.5t34.5 -12.5t31.5 -12.5t36.5 -5.5q16 0 27 3t19.5 6.5t18 7t23.5 3.5q12 0 20.5 -6t8.5 -17v-26q0 -25 -12 -41t-31 -26t-42.5 -14.5t-47.5 -4.5q-22 0 -39.5 6t-34.5 12.5t-34 12t-37 5.5 q-17 0 -27.5 -3t-19 -6.5t-18 -6.5t-23.5 -3q-12 0 -20.5 5.5t-8.5 16.5z" />
<glyph unicode="&#xa1;" horiz-adv-x="633" d="M231 1264q0 -36 22.5 -56t62.5 -20q41 0 63.5 20t22.5 56t-22.5 56t-63.5 20q-40 0 -62.5 -20.5t-22.5 -55.5zM265 -90q0 -9 5 -15.5t16 -6.5h57q27 0 43.5 14.5t15.5 38.5l-32 1159q-1 24 -17 38t-43 14h-24q-10 0 -15.5 -6t-5.5 -16v-1220z" />
<glyph unicode="&#xa2;" d="M256 160v889q0 68 36.5 111.5t102.5 58.5v97q0 9 5.5 15t15.5 6h35q27 0 43 -14t16 -38v-66q65 -14 102 -58.5t37 -111.5v-348q0 -9 -5 -15t-15 -6h-58q-30 0 -44.5 17t-14.5 43v309q0 28 -14.5 44.5t-44.5 16.5t-45 -17t-15 -44v-889q0 -28 14.5 -45t45.5 -17 q30 0 44.5 17t14.5 45v294q0 27 14.5 44t42.5 17h60q10 0 15 -6t5 -15v-334q0 -69 -36 -113t-103 -57v-98q0 -9 -5 -15t-16 -6h-34q-27 0 -43.5 14.5t-16.5 37.5v67q-65 14 -102 58t-37 112z" />
<glyph unicode="&#xa3;" horiz-adv-x="894" d="M197 20v48q0 24 9 40t20.5 30.5t20.5 29.5t9 39v449h-7q-24 0 -38 16.5t-14 43.5v35q0 10 6 15t15 5h38v503q0 82 51.5 129t145.5 47q44 0 80 -12.5t62.5 -35.5t40 -55t13.5 -73v-286q0 -9 -5 -15t-15 -6h-58q-30 0 -44.5 16.5t-14.5 43.5v247q0 28 -14.5 44.5 t-44.5 16.5t-45 -16.5t-15 -44.5v-503h116q9 0 15 -5t6 -15v-35q0 -27 -14 -43.5t-38 -16.5h-85v-436q0 -24 -7 -42.5t-15 -33.5q-10 -16 -23 -29h249q24 0 38 -16.5t14 -43.5v-35q0 -10 -6 -15t-15 -5h-410q-9 0 -15 5t-6 15z" />
<glyph unicode="&#xa4;" d="M221 429l48 152q-13 31 -13 73v620q0 20 3 38.5t10 35.5l-48 150q-2 9 4 15.5t17 6.5h34q23 0 36 -16.5t21 -40.5l11 -36q47 23 109 23q63 0 111 -26l13 39q8 24 20.5 40.5t35.5 16.5h35q10 0 16 -6.5t4 -15.5l-51 -157q12 -31 12 -67v-620q0 -39 -12 -69l51 -156 q2 -9 -4 -15t-16 -6h-35q-23 0 -35.5 16t-20.5 40l-13 39q-46 -25 -111 -25q-62 0 -108 24l-12 -38q-8 -24 -21 -40t-36 -16h-34q-10 0 -16.5 6t-4.5 15zM393 654q0 -28 14.5 -44.5t45.5 -16.5q30 0 44.5 17t14.5 44v620q0 28 -14.5 44.5t-44.5 16.5t-45 -16.5t-15 -44.5 v-620z" />
<glyph unicode="&#xa5;" horiz-adv-x="823" d="M229 1412q-2 9 4.5 15.5t16.5 6.5h57q30 0 44 -17t16 -44l45 -506l46 506q2 27 15.5 44t43.5 17h57q10 0 16.5 -6.5t4.5 -15.5l-115 -803v-70h97q9 0 15 -5.5t6 -15.5v-35q0 -27 -14.5 -43t-37.5 -16h-66v-59h81q9 0 15.5 -5.5t6.5 -15.5v-35q0 -27 -14.5 -43t-38.5 -16 h-50v-213q0 -15 -10.5 -26t-26.5 -11h-63q-15 0 -26 11t-11 26v213h-42q-24 0 -38 16.5t-14 42.5v35q0 10 6 15.5t15 5.5h73v59h-57q-24 0 -38.5 16.5t-14.5 42.5v35q0 10 6.5 15.5t15.5 5.5h88v70z" />
<glyph unicode="&#xa6;" horiz-adv-x="657" d="M256 -75v698q0 24 16.5 38t42.5 14h58q10 0 15 -6t5 -16v-728q0 -15 -10.5 -26t-26.5 -11h-63q-15 0 -26 11t-11 26zM256 780v728q0 15 11 26t26 11h63q15 0 26 -10.5t11 -26.5v-697q0 -24 -16.5 -38t-42.5 -14h-58q-10 0 -15 6t-5 15z" />
<glyph unicode="&#xa7;" d="M256 160v149q0 9 5 15.5t15 6.5h58q30 0 44.5 -17t14.5 -44v-110q0 -28 15 -45t45 -17q31 0 45 17t14 45q0 80 -19 135.5t-47.5 99t-61.5 80.5t-61.5 79t-47.5 96t-19 132q0 68 37.5 112t101.5 58q-26 31 -50 61.5t-44 68t-32.5 84t-12.5 108.5q0 41 14 73t40 55t62 35.5 t81 12.5q93 0 144.5 -47t51.5 -129v-119q0 -9 -5 -15t-15 -6h-58q-30 0 -44.5 16.5t-14.5 43.5v80q0 28 -15 44.5t-44 16.5q-31 0 -45.5 -16.5t-14.5 -44.5q0 -59 19 -104t47.5 -83.5t61.5 -77.5t61.5 -88.5t47.5 -114.5t19 -155q0 -59 -28.5 -100t-78.5 -61q22 -29 41 -61 t34 -72t23.5 -88.5t8.5 -108.5q0 -41 -13.5 -73.5t-40 -55.5t-62.5 -35t-80 -12q-93 0 -145 47t-52 129zM393 782q0 -68 23.5 -116.5t57.5 -91.5q19 9 28.5 32t9.5 45q0 71 -14.5 121.5t-37.5 90.5q-2 0 -3.5 0.5t-3.5 0.5q-15 0 -26.5 -7.5t-19 -19.5t-11 -27t-3.5 -28z " />
<glyph unicode="&#xa8;" horiz-adv-x="854" d="M273 1331q0 28 17.5 44t49.5 16t49.5 -16t17.5 -44t-17.5 -44t-49.5 -16t-49.5 16.5t-17.5 43.5zM438 1331q0 28 17.5 44t48.5 16q33 0 50 -16t17 -44t-17 -44t-50 -16q-31 0 -48.5 16.5t-17.5 43.5z" />
<glyph unicode="&#xa9;" horiz-adv-x="1419" d="M256 163v879q0 94 31 169.5t90 129t143.5 81.5t191.5 28q106 0 190 -28.5t142.5 -82t89.5 -128.5t31 -169v-879q0 -93 -32 -168.5t-91.5 -128.5t-143 -82t-185.5 -29h-4q-102 0 -186 29t-143 82t-91.5 128.5t-32.5 168.5zM393 196q0 -74 19 -134t58.5 -103t99 -66 t140.5 -23h2q81 0 140 23t98.5 66t58.5 103t19 134v814q0 72 -19.5 130.5t-57.5 101t-94 67t-130 26.5h-34q-74 -3 -130 -27t-93.5 -66.5t-57 -101.5t-19.5 -130v-814zM514 160v884q0 82 51.5 129.5t145.5 47.5q44 0 80 -12.5t62.5 -35.5t40 -55.5t13.5 -73.5v-384 q0 -9 -5 -15t-15 -6h-58q-30 0 -44.5 17t-14.5 43v345q0 28 -14.5 45t-44.5 17t-45 -17t-15 -45v-884q0 -28 14.5 -45t45.5 -17q30 0 44.5 17t14.5 45v330q0 27 14.5 44.5t42.5 17.5h60q10 0 15 -6t5 -16v-370q0 -82 -51.5 -129t-144.5 -47q-45 0 -81 12t-62 35t-40 55.5 t-14 73.5z" />
<glyph unicode="&#xaa;" horiz-adv-x="840" d="M233 520l109 894q2 8 6.5 14.5t13.5 6.5h112q9 0 14 -6.5t7 -14.5l108 -894q2 -9 -4.5 -17t-20.5 -8h-50q-25 0 -41 14.5t-18 35.5l-10 134h-81l-10 -134q-2 -20 -19 -35t-41 -15h-49q-14 0 -21 8t-5 17zM387 790h63l-31 395z" />
<glyph unicode="&#xab;" horiz-adv-x="886" d="M213 652l94 237q8 25 23.5 42t45.5 17h49q12 0 20 -7t4 -17l-138 -272l138 -271q4 -10 -4 -17.5t-20 -7.5h-49q-30 0 -45.5 17.5t-23.5 42.5zM409 652l94 237q8 25 23.5 42t44.5 17h50q12 0 19.5 -7t3.5 -17l-137 -272l137 -271q4 -10 -3.5 -17.5t-19.5 -7.5h-50 q-30 0 -45 17.5t-23 42.5z" />
<glyph unicode="&#xac;" horiz-adv-x="1015" d="M256 658v35q0 10 6 15.5t16 5.5h488q10 0 15 -6.5t5 -15.5v-182q0 -9 -5 -15.5t-15 -6.5h-57q-27 0 -43.5 14.5t-16.5 38.5v58h-341q-24 0 -38 16.5t-14 42.5z" />
<glyph unicode="&#xad;" horiz-adv-x="848" d="M228 609v35q0 27 14.5 43t38.5 16h320q9 0 15.5 -5t6.5 -15v-35q0 -27 -14.5 -43t-38.5 -16h-320q-9 0 -15.5 5t-6.5 15z" />
<glyph unicode="&#xae;" horiz-adv-x="1419" d="M256 163v879q0 94 31 169.5t90 129t143.5 81.5t191.5 28q106 0 190 -28.5t142.5 -82t89.5 -128.5t31 -169v-879q0 -93 -32 -168.5t-91.5 -128.5t-143 -82t-185.5 -29h-4q-102 0 -186 29t-143 82t-91.5 128.5t-32.5 168.5zM393 196q0 -74 19 -134t58.5 -103t99 -66 t140.5 -23h2q81 0 140 23t98.5 66t58.5 103t19 134v814q0 72 -19.5 130.5t-57.5 101t-94 67t-130 26.5h-34q-74 -3 -130 -27t-93.5 -66.5t-57 -101.5t-19.5 -130v-814zM514 22v1165q0 9 5 15t16 6h178q44 0 79.5 -12.5t61.5 -35t39.5 -55.5t13.5 -73v-373q0 -45 -18 -73.5 t-49 -45.5q32 -17 49.5 -45.5t17.5 -72.5v-400q0 -9 -5 -15.5t-15 -6.5h-58q-30 0 -44.5 17t-14.5 43v362q0 28 -14 44.5t-45 16.5h-60v-423q0 -27 -14.5 -43.5t-44.5 -16.5h-57q-10 0 -15.5 6t-5.5 16zM651 598h60q31 0 45 17.5t14 43.5v373q0 27 -15 44.5t-44 17.5h-60 v-496z" />
<glyph unicode="&#xaf;" horiz-adv-x="854" d="M280 1333v35q0 10 6 15.5t15 5.5h242q9 0 15 -5.5t6 -15.5v-35q0 -27 -14 -43t-38 -16h-180q-24 0 -38 16.5t-14 42.5z" />
<glyph unicode="&#xb0;" horiz-adv-x="888" d="M249 1274q0 82 51.5 129t144.5 47t145 -47t52 -129t-51.5 -129t-145.5 -47q-93 0 -144.5 47t-51.5 129zM371 1274q0 -32 16.5 -53.5t57.5 -23.5q39 0 57 22t18 55t-18 55t-57 22q-41 -2 -57.5 -23.5t-16.5 -53.5z" />
<glyph unicode="&#xb1;" horiz-adv-x="848" d="M228 387v35q0 27 14.5 43t38.5 16h320q9 0 15.5 -5t6.5 -15v-35q0 -27 -14.5 -43t-38.5 -16h-320q-9 0 -15.5 5t-6.5 15zM228 702v35q0 27 14.5 43.5t38.5 16.5h87v117q0 9 5 15.5t15 6.5h35q27 0 43 -14.5t16 -37.5v-87h119q9 0 15.5 -5.5t6.5 -15.5v-35 q0 -27 -14.5 -43t-38.5 -16h-88v-119q0 -9 -5 -15t-15 -6h-35q-27 0 -43 14t-16 38v88h-118q-9 0 -15.5 5t-6.5 15z" />
<glyph unicode="&#xb2;" horiz-adv-x="865" d="M255 535q-3 12 2 25q4 14 22 58t41.5 102.5t49.5 125t48 127.5t36.5 108t14.5 68v145q0 19 -11 29.5t-29 10.5q-40 0 -40 -40v-137q0 -36 -16 -50t-40 -14h-60q-17 0 -17 17v195q0 34 13.5 60.5t37.5 45.5t55.5 29t68.5 10q38 0 71 -10t56.5 -29t37 -46t13.5 -60v-129 q0 -28 -11 -73.5t-29 -99.5t-40 -112t-43 -110.5t-39 -95t-27 -64.5h144q24 0 38 -16.5t14 -43.5v-46q0 -10 -6 -15t-15 -5h-289q-11 0 -22 5t-18.5 14t-10.5 21z" />
<glyph unicode="&#xb3;" horiz-adv-x="863" d="M256 629v174q0 17 17 17h60q25 0 40.5 -14t15.5 -50v-117q0 -40 40 -40q18 0 29 10.5t11 29.5v216q0 27 -14.5 44t-43.5 17h-18q-24 0 -38 16.5t-14 43.5v35q0 10 6 15t15 5h48q31 0 45 17.5t14 44.5v201q0 19 -11 29.5t-29 10.5q-40 0 -40 -40v-116q0 -36 -16 -50.5 t-40 -14.5h-60q-17 0 -17 17v175q0 34 13.5 60.5t37.5 45.5t55.5 29t68.5 10q38 0 70.5 -10t56 -29t36.5 -46t13 -60v-212q0 -45 -18.5 -74t-49.5 -46q32 -17 50 -45.5t18 -72.5v-226q0 -34 -13 -60.5t-36.5 -45.5t-56 -29.5t-70.5 -10.5q-37 0 -68.5 10.5t-55.5 29.5 t-37.5 45.5t-13.5 60.5z" />
<glyph unicode="&#xb4;" horiz-adv-x="679" d="M245 1297l51 243q2 9 9 15.5t18 6.5h51q27 0 37.5 -16t1.5 -37l-74 -181q-9 -20 -21 -36t-38 -16h-15q-10 0 -16 6t-4 15z" />
<glyph unicode="&#xb6;" horiz-adv-x="1059" d="M256 488v544q0 81 38.5 128.5t127.5 47.5h350q10 0 15.5 -6t5.5 -15v-1501q0 -9 -5.5 -15.5t-15.5 -6.5h-57q-30 0 -45 17t-15 44v587h-49h-14.5t-13.5 1v-627q0 -9 -5.5 -15.5t-15.5 -6.5h-57q-30 0 -45 17t-15 44v587h-18q-46 0 -78 12.5t-51.5 35.5t-28 55t-8.5 73z " />
<glyph unicode="&#xb7;" horiz-adv-x="638" d="M231 652q0 36 22.5 56t62.5 20q41 0 63.5 -20t22.5 -56t-22.5 -56.5t-63.5 -20.5q-40 0 -62.5 20.5t-22.5 56.5z" />
<glyph unicode="&#xb8;" horiz-adv-x="752" d="M314 -286l40 286h85v-316q0 -9 -5 -15.5t-15 -6.5h-45q-27 0 -45 14.5t-15 37.5z" />
<glyph unicode="&#xb9;" horiz-adv-x="803" d="M226 1370q-2 9 2.5 16t13.5 9l135 37q2 0 4.5 0.5t4.5 0.5h47q15 0 26 -11t11 -26v-787h53q24 0 38 -16t14 -43v-35q0 -10 -6 -15t-15 -5h-305q-9 0 -15.5 5t-6.5 15v35q0 27 14.5 43t38.5 16h53v691l-32 -8q-23 -6 -40.5 6.5t-24.5 37.5z" />
<glyph unicode="&#xba;" horiz-adv-x="885" d="M255 655v625q0 79 50 124.5t140 45.5q43 0 78.5 -12t60 -34t38.5 -53.5t14 -70.5v-625q0 -79 -50 -124.5t-141 -45.5q-43 0 -78 12t-59.5 34t-38.5 53.5t-14 70.5zM388 655q0 -27 14 -43t43 -16t43.5 16.5t14.5 42.5v625q0 27 -14 43t-44 16q-29 0 -43 -16t-14 -43v-625z " />
<glyph unicode="&#xbb;" horiz-adv-x="886" d="M242 381l137 271l-137 272q-4 10 3.5 17t19.5 7h49q30 0 45.5 -17.5t23.5 -41.5l94 -237l-94 -236q-8 -25 -23.5 -42.5t-45.5 -17.5h-49q-12 0 -19.5 7.5t-3.5 17.5zM437 381l137 271l-137 272q-4 10 4 17t20 7h49q30 0 45 -17.5t24 -41.5l94 -237l-94 -236 q-8 -25 -23.5 -42.5t-45.5 -17.5h-49q-12 0 -20 7.5t-4 17.5z" />
<glyph unicode="&#xbc;" horiz-adv-x="1498" d="M275 1370q-2 9 2.5 16t13.5 9l135 37q2 0 4.5 0.5t4.5 0.5h47q15 0 26 -11t11 -26v-787h53q24 0 38 -16t14 -43v-35q0 -10 -6 -15t-15 -5h-305q-9 0 -15.5 5t-6.5 15v35q0 27 14.5 43t38.5 16h53v691l-32 -8q-23 -6 -40.5 6.5t-24.5 37.5zM584 20l242 1357q3 25 18.5 41 t38.5 16h55q10 0 16 -6.5t4 -15.5l-242 -1357q-3 -25 -18.5 -40.5t-38.5 -15.5h-55q-10 0 -16 6t-4 15zM851 207l113 689q3 22 16.5 36t34.5 14h61q19 0 18 -20l-111 -663h112v255q0 20 14.5 33t38.5 13h50q18 0 19 -19v-525q0 -19 -19 -19h-50q-27 0 -40 15t-13 39v104 h-190q-34 0 -45 14t-9 34z" />
<glyph unicode="&#xbd;" horiz-adv-x="1508" d="M275 1370q-2 9 2.5 16t13.5 9l135 37q2 0 4.5 0.5t4.5 0.5h47q15 0 26 -11t11 -26v-787h53q24 0 38 -16t14 -43v-35q0 -10 -6 -15t-15 -5h-305q-9 0 -15.5 5t-6.5 15v35q0 27 14.5 43t38.5 16h53v691l-32 -8q-23 -6 -40.5 6.5t-24.5 37.5zM584 20l242 1357q3 25 18.5 41 t38.5 16h55q10 0 16 -6.5t4 -15.5l-242 -1357q-3 -25 -18.5 -40.5t-38.5 -15.5h-55q-10 0 -16 6t-4 15zM894 41q-3 12 2 25q4 14 22 58t41.5 102.5t49.5 125t48 127.5t36.5 108t14.5 68v145q0 19 -11 29.5t-29 10.5q-40 0 -40 -40v-137q0 -36 -16 -50t-40 -14h-60 q-17 0 -17 17v195q0 34 13.5 60.5t37.5 45.5t55.5 29t68.5 10q38 0 71 -10t56.5 -29t37 -46t13.5 -60v-129q0 -28 -11 -73.5t-29 -99.5t-40 -112t-43 -110.5t-39 -95t-27 -64.5h144q24 0 38 -16.5t14 -43.5v-46q0 -10 -6 -15t-15 -5h-289q-11 0 -22 5t-18.5 14t-10.5 21z " />
<glyph unicode="&#xbe;" horiz-adv-x="1498" d="M293 629v174q0 17 17 17h60q25 0 40.5 -14t15.5 -50v-117q0 -40 40 -40q18 0 29 10.5t11 29.5v216q0 27 -14.5 44t-43.5 17h-18q-24 0 -38 16.5t-14 43.5v35q0 10 6 15t15 5h48q31 0 45 17.5t14 44.5v201q0 19 -11 29.5t-29 10.5q-40 0 -40 -40v-116q0 -36 -16 -50.5 t-40 -14.5h-60q-17 0 -17 17v175q0 34 13.5 60.5t37.5 45.5t55.5 29t68.5 10q38 0 70.5 -10t56 -29t36.5 -46t13 -60v-212q0 -45 -18.5 -74t-49.5 -46q32 -17 50 -45.5t18 -72.5v-226q0 -34 -13 -60.5t-36.5 -45.5t-56 -29.5t-70.5 -10.5q-37 0 -68.5 10.5t-55.5 29.5 t-37.5 45.5t-13.5 60.5zM584 20l242 1357q3 25 18.5 41t38.5 16h55q10 0 16 -6.5t4 -15.5l-242 -1357q-3 -25 -18.5 -40.5t-38.5 -15.5h-55q-10 0 -16 6t-4 15zM851 207l113 689q3 22 16.5 36t34.5 14h61q19 0 18 -20l-111 -663h112v255q0 20 14.5 33t38.5 13h50 q18 0 19 -19v-525q0 -19 -19 -19h-50q-27 0 -40 15t-13 39v104h-190q-34 0 -45 14t-9 34z" />
<glyph unicode="&#xbf;" d="M-153 49v312q0 52 10.5 93t26.5 74t34.5 63.5t35 61.5t28 66.5t12.5 80.5l9 299q1 24 17 38t43 14h24q10 0 15.5 -6t5.5 -16v-371q0 -62 -19.5 -109.5t-42.5 -91t-42.5 -89.5t-19.5 -107v-312q0 -28 15 -44.5t44 -16.5q31 0 45.5 16.5t14.5 44.5v247q0 27 14.5 43.5 t44.5 16.5h58q10 0 15 -6t5 -15v-286q0 -41 -14 -73t-40 -55t-62 -35.5t-81 -12.5q-93 0 -144.5 47t-51.5 129zM-29 1263q0 36 22.5 56t63.5 20q40 0 62.5 -20.5t22.5 -55.5q0 -36 -22.5 -56t-62.5 -20q-41 0 -63.5 20t-22.5 56z" />
<glyph unicode="&#xc0;" horiz-adv-x="865" d="M231 26l123 1387q1 8 6.5 14.5t14.5 6.5h115q9 0 14.5 -6.5t6.5 -14.5l123 -1387q1 -9 -5.5 -17.5t-21.5 -8.5h-50q-26 0 -42.5 15t-18.5 36l-12 196h-103l-11 -196q-2 -22 -19 -36.5t-43 -14.5h-50q-14 0 -21 8t-6 18zM293 1734q-9 20 1.5 36.5t37.5 16.5h51 q10 0 17.5 -6.5t9.5 -15.5l51 -243q2 -9 -4 -15t-17 -6h-14q-27 0 -38.5 16t-20.5 36zM387 361h90l-45 766z" />
<glyph unicode="&#xc1;" horiz-adv-x="865" d="M231 26l123 1387q1 8 6.5 14.5t14.5 6.5h115q9 0 14.5 -6.5t6.5 -14.5l123 -1387q1 -9 -5.5 -17.5t-21.5 -8.5h-50q-26 0 -42.5 15t-18.5 36l-12 196h-103l-11 -196q-2 -22 -19 -36.5t-43 -14.5h-50q-14 0 -21 8t-6 18zM386 1522l51 243q2 9 9 15.5t18 6.5h51 q27 0 37.5 -16t1.5 -37l-74 -181q-9 -20 -21 -36t-38 -16h-15q-10 0 -16 6t-4 15zM387 361h90l-45 766z" />
</font>
</defs>
</svg>
